#N canvas 179 179 719 526 12;
#X obj 76 226 noise~;
#X obj 322 330 *~;
#X obj 322 354 *~;
#X floatatom 396 257 5 0 0 2 decay - - 0;
#X obj 322 306 vline~;
#X obj 322 254 del 400;
#X floatatom 368 223 5 0 0 2 sustain - - 0;
#X obj 256 229 pack 0 f f;
#X floatatom 323 205 5 0 0 2 attack - - 0;
#X msg 256 204 0.9;
#X msg 256 253 \$2 \$3;
#X msg 290 204 200;
#X obj 322 282 pack 0 3000;
#X obj 254 85 bng 19 250 50 0 empty empty empty 0 -10 0 12 #fcfcfc #000000 #000000;
#X obj 256 180 loadbang;
#X text 307 149 ENVELOPE;
#X obj 192 347 *~;
#X obj 115 258 vcf~;
#X floatatom 127 205 5 0 0 0 - - - 0;
#X obj 127 228 sig~;
#X floatatom 171 255 5 0 0 0 - - - 0;
#X obj 192 371 outlet~;
#X obj 254 58 inlet;
#X obj 171 205 random 20;
#X obj 396 147 random 1000;
#X obj 484 146 random 700;
#X obj 564 146 random 5000;
#X obj 470 119 inlet;
#X obj 551 119 inlet;
#X obj 638 119 inlet;
#X obj 396 171 + 50;
#X obj 484 170 + 50;
#X obj 564 170 + 50;
#X obj 127 162 + 500;
#X obj 171 229 + 20;
#X obj 127 138 random 2000;
#X connect 0 0 17 0;
#X connect 1 0 2 0;
#X connect 1 0 2 1;
#X connect 2 0 16 1;
#X connect 3 0 12 1;
#X connect 4 0 1 0;
#X connect 4 0 1 1;
#X connect 5 0 12 0;
#X connect 6 0 5 1;
#X connect 7 0 10 0;
#X connect 8 0 7 2;
#X connect 9 0 7 1;
#X connect 10 0 4 0;
#X connect 11 0 7 2;
#X connect 12 0 4 0;
#X connect 13 0 7 0;
#X connect 13 0 5 0;
#X connect 13 0 23 0;
#X connect 13 0 24 0;
#X connect 13 0 25 0;
#X connect 13 0 26 0;
#X connect 13 0 35 0;
#X connect 14 0 9 0;
#X connect 14 0 11 0;
#X connect 16 0 21 0;
#X connect 17 0 16 0;
#X connect 17 1 16 0;
#X connect 18 0 19 0;
#X connect 19 0 17 1;
#X connect 20 0 17 2;
#X connect 22 0 13 0;
#X connect 23 0 34 0;
#X connect 24 0 30 0;
#X connect 25 0 31 0;
#X connect 26 0 32 0;
#X connect 27 0 24 1;
#X connect 28 0 25 1;
#X connect 29 0 26 1;
#X connect 30 0 8 0;
#X connect 31 0 6 0;
#X connect 32 0 3 0;
#X connect 33 0 18 0;
#X connect 34 0 20 0;
#X connect 35 0 33 0;
