#N canvas 50 23 544 414 12;
#X obj 222 268 *~;
#X obj 83 83 inlet~;
#X obj 222 299 outlet~;
#X obj 398 161 inlet~;
#X text 83 61 SOUND;
#X text 396 138 ENVELOPE;
#X obj 83 167 pitchshifter~;
#X obj 101 119 loadbang;
#X msg 101 143 transpose -15 \, window 11000 \, delay 0;
#X obj 398 194 *~ 0.5;
#X obj 83 194 lop~ 5000;
#X connect 0 0 2 0;
#X connect 1 0 6 0;
#X connect 3 0 9 0;
#X connect 6 0 10 0;
#X connect 7 0 8 0;
#X connect 8 0 6 1;
#X connect 9 0 0 1;
#X connect 10 0 0 0;
