#N canvas 50 23 869 700 12;
#X obj 229 297 *~;
#X obj 398 244 *~ 0.5;
#X obj 297 52 loadbang;
#X obj 297 76 metro 500;
#X obj 297 100 random 50;
#X obj 297 124 + 30;
#X obj 297 148 mtof;
#X obj 318 186 + 10;
#X obj 177 241 samphold~;
#X obj 237 210 phasor~;
#X obj 258 243 samphold~;
#X obj 318 212 phasor~;
#X obj 315 296 *~;
#X obj 229 321 *~ 0.7;
#X obj 92 156 r~ vcf-noise;
#X obj 92 180 *~ 5;
#X text 585 54 LFO, f 4;
#X obj 552 103 +~ 1;
#X obj 552 129 *~ 0.5;
#X obj 552 79 osc~ 0.01;
#X obj 552 153 s~ LFO;
#X obj 681 157 lop~ 0.5;
#X obj 681 79 noise~;
#X obj 681 106 lop~ 0.5;
#X obj 681 131 lop~ 0.5;
#X obj 770 160 lop~ 0.5;
#X obj 770 82 noise~;
#X obj 770 109 lop~ 0.5;
#X obj 770 134 lop~ 0.5;
#X text 717 45 NOISE OSCs;
#X obj 681 181 s~ lopn1;
#X obj 770 184 s~ lopn2;
#X obj 667 205 s~ noise1;
#X obj 753 209 s~ noise2;
#X obj 663 278 tgl 15 0 empty empty empty 17 7 0 10 #fcfcfc #000000
#000000 0 1;
#X obj 663 298 metro 100;
#X obj 663 323 snapshot~;
#X obj 561 370 vcf~, f 8;
#X obj 663 371 + 1;
#X obj 663 347 * 2;
#X obj 587 341 +~ 100;
#X obj 587 317 *~ 100;
#X obj 686 273 loadbang;
#X obj 561 260 r~ noise1;
#X obj 561 418 s~ vcf-noise;
#X obj 587 290 r~ LFO;
#X obj 561 394 *~ 0.1;
#X obj 94 47 adc~;
#X obj 94 71 piezo-interaction-bela;
#X obj 270 373 limiter;
#X obj 270 397 dac~;
#X connect 0 0 13 0;
#X connect 1 0 0 1;
#X connect 1 0 12 1;
#X connect 2 0 3 0;
#X connect 3 0 4 0;
#X connect 4 0 5 0;
#X connect 5 0 6 0;
#X connect 6 0 7 0;
#X connect 6 0 9 0;
#X connect 7 0 11 0;
#X connect 8 0 0 0;
#X connect 9 0 8 1;
#X connect 10 0 0 0;
#X connect 11 0 10 1;
#X connect 12 0 49 0;
#X connect 13 0 49 0;
#X connect 14 0 15 0;
#X connect 15 0 0 0;
#X connect 15 0 12 0;
#X connect 17 0 18 0;
#X connect 18 0 20 0;
#X connect 19 0 17 0;
#X connect 21 0 30 0;
#X connect 22 0 23 0;
#X connect 22 0 32 0;
#X connect 23 0 24 0;
#X connect 24 0 21 0;
#X connect 25 0 31 0;
#X connect 26 0 27 0;
#X connect 26 0 33 0;
#X connect 27 0 28 0;
#X connect 28 0 25 0;
#X connect 34 0 35 0;
#X connect 35 0 36 0;
#X connect 36 0 39 0;
#X connect 37 0 46 0;
#X connect 38 0 37 2;
#X connect 39 0 38 0;
#X connect 40 0 37 1;
#X connect 41 0 40 0;
#X connect 42 0 34 0;
#X connect 43 0 37 0;
#X connect 45 0 41 0;
#X connect 45 0 36 0;
#X connect 46 0 44 0;
#X connect 47 0 48 0;
#X connect 48 0 8 0;
#X connect 48 0 10 0;
#X connect 48 0 12 1;
#X connect 48 1 1 0;
#X connect 49 0 50 0;
#X connect 49 0 50 1;
