#N canvas 92 92 1053 680 12;
#X obj 309 381 *~;
#X obj 481 300 osc~;
#X obj 496 380 *~;
#X floatatom 499 185 5 0 0 0 - - - 0;
#X obj 453 381 *~;
#X obj 593 107 *~;
#X obj 593 130 lop~ 1;
#X obj 593 156 sqrt~;
#X obj 593 180 *~ 40;
#X floatatom 290 64 5 0 0 0 pitch - - 0;
#X obj 169 173 mtof;
#X obj 499 135 + 14;
#X obj 430 142 + 11;
#X obj 499 159 mtof;
#X obj 430 166 mtof;
#X obj 350 164 mtof;
#X obj 403 381 *~;
#X obj 77 167 mtof;
#X obj 256 382 *~;
#X obj 77 143 - 4;
#X obj 261 166 mtof;
#X obj 358 381 *~;
#X obj 350 140 + 9;
#X obj 261 142 + 7;
#X obj 779 189 snapshot~;
#X obj 752 296 vcf~, f 8;
#X floatatom 821 267 5 0 0 0 - - - 0;
#X obj 821 243 + 1;
#X obj 821 219 * 2;
#X obj 766 265 +~ 100;
#X obj 766 241 *~ 100;
#X obj 821 135 tgl 15 0 empty empty empty 17 7 0 10 #fcfcfc #000000
#000000 0 1;
#X obj 821 155 metro 100;
#X obj 752 320 *~ 0.1;
#X obj 821 111 loadbang;
#X obj 481 275 +~;
#X obj 412 299 osc~;
#X floatatom 430 191 5 0 0 0 - - - 0;
#X obj 412 274 +~;
#X obj 332 301 osc~;
#X floatatom 350 189 5 0 0 0 - - - 0;
#X obj 332 276 +~;
#X obj 243 303 osc~;
#X floatatom 261 193 5 0 0 0 - - - 0;
#X obj 243 278 +~;
#X obj 151 302 osc~;
#X floatatom 169 196 5 0 0 0 - - - 0;
#X obj 151 277 +~;
#X obj 59 299 osc~;
#X floatatom 77 191 5 0 0 0 - - - 0;
#X obj 59 274 +~;
#X obj 290 12 loadbang;
#X msg 290 36 50;
#X obj 359 466 limiter;
#X obj 766 155 r~ LFO;
#X obj 593 75 r~ lopn1;
#X obj 59 218 r~ noise1;
#X obj 151 221 r~ noise2;
#X obj 243 222 r~ noise3;
#X obj 332 220 r~ noise4;
#X obj 668 105 *~;
#X obj 668 128 lop~ 1;
#X obj 668 154 sqrt~;
#X obj 668 178 *~ 40;
#X obj 587 240 *~;
#X obj 587 263 lop~ 1;
#X obj 587 289 sqrt~;
#X obj 587 313 *~ 40;
#X obj 660 239 *~;
#X obj 660 262 lop~ 1;
#X obj 660 288 sqrt~;
#X obj 660 312 *~ 40;
#X obj 668 73 r~ lopn2;
#X obj 587 208 r~ lopn3;
#X obj 660 207 r~ lopn4;
#X obj 359 439 *~ 1;
#X obj 359 494 dac~;
#X connect 0 0 75 0;
#X connect 1 0 2 0;
#X connect 2 0 75 0;
#X connect 3 0 35 1;
#X connect 4 0 75 0;
#X connect 5 0 6 0;
#X connect 6 0 7 0;
#X connect 7 0 8 0;
#X connect 8 0 16 1;
#X connect 9 0 11 0;
#X connect 9 0 12 0;
#X connect 9 0 10 0;
#X connect 9 0 19 0;
#X connect 9 0 22 0;
#X connect 9 0 23 0;
#X connect 10 0 46 0;
#X connect 11 0 13 0;
#X connect 12 0 14 0;
#X connect 13 0 3 0;
#X connect 14 0 37 0;
#X connect 15 0 40 0;
#X connect 16 0 75 0;
#X connect 17 0 49 0;
#X connect 18 0 75 0;
#X connect 19 0 17 0;
#X connect 20 0 43 0;
#X connect 21 0 75 0;
#X connect 22 0 15 0;
#X connect 23 0 20 0;
#X connect 24 0 28 0;
#X connect 25 0 33 0;
#X connect 26 0 25 2;
#X connect 27 0 26 0;
#X connect 28 0 27 0;
#X connect 29 0 25 1;
#X connect 30 0 29 0;
#X connect 31 0 32 0;
#X connect 32 0 24 0;
#X connect 33 0 75 0;
#X connect 34 0 31 0;
#X connect 35 0 1 0;
#X connect 36 0 4 0;
#X connect 37 0 38 1;
#X connect 38 0 36 0;
#X connect 39 0 16 0;
#X connect 40 0 41 1;
#X connect 41 0 39 0;
#X connect 42 0 21 0;
#X connect 43 0 44 1;
#X connect 44 0 42 0;
#X connect 45 0 0 0;
#X connect 46 0 47 1;
#X connect 47 0 45 0;
#X connect 48 0 18 0;
#X connect 49 0 50 1;
#X connect 50 0 48 0;
#X connect 51 0 52 0;
#X connect 52 0 9 0;
#X connect 53 0 76 0;
#X connect 53 0 76 1;
#X connect 54 0 24 0;
#X connect 54 0 30 0;
#X connect 55 0 5 0;
#X connect 55 0 5 1;
#X connect 56 0 38 0;
#X connect 56 0 50 0;
#X connect 57 0 35 0;
#X connect 57 0 47 0;
#X connect 58 0 44 0;
#X connect 58 0 25 0;
#X connect 59 0 41 0;
#X connect 60 0 61 0;
#X connect 61 0 62 0;
#X connect 62 0 63 0;
#X connect 63 0 21 1;
#X connect 64 0 65 0;
#X connect 65 0 66 0;
#X connect 66 0 67 0;
#X connect 67 0 0 1;
#X connect 67 0 2 1;
#X connect 68 0 69 0;
#X connect 69 0 70 0;
#X connect 70 0 71 0;
#X connect 71 0 18 1;
#X connect 71 0 4 1;
#X connect 72 0 60 0;
#X connect 72 0 60 1;
#X connect 73 0 64 0;
#X connect 73 0 64 1;
#X connect 74 0 68 0;
#X connect 74 0 68 1;
#X connect 75 0 53 0;
