#N canvas 92 92 588 368 12;
#X obj 53 140 dac~ 36;
#X obj 108 34 adc~ 10;
#X obj 149 116 loadbang;
#X obj 149 140 metro 100;
#X obj 149 164 snapshot~;
#X obj 149 191 print;
#X obj 108 60 lop~ 0.5;
#X obj 108 85 lop~ 0.5;
#X connect 1 0 6 0;
#X connect 2 0 3 0;
#X connect 3 0 4 0;
#X connect 4 0 5 0;
#X connect 6 0 7 0;
#X connect 7 0 0 0;
#X connect 7 0 4 0;
