#N canvas 92 92 587 449 12;
#X obj 98 59 adc~;
#X obj 98 110 limiter;
#X obj 98 83 *~;
#X obj 141 83 hsl 162 19 0 1 0 0 empty empty empty -2 -10 0 12 #fcfcfc #000000 #000000 0 1;
#X obj 117 360 dac~;
#X obj 139 33 ctlin 61;
#X obj 139 57 / 127;
#X obj 69 156 throw~ bus-L;
#X obj 169 157 throw~ bus-R;
#X obj 78 238 catch~ bus-L;
#X obj 184 239 catch~ bus-R;
#X msg 293 302 start;
#X msg 308 331 stop;
#X obj 296 368 writesf~ 2;
#X msg 280 274 open 07_recordings/3sept-2.wav;
#X obj 78 265 limiter;
#X obj 184 268 limiter, f 8;
#X connect 0 0 2 0;
#X connect 1 0 7 0;
#X connect 1 0 8 0;
#X connect 2 0 1 0;
#X connect 3 0 2 1;
#X connect 5 0 6 0;
#X connect 6 0 3 0;
#X connect 9 0 15 0;
#X connect 10 0 16 0;
#X connect 11 0 13 0;
#X connect 12 0 13 0;
#X connect 14 0 13 0;
#X connect 15 0 4 0;
#X connect 15 0 13 0;
#X connect 16 0 4 1;
#X connect 16 0 13 1;
