#N canvas 0 0 1440 872 12;
#N canvas 0 0 450 300 (subpatch) 0;
#X array \$1-source-array 3.05274e+06 float 2;
#X coords 0 1 3.05274e+06 -1 200 60 1 0 0;
#X restore 159 141 graph;
#N canvas 0 0 450 300 (subpatch) 0;
#X array \$1-grain-env 2048 float 0;
#X coords 0 1 2047 -1 100 100 1 0 0;
#X restore 1143 172 graph;
#X obj 383 657 * 44100;
#X floatatom 393 638 5 0 0 0 - - - 0;
#X obj 385 171 hsl 64 12 0.1 2 0 0 empty empty grainpitch 7 6 1 8 #fcfcfc #000000 #000000 0 1;
#X floatatom 285 589 5 0 0 0 - - - 0;
#X obj 384 149 hsl 64 12 1 5000 0 0 empty empty graindur 7 6 1 8 #fcfcfc #000000 #000000 0 1;
#X floatatom 140 591 5 0 0 0 - - - 0;
#X obj 161 202 hsl 195 15 0 1 0 0 empty empty grainstart 7 6 1 8 #fcfcfc #000000 #000000 0 1;
#X obj 144 680 s grainstart;
#X obj 160 637 f;
#X obj 130 614 t f b;
#X obj 144 658 *;
#X obj 1151 282 loadbang;
#N canvas 737 338 274 245 make-grain-env 0;
#X obj 16 42 t b b;
#X obj 16 106 f;
#X obj 44 106 + 1;
#X msg 54 63 0;
#X obj 16 85 until;
#X obj 16 127 t f f;
#X obj 16 20 inlet;
#X msg 16 63 2048;
#X obj 16 148 expr ($f1-1024)/1024;
#X obj 16 168 expr 0.5+(cos($f1 * 3.141)/2);
#X obj 16 188 tabwrite \$1-grain-env;
#X connect 0 0 7 0;
#X connect 0 1 3 0;
#X connect 1 0 2 0;
#X connect 1 0 5 0;
#X connect 2 0 1 1;
#X connect 3 0 1 1;
#X connect 4 0 1 0;
#X connect 5 0 8 0;
#X connect 5 1 10 1;
#X connect 6 0 0 0;
#X connect 7 0 4 0;
#X connect 8 0 9 0;
#X connect 9 0 10 0;
#X restore 1151 303 pd make-grain-env;
#X obj 631 329 f;
#X obj 659 329 + 1;
#X obj 631 378 t f b b;
#X obj 610 495 pack f f f;
#X obj 631 305 metro 100;
#X obj 120 143 tgl 25 0 empty empty start 0 -10 0 8 #ff0400 #000000 #000000 0 1;
#X obj 675 465 + 1;
#X obj 675 444 / 10000;
#X obj 675 423 random 200;
#X obj 642 403 random 10000;
#X floatatom 1156 395 5 0 0 0 - - - 0;
#X obj 1149 377 hsl 64 12 1 12 0 0 empty empty overlap 7 6 1 8 #fcfcfc #000000 #000000 0 1;
#X obj 689 278 /;
#X obj 689 254 t b f;
#X obj 657 230 / 2;
#N canvas 0 0 450 300 (subpatch) 0;
#X array \$1-source-array-2 1.42886e+06 float 2;
#X coords 0 1 1.42886e+06 -1 200 60 1 0 0;
#X restore 159 237 graph;
#X obj 342 765 * 44100;
#X floatatom 352 744 5 0 0 0 - - - 0;
#X obj 380 264 hsl 64 12 0.1 2 0 0 empty empty grainpitch 7 6 1 8 #fcfcfc #000000 #000000 0 1;
#X floatatom 243 746 5 0 0 0 - - - 0;
#X obj 379 241 hsl 64 12 1 5000 0 0 empty empty graindur 7 6 1 8 #fcfcfc #000000 #000000 0 1;
#X floatatom 88 698 5 0 0 0 - - - 0;
#X obj 162 298 hsl 195 15 0 1 0 0 empty empty grainstart 7 6 1 8 #fcfcfc #000000 #000000 0 1;
#X obj 108 744 f;
#X obj 78 721 t f b;
#X obj 92 765 *;
#X floatatom 1156 517 5 0 0 0 - - - 0;
#X obj 1149 499 hsl 64 12 1 12 0 0 empty empty overlap 7 6 1 8 #fcfcfc #000000 #000000 0 1;
#X obj 92 787 s grainstart2;
#X obj 150 334 hsl 64 15 0 1 0 0 empty empty probability -2 -8 0 10 #c4fcc4 #000000 #000000 0 1;
#X obj 386 203 hsl 64 15 0 1 0 0 empty empty volume_1 -2 -8 0 10 #fcc4c4 #000000 #000000 0 1;
#X obj 381 297 hsl 64 15 0 1 0 0 empty empty volume_2 -2 -8 0 10 #c4fcfc #000000 #000000 0 1;
#X obj 377 353 hsl 64 15 0 1 0 0 empty empty general_volume -2 -8 0 10 #fcfcc4 #000000 #000000 0 1;
#X obj 631 354 mod 20;
#X floatatom 742 403 5 0 0 0 - - - 0;
#X obj 1146 454 loadbang;
#X msg 1146 477 12;
#X obj 1146 331 loadbang;
#X msg 1146 354 12;
#X obj 178 615 r \$1-filesize;
#X obj 124 722 r \$1-filesize2;
#X obj 1146 419 s \$1-overlap;
#X obj 383 680 s \$1-grainpitch;
#X obj 278 631 s \$1-graindur;
#X obj 233 788 s \$1-graindur2;
#X obj 1146 540 s \$1-overlap2;
#X obj 113 440 s \$1-probability;
#X obj 499 244 s \$1-vol1;
#X obj 502 305 s \$1-vol2;
#X obj 742 381 r \$1-rand;
#X obj 657 208 r \$1-graindur;
#X obj 689 230 r \$1-overlap;
#X obj 342 788 s \$1-grainpitch2;
#X floatatom 200 640 5 0 0 0 - - - 0;
#X obj 782 723 symbol \$1-source-array;
#X obj 746 673 openpanel;
#X obj 120 183 bng 25 250 50 0 empty empty Sound1 0 -6 0 8 #faff00 #000000 #000000;
#X obj 746 724 list;
#X msg 746 698 read -resize \$1;
#X obj 865 698 loadbang;
#X obj 746 771 soundfiler;
#X obj 746 793 s \$1-filesize;
#X obj 746 747 list trim;
#X obj 519 663 openpanel;
#X obj 121 279 bng 25 250 50 0 empty empty Sound2 0 -6 0 8 #faff00 #000000 #000000;
#X obj 519 714 list;
#X msg 519 688 read -resize \$1;
#X obj 638 688 loadbang;
#X obj 519 761 soundfiler;
#X obj 519 737 list trim;
#X obj 519 783 s \$1-filesize2;
#X obj 555 713 symbol \$1-source-array-2;
#X obj 506 165 loadbang;
#X obj 910 566 outlet~;
#X obj 843 259 catch~ \$1-bus;
#X obj 67 60 inlet;
#X obj 115 59 inlet;
#X obj 163 57 inlet;
#X obj 281 55 inlet;
#X obj 329 54 inlet;
#X obj 377 52 inlet;
#X obj 680 46 inlet;
#X obj 610 522 clone grainvoice 30 \$1;
#X obj 214 57 inlet;
#X obj 432 50 inlet;
#X obj 910 543 *~;
#X obj 477 49 inlet;
#X text 120 332 s1;
#X text 225 331 s2;
#X obj 150 368 hsl 64 15 0 1000 0 0 empty empty randomness -2 -8 0 10 #e3c6ff #000000 #000000 0 1;
#X obj 524 49 inlet;
#X obj 254 438 s \$1-rand;
#X obj 1038 148 loadbang;
#X obj 997 183 + 30;
#X obj 997 207 mtof;
#X obj 1047 269 + 10;
#X obj 906 320 samphold~;
#X obj 966 294 phasor~;
#X obj 987 321 samphold~;
#X obj 1047 295 phasor~;
#X obj 1044 207 random 100;
#X text 965 244 SAMPLE CRUSHING;
#X obj 947 364 *~ 0.7;
#X msg 1036 183 30;
#X obj 897 439 abs;
#X obj 897 415 - 1;
#X obj 879 486 *~;
#X obj 911 486 *~;
#X msg 897 390 0.5;
#X obj 268 334 hsl 64 16 0 1 0 0 empty empty crush -2 -10 0 12 #fc0400 #000000 #000000 0 1;
#X obj 997 157 * 80;
#X obj 573 48 inlet;
#X obj 265 370 hsl 64 16 0 1 0 0 empty empty crush-amt -2 -10 0 12 #f8fc00 #000000 #000000 0 1;
#X obj 621 47 inlet;
#X obj 884 794 print;
#X connect 2 0 57 0;
#X connect 4 0 3 0;
#X connect 4 0 2 0;
#X connect 6 0 5 0;
#X connect 6 0 58 0;
#X connect 8 0 7 0;
#X connect 8 0 11 0;
#X connect 10 0 12 1;
#X connect 11 0 12 0;
#X connect 11 1 10 0;
#X connect 12 0 9 0;
#X connect 13 0 14 0;
#X connect 15 0 16 0;
#X connect 15 0 48 0;
#X connect 16 0 15 1;
#X connect 17 0 18 0;
#X connect 17 1 24 0;
#X connect 17 2 23 0;
#X connect 18 0 97 0;
#X connect 19 0 15 0;
#X connect 20 0 19 0;
#X connect 21 0 18 2;
#X connect 22 0 21 0;
#X connect 23 0 22 0;
#X connect 24 0 18 1;
#X connect 26 0 25 0;
#X connect 26 0 56 0;
#X connect 27 0 19 1;
#X connect 28 0 27 0;
#X connect 28 1 27 1;
#X connect 29 0 27 0;
#X connect 31 0 67 0;
#X connect 33 0 32 0;
#X connect 33 0 31 0;
#X connect 35 0 34 0;
#X connect 35 0 59 0;
#X connect 37 0 36 0;
#X connect 37 0 39 0;
#X connect 38 0 40 1;
#X connect 39 0 40 0;
#X connect 39 1 38 0;
#X connect 40 0 43 0;
#X connect 42 0 41 0;
#X connect 42 0 60 0;
#X connect 44 0 61 0;
#X connect 45 0 62 0;
#X connect 46 0 63 0;
#X connect 47 0 100 1;
#X connect 48 0 17 0;
#X connect 49 0 23 1;
#X connect 50 0 51 0;
#X connect 51 0 42 0;
#X connect 52 0 53 0;
#X connect 53 0 26 0;
#X connect 54 0 10 1;
#X connect 54 0 68 0;
#X connect 55 0 38 1;
#X connect 64 0 49 0;
#X connect 65 0 29 0;
#X connect 66 0 28 0;
#X connect 69 0 72 1;
#X connect 70 0 73 0;
#X connect 71 0 70 0;
#X connect 72 0 77 0;
#X connect 73 0 72 0;
#X connect 74 0 69 0;
#X connect 75 0 76 0;
#X connect 77 0 75 0;
#X connect 77 0 129 0;
#X connect 78 0 81 0;
#X connect 79 0 78 0;
#X connect 80 0 84 0;
#X connect 81 0 80 0;
#X connect 82 0 86 0;
#X connect 83 0 85 0;
#X connect 84 0 83 0;
#X connect 84 0 129 0;
#X connect 86 0 80 1;
#X connect 87 0 20 0;
#X connect 89 0 111 0;
#X connect 89 0 113 0;
#X connect 89 0 121 0;
#X connect 90 0 8 0;
#X connect 91 0 6 0;
#X connect 92 0 4 0;
#X connect 93 0 37 0;
#X connect 94 0 35 0;
#X connect 95 0 33 0;
#X connect 96 0 47 0;
#X connect 98 0 45 0;
#X connect 99 0 46 0;
#X connect 100 0 88 0;
#X connect 101 0 44 0;
#X connect 104 0 106 0;
#X connect 105 0 104 0;
#X connect 107 0 115 0;
#X connect 107 0 118 0;
#X connect 107 0 123 0;
#X connect 108 0 109 0;
#X connect 109 0 110 0;
#X connect 109 0 112 0;
#X connect 110 0 114 0;
#X connect 111 0 117 0;
#X connect 112 0 111 1;
#X connect 113 0 117 0;
#X connect 114 0 113 1;
#X connect 115 0 110 1;
#X connect 117 0 122 0;
#X connect 118 0 109 0;
#X connect 119 0 121 1;
#X connect 120 0 119 0;
#X connect 121 0 100 0;
#X connect 122 0 100 0;
#X connect 123 0 120 0;
#X connect 124 0 125 0;
#X connect 125 0 108 0;
#X connect 126 0 124 0;
#X connect 127 0 120 0;
#X connect 127 0 122 1;
#X connect 128 0 127 0;
#X coords 0 -1 1 1 370 300 1 100 100;
