#N canvas 586 96 408 310 12;
#X obj 229 109 t b;
#X obj 229 158 1;
#X obj 229 182 biquad~ 0 0 1 -1 0;
#X obj 229 206 *~;
#X obj 261 134 del 3;
#X obj 261 158 0;
#X obj 60 238 outlet~;
#X obj 60 35 inlet;
#X obj 112 139 loadbang;
#X obj 60 212 vcf~ 5;
#X obj 112 163 random 4000;
#X obj 112 187 + 5000;
#X obj 112 212 sig~;
#X obj 60 86 cyclone/click~;
#X msg 59 111 set -1 0.25 1 0.5;
#X obj 60 59 bng 19 250 50 0 empty empty empty 0 -10 0 12 #fcfcfc #000000 #000000;
#X connect 0 0 1 0;
#X connect 0 0 4 0;
#X connect 1 0 2 0;
#X connect 1 0 3 1;
#X connect 2 0 3 0;
#X connect 4 0 5 0;
#X connect 5 0 2 0;
#X connect 5 0 3 1;
#X connect 7 0 15 0;
#X connect 8 0 10 0;
#X connect 8 0 14 0;
#X connect 9 0 6 0;
#X connect 10 0 11 0;
#X connect 11 0 12 0;
#X connect 12 0 9 1;
#X connect 13 0 9 0;
#X connect 14 0 13 0;
#X connect 15 0 13 0;
