#N canvas 237 237 568 300 12;
#X obj 110 123 bng 65 250 50 0 clock-reset empty START 15 33 0 12 #ffc7c6 #ff0400 #ff0400;
#X floatatom 185 132 8 0 0 2 minutes mins - 0;
#X floatatom 185 170 8 0 0 2 seconds secs - 0;
#X obj 369 65 r clock-reset;
#X msg 369 89 0;
#X obj 303 67 loadbang;
#X msg 303 91 1;
#X obj 303 115 metro 1000;
#X obj 303 139 f;
#X floatatom 303 163 5 0 0 0 - - - 0;
#X obj 337 139 + 1;
#X obj 303 186 % 60;
#X floatatom 303 210 5 0 0 0 - - - 0;
#X obj 303 233 s secs;
#X obj 359 162 / 60;
#X obj 359 186 % 60;
#X floatatom 359 210 5 0 0 0 - - - 0;
#X obj 359 233 s mins;
#X connect 3 0 4 0;
#X connect 4 0 8 1;
#X connect 5 0 6 0;
#X connect 6 0 7 0;
#X connect 7 0 8 0;
#X connect 8 0 9 0;
#X connect 8 0 10 0;
#X connect 9 0 11 0;
#X connect 9 0 14 0;
#X connect 10 0 8 1;
#X connect 11 0 12 0;
#X connect 12 0 13 0;
#X connect 14 0 15 0;
#X connect 15 0 16 0;
#X connect 16 0 17 0;
#X coords 0 -1 1 1 150 100 1 100 100;
