#N canvas 0 0 750 588 12;
#X obj 343 199 *~;
#X obj 283 199 *~;
#X obj 121 147 vu 16 160 empty empty -1 -8 0 10 #404040 #000000 0 0;
#X obj 276 84 env~;
#X obj 276 107 - 90;
#X obj 141 147 vu 16 160 empty empty -1 -8 0 10 #404040 #000000 1 0;
#X obj 326 83 env~;
#X obj 326 106 - 90;
#X obj 283 275 dac~, f 9;
#X obj 283 224 limiter;
#X obj 343 224 limiter;
#X obj 75 69 inlet~;
#X obj 139 69 inlet~;
#X obj 192 146 vsl 19 160 0 1 0 0 empty empty empty 0 -9 0 12 #dfdfdf #000000 #000000 0 1;
#X obj 198 71 inlet;
#X text 122 121 L;
#X text 143 121 R;
#X text 172 109 master-;
#X text 188 123 vol;
#X obj 225 25 r master-vol;
#X obj 127 321 tgl 19 0 empty empty RECORD 30 10 0 12 #ff0400 #000000 #000000 0 1;
#X obj 125 391 loadbang;
#X msg 314 431 start;
#X msg 365 433 stop;
#X obj 227 477 writesf~ 2;
#X obj 314 406 sel 1;
#X msg 125 420 open pain-creature.wav;
#X obj 365 408 sel 0;
#X connect 0 0 10 0;
#X connect 1 0 9 0;
#X connect 3 0 4 0;
#X connect 4 0 2 0;
#X connect 6 0 7 0;
#X connect 7 0 5 0;
#X connect 9 0 3 0;
#X connect 9 0 8 0;
#X connect 9 0 24 0;
#X connect 10 0 6 0;
#X connect 10 0 8 1;
#X connect 10 0 24 1;
#X connect 11 0 1 0;
#X connect 12 0 0 0;
#X connect 13 0 0 1;
#X connect 13 0 1 1;
#X connect 14 0 13 0;
#X connect 19 0 13 0;
#X connect 20 0 25 0;
#X connect 20 0 27 0;
#X connect 21 0 26 0;
#X connect 22 0 24 0;
#X connect 23 0 24 0;
#X connect 25 0 22 0;
#X connect 26 0 24 0;
#X connect 27 0 23 0;
#X coords 0 -1 1 1 130 250 1 100 100;
