#N canvas 0 0 1440 872 12;
#X obj 581 22 tgl 19 0 empty empty empty 0 -10 0 12 #fcfcfc #000000 #000000 0 1;
#X obj 541 746 *~;
#X obj 562 721 hsl 162 19 0 1 0 0 empty empty empty -2 -10 0 12 #fcfcfc #000000 #000000 0 1;
#X obj 541 794 dac~;
#X obj 447 210 clone click~ 50;
#X msg 447 185 next \$1;
#X msg 447 160 2;
#X obj 447 134 bng 19 250 50 0 empty empty empty 0 -10 0 12 #fcfcfc #000000 #000000;
#X obj 605 185 del 100;
#X obj 605 137 random 1000;
#X obj 692 137 f;
#X floatatom 692 161 5 0 0 0 - - - 0;
#X obj 605 312 spigot;
#X obj 644 263 f;
#X obj 696 264 + 1;
#X obj 644 237 bng 19 250 50 0 empty empty empty 0 -10 0 12 #fcfcfc #000000 #000000;
#X floatatom 644 287 5 0 0 0 - - - 0;
#X msg 670 237 0;
#X obj 605 209 t b b b;
#X obj 581 70 bng 19 250 50 0 empty empty empty 0 -10 0 12 #fcfcfc #000000 #000000;
#X obj 581 95 t b b b;
#X obj 722 138 * 1.1;
#X floatatom 771 273 5 0 50 2 num_clicks - - 0;
#X obj 771 165 / 127;
#X obj 771 213 int;
#X obj 771 237 + 1;
#X obj 605 161 + 70;
#X obj 665 326 /;
#X obj 665 350 * -1;
#X obj 665 374 + 1;
#X floatatom 665 398 5 0 0 0 - - - 0;
#X obj 771 139 ctlin 16;
#X msg 692 113 30;
#X obj 949 474 +~;
#X obj 967 446 *~ 0.7;
#X floatatom 999 387 5 0 0 0 - - - 0;
#X obj 999 315 / 127;
#X obj 999 339 * 300;
#X obj 999 363 + 70;
#X obj 999 291 ctlin 17;
#X obj 66 184 noise~;
#X obj 66 237 bng 19 250 50 0 empty empty empty 0 -10 0 12 #fcfcfc #000000 #000000;
#X obj 66 261 random 100;
#X obj 66 290 / 50;
#X obj 105 420 *~;
#X obj 141 421 hsl 162 19 0 1 0 0 empty empty empty -2 -10 0 12 #fcfcfc #000000 #000000 0 1;
#X floatatom 152 316 5 0 0 0 - - - 0;
#X obj 152 339 sig~;
#X obj 66 373 vcf~ 5;
#X obj 66 213 threshold~ 0.9999;
#X obj 152 267 / 127;
#X obj 152 291 * 1000;
#X obj 1067 292 ctlin 18;
#X obj 1067 316 / 127;
#X obj 118 41 ctlin 20;
#X obj 118 65 / 127;
#X floatatom 118 162 8 0 0 0 - - - 0;
#X obj 152 243 ctlin 21;
#X obj 118 138 -;
#X msg 118 114 1;
#X obj 118 89 * 0.001;
#X msg 118 184 set \$1 10 0.1 10;
#X text 732 112 generate many randomly spaced clicks;
#X obj 949 608 *~;
#X obj 1040 634 hsl 162 19 0 1 0 0 empty empty empty -2 -10 0 12 #fcfcfc #000000 #000000 0 1;
#X obj 1037 587 ctlin 19;
#X obj 1037 611 / 127;
#X obj 138 373 ctlin 23;
#X obj 138 397 / 127;
#X obj 66 315 clack~;
#X obj 771 189 * 50;
#X obj 696 288 % 50;
#X obj 742 520 hsl 162 19 0 1 0 0 empty empty empty -2 -10 0 12 #fcfcfc #000000 #000000 0 1;
#X floatatom 739 544 5 0 0 0 - - - 0;
#X obj 739 567 * -1;
#X obj 739 591 + 1;
#X floatatom 739 615 5 0 0 0 - - - 0;
#X obj 447 259 *~;
#X obj 487 259 *~;
#X obj 447 290 *~;
#X obj 487 290 *~;
#X obj 1005 609 *~;
#X obj 1002 500 +~;
#X obj 1020 472 *~ 0.7;
#X obj 967 419 delread~ \$0-del-R 160;
#X obj 967 527 delwrite~ \$0-del-L 2000;
#X obj 1010 552 delwrite~ \$0-del-R 2000;
#X obj 1020 445 delread~ \$0-del-L 160;
#X obj 576 747 *~;
#X obj 610 747 *~;
#X floatatom 1067 340 5 0 0 0 - - - 0;
#X obj 708 328 / 2;
#X floatatom 708 352 5 0 0 0 - - - 0;
#X obj 754 399 random 2;
#X obj 742 448 + 0.5;
#X obj 708 399 * -1;
#X obj 708 423 + 0.5;
#X obj 724 473 f;
#X obj 708 375 t f f b;
#X obj 754 423 sel 1;
#X obj 786 447 bng 19 250 50 0 empty empty empty 0 -10 0 12 #fcfcfc #000000 #000000;
#X obj 786 472 f;
#X text 743 498 random panning;
#X text 997 265 stereo delay;
#X obj 105 290 + 300;
#X obj 559 672 ctlin 62;
#X obj 559 696 / 127;
#X obj 581 46 metro 4300;
#X obj 676 44 s kick;
#X connect 0 0 107 0;
#X connect 1 0 3 0;
#X connect 1 0 3 1;
#X connect 2 0 1 1;
#X connect 2 0 88 1;
#X connect 2 0 89 1;
#X connect 4 0 77 0;
#X connect 4 0 78 0;
#X connect 5 0 4 0;
#X connect 6 0 5 0;
#X connect 7 0 9 0;
#X connect 7 0 6 0;
#X connect 8 0 18 0;
#X connect 9 0 26 0;
#X connect 10 0 11 0;
#X connect 10 0 21 0;
#X connect 11 0 9 1;
#X connect 12 0 7 0;
#X connect 13 0 14 0;
#X connect 13 0 16 0;
#X connect 13 0 27 0;
#X connect 14 0 71 0;
#X connect 15 0 13 0;
#X connect 16 0 12 1;
#X connect 17 0 13 0;
#X connect 18 0 12 0;
#X connect 18 1 15 0;
#X connect 18 2 10 0;
#X connect 19 0 20 0;
#X connect 19 0 108 0;
#X connect 20 0 7 0;
#X connect 20 1 17 0;
#X connect 20 2 32 0;
#X connect 21 0 10 1;
#X connect 22 0 27 1;
#X connect 22 0 71 1;
#X connect 23 0 70 0;
#X connect 24 0 25 0;
#X connect 25 0 22 0;
#X connect 26 0 8 0;
#X connect 27 0 28 0;
#X connect 27 0 91 0;
#X connect 28 0 29 0;
#X connect 29 0 30 0;
#X connect 30 0 79 1;
#X connect 30 0 80 1;
#X connect 31 0 23 0;
#X connect 32 0 10 0;
#X connect 33 0 63 0;
#X connect 33 0 85 0;
#X connect 34 0 33 1;
#X connect 35 0 84 0;
#X connect 35 0 87 0;
#X connect 36 0 37 0;
#X connect 37 0 38 0;
#X connect 38 0 35 0;
#X connect 39 0 36 0;
#X connect 40 0 49 0;
#X connect 41 0 42 0;
#X connect 42 0 43 0;
#X connect 42 0 104 0;
#X connect 43 0 69 0;
#X connect 44 0 1 0;
#X connect 45 0 44 1;
#X connect 46 0 47 0;
#X connect 47 0 48 1;
#X connect 48 1 44 0;
#X connect 49 0 41 0;
#X connect 50 0 51 0;
#X connect 51 0 46 0;
#X connect 52 0 53 0;
#X connect 53 0 90 0;
#X connect 54 0 55 0;
#X connect 55 0 60 0;
#X connect 56 0 61 0;
#X connect 57 0 50 0;
#X connect 58 0 56 0;
#X connect 59 0 58 0;
#X connect 60 0 58 1;
#X connect 60 0 59 0;
#X connect 61 0 49 0;
#X connect 63 0 88 0;
#X connect 64 0 63 1;
#X connect 64 0 81 1;
#X connect 65 0 66 0;
#X connect 66 0 64 0;
#X connect 67 0 68 0;
#X connect 68 0 45 0;
#X connect 69 0 48 0;
#X connect 70 0 24 0;
#X connect 71 0 13 1;
#X connect 72 0 73 0;
#X connect 73 0 74 0;
#X connect 73 0 78 1;
#X connect 74 0 75 0;
#X connect 75 0 76 0;
#X connect 76 0 77 1;
#X connect 77 0 79 0;
#X connect 78 0 80 0;
#X connect 79 0 33 0;
#X connect 80 0 82 0;
#X connect 81 0 89 0;
#X connect 82 0 86 0;
#X connect 82 0 81 0;
#X connect 83 0 82 1;
#X connect 84 0 34 0;
#X connect 87 0 83 0;
#X connect 88 0 3 0;
#X connect 89 0 3 1;
#X connect 90 0 83 1;
#X connect 90 0 34 1;
#X connect 91 0 92 0;
#X connect 92 0 98 0;
#X connect 93 0 99 0;
#X connect 94 0 97 1;
#X connect 95 0 96 0;
#X connect 96 0 101 1;
#X connect 97 0 72 0;
#X connect 98 0 94 0;
#X connect 98 1 95 0;
#X connect 98 2 93 0;
#X connect 99 0 97 0;
#X connect 99 1 100 0;
#X connect 100 0 101 0;
#X connect 101 0 72 0;
#X connect 104 0 69 1;
#X connect 105 0 106 0;
#X connect 106 0 2 0;
#X connect 107 0 19 0;
