#N canvas 92 92 1048 766 12;
#X obj 580 39 tgl 19 0 empty empty empty 0 -10 0 12 #fcfcfc #000000 #000000 0 1;
#X obj 431 688 *~;
#X obj 463 688 hsl 162 19 0 1 0 0 empty empty empty -2 -10 0 12 #fcfcfc #000000 #000000 0 1;
#X obj 431 712 dac~;
#X obj 455 276 clone click~ 50;
#X msg 455 251 next \$1;
#X obj 456 384 vcf~ 5;
#X obj 475 311 random 4000;
#X obj 475 335 + 5000;
#X obj 475 360 sig~;
#X msg 455 226 2;
#X obj 580 137 bng 19 250 50 0 empty empty empty 0 -10 0 12 #fcfcfc #000000 #000000;
#X obj 605 185 del 100;
#X obj 605 137 random 1000;
#X obj 696 161 f;
#X floatatom 696 185 5 0 0 0 - - - 0;
#X obj 605 312 spigot;
#X obj 644 263 f;
#X obj 696 264 + 1;
#X obj 644 237 bng 19 250 50 0 empty empty empty 0 -10 0 12 #fcfcfc #000000 #000000;
#X floatatom 644 287 5 0 0 0 - - - 0;
#X msg 670 237 0;
#X obj 605 209 t b b b;
#X obj 580 87 bng 19 250 50 0 empty empty empty 0 -10 0 12 #fcfcfc #000000 #000000;
#X obj 580 112 t b b b;
#X obj 696 288 % 20;
#X obj 726 162 * 1.1;
#X floatatom 775 276 5 0 50 2 num_clicks - - 0;
#X obj 580 63 metro 4000;
#X obj 775 162 / 127;
#X obj 775 186 * 20;
#X obj 775 210 int;
#X obj 775 234 + 1;
#X obj 605 161 + 70;
#X obj 556 465 *~;
#X obj 682 325 /;
#X obj 682 349 * -1;
#X obj 682 373 + 1;
#X floatatom 682 397 5 0 0 0 - - - 0;
#X obj 775 136 ctlin 16;
#X msg 696 137 30;
#X obj 771 564 +~;
#X obj 789 536 *~ 0.7;
#X obj 789 509 delread~ \$0-del 160;
#X obj 786 597 delwrite~ \$0-del 2000;
#X floatatom 789 485 5 0 0 0 - - - 0;
#X obj 789 413 / 127;
#X obj 789 437 * 300;
#X obj 789 461 + 70;
#X obj 789 389 ctlin 17;
#X obj 101 497 clone clack~ 50;
#X msg 101 469 next \$1;
#X obj 101 318 noise~;
#X obj 101 371 bng 19 250 50 0 empty empty empty 0 -10 0 12 #fcfcfc #000000 #000000;
#X obj 101 395 random 100;
#X obj 101 419 / 50;
#X msg 101 444 \$1;
#X obj 190 583 *~;
#X obj 230 583 hsl 162 19 0 1 0 0 empty empty empty -2 -10 0 12 #fcfcfc #000000 #000000 0 1;
#X floatatom 219 474 5 0 0 0 - - - 0;
#X obj 219 497 sig~;
#X obj 151 530 vcf~ 5;
#X obj 101 347 threshold~ 0.9999;
#X obj 219 425 / 127;
#X obj 219 449 * 1000;
#X obj 845 536 ctlin 18;
#X obj 845 560 / 127;
#X obj 153 175 ctlin 20;
#X obj 153 199 / 127;
#X floatatom 153 296 8 0 0 0 - - - 0;
#X obj 219 401 ctlin 21;
#X obj 153 272 -;
#X msg 153 248 1;
#X obj 153 223 * 0.001;
#X msg 153 318 set \$1 10 0.1 10;
#X text 648 108 generate many randomly spaced clicks;
#X obj 537 609 *~;
#X obj 569 609 hsl 162 19 0 1 0 0 empty empty empty -2 -10 0 12 #fcfcfc #000000 #000000 0 1;
#X obj 566 562 ctlin 19;
#X obj 566 586 / 127;
#X obj 227 535 ctlin 23;
#X obj 227 559 / 127;
#X connect 0 0 28 0;
#X connect 1 0 3 0;
#X connect 1 0 3 1;
#X connect 2 0 1 1;
#X connect 4 0 6 0;
#X connect 5 0 4 0;
#X connect 6 0 34 0;
#X connect 7 0 8 0;
#X connect 8 0 9 0;
#X connect 9 0 6 1;
#X connect 10 0 5 0;
#X connect 11 0 13 0;
#X connect 11 0 10 0;
#X connect 11 0 7 0;
#X connect 12 0 22 0;
#X connect 13 0 33 0;
#X connect 14 0 15 0;
#X connect 14 0 26 0;
#X connect 15 0 13 1;
#X connect 16 0 11 0;
#X connect 17 0 18 0;
#X connect 17 0 20 0;
#X connect 17 0 35 0;
#X connect 18 0 25 0;
#X connect 19 0 17 0;
#X connect 20 0 16 1;
#X connect 21 0 17 0;
#X connect 22 0 16 0;
#X connect 22 1 19 0;
#X connect 22 2 14 0;
#X connect 23 0 24 0;
#X connect 24 0 11 0;
#X connect 24 1 21 0;
#X connect 24 2 40 0;
#X connect 25 0 17 1;
#X connect 26 0 14 1;
#X connect 27 0 25 1;
#X connect 27 0 35 1;
#X connect 28 0 23 0;
#X connect 29 0 30 0;
#X connect 30 0 31 0;
#X connect 31 0 32 0;
#X connect 32 0 27 0;
#X connect 33 0 12 0;
#X connect 34 0 41 0;
#X connect 35 0 36 0;
#X connect 36 0 37 0;
#X connect 37 0 38 0;
#X connect 38 0 34 1;
#X connect 39 0 29 0;
#X connect 40 0 14 0;
#X connect 41 0 44 0;
#X connect 41 0 76 0;
#X connect 42 0 41 1;
#X connect 43 0 42 0;
#X connect 45 0 43 0;
#X connect 46 0 47 0;
#X connect 47 0 48 0;
#X connect 48 0 45 0;
#X connect 49 0 46 0;
#X connect 50 0 61 0;
#X connect 51 0 50 0;
#X connect 52 0 62 0;
#X connect 53 0 54 0;
#X connect 54 0 55 0;
#X connect 55 0 56 0;
#X connect 56 0 51 0;
#X connect 57 0 1 0;
#X connect 58 0 57 1;
#X connect 59 0 60 0;
#X connect 60 0 61 1;
#X connect 61 1 57 0;
#X connect 62 0 53 0;
#X connect 63 0 64 0;
#X connect 64 0 59 0;
#X connect 65 0 66 0;
#X connect 66 0 42 1;
#X connect 67 0 68 0;
#X connect 68 0 73 0;
#X connect 69 0 74 0;
#X connect 70 0 63 0;
#X connect 71 0 69 0;
#X connect 72 0 71 0;
#X connect 73 0 71 1;
#X connect 73 0 72 0;
#X connect 74 0 62 0;
#X connect 76 0 1 0;
#X connect 77 0 76 1;
#X connect 78 0 79 0;
#X connect 79 0 77 0;
#X connect 80 0 81 0;
#X connect 81 0 58 0;
