#N canvas 586 96 272 272 12;
#X obj 60 74 t b;
#X obj 60 123 1;
#X obj 60 147 biquad~ 0 0 1 -1 0;
#X obj 60 171 *~;
#X obj 92 99 del 3;
#X obj 92 123 0;
#X obj 60 199 outlet~;
#X obj 60 50 inlet;
#X connect 0 0 1 0;
#X connect 0 0 4 0;
#X connect 1 0 2 0;
#X connect 1 0 3 1;
#X connect 2 0 3 0;
#X connect 3 0 6 0;
#X connect 4 0 5 0;
#X connect 5 0 2 0;
#X connect 5 0 3 1;
#X connect 7 0 0 0;
