#N canvas 63 63 557 651 12;
#X obj 206 445 rev2~ 100 90 3000 20;
#X obj 188 512 *~;
#X obj 249 512 *~;
#X obj 151 213 hsl 128 15 0 1 0 0 empty empty master\ volume -2 -10 0 12 #dfdfdf #000000 #000000 0 1;
#X obj 188 486 *~;
#X obj 249 485 *~;
#X obj 243 173 hsl 64 15 0 1 0 0 empty empty rev-dry/wet -2 -10 0 12 #c7c6ff #000000 #000000 0 1;
#X obj 149 383 - 1;
#X obj 149 407 abs;
#X obj 118 439 *~;
#X obj 157 439 *~;
#X obj 245 131 hsl 64 15 0 105 0 0 empty empty rev-amt -2 -10 0 12 #c7c6ff #000000 #000000 0 1;
#X obj 188 537 limiter;
#X obj 249 536 limiter;
#X obj 206 381 +~;
#X obj 224 353 *~ 0.7;
#X obj 128 169 hsl 64 15 0 1.2 0 0 empty empty delay-amt/feedback -2 -8 0 10 #c6feff #000000 #000000 0 1;
#X obj 129 132 hsl 64 15 1 1000 0 0 empty empty delay\ time -2 -8 0 10 #c6feff #000000 #000000 0 1;
#X obj 224 317 delread~ \$0-del 160;
#X obj 221 414 delwrite~ \$0-del 2000;
#X obj 188 565 outlet~;
#X obj 249 566 outlet~;
#X obj 126 73 inlet;
#X obj 172 73 inlet;
#X obj 223 72 inlet;
#X obj 269 72 inlet;
#X obj 316 72 inlet;
#X obj 72 71 inlet~;
#X obj 402 140 loadbang;
#X msg 402 164 0.2;
#X connect 0 0 4 0;
#X connect 0 1 5 0;
#X connect 1 0 12 0;
#X connect 2 0 13 0;
#X connect 3 0 2 1;
#X connect 3 0 1 1;
#X connect 4 0 1 0;
#X connect 5 0 2 0;
#X connect 6 0 7 0;
#X connect 6 0 5 1;
#X connect 6 0 4 1;
#X connect 7 0 8 0;
#X connect 8 0 10 1;
#X connect 8 0 9 1;
#X connect 9 0 1 0;
#X connect 10 0 2 0;
#X connect 11 0 0 2;
#X connect 12 0 20 0;
#X connect 13 0 21 0;
#X connect 14 0 0 0;
#X connect 14 0 19 0;
#X connect 15 0 14 1;
#X connect 16 0 15 1;
#X connect 17 0 18 0;
#X connect 18 0 15 0;
#X connect 22 0 17 0;
#X connect 23 0 16 0;
#X connect 24 0 11 0;
#X connect 25 0 6 0;
#X connect 26 0 3 0;
#X connect 27 0 9 0;
#X connect 27 0 10 0;
#X connect 27 0 14 0;
#X connect 28 0 29 0;
#X connect 29 0 6 0;
#X coords 0 -1 1 1 250 150 1 100 100;
