#N canvas 1 0 1171 872 12;
#X obj 569 235 piezo-interaction-bela;
#X obj 571 207 adc~;
#X obj 563 364 delwrite~ b1 5000;
#X obj 113 603 vd~ b1;
#X obj 165 481 phasor~;
#X obj 101 522 *~ -1;
#X obj 101 547 +~ 1;
#X obj 225 549 sig~ 1;
#X obj 290 557 cos~;
#X obj 226 582 -~;
#X obj 227 607 *~ 0.5;
#X obj 172 639 *~;
#X obj 150 549 samphold~;
#X obj 113 577 *~;
#X obj 150 521 sig~;
#X floatatom 308 406 5 0 0 0 - - - 0;
#X floatatom 188 309 10 0 0 0 - - - 0;
#X floatatom 266 287 5 0 0 0 - - - 0;
#X obj 266 308 t b f;
#X obj 308 380 / 44.1;
#X obj 375 627 vd~ b1;
#X obj 359 545 *~ -1;
#X obj 359 570 +~ 1;
#X obj 483 572 sig~ 1;
#X obj 538 573 cos~;
#X obj 490 600 -~;
#X obj 490 624 *~ 0.5;
#X obj 420 657 *~;
#X obj 407 570 samphold~;
#X obj 375 601 *~;
#X obj 407 545 sig~;
#X obj 424 477 +~ 0.5;
#X obj 424 499 wrap~;
#X obj 190 145 vsl 15 128 100 30000 0 0 empty empty window\\\ width
0 -8 0 8 #ffe3c6 #000000 #000000 0 1;
#X obj 190 286 t b f;
#X obj 266 207 vsl 15 73 -36 36 0 0 empty empty transposition\\\ (half-steps)
0 -8 0 8 #ffe3c6 #000000 #000000 0 1;
#X text 283 264 -36;
#X text 285 207 36;
#X text 209 145 30000;
#X text 207 259 100;
#X text 1457 815 www.pd-tutorial.com;
#X text 1469 797 Johannes Kreidler;
#X text 386 452 phase shift;
#X floatatom 147 285 5 0 0 0 - - - 0;
#X text 220 526 Hanning window;
#X obj 265 707 +~;
#X obj 563 309 +~;
#X obj 586 280 *~;
#X obj 623 282 hsl 128 15 0 2 0 0 empty empty feedback 7 7 0 10 #fcfcfc
#000000 #000000 0 1;
#X obj 142 312 / 12;
#X obj 156 407 - 1;
#X obj 188 406 /;
#X obj 188 357 t b f;
#X msg 188 382 44100;
#X obj 165 433 *;
#X floatatom 165 457 8 0 0 0 - - - 0;
#X obj 156 383 pow;
#X obj 142 336 t b f;
#X msg 142 360 2;
#X obj 264 906 *~;
#X obj 300 907 hsl 128 15 0 2 0 0 empty empty empty -2 -8 0 10 #fcfcfc
#000000 #000000 0 1;
#X obj 264 970 dac~;
#X obj 190 109 r window;
#X obj 266 172 r transp;
#X obj 458 86 loadbang;
#X msg 339 171 -15;
#X msg 623 129 0.2;
#X msg 263 107 11000;
#X obj 611 627 writesf~ 1;
#X msg 608 561 start;
#X msg 623 590 stop;
#X msg 595 533 open 1.heavy.wav;
#X obj 264 936 limiter;
#X obj 665 760 vcf~;
#X obj 683 678 hsl 128 15 0 127 0 0 empty empty empty -2 -8 0 10 #fcfcfc
#000000 #000000 0 1;
#X obj 680 698 mtof;
#X obj 680 722 sig~;
#X floatatom 725 724 5 0 0 0 - - - 0;
#X obj 480 840 rev2~ 100 30 3000 20;
#X floatatom 548 810 5 0 0 0 - - - 0;
#X floatatom 696 809 0 0 0 1 delay\ time - - 0;
#X obj 678 887 +~;
#X obj 696 859 *~ 0.7;
#X obj 753 862 hsl 128 15 0 1 0 0 empty empty empty -2 -8 0 10 #fcfcfc
#000000 #000000 0 1;
#X obj 696 835 delread~ del 160;
#X obj 733 920 delwrite~ del 2000;
#X floatatom 920 806 0 0 0 1 delay\ time - - 0;
#X obj 902 884 +~;
#X obj 920 856 *~ 0.7;
#X obj 977 859 hsl 128 15 0 1 0 0 empty empty empty -2 -8 0 10 #fcfcfc
#000000 #000000 0 1;
#X obj 920 832 delread~ del 160;
#X obj 957 917 delwrite~ del 2000;
#X obj 678 921 *~ 0.2;
#X obj 902 918 *~ 0.2;
#X obj 826 759 vcf~;
#X obj 844 677 hsl 128 15 0 127 0 0 empty empty empty -2 -8 0 10 #fcfcfc
#000000 #000000 0 1;
#X obj 841 697 mtof;
#X obj 841 721 sig~;
#X floatatom 886 723 5 0 0 0 - - - 0;
#X connect 0 0 46 0;
#X connect 0 1 59 1;
#X connect 1 0 0 0;
#X connect 3 0 11 0;
#X connect 4 0 5 0;
#X connect 4 0 8 0;
#X connect 4 0 12 1;
#X connect 4 0 31 0;
#X connect 5 0 6 0;
#X connect 6 0 13 0;
#X connect 7 0 9 0;
#X connect 8 0 9 1;
#X connect 9 0 10 0;
#X connect 10 0 11 1;
#X connect 11 0 45 0;
#X connect 12 0 13 1;
#X connect 13 0 3 0;
#X connect 14 0 12 0;
#X connect 15 0 30 0;
#X connect 15 0 14 0;
#X connect 16 0 19 0;
#X connect 16 0 52 0;
#X connect 17 0 18 0;
#X connect 18 0 16 0;
#X connect 18 1 49 0;
#X connect 19 0 15 0;
#X connect 20 0 27 0;
#X connect 21 0 22 0;
#X connect 22 0 29 0;
#X connect 23 0 25 0;
#X connect 24 0 25 1;
#X connect 25 0 26 0;
#X connect 26 0 27 1;
#X connect 27 0 45 1;
#X connect 28 0 29 1;
#X connect 29 0 20 0;
#X connect 30 0 28 0;
#X connect 31 0 32 0;
#X connect 32 0 21 0;
#X connect 32 0 28 1;
#X connect 32 0 24 0;
#X connect 33 0 34 0;
#X connect 33 0 43 0;
#X connect 34 0 17 0;
#X connect 34 1 16 0;
#X connect 35 0 17 0;
#X connect 45 0 47 0;
#X connect 45 0 73 0;
#X connect 45 0 94 0;
#X connect 45 0 59 0;
#X connect 46 0 2 0;
#X connect 47 0 46 1;
#X connect 48 0 47 1;
#X connect 49 0 57 0;
#X connect 50 0 54 0;
#X connect 51 0 54 1;
#X connect 52 0 53 0;
#X connect 52 1 51 1;
#X connect 53 0 51 0;
#X connect 54 0 55 0;
#X connect 55 0 4 0;
#X connect 56 0 50 0;
#X connect 57 0 58 0;
#X connect 57 1 56 1;
#X connect 58 0 56 0;
#X connect 59 0 68 0;
#X connect 59 0 72 0;
#X connect 60 0 59 1;
#X connect 62 0 33 0;
#X connect 63 0 35 0;
#X connect 64 0 67 0;
#X connect 64 0 65 0;
#X connect 64 0 66 0;
#X connect 65 0 35 0;
#X connect 66 0 48 0;
#X connect 67 0 33 0;
#X connect 69 0 68 0;
#X connect 70 0 68 0;
#X connect 71 0 68 0;
#X connect 72 0 61 0;
#X connect 72 0 61 1;
#X connect 73 0 81 0;
#X connect 74 0 75 0;
#X connect 75 0 76 0;
#X connect 76 0 73 1;
#X connect 77 0 73 2;
#X connect 79 0 78 2;
#X connect 80 0 84 0;
#X connect 81 0 85 0;
#X connect 81 0 92 0;
#X connect 82 0 81 1;
#X connect 83 0 82 1;
#X connect 84 0 82 0;
#X connect 86 0 90 0;
#X connect 87 0 91 0;
#X connect 87 0 93 0;
#X connect 88 0 87 1;
#X connect 89 0 88 1;
#X connect 90 0 88 0;
#X connect 94 0 87 0;
#X connect 95 0 96 0;
#X connect 96 0 97 0;
#X connect 97 0 94 1;
#X connect 98 0 94 2;
