#N canvas 50 23 487 462 12;
#X obj 203 297 *~;
#X obj 79 111 inlet~;
#X obj 241 367 outlet~;
#X obj 145 111 inlet~;
#X text 79 89 SOUND;
#X text 143 88 ENVELOPE;
#X obj 145 136 *~ 0.5;
#X obj 271 52 loadbang;
#X obj 271 76 metro 500;
#X obj 271 100 random 50;
#X obj 271 124 + 30;
#X obj 271 148 mtof;
#X obj 320 186 + 10;
#X obj 179 242 samphold~;
#X obj 239 211 phasor~;
#X obj 260 243 samphold~;
#X obj 320 212 phasor~;
#X obj 289 296 *~;
#X obj 203 321 *~ 0.7;
#X obj 88 179 r~ vcf-noise;
#X obj 88 203 *~ 5;
#X obj 288 322 *~ 0.3;
#X obj 345 100 random 100;
#X text 198 185 SAMPLE CRUSHING;
#X connect 0 0 18 0;
#X connect 1 0 13 0;
#X connect 1 0 15 0;
#X connect 1 0 17 0;
#X connect 3 0 6 0;
#X connect 6 0 0 1;
#X connect 6 0 17 1;
#X connect 7 0 8 0;
#X connect 8 0 9 0;
#X connect 8 0 22 0;
#X connect 9 0 10 0;
#X connect 10 0 11 0;
#X connect 11 0 12 0;
#X connect 11 0 14 0;
#X connect 12 0 16 0;
#X connect 13 0 0 0;
#X connect 14 0 13 1;
#X connect 15 0 0 0;
#X connect 16 0 15 1;
#X connect 17 0 21 0;
#X connect 18 0 2 0;
#X connect 19 0 20 0;
#X connect 20 0 0 0;
#X connect 20 0 17 0;
#X connect 21 0 2 0;
#X connect 22 0 12 1;
