#N canvas 52 48 660 614 12;
#X obj 558 177 tgl 15 0 empty empty empty 17 7 0 10 #fcfcfc #000000
#000000 0 1;
#X obj 297 509 *~;
#X msg 137 288 next \$1;
#X msg 137 263 2;
#X obj 558 197 metro 50;
#X obj 489 143 loadbang;
#X obj 426 397 cos~;
#X obj 426 208 / 10;
#X obj 489 319 line~;
#X obj 444 349 *~;
#X obj 489 273 / 100;
#X obj 489 296 pack 0 50;
#X obj 426 374 +~;
#X obj 426 423 hip~;
#X obj 426 257 *;
#X obj 426 234 t b f;
#X obj 444 320 osc~;
#X obj 426 283 phasor~;
#X msg 426 184 24;
#X obj 137 367 *~;
#X obj 155 342 *~ 0.8;
#X obj 489 223 snapshot~;
#X obj 489 248 * 100;
#X obj 489 173 lop~ 0.5;
#X obj 489 197 lop~ 0.5;
#X msg 389 208 30;
#X obj 312 75 inlet~;
#X obj 297 537 outlet~;
#X text 311 48 ENVELOPE;
#X obj 426 448 *~ 0.8;
#X obj 137 313 clone squishy 2;
#X obj 214 174 r~ noise2;
#X obj 214 231 bng 15 250 50 0 empty empty empty 17 7 0 10 #fcfcfc
#000000 #000000;
#X obj 61 228 bng 15 250 50 0 empty empty empty 17 7 0 10 #fcfcfc #000000
#000000;
#X obj 61 174 r~ noise1;
#X obj 61 202 threshold~ 0.9995 50;
#X obj 214 202 threshold~ 0.999 50;
#X text 119 134 SQUISHY SYNTH;
#X text 480 113 ANHARMONIC FM;
#X text 411 510 from PD documentation;
#X text 446 528 F11.anharmonicFM;
#X connect 0 0 4 0;
#X connect 1 0 27 0;
#X connect 2 0 30 0;
#X connect 3 0 2 0;
#X connect 4 0 21 0;
#X connect 5 0 25 0;
#X connect 5 0 18 0;
#X connect 5 0 0 0;
#X connect 6 0 13 0;
#X connect 7 0 15 0;
#X connect 8 0 9 1;
#X connect 9 0 12 1;
#X connect 10 0 11 0;
#X connect 11 0 8 0;
#X connect 12 0 6 0;
#X connect 13 0 29 0;
#X connect 14 0 17 0;
#X connect 15 0 14 0;
#X connect 15 1 14 1;
#X connect 16 0 9 0;
#X connect 17 0 12 0;
#X connect 18 0 7 0;
#X connect 19 0 1 0;
#X connect 20 0 19 1;
#X connect 21 0 22 0;
#X connect 22 0 10 0;
#X connect 23 0 24 0;
#X connect 24 0 21 0;
#X connect 25 0 14 0;
#X connect 25 0 16 0;
#X connect 26 0 23 0;
#X connect 26 0 20 0;
#X connect 26 0 1 1;
#X connect 29 0 1 0;
#X connect 30 0 19 0;
#X connect 31 0 36 0;
#X connect 32 0 3 0;
#X connect 33 0 3 0;
#X connect 34 0 35 0;
#X connect 35 0 33 0;
#X connect 36 0 32 0;
