#N canvas 0 0 969 801 12;
#X obj 739 39 tgl 15 0 empty empty empty 17 7 0 10 #fcfcfc #000000
#000000 0 1;
#X obj 366 642 *~;
#X obj 366 699 dac~;
#X obj 403 644 hsl 128 15 0 0.99 0 0 empty empty vol -2 -8 0 10 #fcfcfc
#000000 #000000 0 1;
#X obj 739 83 s metro;
#X obj 763 36 loadbang;
#X obj 427 58 piezo-interaction-bela;
#X obj 427 31 adc~;
#X obj 366 581 *~;
#X obj 139 428 clone squishy 64;
#X obj 139 187 tgl 15 0 empty empty empty 17 7 0 10 #fcfcfc #000000
#000000 0 1;
#X obj 139 207 metro 50;
#X msg 139 403 next \$1;
#X msg 139 378 2;
#X obj 81 246 noise~;
#X obj 81 348 bng 15 250 50 0 empty empty empty 17 7 0 10 #fcfcfc #000000
#000000;
#X obj 81 297 snapshot~;
#X obj 739 59 metro 50;
#X obj 81 322 sel 1;
#X obj 206 244 noise~;
#X obj 206 345 bng 15 250 50 0 empty empty empty 17 7 0 10 #fcfcfc
#000000 #000000;
#X obj 206 294 snapshot~;
#X obj 206 319 sel 1;
#X obj 143 245 r metro;
#X obj 206 268 expr~ $v1 > 0.1;
#X obj 81 270 expr~ $v1 > 0.1;
#X obj 345 187 loadbang;
#X obj 595 684 writesf~ 1;
#X msg 592 626 start;
#X msg 607 655 stop;
#X obj 382 457 cos~;
#X floatatom 382 245 4 0 200 0 - - - 0;
#X obj 382 268 / 10;
#X floatatom 345 294 4 0 0 0 - - - 0;
#X floatatom 445 310 4 0 500 0 - - - 0;
#X obj 445 379 line~;
#X obj 400 409 *~;
#X obj 445 333 / 100;
#X obj 445 356 pack 0 50;
#X obj 382 434 +~;
#X obj 382 483 hip~;
#X obj 382 317 *;
#X obj 382 294 t b f;
#X obj 400 380 osc~;
#X obj 382 343 phasor~;
#X msg 382 217 24;
#X obj 224 506 *~;
#X obj 242 481 *~ 0.8;
#X msg 579 598 open 5.flesh.wav;
#X obj 448 287 hsl 128 15 10 100 0 0 empty empty mod\\\ index -2 -8
0 10 #fcfcfc #000000 #000000 0 1;
#X obj 573 125 snapshot~;
#X obj 573 98 r metro;
#X obj 573 150 * 100;
#X obj 503 99 lop~ 0.5;
#X obj 503 123 lop~ 0.5;
#X msg 345 268 30;
#X obj 382 508 *~ 0.5;
#X obj 640 447 cos~;
#X floatatom 640 235 4 0 200 0 - - - 0;
#X obj 640 258 / 10;
#X floatatom 603 284 4 0 0 0 - - - 0;
#X floatatom 703 300 4 0 500 0 - - - 0;
#X obj 703 369 line~;
#X obj 658 399 *~;
#X obj 703 323 / 100;
#X obj 703 346 pack 0 50;
#X obj 640 424 +~;
#X obj 640 473 hip~;
#X obj 640 307 *;
#X obj 640 284 t b f;
#X obj 658 370 osc~;
#X obj 640 333 phasor~;
#X msg 640 207 24;
#X obj 706 277 hsl 128 15 10 100 0 0 empty empty mod\\\ index -2 -8
0 10 #fcfcfc #000000 #000000 0 1;
#X obj 640 498 *~ 0.5;
#X msg 603 258 70;
#X obj 366 668 limiter;
#X connect 0 0 17 0;
#X connect 1 0 76 0;
#X connect 3 0 1 1;
#X connect 5 0 0 0;
#X connect 6 1 8 1;
#X connect 6 1 47 0;
#X connect 6 1 1 1;
#X connect 6 1 53 0;
#X connect 7 0 6 0;
#X connect 8 0 1 0;
#X connect 9 0 46 0;
#X connect 10 0 11 0;
#X connect 11 0 13 0;
#X connect 12 0 9 0;
#X connect 13 0 12 0;
#X connect 14 0 25 0;
#X connect 15 0 13 0;
#X connect 16 0 18 0;
#X connect 17 0 4 0;
#X connect 18 0 15 0;
#X connect 19 0 24 0;
#X connect 20 0 13 0;
#X connect 21 0 22 0;
#X connect 22 0 20 0;
#X connect 23 0 21 0;
#X connect 23 0 16 0;
#X connect 24 0 21 0;
#X connect 25 0 16 0;
#X connect 26 0 55 0;
#X connect 26 0 45 0;
#X connect 26 0 75 0;
#X connect 28 0 27 0;
#X connect 29 0 27 0;
#X connect 30 0 40 0;
#X connect 31 0 32 0;
#X connect 32 0 42 0;
#X connect 33 0 41 0;
#X connect 33 0 43 0;
#X connect 34 0 37 0;
#X connect 35 0 36 1;
#X connect 36 0 39 1;
#X connect 37 0 38 0;
#X connect 38 0 35 0;
#X connect 39 0 30 0;
#X connect 40 0 56 0;
#X connect 41 0 44 0;
#X connect 42 0 41 0;
#X connect 42 1 41 1;
#X connect 43 0 36 0;
#X connect 44 0 39 0;
#X connect 45 0 31 0;
#X connect 46 0 8 0;
#X connect 47 0 46 1;
#X connect 48 0 27 0;
#X connect 49 0 34 0;
#X connect 50 0 52 0;
#X connect 51 0 50 0;
#X connect 52 0 49 0;
#X connect 52 0 73 0;
#X connect 53 0 54 0;
#X connect 54 0 50 0;
#X connect 55 0 33 0;
#X connect 56 0 8 0;
#X connect 57 0 67 0;
#X connect 58 0 59 0;
#X connect 59 0 69 0;
#X connect 60 0 68 0;
#X connect 60 0 70 0;
#X connect 61 0 64 0;
#X connect 62 0 63 1;
#X connect 63 0 66 1;
#X connect 64 0 65 0;
#X connect 65 0 62 0;
#X connect 66 0 57 0;
#X connect 67 0 74 0;
#X connect 68 0 71 0;
#X connect 69 0 68 0;
#X connect 69 1 68 1;
#X connect 70 0 63 0;
#X connect 71 0 66 0;
#X connect 72 0 58 0;
#X connect 73 0 61 0;
#X connect 74 0 8 0;
#X connect 75 0 60 0;
#X connect 76 0 27 0;
#X connect 76 0 2 0;
#X connect 76 0 2 1;
