#N canvas 150 150 642 409 12;
#X obj 181 76 inlet~;
#X obj 248 76 inlet~;
#X text 180 45 SOUND;
#X text 250 45 ENVELOPE;
#X obj 209 130 *~;
#X obj 209 163 outlet~;
#X connect 0 0 4 0;
#X connect 1 0 4 1;
#X connect 4 0 5 0;
