#N canvas 252 110 740 480 12;
#X obj 94 73 adc~;
#X obj 128 349 *~;
#X obj 164 349 hsl 128 15 0 1 0 0 empty empty empty -2 -8 0 10 #fcfcfc
#000000 #000000 0 1;
#X obj 128 373 dac~;
#X obj 94 100 piezo-interaction-bela;
#X obj 246 147 hsl 128 15 0 127 0 0 empty empty empty -2 -8 0 10 #fcfcfc
#000000 #000000 0 1;
#X obj 243 167 mtof;
#X obj 243 191 sig~;
#X obj 123 192 vcf~ 2;
#X connect 0 0 4 0;
#X connect 1 0 3 0;
#X connect 1 0 3 1;
#X connect 2 0 1 1;
#X connect 4 0 8 0;
#X connect 5 0 6 0;
#X connect 6 0 7 0;
#X connect 7 0 8 1;
#X connect 8 0 1 0;
#X connect 8 1 1 0;
