#N canvas 167 63 1170 761 12;
#X obj 159 152 expr~ tanh($f2 * $v1);
#X obj 303 102 loadbang;
#X obj 212 285 *~;
#X obj 212 308 lop~ 1;
#X obj 212 334 sqrt~;
#X obj 232 220 expr~ if($v1 > $f2 \, $v1 \, 0);
#X obj 418 170 loadbang;
#X text 425 133 silence threshold;
#X text 437 150 [0.005 - 0.04];
#X obj 212 360 outlet~;
#X text 181 381 envelope follower;
#X obj 340 316 *~;
#X obj 340 339 lop~ 1;
#X obj 340 289 rzero~ 1;
#X obj 340 365 sqrt~;
#X obj 340 388 outlet~;
#X text 345 263 derivative;
#X text 77 239 direct sound;
#X text 202 425 out signals are roughly [0 - 1];
#X msg 303 126 60;
#X msg 418 194 0.03;
#X obj 159 124 inlet~;
#X obj 104 214 outlet~;
#X obj 244 104 inlet;
#X obj 363 170 inlet;
#X obj 684 110 inlet~;
#X obj 715 145 *~;
#X obj 801 110 loadbang;
#X msg 801 134 60;
#X obj 754 110 inlet;
#X obj 632 186 exp~;
#X obj 774 185 *~ -1;
#X obj 683 256 -~;
#X obj 774 209 exp~;
#X obj 715 256 +~;
#X obj 696 282 /~;
#X obj 677 318 outlet~;
#X floatatom 952 120 5 0 0 0 - - - 0;
#X obj 952 143 sig~;
#X obj 900 318 metro 100;
#X obj 901 292 tgl 15 0 empty empty empty 17 7 0 10 #fcfcfc #000000
#000000 0 1;
#X obj 900 342 snapshot~;
#X floatatom 900 366 5 0 0 0 - - - 0;
#X obj 602 418 metro 100;
#X obj 603 392 tgl 15 0 empty empty empty 17 7 0 10 #fcfcfc #000000
#000000 0 1;
#X obj 602 442 snapshot~;
#X floatatom 602 466 8 0 0 0 - - - 0;
#X obj 632 209 clip~ -1e+37 1e+37;
#X connect 0 0 5 0;
#X connect 0 0 22 0;
#X connect 0 0 45 0;
#X connect 1 0 19 0;
#X connect 2 0 3 0;
#X connect 3 0 4 0;
#X connect 4 0 9 0;
#X connect 5 0 2 0;
#X connect 5 0 2 1;
#X connect 5 0 13 0;
#X connect 6 0 20 0;
#X connect 11 0 12 0;
#X connect 12 0 14 0;
#X connect 13 0 11 0;
#X connect 13 0 11 1;
#X connect 14 0 15 0;
#X connect 19 0 0 1;
#X connect 20 0 5 1;
#X connect 21 0 0 0;
#X connect 23 0 0 1;
#X connect 24 0 5 1;
#X connect 25 0 26 0;
#X connect 26 0 30 0;
#X connect 26 0 31 0;
#X connect 27 0 28 0;
#X connect 28 0 26 1;
#X connect 29 0 26 1;
#X connect 30 0 47 0;
#X connect 31 0 33 0;
#X connect 32 0 35 0;
#X connect 33 0 32 1;
#X connect 33 0 34 1;
#X connect 34 0 35 1;
#X connect 35 0 36 0;
#X connect 35 0 41 0;
#X connect 37 0 38 0;
#X connect 38 0 26 0;
#X connect 38 0 0 0;
#X connect 39 0 41 0;
#X connect 40 0 39 0;
#X connect 41 0 42 0;
#X connect 43 0 45 0;
#X connect 44 0 43 0;
#X connect 45 0 46 0;
#X connect 47 0 32 0;
#X connect 47 0 34 0;
