#N canvas 167 63 720 569 12;
#X obj 230 336 *~;
#X obj 230 359 lop~ 1;
#X obj 230 385 sqrt~;
#X obj 230 411 outlet~;
#X text 199 432 envelope follower;
#X obj 392 356 *~;
#X obj 392 379 lop~ 1;
#X obj 392 329 rzero~ 1;
#X obj 392 405 sqrt~;
#X obj 392 428 outlet~;
#X text 397 303 derivative;
#X text 95 290 direct sound;
#X text 220 472 out signals are roughly [0 - 1];
#X obj 134 59 inlet~;
#X obj 165 94 *~;
#X obj 251 59 loadbang;
#X msg 251 83 60;
#X obj 204 59 inlet;
#X obj 82 135 exp~;
#X obj 224 134 *~ -1;
#X obj 133 205 -~;
#X obj 224 158 exp~;
#X obj 165 205 +~;
#X obj 146 231 /~;
#X obj 127 267 outlet~;
#X obj 82 158 clip~ -1e+37 1e+37;
#X obj 382 201 bng 15 250 50 0 empty empty empty 17 7 0 10 #fcfcfc
#000000 #000000;
#X obj 575 201 bng 15 250 50 0 empty empty empty 17 7 0 10 #fcfcfc
#000000 #000000;
#X msg 382 225 1;
#X msg 575 225 0;
#X obj 319 265 *~;
#X obj 382 173 threshold~ 0.2 3000 0.01 100;
#X connect 0 0 1 0;
#X connect 1 0 2 0;
#X connect 2 0 3 0;
#X connect 5 0 6 0;
#X connect 6 0 8 0;
#X connect 7 0 5 0;
#X connect 7 0 5 1;
#X connect 8 0 9 0;
#X connect 13 0 14 0;
#X connect 14 0 18 0;
#X connect 14 0 19 0;
#X connect 15 0 16 0;
#X connect 16 0 14 1;
#X connect 17 0 14 1;
#X connect 18 0 25 0;
#X connect 19 0 21 0;
#X connect 20 0 23 0;
#X connect 21 0 20 1;
#X connect 21 0 22 1;
#X connect 22 0 23 1;
#X connect 23 0 24 0;
#X connect 23 0 30 0;
#X connect 23 0 31 0;
#X connect 25 0 20 0;
#X connect 25 0 22 0;
#X connect 26 0 28 0;
#X connect 27 0 29 0;
#X connect 28 0 30 1;
#X connect 29 0 30 1;
#X connect 30 0 0 0;
#X connect 30 0 0 1;
#X connect 30 0 7 0;
#X connect 31 0 26 0;
#X connect 31 1 27 0;
