#N canvas 63 63 1304 756 12;
#X obj 140 70 r stoc-bang;
#X obj 127 169 s kick;
#X obj 140 95 random 2;
#X obj 140 121 sel 1;
#X obj 183 169 s click;
#X obj 183 149 bng 15 250 50 0 empty empty empty 17 7 0 10 #fcfcfc #000000 #000000;
#X obj 127 149 bng 15 250 50 0 empty empty empty 17 7 0 10 #fcfcfc #000000 #000000;
#X text 316 40 change this control system to one based on probabilities;
#X text 309 63 decide kick or click based on probabilities and subdivisions;
#X text 335 86 eg. upbeat/downbeat \, 4th/8th/16th note...;
#X text 128 46 CONTROL SYSTEM;
#X obj 57 239 r stoc-bang-0;
#X obj 172 240 r stoc-bang-1;
#X obj 57 284 s kick;
#X obj 57 264 bng 15 250 50 0 empty empty empty 17 7 0 10 #fcfcfc #000000 #000000;
#X obj 227 266 r p-1;
#X floatatom 227 290 5 0 0 0 - - - 0;
#N canvas 121 121 356 333 prob-bang 0;
#X obj 64 73 bng 19 250 50 0 empty empty empty 0 -10 0 12 #fcfcfc #000000 #000000;
#X floatatom 64 149 5 0 0 0 - - - 0;
#X obj 64 222 bng 19 250 50 0 empty empty empty 0 -10 0 12 #fcfcfc #000000 #000000;
#X obj 64 198 sel 1;
#X obj 64 174 expr if($f1 < $f2 \, 1 \, 0);
#X obj 64 101 random 10000;
#X obj 64 125 / 10000;
#X obj 64 48 inlet;
#X obj 229 148 inlet;
#X obj 64 247 outlet;
#X obj 120 223 bng 19 250 50 0 empty empty empty 0 -10 0 12 #fcfcfc #000000 #000000;
#X obj 120 247 outlet;
#X connect 0 0 5 0;
#X connect 1 0 4 0;
#X connect 2 0 9 0;
#X connect 3 0 2 0;
#X connect 3 1 10 0;
#X connect 4 0 3 0;
#X connect 5 0 6 0;
#X connect 6 0 1 0;
#X connect 7 0 0 0;
#X connect 8 0 4 1;
#X connect 10 0 11 0;
#X restore 172 319 pd prob-bang;
#X text 309 436 if the sequencer decides to bang;
#X text 246 460 there is a probability p-1 to play a kick;
#X text 232 483 and a probability 1 - (p-1) to play a click;
#X obj 172 372 s kick;
#X obj 225 372 s click;
#X obj 172 346 bng 19 250 50 0 empty empty empty 0 -10 0 12 #fcfcfc #000000 #000000;
#X obj 253 345 bng 19 250 50 0 empty empty empty 0 -10 0 12 #fcfcfc #000000 #000000;
#X floatatom 347 290 5 0 0 0 - - - 0;
#N canvas 121 121 356 333 prob-bang 0;
#X obj 64 73 bng 19 250 50 0 empty empty empty 0 -10 0 12 #fcfcfc #000000 #000000;
#X floatatom 64 149 5 0 0 0 - - - 0;
#X obj 64 222 bng 19 250 50 0 empty empty empty 0 -10 0 12 #fcfcfc #000000 #000000;
#X obj 64 198 sel 1;
#X obj 64 174 expr if($f1 < $f2 \, 1 \, 0);
#X obj 64 101 random 10000;
#X obj 64 125 / 10000;
#X obj 64 48 inlet;
#X obj 229 148 inlet;
#X obj 64 247 outlet;
#X obj 120 223 bng 19 250 50 0 empty empty empty 0 -10 0 12 #fcfcfc #000000 #000000;
#X obj 120 247 outlet;
#X connect 0 0 5 0;
#X connect 1 0 4 0;
#X connect 2 0 9 0;
#X connect 3 0 2 0;
#X connect 3 1 10 0;
#X connect 4 0 3 0;
#X connect 5 0 6 0;
#X connect 6 0 1 0;
#X connect 7 0 0 0;
#X connect 8 0 4 1;
#X connect 10 0 11 0;
#X restore 292 319 pd prob-bang;
#X obj 292 372 s kick;
#X obj 345 372 s click;
#X obj 292 346 bng 19 250 50 0 empty empty empty 0 -10 0 12 #fcfcfc #000000 #000000;
#X obj 373 345 bng 19 250 50 0 empty empty empty 0 -10 0 12 #fcfcfc #000000 #000000;
#X floatatom 471 290 5 0 0 0 - - - 0;
#N canvas 121 121 356 333 prob-bang 0;
#X obj 64 73 bng 19 250 50 0 empty empty empty 0 -10 0 12 #fcfcfc #000000 #000000;
#X floatatom 64 149 5 0 0 0 - - - 0;
#X obj 64 222 bng 19 250 50 0 empty empty empty 0 -10 0 12 #fcfcfc #000000 #000000;
#X obj 64 198 sel 1;
#X obj 64 174 expr if($f1 < $f2 \, 1 \, 0);
#X obj 64 101 random 10000;
#X obj 64 125 / 10000;
#X obj 64 48 inlet;
#X obj 229 148 inlet;
#X obj 64 247 outlet;
#X obj 120 223 bng 19 250 50 0 empty empty empty 0 -10 0 12 #fcfcfc #000000 #000000;
#X obj 120 247 outlet;
#X connect 0 0 5 0;
#X connect 1 0 4 0;
#X connect 2 0 9 0;
#X connect 3 0 2 0;
#X connect 3 1 10 0;
#X connect 4 0 3 0;
#X connect 5 0 6 0;
#X connect 6 0 1 0;
#X connect 7 0 0 0;
#X connect 8 0 4 1;
#X connect 10 0 11 0;
#X restore 416 319 pd prob-bang;
#X obj 416 372 s kick;
#X obj 469 372 s click;
#X obj 416 346 bng 19 250 50 0 empty empty empty 0 -10 0 12 #fcfcfc #000000 #000000;
#X obj 497 345 bng 19 250 50 0 empty empty empty 0 -10 0 12 #fcfcfc #000000 #000000;
#X floatatom 591 290 5 0 0 0 - - - 0;
#N canvas 121 121 356 333 prob-bang 0;
#X obj 64 73 bng 19 250 50 0 empty empty empty 0 -10 0 12 #fcfcfc #000000 #000000;
#X floatatom 64 149 5 0 0 0 - - - 0;
#X obj 64 222 bng 19 250 50 0 empty empty empty 0 -10 0 12 #fcfcfc #000000 #000000;
#X obj 64 198 sel 1;
#X obj 64 174 expr if($f1 < $f2 \, 1 \, 0);
#X obj 64 101 random 10000;
#X obj 64 125 / 10000;
#X obj 64 48 inlet;
#X obj 229 148 inlet;
#X obj 64 247 outlet;
#X obj 120 223 bng 19 250 50 0 empty empty empty 0 -10 0 12 #fcfcfc #000000 #000000;
#X obj 120 247 outlet;
#X connect 0 0 5 0;
#X connect 1 0 4 0;
#X connect 2 0 9 0;
#X connect 3 0 2 0;
#X connect 3 1 10 0;
#X connect 4 0 3 0;
#X connect 5 0 6 0;
#X connect 6 0 1 0;
#X connect 7 0 0 0;
#X connect 8 0 4 1;
#X connect 10 0 11 0;
#X restore 536 319 pd prob-bang;
#X obj 536 372 s kick;
#X obj 589 372 s click;
#X obj 536 346 bng 19 250 50 0 empty empty empty 0 -10 0 12 #fcfcfc #000000 #000000;
#X obj 617 345 bng 19 250 50 0 empty empty empty 0 -10 0 12 #fcfcfc #000000 #000000;
#X obj 292 240 r stoc-bang-2;
#X obj 416 240 r stoc-bang-3;
#X obj 536 240 r stoc-bang-4;
#X floatatom 711 289 5 0 0 0 - - - 0;
#N canvas 121 121 356 333 prob-bang 0;
#X obj 64 73 bng 19 250 50 0 empty empty empty 0 -10 0 12 #fcfcfc #000000 #000000;
#X floatatom 64 149 5 0 0 0 - - - 0;
#X obj 64 222 bng 19 250 50 0 empty empty empty 0 -10 0 12 #fcfcfc #000000 #000000;
#X obj 64 198 sel 1;
#X obj 64 174 expr if($f1 < $f2 \, 1 \, 0);
#X obj 64 101 random 10000;
#X obj 64 125 / 10000;
#X obj 64 48 inlet;
#X obj 229 148 inlet;
#X obj 64 247 outlet;
#X obj 120 223 bng 19 250 50 0 empty empty empty 0 -10 0 12 #fcfcfc #000000 #000000;
#X obj 120 247 outlet;
#X connect 0 0 5 0;
#X connect 1 0 4 0;
#X connect 2 0 9 0;
#X connect 3 0 2 0;
#X connect 3 1 10 0;
#X connect 4 0 3 0;
#X connect 5 0 6 0;
#X connect 6 0 1 0;
#X connect 7 0 0 0;
#X connect 8 0 4 1;
#X connect 10 0 11 0;
#X restore 656 318 pd prob-bang;
#X obj 656 371 s kick;
#X obj 709 371 s click;
#X obj 656 345 bng 19 250 50 0 empty empty empty 0 -10 0 12 #fcfcfc #000000 #000000;
#X obj 737 344 bng 19 250 50 0 empty empty empty 0 -10 0 12 #fcfcfc #000000 #000000;
#X obj 656 239 r stoc-bang-5;
#X obj 347 266 r p-2;
#X obj 471 266 r p-3;
#X obj 591 266 r p-4;
#X obj 711 265 r p-5;
#X text 358 538 TODO;
#X text 256 576 add button to stop a sequence;
#X text 255 601 add control to mute click or kick;
#X connect 0 0 2 0;
#X connect 2 0 3 0;
#X connect 3 0 6 0;
#X connect 3 1 5 0;
#X connect 5 0 4 0;
#X connect 6 0 1 0;
#X connect 11 0 14 0;
#X connect 12 0 17 0;
#X connect 14 0 13 0;
#X connect 15 0 16 0;
#X connect 16 0 17 1;
#X connect 17 0 23 0;
#X connect 17 1 24 0;
#X connect 23 0 21 0;
#X connect 24 0 22 0;
#X connect 25 0 26 1;
#X connect 26 0 29 0;
#X connect 26 1 30 0;
#X connect 29 0 27 0;
#X connect 30 0 28 0;
#X connect 31 0 32 1;
#X connect 32 0 35 0;
#X connect 32 1 36 0;
#X connect 35 0 33 0;
#X connect 36 0 34 0;
#X connect 37 0 38 1;
#X connect 38 0 41 0;
#X connect 38 1 42 0;
#X connect 41 0 39 0;
#X connect 42 0 40 0;
#X connect 43 0 26 0;
#X connect 44 0 32 0;
#X connect 45 0 38 0;
#X connect 46 0 47 1;
#X connect 47 0 50 0;
#X connect 47 1 51 0;
#X connect 50 0 48 0;
#X connect 51 0 49 0;
#X connect 52 0 47 0;
#X connect 53 0 25 0;
#X connect 54 0 31 0;
#X connect 55 0 37 0;
#X connect 56 0 46 0;
