#N canvas 0 0 1440 872 8;
#X obj 33 56 tgl 19 0 empty empty empty 0 -10 0 12 #fcfcfc #000000 #000000 0 1;
#X obj 33 80 metro 5000;
#X obj 33 104 bng 19 250 50 0 empty empty empty 0 -10 0 12 #fcfcfc #000000 #000000;
#X floatatom 100 56 5 0 0 0 - - - 0;
#X obj 33 143 / 2;
#X obj 678 144 del 2500;
#X floatatom 33 167 5 0 0 0 - - - 0;
#X obj 678 196 bng 19 250 50 0 empty empty empty 0 -10 0 12 #fcfcfc #000000 #000000;
#X obj 738 51 hsl 162 19 0 1 0 0 empty empty empty -2 -10 0 12 #fcfcfc #000000 #000000 0 1;
#X obj 33 188 / 2;
#X floatatom 33 212 5 0 0 0 - - - 0;
#X obj 1021 222 del 1250;
#X obj 379 219 del 1250;
#X obj 33 331 / 2;
#X floatatom 33 355 5 0 0 0 - - - 0;
#X obj 218 393 del 625;
#X obj 538 384 del 625;
#X obj 854 384 del 625;
#X obj 1188 386 del 625;
#X obj 33 477 / 2;
#X floatatom 33 501 5 0 0 0 - - - 0;
#X obj 122 556 del 312.5;
#X obj 291 554 del 312.5;
#X obj 453 555 del 312.5;
#X obj 610 554 del 312.5;
#X obj 780 553 del 312.5;
#X obj 949 551 del 312.5;
#X obj 1111 552 del 312.5;
#X obj 1268 551 del 312.5;
#N canvas 121 121 356 333 prob-bang 0;
#X obj 64 73 bng 19 250 50 0 empty empty empty 0 -10 0 12 #fcfcfc #000000 #000000;
#X floatatom 64 149 5 0 0 0 - - - 0;
#X obj 64 223 bng 19 250 50 0 empty empty empty 0 -10 0 12 #fcfcfc #000000 #000000;
#X obj 64 198 sel 1;
#X obj 64 174 expr if($f1 < $f2 \, 1 \, 0);
#X obj 64 101 random 10000;
#X obj 64 125 / 10000;
#X obj 64 48 inlet;
#X obj 229 148 inlet;
#X obj 64 247 outlet;
#X connect 0 0 5 0;
#X connect 1 0 4 0;
#X connect 2 0 9 0;
#X connect 3 0 2 0;
#X connect 4 0 3 0;
#X connect 5 0 6 0;
#X connect 6 0 1 0;
#X connect 7 0 0 0;
#X connect 8 0 4 1;
#X restore 678 170 pd prob-bang;
#X obj 379 270 bng 19 250 50 0 empty empty empty 0 -10 0 12 #fcfcfc #000000 #000000;
#N canvas 121 121 356 333 prob-bang 0;
#X obj 64 73 bng 19 250 50 0 empty empty empty 0 -10 0 12 #fcfcfc #000000 #000000;
#X floatatom 64 149 5 0 0 0 - - - 0;
#X obj 64 223 bng 19 250 50 0 empty empty empty 0 -10 0 12 #fcfcfc #000000 #000000;
#X obj 64 198 sel 1;
#X obj 64 174 expr if($f1 < $f2 \, 1 \, 0);
#X obj 64 101 random 10000;
#X obj 64 125 / 10000;
#X obj 64 48 inlet;
#X obj 229 148 inlet;
#X obj 64 247 outlet;
#X connect 0 0 5 0;
#X connect 1 0 4 0;
#X connect 2 0 9 0;
#X connect 3 0 2 0;
#X connect 4 0 3 0;
#X connect 5 0 6 0;
#X connect 6 0 1 0;
#X connect 7 0 0 0;
#X connect 8 0 4 1;
#X restore 379 244 pd prob-bang;
#X obj 1022 274 bng 19 250 50 0 empty empty empty 0 -10 0 12 #fcfcfc #000000 #000000;
#N canvas 121 121 356 333 prob-bang 0;
#X obj 64 73 bng 19 250 50 0 empty empty empty 0 -10 0 12 #fcfcfc #000000 #000000;
#X floatatom 64 149 5 0 0 0 - - - 0;
#X obj 64 223 bng 19 250 50 0 empty empty empty 0 -10 0 12 #fcfcfc #000000 #000000;
#X obj 64 198 sel 1;
#X obj 64 174 expr if($f1 < $f2 \, 1 \, 0);
#X obj 64 101 random 10000;
#X obj 64 125 / 10000;
#X obj 64 48 inlet;
#X obj 229 148 inlet;
#X obj 64 247 outlet;
#X connect 0 0 5 0;
#X connect 1 0 4 0;
#X connect 2 0 9 0;
#X connect 3 0 2 0;
#X connect 4 0 3 0;
#X connect 5 0 6 0;
#X connect 6 0 1 0;
#X connect 7 0 0 0;
#X connect 8 0 4 1;
#X restore 1022 248 pd prob-bang;
#X obj 218 445 bng 19 250 50 0 empty empty empty 0 -10 0 12 #fcfcfc #000000 #000000;
#N canvas 121 121 356 333 prob-bang 0;
#X obj 64 73 bng 19 250 50 0 empty empty empty 0 -10 0 12 #fcfcfc #000000 #000000;
#X floatatom 64 149 5 0 0 0 - - - 0;
#X obj 64 223 bng 19 250 50 0 empty empty empty 0 -10 0 12 #fcfcfc #000000 #000000;
#X obj 64 198 sel 1;
#X obj 64 174 expr if($f1 < $f2 \, 1 \, 0);
#X obj 64 101 random 10000;
#X obj 64 125 / 10000;
#X obj 64 48 inlet;
#X obj 229 148 inlet;
#X obj 64 247 outlet;
#X connect 0 0 5 0;
#X connect 1 0 4 0;
#X connect 2 0 9 0;
#X connect 3 0 2 0;
#X connect 4 0 3 0;
#X connect 5 0 6 0;
#X connect 6 0 1 0;
#X connect 7 0 0 0;
#X connect 8 0 4 1;
#X restore 218 419 pd prob-bang;
#X obj 539 436 bng 19 250 50 0 empty empty empty 0 -10 0 12 #fcfcfc #000000 #000000;
#N canvas 121 121 356 333 prob-bang 0;
#X obj 64 73 bng 19 250 50 0 empty empty empty 0 -10 0 12 #fcfcfc #000000 #000000;
#X floatatom 64 149 5 0 0 0 - - - 0;
#X obj 64 223 bng 19 250 50 0 empty empty empty 0 -10 0 12 #fcfcfc #000000 #000000;
#X obj 64 198 sel 1;
#X obj 64 174 expr if($f1 < $f2 \, 1 \, 0);
#X obj 64 101 random 10000;
#X obj 64 125 / 10000;
#X obj 64 48 inlet;
#X obj 229 148 inlet;
#X obj 64 247 outlet;
#X connect 0 0 5 0;
#X connect 1 0 4 0;
#X connect 2 0 9 0;
#X connect 3 0 2 0;
#X connect 4 0 3 0;
#X connect 5 0 6 0;
#X connect 6 0 1 0;
#X connect 7 0 0 0;
#X connect 8 0 4 1;
#X restore 539 410 pd prob-bang;
#X obj 854 436 bng 19 250 50 0 empty empty empty 0 -10 0 12 #fcfcfc #000000 #000000;
#N canvas 121 121 356 333 prob-bang 0;
#X obj 64 73 bng 19 250 50 0 empty empty empty 0 -10 0 12 #fcfcfc #000000 #000000;
#X floatatom 64 149 5 0 0 0 - - - 0;
#X obj 64 223 bng 19 250 50 0 empty empty empty 0 -10 0 12 #fcfcfc #000000 #000000;
#X obj 64 198 sel 1;
#X obj 64 174 expr if($f1 < $f2 \, 1 \, 0);
#X obj 64 101 random 10000;
#X obj 64 125 / 10000;
#X obj 64 48 inlet;
#X obj 229 148 inlet;
#X obj 64 247 outlet;
#X connect 0 0 5 0;
#X connect 1 0 4 0;
#X connect 2 0 9 0;
#X connect 3 0 2 0;
#X connect 4 0 3 0;
#X connect 5 0 6 0;
#X connect 6 0 1 0;
#X connect 7 0 0 0;
#X connect 8 0 4 1;
#X restore 854 410 pd prob-bang;
#X obj 1188 437 bng 19 250 50 0 empty empty empty 0 -10 0 12 #fcfcfc #000000 #000000;
#N canvas 121 121 356 333 prob-bang 0;
#X obj 64 73 bng 19 250 50 0 empty empty empty 0 -10 0 12 #fcfcfc #000000 #000000;
#X floatatom 64 149 5 0 0 0 - - - 0;
#X obj 64 223 bng 19 250 50 0 empty empty empty 0 -10 0 12 #fcfcfc #000000 #000000;
#X obj 64 198 sel 1;
#X obj 64 174 expr if($f1 < $f2 \, 1 \, 0);
#X obj 64 101 random 10000;
#X obj 64 125 / 10000;
#X obj 64 48 inlet;
#X obj 229 148 inlet;
#X obj 64 247 outlet;
#X connect 0 0 5 0;
#X connect 1 0 4 0;
#X connect 2 0 9 0;
#X connect 3 0 2 0;
#X connect 4 0 3 0;
#X connect 5 0 6 0;
#X connect 6 0 1 0;
#X connect 7 0 0 0;
#X connect 8 0 4 1;
#X restore 1188 411 pd prob-bang;
#X obj 122 607 bng 19 250 50 0 empty empty empty 0 -10 0 12 #fcfcfc #000000 #000000;
#N canvas 121 121 356 333 prob-bang 0;
#X obj 64 73 bng 19 250 50 0 empty empty empty 0 -10 0 12 #fcfcfc #000000 #000000;
#X floatatom 64 149 5 0 0 0 - - - 0;
#X obj 64 223 bng 19 250 50 0 empty empty empty 0 -10 0 12 #fcfcfc #000000 #000000;
#X obj 64 198 sel 1;
#X obj 64 174 expr if($f1 < $f2 \, 1 \, 0);
#X obj 64 101 random 10000;
#X obj 64 125 / 10000;
#X obj 64 48 inlet;
#X obj 229 148 inlet;
#X obj 64 247 outlet;
#X connect 0 0 5 0;
#X connect 1 0 4 0;
#X connect 2 0 9 0;
#X connect 3 0 2 0;
#X connect 4 0 3 0;
#X connect 5 0 6 0;
#X connect 6 0 1 0;
#X connect 7 0 0 0;
#X connect 8 0 4 1;
#X restore 122 581 pd prob-bang;
#X obj 453 608 bng 19 250 50 0 empty empty empty 0 -10 0 12 #fcfcfc #000000 #000000;
#N canvas 121 121 356 333 prob-bang 0;
#X obj 64 73 bng 19 250 50 0 empty empty empty 0 -10 0 12 #fcfcfc #000000 #000000;
#X floatatom 64 149 5 0 0 0 - - - 0;
#X obj 64 223 bng 19 250 50 0 empty empty empty 0 -10 0 12 #fcfcfc #000000 #000000;
#X obj 64 198 sel 1;
#X obj 64 174 expr if($f1 < $f2 \, 1 \, 0);
#X obj 64 101 random 10000;
#X obj 64 125 / 10000;
#X obj 64 48 inlet;
#X obj 229 148 inlet;
#X obj 64 247 outlet;
#X connect 0 0 5 0;
#X connect 1 0 4 0;
#X connect 2 0 9 0;
#X connect 3 0 2 0;
#X connect 4 0 3 0;
#X connect 5 0 6 0;
#X connect 6 0 1 0;
#X connect 7 0 0 0;
#X connect 8 0 4 1;
#X restore 453 582 pd prob-bang;
#X obj 780 608 bng 19 250 50 0 empty empty empty 0 -10 0 12 #fcfcfc #000000 #000000;
#N canvas 121 121 356 333 prob-bang 0;
#X obj 64 73 bng 19 250 50 0 empty empty empty 0 -10 0 12 #fcfcfc #000000 #000000;
#X floatatom 64 149 5 0 0 0 - - - 0;
#X obj 64 223 bng 19 250 50 0 empty empty empty 0 -10 0 12 #fcfcfc #000000 #000000;
#X obj 64 198 sel 1;
#X obj 64 174 expr if($f1 < $f2 \, 1 \, 0);
#X obj 64 101 random 10000;
#X obj 64 125 / 10000;
#X obj 64 48 inlet;
#X obj 229 148 inlet;
#X obj 64 247 outlet;
#X connect 0 0 5 0;
#X connect 1 0 4 0;
#X connect 2 0 9 0;
#X connect 3 0 2 0;
#X connect 4 0 3 0;
#X connect 5 0 6 0;
#X connect 6 0 1 0;
#X connect 7 0 0 0;
#X connect 8 0 4 1;
#X restore 780 582 pd prob-bang;
#X obj 1111 604 bng 19 250 50 0 empty empty empty 0 -10 0 12 #fcfcfc #000000 #000000;
#N canvas 121 121 356 333 prob-bang 0;
#X obj 64 73 bng 19 250 50 0 empty empty empty 0 -10 0 12 #fcfcfc #000000 #000000;
#X floatatom 64 149 5 0 0 0 - - - 0;
#X obj 64 223 bng 19 250 50 0 empty empty empty 0 -10 0 12 #fcfcfc #000000 #000000;
#X obj 64 198 sel 1;
#X obj 64 174 expr if($f1 < $f2 \, 1 \, 0);
#X obj 64 101 random 10000;
#X obj 64 125 / 10000;
#X obj 64 48 inlet;
#X obj 229 148 inlet;
#X obj 64 247 outlet;
#X connect 0 0 5 0;
#X connect 1 0 4 0;
#X connect 2 0 9 0;
#X connect 3 0 2 0;
#X connect 4 0 3 0;
#X connect 5 0 6 0;
#X connect 6 0 1 0;
#X connect 7 0 0 0;
#X connect 8 0 4 1;
#X restore 1111 578 pd prob-bang;
#X obj 291 605 bng 19 250 50 0 empty empty empty 0 -10 0 12 #fcfcfc #000000 #000000;
#N canvas 121 121 356 333 prob-bang 0;
#X obj 64 73 bng 19 250 50 0 empty empty empty 0 -10 0 12 #fcfcfc #000000 #000000;
#X floatatom 64 149 5 0 0 0 - - - 0;
#X obj 64 223 bng 19 250 50 0 empty empty empty 0 -10 0 12 #fcfcfc #000000 #000000;
#X obj 64 198 sel 1;
#X obj 64 174 expr if($f1 < $f2 \, 1 \, 0);
#X obj 64 101 random 10000;
#X obj 64 125 / 10000;
#X obj 64 48 inlet;
#X obj 229 148 inlet;
#X obj 64 247 outlet;
#X connect 0 0 5 0;
#X connect 1 0 4 0;
#X connect 2 0 9 0;
#X connect 3 0 2 0;
#X connect 4 0 3 0;
#X connect 5 0 6 0;
#X connect 6 0 1 0;
#X connect 7 0 0 0;
#X connect 8 0 4 1;
#X restore 291 579 pd prob-bang;
#X obj 610 607 bng 19 250 50 0 empty empty empty 0 -10 0 12 #fcfcfc #000000 #000000;
#N canvas 121 121 356 333 prob-bang 0;
#X obj 64 73 bng 19 250 50 0 empty empty empty 0 -10 0 12 #fcfcfc #000000 #000000;
#X floatatom 64 149 5 0 0 0 - - - 0;
#X obj 64 223 bng 19 250 50 0 empty empty empty 0 -10 0 12 #fcfcfc #000000 #000000;
#X obj 64 198 sel 1;
#X obj 64 174 expr if($f1 < $f2 \, 1 \, 0);
#X obj 64 101 random 10000;
#X obj 64 125 / 10000;
#X obj 64 48 inlet;
#X obj 229 148 inlet;
#X obj 64 247 outlet;
#X connect 0 0 5 0;
#X connect 1 0 4 0;
#X connect 2 0 9 0;
#X connect 3 0 2 0;
#X connect 4 0 3 0;
#X connect 5 0 6 0;
#X connect 6 0 1 0;
#X connect 7 0 0 0;
#X connect 8 0 4 1;
#X restore 610 581 pd prob-bang;
#X obj 949 603 bng 19 250 50 0 empty empty empty 0 -10 0 12 #fcfcfc #000000 #000000;
#N canvas 121 121 356 333 prob-bang 0;
#X obj 64 73 bng 19 250 50 0 empty empty empty 0 -10 0 12 #fcfcfc #000000 #000000;
#X floatatom 64 149 5 0 0 0 - - - 0;
#X obj 64 223 bng 19 250 50 0 empty empty empty 0 -10 0 12 #fcfcfc #000000 #000000;
#X obj 64 198 sel 1;
#X obj 64 174 expr if($f1 < $f2 \, 1 \, 0);
#X obj 64 101 random 10000;
#X obj 64 125 / 10000;
#X obj 64 48 inlet;
#X obj 229 148 inlet;
#X obj 64 247 outlet;
#X connect 0 0 5 0;
#X connect 1 0 4 0;
#X connect 2 0 9 0;
#X connect 3 0 2 0;
#X connect 4 0 3 0;
#X connect 5 0 6 0;
#X connect 6 0 1 0;
#X connect 7 0 0 0;
#X connect 8 0 4 1;
#X restore 949 577 pd prob-bang;
#X obj 1268 605 bng 19 250 50 0 empty empty empty 0 -10 0 12 #fcfcfc #000000 #000000;
#N canvas 121 121 356 333 prob-bang 0;
#X obj 64 73 bng 19 250 50 0 empty empty empty 0 -10 0 12 #fcfcfc #000000 #000000;
#X floatatom 64 149 5 0 0 0 - - - 0;
#X obj 64 223 bng 19 250 50 0 empty empty empty 0 -10 0 12 #fcfcfc #000000 #000000;
#X obj 64 198 sel 1;
#X obj 64 174 expr if($f1 < $f2 \, 1 \, 0);
#X obj 64 101 random 10000;
#X obj 64 125 / 10000;
#X obj 64 48 inlet;
#X obj 229 148 inlet;
#X obj 64 247 outlet;
#X connect 0 0 5 0;
#X connect 1 0 4 0;
#X connect 2 0 9 0;
#X connect 3 0 2 0;
#X connect 4 0 3 0;
#X connect 5 0 6 0;
#X connect 6 0 1 0;
#X connect 7 0 0 0;
#X connect 8 0 4 1;
#X restore 1268 579 pd prob-bang;
#X text 249 43 RECURSION PROBLEM;
#X text 247 62 how to automize the nested loops?;
#X text 247 106 maybe clone obj with subdivision of 2?;
#X text 1154 44 TODO;
#X text 1068 67 make bangs LESS likely as the;
#X text 1068 84 subdivion becomes more nested;
#X text 247 83 eg have a slider which adds a subdivision (a nested layer);
#X text 248 125 maybe a tree to generate rhythms?;
#X obj 75 185 *;
#X obj 78 212 hsl 162 19 0 1 0 0 empty empty empty -2 -10 0 12 #fcfcfc #000000 #000000 0 1;
#X obj 77 326 *;
#X obj 80 353 hsl 162 19 0 1 0 0 empty empty empty -2 -10 0 12 #fcfcfc #000000 #000000 0 1;
#X obj 89 478 *;
#X obj 92 500 hsl 162 19 0 1 0 0 empty empty empty -2 -10 0 12 #fcfcfc #000000 #000000 0 1;
#X obj 1275 144 click~;
#X obj 1275 168 dac~;
#X obj 1275 119 r stoc-bang;
#X obj 33 667 / 2;
#X floatatom 33 691 5 0 0 0 - - - 0;
#X obj 87 806 bng 19 250 50 0 empty empty empty 0 -10 0 12 #fcfcfc #000000 #000000;
#N canvas 121 121 356 333 prob-bang 0;
#X obj 64 73 bng 19 250 50 0 empty empty empty 0 -10 0 12 #fcfcfc #000000 #000000;
#X floatatom 64 149 5 0 0 0 - - - 0;
#X obj 64 223 bng 19 250 50 0 empty empty empty 0 -10 0 12 #fcfcfc #000000 #000000;
#X obj 64 198 sel 1;
#X obj 64 174 expr if($f1 < $f2 \, 1 \, 0);
#X obj 64 101 random 10000;
#X obj 64 125 / 10000;
#X obj 64 48 inlet;
#X obj 229 148 inlet;
#X obj 64 247 outlet;
#X connect 0 0 5 0;
#X connect 1 0 4 0;
#X connect 2 0 9 0;
#X connect 3 0 2 0;
#X connect 4 0 3 0;
#X connect 5 0 6 0;
#X connect 6 0 1 0;
#X connect 7 0 0 0;
#X connect 8 0 4 1;
#X restore 87 780 pd prob-bang;
#X obj 418 807 bng 19 250 50 0 empty empty empty 0 -10 0 12 #fcfcfc #000000 #000000;
#N canvas 121 121 356 333 prob-bang 0;
#X obj 64 73 bng 19 250 50 0 empty empty empty 0 -10 0 12 #fcfcfc #000000 #000000;
#X floatatom 64 149 5 0 0 0 - - - 0;
#X obj 64 223 bng 19 250 50 0 empty empty empty 0 -10 0 12 #fcfcfc #000000 #000000;
#X obj 64 198 sel 1;
#X obj 64 174 expr if($f1 < $f2 \, 1 \, 0);
#X obj 64 101 random 10000;
#X obj 64 125 / 10000;
#X obj 64 48 inlet;
#X obj 229 148 inlet;
#X obj 64 247 outlet;
#X connect 0 0 5 0;
#X connect 1 0 4 0;
#X connect 2 0 9 0;
#X connect 3 0 2 0;
#X connect 4 0 3 0;
#X connect 5 0 6 0;
#X connect 6 0 1 0;
#X connect 7 0 0 0;
#X connect 8 0 4 1;
#X restore 418 781 pd prob-bang;
#X obj 756 810 bng 19 250 50 0 empty empty empty 0 -10 0 12 #fcfcfc #000000 #000000;
#N canvas 121 121 356 333 prob-bang 0;
#X obj 64 73 bng 19 250 50 0 empty empty empty 0 -10 0 12 #fcfcfc #000000 #000000;
#X floatatom 64 149 5 0 0 0 - - - 0;
#X obj 64 223 bng 19 250 50 0 empty empty empty 0 -10 0 12 #fcfcfc #000000 #000000;
#X obj 64 198 sel 1;
#X obj 64 174 expr if($f1 < $f2 \, 1 \, 0);
#X obj 64 101 random 10000;
#X obj 64 125 / 10000;
#X obj 64 48 inlet;
#X obj 229 148 inlet;
#X obj 64 247 outlet;
#X connect 0 0 5 0;
#X connect 1 0 4 0;
#X connect 2 0 9 0;
#X connect 3 0 2 0;
#X connect 4 0 3 0;
#X connect 5 0 6 0;
#X connect 6 0 1 0;
#X connect 7 0 0 0;
#X connect 8 0 4 1;
#X restore 756 784 pd prob-bang;
#X obj 1091 808 bng 19 250 50 0 empty empty empty 0 -10 0 12 #fcfcfc #000000 #000000;
#N canvas 121 121 356 333 prob-bang 0;
#X obj 64 73 bng 19 250 50 0 empty empty empty 0 -10 0 12 #fcfcfc #000000 #000000;
#X floatatom 64 149 5 0 0 0 - - - 0;
#X obj 64 223 bng 19 250 50 0 empty empty empty 0 -10 0 12 #fcfcfc #000000 #000000;
#X obj 64 198 sel 1;
#X obj 64 174 expr if($f1 < $f2 \, 1 \, 0);
#X obj 64 101 random 10000;
#X obj 64 125 / 10000;
#X obj 64 48 inlet;
#X obj 229 148 inlet;
#X obj 64 247 outlet;
#X connect 0 0 5 0;
#X connect 1 0 4 0;
#X connect 2 0 9 0;
#X connect 3 0 2 0;
#X connect 4 0 3 0;
#X connect 5 0 6 0;
#X connect 6 0 1 0;
#X connect 7 0 0 0;
#X connect 8 0 4 1;
#X restore 1091 782 pd prob-bang;
#X obj 256 804 bng 19 250 50 0 empty empty empty 0 -10 0 12 #fcfcfc #000000 #000000;
#N canvas 121 121 356 333 prob-bang 0;
#X obj 64 73 bng 19 250 50 0 empty empty empty 0 -10 0 12 #fcfcfc #000000 #000000;
#X floatatom 64 149 5 0 0 0 - - - 0;
#X obj 64 223 bng 19 250 50 0 empty empty empty 0 -10 0 12 #fcfcfc #000000 #000000;
#X obj 64 198 sel 1;
#X obj 64 174 expr if($f1 < $f2 \, 1 \, 0);
#X obj 64 101 random 10000;
#X obj 64 125 / 10000;
#X obj 64 48 inlet;
#X obj 229 148 inlet;
#X obj 64 247 outlet;
#X connect 0 0 5 0;
#X connect 1 0 4 0;
#X connect 2 0 9 0;
#X connect 3 0 2 0;
#X connect 4 0 3 0;
#X connect 5 0 6 0;
#X connect 6 0 1 0;
#X connect 7 0 0 0;
#X connect 8 0 4 1;
#X restore 256 778 pd prob-bang;
#X obj 585 807 bng 19 250 50 0 empty empty empty 0 -10 0 12 #fcfcfc #000000 #000000;
#N canvas 121 121 356 333 prob-bang 0;
#X obj 64 73 bng 19 250 50 0 empty empty empty 0 -10 0 12 #fcfcfc #000000 #000000;
#X floatatom 64 149 5 0 0 0 - - - 0;
#X obj 64 223 bng 19 250 50 0 empty empty empty 0 -10 0 12 #fcfcfc #000000 #000000;
#X obj 64 198 sel 1;
#X obj 64 174 expr if($f1 < $f2 \, 1 \, 0);
#X obj 64 101 random 10000;
#X obj 64 125 / 10000;
#X obj 64 48 inlet;
#X obj 229 148 inlet;
#X obj 64 247 outlet;
#X connect 0 0 5 0;
#X connect 1 0 4 0;
#X connect 2 0 9 0;
#X connect 3 0 2 0;
#X connect 4 0 3 0;
#X connect 5 0 6 0;
#X connect 6 0 1 0;
#X connect 7 0 0 0;
#X connect 8 0 4 1;
#X restore 585 781 pd prob-bang;
#X obj 929 811 bng 19 250 50 0 empty empty empty 0 -10 0 12 #fcfcfc #000000 #000000;
#N canvas 121 121 356 333 prob-bang 0;
#X obj 64 73 bng 19 250 50 0 empty empty empty 0 -10 0 12 #fcfcfc #000000 #000000;
#X floatatom 64 149 5 0 0 0 - - - 0;
#X obj 64 223 bng 19 250 50 0 empty empty empty 0 -10 0 12 #fcfcfc #000000 #000000;
#X obj 64 198 sel 1;
#X obj 64 174 expr if($f1 < $f2 \, 1 \, 0);
#X obj 64 101 random 10000;
#X obj 64 125 / 10000;
#X obj 64 48 inlet;
#X obj 229 148 inlet;
#X obj 64 247 outlet;
#X connect 0 0 5 0;
#X connect 1 0 4 0;
#X connect 2 0 9 0;
#X connect 3 0 2 0;
#X connect 4 0 3 0;
#X connect 5 0 6 0;
#X connect 6 0 1 0;
#X connect 7 0 0 0;
#X connect 8 0 4 1;
#X restore 929 785 pd prob-bang;
#X obj 1257 807 bng 19 250 50 0 empty empty empty 0 -10 0 12 #fcfcfc #000000 #000000;
#N canvas 121 121 356 333 prob-bang 0;
#X obj 64 73 bng 19 250 50 0 empty empty empty 0 -10 0 12 #fcfcfc #000000 #000000;
#X floatatom 64 149 5 0 0 0 - - - 0;
#X obj 64 223 bng 19 250 50 0 empty empty empty 0 -10 0 12 #fcfcfc #000000 #000000;
#X obj 64 198 sel 1;
#X obj 64 174 expr if($f1 < $f2 \, 1 \, 0);
#X obj 64 101 random 10000;
#X obj 64 125 / 10000;
#X obj 64 48 inlet;
#X obj 229 148 inlet;
#X obj 64 247 outlet;
#X connect 0 0 5 0;
#X connect 1 0 4 0;
#X connect 2 0 9 0;
#X connect 3 0 2 0;
#X connect 4 0 3 0;
#X connect 5 0 6 0;
#X connect 6 0 1 0;
#X connect 7 0 0 0;
#X connect 8 0 4 1;
#X restore 1257 781 pd prob-bang;
#X obj 81 666 *;
#X obj 84 693 hsl 162 19 0 1 0 0 empty empty empty -2 -10 0 12 #fcfcfc #000000 #000000 0 1;
#X obj 87 755 del 156.25;
#X obj 256 753 del 156.25;
#X obj 418 754 del 156.25;
#X obj 585 754 del 156.25;
#X obj 756 755 del 156.25;
#X obj 929 759 del 156.25;
#X obj 1091 756 del 156.25;
#X obj 1257 753 del 156.25;
#X obj 173 808 bng 19 250 50 0 empty empty empty 0 -10 0 12 #fcfcfc #000000 #000000;
#N canvas 121 121 356 333 prob-bang 0;
#X obj 64 73 bng 19 250 50 0 empty empty empty 0 -10 0 12 #fcfcfc #000000 #000000;
#X floatatom 64 149 5 0 0 0 - - - 0;
#X obj 64 223 bng 19 250 50 0 empty empty empty 0 -10 0 12 #fcfcfc #000000 #000000;
#X obj 64 198 sel 1;
#X obj 64 174 expr if($f1 < $f2 \, 1 \, 0);
#X obj 64 101 random 10000;
#X obj 64 125 / 10000;
#X obj 64 48 inlet;
#X obj 229 148 inlet;
#X obj 64 247 outlet;
#X connect 0 0 5 0;
#X connect 1 0 4 0;
#X connect 2 0 9 0;
#X connect 3 0 2 0;
#X connect 4 0 3 0;
#X connect 5 0 6 0;
#X connect 6 0 1 0;
#X connect 7 0 0 0;
#X connect 8 0 4 1;
#X restore 173 782 pd prob-bang;
#X obj 504 809 bng 19 250 50 0 empty empty empty 0 -10 0 12 #fcfcfc #000000 #000000;
#N canvas 121 121 356 333 prob-bang 0;
#X obj 64 73 bng 19 250 50 0 empty empty empty 0 -10 0 12 #fcfcfc #000000 #000000;
#X floatatom 64 149 5 0 0 0 - - - 0;
#X obj 64 223 bng 19 250 50 0 empty empty empty 0 -10 0 12 #fcfcfc #000000 #000000;
#X obj 64 198 sel 1;
#X obj 64 174 expr if($f1 < $f2 \, 1 \, 0);
#X obj 64 101 random 10000;
#X obj 64 125 / 10000;
#X obj 64 48 inlet;
#X obj 229 148 inlet;
#X obj 64 247 outlet;
#X connect 0 0 5 0;
#X connect 1 0 4 0;
#X connect 2 0 9 0;
#X connect 3 0 2 0;
#X connect 4 0 3 0;
#X connect 5 0 6 0;
#X connect 6 0 1 0;
#X connect 7 0 0 0;
#X connect 8 0 4 1;
#X restore 504 783 pd prob-bang;
#X obj 844 811 bng 19 250 50 0 empty empty empty 0 -10 0 12 #fcfcfc #000000 #000000;
#N canvas 121 121 356 333 prob-bang 0;
#X obj 64 73 bng 19 250 50 0 empty empty empty 0 -10 0 12 #fcfcfc #000000 #000000;
#X floatatom 64 149 5 0 0 0 - - - 0;
#X obj 64 223 bng 19 250 50 0 empty empty empty 0 -10 0 12 #fcfcfc #000000 #000000;
#X obj 64 198 sel 1;
#X obj 64 174 expr if($f1 < $f2 \, 1 \, 0);
#X obj 64 101 random 10000;
#X obj 64 125 / 10000;
#X obj 64 48 inlet;
#X obj 229 148 inlet;
#X obj 64 247 outlet;
#X connect 0 0 5 0;
#X connect 1 0 4 0;
#X connect 2 0 9 0;
#X connect 3 0 2 0;
#X connect 4 0 3 0;
#X connect 5 0 6 0;
#X connect 6 0 1 0;
#X connect 7 0 0 0;
#X connect 8 0 4 1;
#X restore 844 785 pd prob-bang;
#X obj 1171 807 bng 19 250 50 0 empty empty empty 0 -10 0 12 #fcfcfc #000000 #000000;
#N canvas 121 121 356 333 prob-bang 0;
#X obj 64 73 bng 19 250 50 0 empty empty empty 0 -10 0 12 #fcfcfc #000000 #000000;
#X floatatom 64 149 5 0 0 0 - - - 0;
#X obj 64 223 bng 19 250 50 0 empty empty empty 0 -10 0 12 #fcfcfc #000000 #000000;
#X obj 64 198 sel 1;
#X obj 64 174 expr if($f1 < $f2 \, 1 \, 0);
#X obj 64 101 random 10000;
#X obj 64 125 / 10000;
#X obj 64 48 inlet;
#X obj 229 148 inlet;
#X obj 64 247 outlet;
#X connect 0 0 5 0;
#X connect 1 0 4 0;
#X connect 2 0 9 0;
#X connect 3 0 2 0;
#X connect 4 0 3 0;
#X connect 5 0 6 0;
#X connect 6 0 1 0;
#X connect 7 0 0 0;
#X connect 8 0 4 1;
#X restore 1171 781 pd prob-bang;
#X obj 342 806 bng 19 250 50 0 empty empty empty 0 -10 0 12 #fcfcfc #000000 #000000;
#N canvas 121 121 356 333 prob-bang 0;
#X obj 64 73 bng 19 250 50 0 empty empty empty 0 -10 0 12 #fcfcfc #000000 #000000;
#X floatatom 64 149 5 0 0 0 - - - 0;
#X obj 64 223 bng 19 250 50 0 empty empty empty 0 -10 0 12 #fcfcfc #000000 #000000;
#X obj 64 198 sel 1;
#X obj 64 174 expr if($f1 < $f2 \, 1 \, 0);
#X obj 64 101 random 10000;
#X obj 64 125 / 10000;
#X obj 64 48 inlet;
#X obj 229 148 inlet;
#X obj 64 247 outlet;
#X connect 0 0 5 0;
#X connect 1 0 4 0;
#X connect 2 0 9 0;
#X connect 3 0 2 0;
#X connect 4 0 3 0;
#X connect 5 0 6 0;
#X connect 6 0 1 0;
#X connect 7 0 0 0;
#X connect 8 0 4 1;
#X restore 342 780 pd prob-bang;
#X obj 671 807 bng 19 250 50 0 empty empty empty 0 -10 0 12 #fcfcfc #000000 #000000;
#N canvas 121 121 356 333 prob-bang 0;
#X obj 64 73 bng 19 250 50 0 empty empty empty 0 -10 0 12 #fcfcfc #000000 #000000;
#X floatatom 64 149 5 0 0 0 - - - 0;
#X obj 64 223 bng 19 250 50 0 empty empty empty 0 -10 0 12 #fcfcfc #000000 #000000;
#X obj 64 198 sel 1;
#X obj 64 174 expr if($f1 < $f2 \, 1 \, 0);
#X obj 64 101 random 10000;
#X obj 64 125 / 10000;
#X obj 64 48 inlet;
#X obj 229 148 inlet;
#X obj 64 247 outlet;
#X connect 0 0 5 0;
#X connect 1 0 4 0;
#X connect 2 0 9 0;
#X connect 3 0 2 0;
#X connect 4 0 3 0;
#X connect 5 0 6 0;
#X connect 6 0 1 0;
#X connect 7 0 0 0;
#X connect 8 0 4 1;
#X restore 671 781 pd prob-bang;
#X obj 1009 810 bng 19 250 50 0 empty empty empty 0 -10 0 12 #fcfcfc #000000 #000000;
#N canvas 121 121 356 333 prob-bang 0;
#X obj 64 73 bng 19 250 50 0 empty empty empty 0 -10 0 12 #fcfcfc #000000 #000000;
#X floatatom 64 149 5 0 0 0 - - - 0;
#X obj 64 223 bng 19 250 50 0 empty empty empty 0 -10 0 12 #fcfcfc #000000 #000000;
#X obj 64 198 sel 1;
#X obj 64 174 expr if($f1 < $f2 \, 1 \, 0);
#X obj 64 101 random 10000;
#X obj 64 125 / 10000;
#X obj 64 48 inlet;
#X obj 229 148 inlet;
#X obj 64 247 outlet;
#X connect 0 0 5 0;
#X connect 1 0 4 0;
#X connect 2 0 9 0;
#X connect 3 0 2 0;
#X connect 4 0 3 0;
#X connect 5 0 6 0;
#X connect 6 0 1 0;
#X connect 7 0 0 0;
#X connect 8 0 4 1;
#X restore 1009 784 pd prob-bang;
#X obj 1341 806 bng 19 250 50 0 empty empty empty 0 -10 0 12 #fcfcfc #000000 #000000;
#N canvas 121 121 356 333 prob-bang 0;
#X obj 64 73 bng 19 250 50 0 empty empty empty 0 -10 0 12 #fcfcfc #000000 #000000;
#X floatatom 64 149 5 0 0 0 - - - 0;
#X obj 64 223 bng 19 250 50 0 empty empty empty 0 -10 0 12 #fcfcfc #000000 #000000;
#X obj 64 198 sel 1;
#X obj 64 174 expr if($f1 < $f2 \, 1 \, 0);
#X obj 64 101 random 10000;
#X obj 64 125 / 10000;
#X obj 64 48 inlet;
#X obj 229 148 inlet;
#X obj 64 247 outlet;
#X connect 0 0 5 0;
#X connect 1 0 4 0;
#X connect 2 0 9 0;
#X connect 3 0 2 0;
#X connect 4 0 3 0;
#X connect 5 0 6 0;
#X connect 6 0 1 0;
#X connect 7 0 0 0;
#X connect 8 0 4 1;
#X restore 1341 780 pd prob-bang;
#X obj 173 757 del 156.25;
#X obj 342 755 del 156.25;
#X obj 504 756 del 156.25;
#X obj 671 754 del 156.25;
#X obj 844 756 del 156.25;
#X obj 1009 758 del 156.25;
#X obj 1171 755 del 156.25;
#X obj 1341 752 del 156.25;
#X obj 675 38 ctlin 58;
#X obj 675 57 / 127;
#X text 1112 105 optimize for 4.1;
#X text 1107 130 send probabilities?;
#X text 1083 149 send layer of subdivision?;
#X text 245 143 make system based on 3 \, 4 \, 5...;
#X obj 85 143 s stoc-bang-0;
#X obj 678 220 s stoc-bang-1;
#X obj 379 294 s stoc-bang-2;
#X obj 1022 300 s stoc-bang-2;
#X obj 218 471 s stoc-bang-3;
#X obj 539 463 s stoc-bang-3;
#X obj 854 462 s stoc-bang-3;
#X obj 1188 464 s stoc-bang-3;
#X obj 122 633 s stoc-bang-4;
#X obj 291 631 s stoc-bang-4;
#X obj 453 635 s stoc-bang-4;
#X obj 610 636 s stoc-bang-4;
#X obj 780 634 s stoc-bang-4;
#X obj 949 628 s stoc-bang-4;
#X obj 1111 631 s stoc-bang-4;
#X obj 1268 631 s stoc-bang-4;
#X obj 87 832 s stoc-bang-5;
#X obj 173 834 s stoc-bang-5;
#X obj 256 830 s stoc-bang-5;
#X obj 342 832 s stoc-bang-5;
#X obj 418 834 s stoc-bang-5;
#X obj 504 836 s stoc-bang-5;
#X obj 585 836 s stoc-bang-5;
#X obj 671 836 s stoc-bang-5;
#X obj 756 836 s stoc-bang-5;
#X obj 844 837 s stoc-bang-5;
#X obj 929 836 s stoc-bang-5;
#X obj 1009 835 s stoc-bang-5;
#X obj 1091 835 s stoc-bang-5;
#X obj 1171 834 s stoc-bang-5;
#X obj 1257 833 s stoc-bang-5;
#X obj 1341 832 s stoc-bang-5;
#X obj 735 75 s p-1;
#X obj 75 236 s p-2;
#X obj 77 377 s p-3;
#X obj 89 524 s p-4;
#X obj 81 717 s p-5;
#X connect 0 0 1 0;
#X connect 1 0 2 0;
#X connect 2 0 5 0;
#X connect 2 0 12 0;
#X connect 2 0 15 0;
#X connect 2 0 21 0;
#X connect 2 0 95 0;
#X connect 2 0 133 0;
#X connect 3 0 1 1;
#X connect 3 0 4 0;
#X connect 4 0 6 0;
#X connect 5 0 29 0;
#X connect 5 0 17 0;
#X connect 5 0 25 0;
#X connect 5 0 11 0;
#X connect 5 0 99 0;
#X connect 6 0 5 1;
#X connect 6 0 9 0;
#X connect 7 0 134 0;
#X connect 8 0 29 1;
#X connect 8 0 66 0;
#X connect 8 0 66 1;
#X connect 8 0 68 1;
#X connect 8 0 165 0;
#X connect 9 0 10 0;
#X connect 10 0 11 1;
#X connect 10 0 12 1;
#X connect 10 0 13 0;
#X connect 11 0 27 0;
#X connect 11 0 18 0;
#X connect 11 0 33 0;
#X connect 11 0 101 0;
#X connect 12 0 23 0;
#X connect 12 0 16 0;
#X connect 12 0 31 0;
#X connect 12 0 97 0;
#X connect 13 0 14 0;
#X connect 14 0 18 1;
#X connect 14 0 17 1;
#X connect 14 0 16 1;
#X connect 14 0 15 1;
#X connect 14 0 19 0;
#X connect 15 0 22 0;
#X connect 15 0 35 0;
#X connect 15 0 96 0;
#X connect 16 0 24 0;
#X connect 16 0 37 0;
#X connect 16 0 98 0;
#X connect 17 0 26 0;
#X connect 17 0 39 0;
#X connect 17 0 100 0;
#X connect 18 0 28 0;
#X connect 18 0 41 0;
#X connect 18 0 102 0;
#X connect 19 0 20 0;
#X connect 20 0 21 1;
#X connect 20 0 28 1;
#X connect 20 0 27 1;
#X connect 20 0 26 1;
#X connect 20 0 25 1;
#X connect 20 0 24 1;
#X connect 20 0 23 1;
#X connect 20 0 22 1;
#X connect 20 0 75 0;
#X connect 21 0 43 0;
#X connect 21 0 119 0;
#X connect 22 0 51 0;
#X connect 22 0 120 0;
#X connect 23 0 45 0;
#X connect 23 0 121 0;
#X connect 24 0 53 0;
#X connect 24 0 122 0;
#X connect 25 0 47 0;
#X connect 25 0 123 0;
#X connect 26 0 55 0;
#X connect 26 0 124 0;
#X connect 27 0 49 0;
#X connect 27 0 125 0;
#X connect 28 0 57 0;
#X connect 28 0 126 0;
#X connect 29 0 7 0;
#X connect 30 0 135 0;
#X connect 31 0 30 0;
#X connect 32 0 136 0;
#X connect 33 0 32 0;
#X connect 34 0 137 0;
#X connect 35 0 34 0;
#X connect 36 0 138 0;
#X connect 37 0 36 0;
#X connect 38 0 139 0;
#X connect 39 0 38 0;
#X connect 40 0 140 0;
#X connect 41 0 40 0;
#X connect 42 0 141 0;
#X connect 43 0 42 0;
#X connect 44 0 143 0;
#X connect 45 0 44 0;
#X connect 46 0 145 0;
#X connect 47 0 46 0;
#X connect 48 0 147 0;
#X connect 49 0 48 0;
#X connect 50 0 142 0;
#X connect 51 0 50 0;
#X connect 52 0 144 0;
#X connect 53 0 52 0;
#X connect 54 0 146 0;
#X connect 55 0 54 0;
#X connect 56 0 148 0;
#X connect 57 0 56 0;
#X connect 66 0 67 0;
#X connect 66 0 70 1;
#X connect 67 0 31 1;
#X connect 67 0 33 1;
#X connect 67 0 68 0;
#X connect 67 0 166 0;
#X connect 68 0 69 0;
#X connect 69 0 35 1;
#X connect 69 0 37 1;
#X connect 69 0 39 1;
#X connect 69 0 41 1;
#X connect 69 0 70 0;
#X connect 69 0 93 1;
#X connect 69 0 167 0;
#X connect 70 0 71 0;
#X connect 71 0 43 1;
#X connect 71 0 51 1;
#X connect 71 0 57 1;
#X connect 71 0 55 1;
#X connect 71 0 53 1;
#X connect 71 0 49 1;
#X connect 71 0 47 1;
#X connect 71 0 45 1;
#X connect 71 0 93 0;
#X connect 71 0 168 0;
#X connect 72 0 73 0;
#X connect 72 0 73 1;
#X connect 75 0 76 0;
#X connect 76 0 95 1;
#X connect 76 0 96 1;
#X connect 76 0 97 1;
#X connect 76 0 98 1;
#X connect 76 0 99 1;
#X connect 76 0 100 1;
#X connect 76 0 101 1;
#X connect 76 0 102 1;
#X connect 76 0 119 1;
#X connect 76 0 126 1;
#X connect 76 0 125 1;
#X connect 76 0 124 1;
#X connect 76 0 123 1;
#X connect 76 0 122 1;
#X connect 76 0 121 1;
#X connect 76 0 120 1;
#X connect 77 0 149 0;
#X connect 78 0 77 0;
#X connect 79 0 153 0;
#X connect 80 0 79 0;
#X connect 81 0 157 0;
#X connect 82 0 81 0;
#X connect 83 0 161 0;
#X connect 84 0 83 0;
#X connect 85 0 151 0;
#X connect 86 0 85 0;
#X connect 87 0 155 0;
#X connect 88 0 87 0;
#X connect 89 0 159 0;
#X connect 90 0 89 0;
#X connect 91 0 163 0;
#X connect 92 0 91 0;
#X connect 93 0 94 0;
#X connect 94 0 78 1;
#X connect 94 0 86 1;
#X connect 94 0 92 1;
#X connect 94 0 90 1;
#X connect 94 0 88 1;
#X connect 94 0 84 1;
#X connect 94 0 82 1;
#X connect 94 0 80 1;
#X connect 94 0 104 1;
#X connect 94 0 118 1;
#X connect 94 0 116 1;
#X connect 94 0 114 1;
#X connect 94 0 112 1;
#X connect 94 0 110 1;
#X connect 94 0 108 1;
#X connect 94 0 106 1;
#X connect 94 0 169 0;
#X connect 95 0 78 0;
#X connect 96 0 86 0;
#X connect 97 0 80 0;
#X connect 98 0 88 0;
#X connect 99 0 82 0;
#X connect 100 0 90 0;
#X connect 101 0 84 0;
#X connect 102 0 92 0;
#X connect 103 0 150 0;
#X connect 104 0 103 0;
#X connect 105 0 154 0;
#X connect 106 0 105 0;
#X connect 107 0 158 0;
#X connect 108 0 107 0;
#X connect 109 0 162 0;
#X connect 110 0 109 0;
#X connect 111 0 152 0;
#X connect 112 0 111 0;
#X connect 113 0 156 0;
#X connect 114 0 113 0;
#X connect 115 0 160 0;
#X connect 116 0 115 0;
#X connect 117 0 164 0;
#X connect 118 0 117 0;
#X connect 119 0 104 0;
#X connect 120 0 112 0;
#X connect 121 0 106 0;
#X connect 122 0 114 0;
#X connect 123 0 108 0;
#X connect 124 0 116 0;
#X connect 125 0 110 0;
#X connect 126 0 118 0;
#X connect 127 0 128 0;
#X connect 128 0 8 0;
