#N canvas 72 38 582 498 12;
#X obj 356 83 tgl 15 0 empty empty empty 17 7 0 10 #fcfcfc #000000
#000000 0 1;
#X obj 356 133 random 1000;
#X obj 356 107 metro 100;
#X obj 377 82 loadbang;
#X text 327 49 SQUARE MODULATION;
#X text 200 46 noise freq mod;
#X obj 356 157 / 500;
#X obj 248 306 *~;
#X obj 220 106 *~ 5;
#X obj 248 330 vcf~ 0.33;
#X obj 278 304 sig~;
#X obj 278 256 loadbang;
#X msg 278 280 77;
#X obj 262 369 *~;
#X obj 359 332 lop~ 0.5;
#X obj 359 304 inlet~;
#X text 355 277 ENVELOPE;
#X obj 262 397 outlet~;
#X obj 220 157 triangle~;
#X obj 220 132 +~ 26;
#X obj 220 81 r~ noise2;
#X obj 356 182 + 6;
#X obj 356 207 square~;
#X obj 110 252 r~ vcf-noise;
#X connect 0 0 2 0;
#X connect 1 0 6 0;
#X connect 2 0 1 0;
#X connect 3 0 0 0;
#X connect 6 0 21 0;
#X connect 7 0 9 0;
#X connect 8 0 19 0;
#X connect 9 0 13 0;
#X connect 9 1 13 0;
#X connect 10 0 9 1;
#X connect 11 0 12 0;
#X connect 12 0 10 0;
#X connect 13 0 17 0;
#X connect 14 0 13 1;
#X connect 15 0 14 0;
#X connect 18 0 7 0;
#X connect 19 0 18 0;
#X connect 20 0 8 0;
#X connect 21 0 22 0;
#X connect 22 0 7 1;
#X connect 23 0 7 0;
