#N canvas 72 38 552 476 12;
#X obj 238 371 *~;
#X obj 319 330 lop~ 0.5;
#X obj 319 302 inlet~;
#X text 315 275 ENVELOPE;
#X obj 238 399 outlet~;
#X obj 319 355 *~ 5;
#X text 258 103 SQUARE MODULATION;
#X obj 218 310 *~;
#X obj 102 142 *~ 5;
#X obj 218 334 vcf~ 0.33;
#X obj 137 221 triangle~;
#X obj 102 168 +~ 26;
#X obj 102 117 r~ noise2;
#X obj 281 204 square~;
#X obj 63 262 r~ vcf-noise;
#X obj 253 29 r~ LFO;
#X obj 137 197 +~;
#X obj 173 168 *~ 5;
#X obj 407 106 *~ 5000;
#X obj 407 130 +~ 5000;
#X obj 264 128 r~ noise1;
#X obj 281 179 +~ 6;
#X obj 338 129 *~ 3;
#X obj 281 152 *~;
#X text 48 88 NOISE FREQUENCY MODULATION;
#X connect 0 0 4 0;
#X connect 1 0 5 0;
#X connect 2 0 1 0;
#X connect 5 0 0 1;
#X connect 7 0 9 0;
#X connect 8 0 11 0;
#X connect 9 0 0 0;
#X connect 9 1 0 0;
#X connect 10 0 7 0;
#X connect 11 0 16 0;
#X connect 12 0 8 0;
#X connect 13 0 7 1;
#X connect 14 0 7 0;
#X connect 15 0 17 0;
#X connect 15 0 18 0;
#X connect 15 0 22 0;
#X connect 16 0 10 0;
#X connect 17 0 16 1;
#X connect 18 0 19 0;
#X connect 19 0 9 1;
#X connect 20 0 23 0;
#X connect 21 0 13 0;
#X connect 22 0 23 1;
#X connect 23 0 21 0;
