#N canvas 142 63 743 700 12;
#X obj 152 185 *~;
#X obj 152 208 lop~ 1;
#X obj 152 234 sqrt~;
#X obj 80 185 *~;
#X obj 80 208 lop~ 1;
#X obj 80 234 sqrt~;
#X obj 236 411 wrap~;
#X obj 285 410 wrap~;
#X obj 334 409 wrap~;
#X obj 320 582 *~;
#X obj 236 352 +~;
#X obj 285 352 +~;
#X obj 334 350 +~;
#X obj 389 409 wrap~;
#X obj 389 350 +~;
#X obj 320 551 lop~ 500;
#X obj 320 511 vcf~ 15, f 10;
#X obj 254 453 *~;
#X obj 294 454 *~;
#X obj 332 452 *~;
#X obj 372 453 *~;
#X obj 472 253 +~;
#X obj 490 205 hip~ 0;
#X obj 490 229 *~ 5;
#X obj 472 306 +~ 0.61;
#X obj 548 303 +~ 0.45;
#X obj 548 252 +~;
#X obj 566 204 hip~ 0;
#X obj 566 228 *~ 5;
#X obj 472 281 *~ 3;
#X obj 548 278 *~ 3;
#X obj 454 402 lop~ 0.5;
#X obj 427 570 lop~ 0.5;
#X obj 236 382 *~ 1;
#X obj 285 381 *~ 2;
#X obj 334 380 *~ 3;
#X obj 389 380 *~ 4;
#X obj 454 426 *~ 300;
#X obj 454 450 +~ 300;
#X obj 83 156 bp~ 8 5;
#X obj 160 154 bp~ 800 5;
#X obj 225 291 *~ 0.2;
#X obj 282 290 *~ 0.2;
#X obj 342 289 *~ 0.2;
#X obj 399 288 *~ 0.2;
#X obj 294 239 phasor~ 94;
#X obj 111 110 inlet~;
#X obj 427 541 inlet~;
#X text 111 83 SOUND;
#X text 420 512 ENVELOPE;
#X obj 320 609 outlet~;
#X obj 524 139 r~ LFO;
#X obj 490 177 r~ lopn1;
#X obj 566 178 r~ lopn2;
#X obj 211 510 r~ vcf-noise;
#X text 263 211 PHASE DISTORTION SYNTH;
#X text 157 128 FREQ ANALYSIS;
#X connect 0 0 1 0;
#X connect 1 0 2 0;
#X connect 2 0 18 1;
#X connect 2 0 43 0;
#X connect 2 0 44 0;
#X connect 2 0 17 1;
#X connect 3 0 4 0;
#X connect 4 0 5 0;
#X connect 5 0 20 1;
#X connect 5 0 41 0;
#X connect 5 0 42 0;
#X connect 5 0 31 0;
#X connect 5 0 19 1;
#X connect 6 0 17 0;
#X connect 7 0 18 0;
#X connect 8 0 19 0;
#X connect 9 0 50 0;
#X connect 10 0 33 0;
#X connect 11 0 34 0;
#X connect 12 0 35 0;
#X connect 13 0 20 0;
#X connect 14 0 36 0;
#X connect 15 0 9 0;
#X connect 16 0 15 0;
#X connect 16 1 15 0;
#X connect 17 0 16 0;
#X connect 18 0 16 0;
#X connect 19 0 16 0;
#X connect 20 0 16 0;
#X connect 21 0 29 0;
#X connect 22 0 23 0;
#X connect 23 0 21 1;
#X connect 24 0 10 1;
#X connect 24 0 12 1;
#X connect 25 0 11 1;
#X connect 25 0 14 1;
#X connect 26 0 30 0;
#X connect 27 0 28 0;
#X connect 28 0 26 1;
#X connect 29 0 24 0;
#X connect 30 0 25 0;
#X connect 31 0 37 0;
#X connect 32 0 9 1;
#X connect 33 0 6 0;
#X connect 34 0 7 0;
#X connect 35 0 8 0;
#X connect 36 0 13 0;
#X connect 37 0 38 0;
#X connect 38 0 16 1;
#X connect 39 0 3 1;
#X connect 39 0 3 0;
#X connect 40 0 0 0;
#X connect 40 0 0 1;
#X connect 41 0 10 1;
#X connect 42 0 11 1;
#X connect 43 0 12 1;
#X connect 44 0 14 1;
#X connect 45 0 10 0;
#X connect 45 0 12 0;
#X connect 45 0 11 0;
#X connect 45 0 14 0;
#X connect 46 0 39 0;
#X connect 46 0 40 0;
#X connect 47 0 32 0;
#X connect 51 0 21 0;
#X connect 51 0 26 0;
#X connect 52 0 22 0;
#X connect 53 0 27 0;
#X connect 54 0 15 0;
