#N canvas 167 63 615 511 12;
#X obj 282 304 *~;
#X obj 282 327 lop~ 1;
#X obj 282 353 sqrt~;
#X obj 282 379 outlet~;
#X text 251 400 envelope follower;
#X text 116 301 direct sound;
#X text 115 445 out signals are roughly [0 - 1];
#X obj 88 68 inlet~;
#X obj 113 104 *~;
#X obj 240 62 loadbang;
#X msg 240 86 60;
#X obj 193 62 inlet;
#X obj 103 146 exp~;
#X obj 245 145 *~ -1;
#X obj 154 216 -~;
#X obj 245 169 exp~;
#X obj 186 216 +~;
#X obj 167 242 /~;
#X obj 148 278 outlet~;
#X obj 103 169 clip~ -1e+37 1e+37;
#X msg 339 152 1;
#X msg 532 150 0;
#X obj 282 274 *~;
#X obj 339 122 threshold~ 0.4 3000 0.01 100;
#X text 66 41 PIEZO SOUND;
#X text 191 39 sensitivity;
#X text 347 38 silence threshold;
#X obj 339 70 inlet;
#X msg 339 94 set \$1 3000 0.01 100;
#X connect 0 0 1 0;
#X connect 1 0 2 0;
#X connect 2 0 3 0;
#X connect 7 0 8 0;
#X connect 8 0 12 0;
#X connect 8 0 13 0;
#X connect 9 0 10 0;
#X connect 10 0 8 1;
#X connect 11 0 8 1;
#X connect 12 0 19 0;
#X connect 13 0 15 0;
#X connect 14 0 17 0;
#X connect 15 0 14 1;
#X connect 15 0 16 1;
#X connect 16 0 17 1;
#X connect 17 0 18 0;
#X connect 17 0 22 0;
#X connect 17 0 23 0;
#X connect 19 0 14 0;
#X connect 19 0 16 0;
#X connect 20 0 22 1;
#X connect 21 0 22 1;
#X connect 22 0 0 0;
#X connect 22 0 0 1;
#X connect 23 0 20 0;
#X connect 23 1 21 0;
#X connect 27 0 28 0;
#X connect 28 0 23 0;
