#N canvas 92 92 307 242 12;
#X obj 70 102 phasor~;
#X obj 147 101 phasor~;
#X obj 100 136 -~;
#X msg 116 77 0;
#X msg 193 77 0.5;
#X obj 159 49 loadbang;
#X obj 91 46 inlet~;
#X obj 100 162 outlet~;
#X connect 0 0 2 0;
#X connect 1 0 2 1;
#X connect 2 0 7 0;
#X connect 3 0 0 1;
#X connect 4 0 1 1;
#X connect 5 0 3 0;
#X connect 5 0 4 0;
#X connect 6 0 0 0;
#X connect 6 0 1 0;
