#N canvas 400 66 1015 708 12;
#X obj 137 323 bp~ 2000 10;
#X obj 256 410 *~;
#X obj 388 95 bng 15 250 50 0 empty empty empty 17 7 0 10 #fcfcfc #000000
#000000;
#X msg 371 221 1 5;
#X obj 414 245 pack 0 500;
#X obj 414 293 *~;
#X obj 414 317 *~;
#X obj 414 269 line~;
#X obj 174 268 random 5000;
#X obj 265 268 random 10;
#X obj 265 292 + 10;
#X obj 481 220 + 200;
#X obj 261 67 loadbang;
#X obj 137 137 random 10;
#X obj 137 161 + 16;
#X obj 388 66 inlet;
#X obj 256 434 outlet~;
#X obj 481 196 random 300;
#X obj 174 292 + 1000;
#X obj 137 237 hip~ 2000;
#X obj 414 221 delay 10;
#X obj 137 185 osc~ 16;
#X obj 137 211 square~_phased;
#X connect 0 0 1 0;
#X connect 1 0 16 0;
#X connect 2 0 3 0;
#X connect 2 0 20 0;
#X connect 3 0 7 0;
#X connect 4 0 7 0;
#X connect 5 0 6 0;
#X connect 5 0 6 1;
#X connect 6 0 1 1;
#X connect 7 0 5 0;
#X connect 7 0 5 1;
#X connect 8 0 18 0;
#X connect 9 0 10 0;
#X connect 10 0 0 2;
#X connect 11 0 4 1;
#X connect 12 0 13 0;
#X connect 12 0 9 0;
#X connect 12 0 8 0;
#X connect 12 0 17 0;
#X connect 13 0 14 0;
#X connect 14 0 21 0;
#X connect 15 0 2 0;
#X connect 17 0 11 0;
#X connect 18 0 0 1;
#X connect 19 0 0 0;
#X connect 20 0 4 0;
#X connect 21 0 22 0;
#X connect 22 0 19 0;
