#N canvas 0 0 1440 872 12;
#X obj 431 415 fragmented-glitch-click~;
#X obj 248 514 knuckles-gen~;
#X obj 805 417 pixel-burst-click~;
#X obj 620 416 smooth-click~;
#X obj 995 415 random-noise-click~;
#X obj 63 464 clicks-cascade~;
#X obj 1232 594 out~;
#X obj 1232 273 valhalla-rev~;
#X text 109 267 ADAPT FOR VBAP FOR 4.1;
#X text 83 291 - each module will have 4 outs;
#X text 82 309 - add a 4 channel mixer before out;
#X obj 890 95 transmitter-in~;
#X text 78 98 - modify each sequencer sound;
#X text 78 117 - initialize all modules;
#X text 78 78 - map to MIDI controller;
#X text 79 136 - try different sequencers;
#X text 111 156 rhythm trees based on 3 and 5;
#X text 111 174 nested groupings or stochastic;
#X text 110 194 seuqencers OR random events triggering;
#X text 111 212 other random events;
#X text 126 50 TO DO LIST;
#X obj 1232 474 tape-sat~;
#X text 1255 36 AMBIENCE;
#X text 1242 452 ANALOG SOUND;
#X text 883 63 INPUT FROM PAIN CREATURE;
#X obj 427 36 stochastic-polymetric-sequencer-mini;
#X obj 544 841 throw~ L-bus;
#X obj 660 841 throw~ R-bus;
#X obj 1197 66 catch~ L-bus;
#X obj 1292 67 catch~ R-bus;
#X obj 1232 101 stereo-delay~;
#X obj 890 295 throw~ L-bus;
#X obj 1006 295 throw~ R-bus;
#X text 867 811 VBAP ADAPTOR HERE;
#N canvas 408 0 1025 872 mapping 1;
#X obj 45 25 ctlin;
#X floatatom 61 52 5 0 0 0 - - - 0;
#X obj 56 165 s cc-num-clicks;
#X obj 56 245 s cc-del-time;
#X obj 56 325 s cc-del-feedback;
#X obj 55 409 s cc-vol;
#X obj 56 115 ctlin 16;
#X obj 56 139 / 127;
#X obj 56 218 / 127;
#X obj 56 300 / 127;
#X obj 55 383 / 127;
#X obj 56 194 ctlin 17;
#X obj 56 276 ctlin 18;
#X obj 55 359 ctlin 19;
#X obj 218 139 / 127;
#X obj 218 218 / 127;
#X obj 218 300 / 127;
#X obj 217 383 / 127;
#X obj 218 115 ctlin 20;
#X obj 218 165 s kg-play-prob;
#X obj 218 245 s kg-vcf-freq;
#X obj 218 194 ctlin 21;
#X obj 218 325 s kg-saturation;
#X obj 217 409 s kg-vol;
#X obj 218 276 ctlin 22;
#X obj 217 359 ctlin 23;
#X obj 888 372 ctlin 62;
#X obj 888 396 / 127;
#X obj 888 420 s master-vol;
#X obj 789 396 / 127;
#X obj 789 372 ctlin 61;
#X obj 789 420 s ti-vol;
#X obj 789 313 / 127;
#X obj 789 289 ctlin 60;
#X obj 789 337 s ts-GREASE;
#X obj 789 231 / 127;
#X obj 788 153 / 127;
#X obj 789 207 ctlin 59;
#X obj 788 129 ctlin 58;
#X obj 789 255 s vr-rev-feedback;
#X obj 788 177 s vr-rev-mix;
#X obj 595 178 s spsm-GLOBAL-PROBABILITY;
#X obj 595 152 / 127;
#X obj 595 128 ctlin 54;
#X obj 595 339 s sd-del-feedback;
#X obj 596 257 s sd-del-time;
#X obj 596 231 / 127;
#X obj 595 312 / 127;
#X obj 596 207 ctlin 55;
#X obj 595 288 ctlin 56;
#X connect 0 1 1 0;
#X connect 6 0 7 0;
#X connect 7 0 2 0;
#X connect 8 0 3 0;
#X connect 9 0 4 0;
#X connect 10 0 5 0;
#X connect 11 0 8 0;
#X connect 12 0 9 0;
#X connect 13 0 10 0;
#X connect 14 0 19 0;
#X connect 15 0 20 0;
#X connect 16 0 22 0;
#X connect 17 0 23 0;
#X connect 18 0 14 0;
#X connect 21 0 15 0;
#X connect 24 0 16 0;
#X connect 25 0 17 0;
#X connect 26 0 27 0;
#X connect 27 0 28 0;
#X connect 29 0 31 0;
#X connect 30 0 29 0;
#X connect 32 0 34 0;
#X connect 33 0 32 0;
#X connect 35 0 39 0;
#X connect 36 0 40 0;
#X connect 37 0 35 0;
#X connect 38 0 36 0;
#X connect 42 0 41 0;
#X connect 43 0 42 0;
#X connect 46 0 45 0;
#X connect 47 0 44 0;
#X connect 48 0 46 0;
#X connect 49 0 47 0;
#X restore 96 358 pd mapping;
#X connect 0 0 26 0;
#X connect 0 0 27 0;
#X connect 1 0 26 0;
#X connect 1 0 27 0;
#X connect 2 0 26 0;
#X connect 2 0 27 0;
#X connect 3 0 26 0;
#X connect 3 0 27 0;
#X connect 4 0 26 0;
#X connect 4 0 27 0;
#X connect 5 0 26 0;
#X connect 5 1 27 0;
#X connect 7 0 21 0;
#X connect 7 1 21 1;
#X connect 11 0 31 0;
#X connect 11 0 32 0;
#X connect 21 0 6 0;
#X connect 21 1 6 1;
#X connect 25 0 0 0;
#X connect 25 0 5 0;
#X connect 25 1 0 0;
#X connect 25 2 3 0;
#X connect 25 3 4 0;
#X connect 25 4 2 0;
#X connect 25 5 2 0;
#X connect 25 6 4 0;
#X connect 28 0 30 0;
#X connect 29 0 30 1;
#X connect 30 0 7 0;
#X connect 30 1 7 1;
