#N canvas 0 0 1440 872 12;
#X obj 441 163 fragmented-glitch-click~;
#X obj 258 262 knuckles-gen~;
#X obj 815 165 pixel-burst-click~;
#X obj 630 164 smooth-click~;
#X obj 1005 163 random-noise-click~;
#X obj 73 212 clicks-cascade~;
#X obj 744 581 out~;
#X obj 320 613 stereo-delay~;
#X text 620 36 GLOBAL SEQUENCER;
#X obj 460 603 valhalla-rev~;
#X text 1087 762 ADAPT FOR VBAP FOR 4.1;
#X text 1061 786 - each module will have 4 outs;
#X text 1060 804 - add a 4 channel mixer before out;
#X obj 96 616 transmitter-in~;
#X text 1056 593 - modify each sequencer sound;
#X text 1056 612 - initialize all modules;
#X text 1056 573 - map to MIDI controller;
#X text 1057 631 - try different sequencers;
#X text 1089 651 rhythm trees based on 3 and 5;
#X text 1089 669 nested groupings or stochastic;
#X text 1088 689 seuqencers OR random events triggering;
#X text 1089 707 other random events;
#X text 1104 545 TO DO LIST;
#X obj 867 554 r master-vol;
#X obj 76 157 r num_clicks;
#X obj 77 182 r del_time;
#X obj 172 159 r del-feedback;
#X obj 172 183 r clicks-cascade-vol;
#X obj 96 589 r transmitter-vol;
#X obj 597 662 tape-sat~;
#X text 418 784 AMBIENCE;
#X text 610 781 ANALOG SOUND;
#X text 92 787 INPUT FROM PAIN CREATURE;
#X connect 0 0 7 0;
#X connect 0 0 7 1;
#X connect 1 0 7 0;
#X connect 1 0 7 1;
#X connect 2 0 7 0;
#X connect 2 0 7 1;
#X connect 3 0 7 0;
#X connect 3 0 7 1;
#X connect 4 0 7 1;
#X connect 4 0 7 0;
#X connect 5 0 7 0;
#X connect 5 1 7 1;
#X connect 7 0 9 0;
#X connect 7 1 9 1;
#X connect 9 0 29 0;
#X connect 9 1 29 1;
#X connect 13 0 7 0;
#X connect 13 0 7 1;
#X connect 23 0 6 2;
#X connect 24 0 5 1;
#X connect 25 0 5 2;
#X connect 26 0 5 3;
#X connect 27 0 5 4;
#X connect 28 0 13 0;
#X connect 29 0 6 0;
#X connect 29 1 6 1;
