#N canvas 0 0 1440 872 12;
#X obj 431 415 fragmented-glitch-click~;
#X obj 248 514 knuckles-gen~;
#X obj 805 417 pixel-burst-click~;
#X obj 620 416 smooth-click~;
#X obj 995 415 random-noise-click~;
#X obj 63 464 clicks-cascade~;
#X obj 1232 594 out~;
#X obj 1232 273 valhalla-rev~;
#X text 109 267 ADAPT FOR VBAP FOR 4.1;
#X text 83 291 - each module will have 4 outs;
#X text 82 309 - add a 4 channel mixer before out;
#X obj 890 95 transmitter-in~;
#X text 78 98 - modify each sequencer sound;
#X text 78 117 - initialize all modules;
#X text 78 78 - map to MIDI controller;
#X text 79 136 - try different sequencers;
#X text 111 156 rhythm trees based on 3 and 5;
#X text 111 174 nested groupings or stochastic;
#X text 110 194 seuqencers OR random events triggering;
#X text 111 212 other random events;
#X text 126 50 TO DO LIST;
#X obj 66 409 r num_clicks;
#X obj 67 434 r del_time;
#X obj 162 411 r del-feedback;
#X obj 162 435 r clicks-cascade-vol;
#X obj 1232 474 tape-sat~;
#X text 1255 36 AMBIENCE;
#X text 1242 452 ANALOG SOUND;
#X text 883 63 INPUT FROM PAIN CREATURE;
#X obj 427 36 stochastic-polymetric-sequencer-mini;
#X obj 544 841 throw~ L-bus;
#X obj 660 841 throw~ R-bus;
#X obj 1197 66 catch~ L-bus;
#X obj 1292 67 catch~ R-bus;
#X obj 1232 101 stereo-delay~;
#X obj 890 295 throw~ L-bus;
#X obj 1006 295 throw~ R-bus;
#X text 867 811 VBAP ADAPTOR HERE;
#N canvas 300 245 450 300 mapping 0;
#X obj 45 25 ctlin;
#X floatatom 61 52 5 0 0 0 - - - 0;
#X connect 0 1 1 0;
#X restore 96 358 pd mapping;
#X connect 0 0 30 0;
#X connect 0 0 31 0;
#X connect 1 0 30 0;
#X connect 1 0 31 0;
#X connect 2 0 30 0;
#X connect 2 0 31 0;
#X connect 3 0 30 0;
#X connect 3 0 31 0;
#X connect 4 0 30 0;
#X connect 4 0 31 0;
#X connect 5 0 30 0;
#X connect 5 1 31 0;
#X connect 7 0 25 0;
#X connect 7 1 25 1;
#X connect 11 0 35 0;
#X connect 11 0 36 0;
#X connect 21 0 5 1;
#X connect 22 0 5 2;
#X connect 23 0 5 3;
#X connect 24 0 5 4;
#X connect 25 0 6 0;
#X connect 25 1 6 1;
#X connect 29 0 0 0;
#X connect 29 0 5 0;
#X connect 29 1 0 0;
#X connect 29 2 3 0;
#X connect 29 3 4 0;
#X connect 29 4 2 0;
#X connect 29 5 2 0;
#X connect 29 6 4 0;
#X connect 32 0 34 0;
#X connect 33 0 34 1;
#X connect 34 0 7 0;
#X connect 34 1 7 1;
