#N canvas 0 0 1440 872 8;
#X msg 321 202 next \$1;
#X msg 321 177 2;
#X obj 321 151 bng 19 250 50 0 empty empty empty 0 -10 0 12 #fcfcfc #000000 #000000;
#X obj 479 202 del 100;
#X obj 479 154 random 1000;
#X obj 566 154 f;
#X floatatom 566 178 5 0 0 0 - - - 0;
#X obj 479 329 spigot;
#X obj 518 280 f;
#X obj 570 281 + 1;
#X obj 518 254 bng 19 250 50 0 empty empty empty 0 -10 0 12 #fcfcfc #000000 #000000;
#X floatatom 518 304 5 0 0 0 - - - 0;
#X msg 544 254 0;
#X obj 479 226 t b b b;
#X obj 170 129 bng 25 250 50 0 empty empty empty 0 -10 0 12 #ff0400 #000000 #000000;
#X obj 455 112 t b b b;
#X obj 596 155 * 1.1;
#X floatatom 645 290 5 0 50 2 num_clicks - - 0;
#X obj 645 230 int;
#X obj 645 254 + 1;
#X obj 479 178 + 70;
#X obj 539 343 /;
#X obj 521 433 * -1;
#X obj 521 457 + 1;
#X floatatom 521 481 5 0 0 0 - - - 0;
#X msg 566 130 30;
#X obj 836 537 +~;
#X obj 854 509 *~ 0.7;
#X floatatom 886 450 5 0 0 0 - - - 0;
#X obj 886 402 * 300;
#X obj 886 426 + 70;
#X text 606 129 generate many randomly spaced clicks;
#X obj 836 671 *~;
#X obj 645 206 * 50;
#X obj 570 305 % 50;
#X obj 151 182 hsl 64 19 0 1 0 0 empty empty random\ panning -2 -10 0 12 #fcfcfc #000000 #000000 0 1;
#X floatatom 613 561 5 0 0 0 - - - 0;
#X obj 613 584 * -1;
#X obj 613 608 + 1;
#X floatatom 613 632 5 0 0 0 - - - 0;
#X obj 534 670 *~;
#X obj 574 670 *~;
#X obj 530 732 *~;
#X obj 570 732 *~;
#X obj 892 672 *~;
#X obj 889 563 +~;
#X obj 907 535 *~ 0.7;
#X obj 854 482 delread~ \$0-del-R 160;
#X obj 854 590 delwrite~ \$0-del-L 2000;
#X obj 897 615 delwrite~ \$0-del-R 2000;
#X obj 907 508 delread~ \$0-del-L 160;
#X floatatom 929 421 5 0 0 0 - - - 0;
#X obj 611 353 / 2;
#X floatatom 611 377 5 0 0 0 - - - 0;
#X obj 657 424 random 2;
#X obj 595 474 + 0.5;
#X obj 611 424 * -1;
#X obj 611 448 + 0.5;
#X obj 596 496 f;
#X obj 611 400 t f f b;
#X obj 657 448 sel 1;
#X obj 679 467 bng 19 250 50 0 empty empty empty 0 -10 0 12 #fcfcfc #000000 #000000;
#X obj 679 492 f;
#X text 617 515 random panning;
#X text 904 354 stereo delay;
#X text 478 410 volume decreases;
#X obj 152 224 hsl 64 19 0 1 0 0 empty empty num_clicks -2 -8 0 10 #c4fcfc #000000 #000000 0 1;
#X obj 84 493 s num-clicks;
#X obj 645 162 r num-clicks;
#X obj 152 264 hsl 64 19 0 1 0 0 empty empty del_time -2 -8 0 10 #e0c4fc #000000 #000000 0 1;
#X obj 159 493 s click-del-time;
#X obj 886 381 r click-del-time;
#X obj 151 310 hsl 64 19 0 1 0 0 empty empty del-feeback -2 -8 0 10 #c4c4fc #000000 #000000 0 1;
#X obj 252 493 s click-del-feedback;
#X obj 929 403 r click-del-feedback;
#X text 1066 309 change panning in 4.1 with vbap;
#X text 993 325 select random center in the 360 degrees and spread around it;
#X floatatom 1127 367 5 0 1 2 pan_center - - 0;
#X obj 892 730 limiter;
#X obj 836 730 limiter;
#X obj 151 353 hsl 64 19 0 1 0 0 empty empty vol -2 -8 0 10 #dfdfdf #000000 #000000 0 1;
#X obj 109 65 inlet;
#X obj 150 65 inlet;
#X obj 189 65 inlet;
#X obj 228 65 inlet;
#X obj 836 759 outlet~;
#X obj 892 758 outlet~;
#X obj 321 227 clone click 50;
#X connect 0 0 87 0;
#X connect 1 0 0 0;
#X connect 2 0 4 0;
#X connect 2 0 1 0;
#X connect 3 0 13 0;
#X connect 4 0 20 0;
#X connect 5 0 6 0;
#X connect 5 0 16 0;
#X connect 6 0 4 1;
#X connect 7 0 2 0;
#X connect 8 0 9 0;
#X connect 8 0 11 0;
#X connect 8 0 21 0;
#X connect 9 0 34 0;
#X connect 10 0 8 0;
#X connect 11 0 7 1;
#X connect 12 0 8 0;
#X connect 13 0 7 0;
#X connect 13 1 10 0;
#X connect 13 2 5 0;
#X connect 14 0 15 0;
#X connect 15 0 2 0;
#X connect 15 1 12 0;
#X connect 15 2 25 0;
#X connect 16 0 5 1;
#X connect 17 0 21 1;
#X connect 17 0 34 1;
#X connect 18 0 19 0;
#X connect 19 0 17 0;
#X connect 20 0 3 0;
#X connect 21 0 22 0;
#X connect 21 0 52 0;
#X connect 22 0 23 0;
#X connect 23 0 24 0;
#X connect 24 0 42 1;
#X connect 24 0 43 1;
#X connect 25 0 5 0;
#X connect 26 0 32 0;
#X connect 26 0 48 0;
#X connect 27 0 26 1;
#X connect 28 0 47 0;
#X connect 28 0 50 0;
#X connect 29 0 30 0;
#X connect 30 0 28 0;
#X connect 32 0 79 0;
#X connect 33 0 18 0;
#X connect 34 0 8 1;
#X connect 35 0 36 0;
#X connect 36 0 37 0;
#X connect 36 0 41 1;
#X connect 37 0 38 0;
#X connect 38 0 39 0;
#X connect 39 0 40 1;
#X connect 40 0 42 0;
#X connect 41 0 43 0;
#X connect 42 0 26 0;
#X connect 43 0 45 0;
#X connect 44 0 78 0;
#X connect 45 0 49 0;
#X connect 45 0 44 0;
#X connect 46 0 45 1;
#X connect 47 0 27 0;
#X connect 50 0 46 0;
#X connect 51 0 46 1;
#X connect 51 0 27 1;
#X connect 52 0 53 0;
#X connect 53 0 59 0;
#X connect 54 0 60 0;
#X connect 55 0 58 1;
#X connect 56 0 57 0;
#X connect 57 0 62 1;
#X connect 58 0 35 0;
#X connect 59 0 55 0;
#X connect 59 1 56 0;
#X connect 59 2 54 0;
#X connect 60 0 58 0;
#X connect 60 1 61 0;
#X connect 61 0 62 0;
#X connect 62 0 35 0;
#X connect 66 0 67 0;
#X connect 68 0 33 0;
#X connect 69 0 70 0;
#X connect 71 0 29 0;
#X connect 72 0 73 0;
#X connect 74 0 51 0;
#X connect 77 0 57 1;
#X connect 77 0 55 1;
#X connect 78 0 86 0;
#X connect 79 0 85 0;
#X connect 80 0 44 1;
#X connect 80 0 32 1;
#X connect 81 0 14 0;
#X connect 82 0 66 0;
#X connect 83 0 69 0;
#X connect 84 0 72 0;
#X connect 87 0 40 0;
#X connect 87 0 41 0;
#X coords 0 -1 1 1 170 300 1 100 100;
