#N canvas 0 0 1440 872 12;
#X obj 111 557 cyclone/click~;
#X obj 111 532 bng 19 250 50 0 empty empty empty 0 -10 0 12 #fcfcfc #000000 #000000;
#X text 122 467 CLICK;
#X obj 620 158 cyclone/uzi 100;
#X obj 150 143 bng 19 250 50 0 empty empty empty 0 -10 0 12 #ff0400 #000000 #000000;
#X obj 765 383 f;
#X obj 798 384 + 1;
#X obj 798 408 % 100;
#X msg 765 356 0;
#X obj 621 310 random 1000;
#X obj 621 334 / 500;
#X obj 621 358 - 1;
#X obj 621 384 f;
#X obj 621 282 sel 1;
#X obj 620 182 t b b b;
#X obj 150 267 hsl 64 19 0.01 1 1 0 empty empty change\ prob -2 -10 0 12 #ffe3c6 #000000 #000000 0 1;
#X obj 621 258 expr if($f1 < $f2 \, 1 \, 0);
#X obj 621 208 random 1000;
#X obj 621 232 / 1000;
#X text 552 95 FRAGMENTED GLITCH CLICKS;
#N canvas 526 526 450 278 (subpatch) 0;
#X array \$0-click-env 100 float 3;
#A 0 -0.26 -0.26 -0.26 -0.26 -0.26 -0.26 -0.26 -0.26 -0.26 -0.26 -0.26 -0.26 -0.26 -0.26 -0.26 -0.26 -0.26 -0.26 -0.26 -0.26 -0.26 -0.26 -0.88 -0.88 -0.88 -0.88 -0.88 -0.88 -0.88 -0.88 -0.88 -0.88 -0.88 -0.88 -0.88 -0.88 -0.88 -0.88 -0.35 -0.35 -0.35 -0.35 -0.35 -0.35 -0.35 -0.35 -0.35 -0.35 -0.35 -0.35 -0.35 -0.35 -0.35 -0.35 -0.35 -0.35 -0.35 -0.35 -0.35 -0.35 -0.35 -0.35 -0.35 -0.35 -0.35 -0.35 -0.35 -0.35 -0.35 -0.35 -0.35 -0.35 -0.35 -0.35 -0.35 -0.35 -0.35 -0.35 -0.35 -0.35 -0.35 -0.35 -0.35 -0.35 -0.35 -0.35 -0.35 -0.35 -0.35 -0.35 -0.35 -0.35 -0.35 -0.35 -0.35 -0.35 -0.35 -0.35 -0.35 -0.35;
#X coords 0 1 100 -1 100 50 1 0 0;
#X restore 138 185 graph;
#X obj 207 142 bng 19 250 50 0 empty empty empty 0 -10 0 12 #9c00ff #000000 #000000;
#X obj 806 611 list;
#X msg 672 759 list \$1;
#X obj 806 560 bng 19 250 50 0 empty empty empty 0 -10 0 12 #fcfcfc #000000 #000000;
#X obj 781 638 list;
#X obj 618 511 bng 19 250 50 0 empty empty empty 0 -10 0 12 #fcfcfc #000000 #000000;
#X obj 618 535 f;
#X obj 649 535 + 1;
#X obj 620 607 sel 1;
#X msg 649 511 0;
#X floatatom 618 560 5 0 0 0 - - - 0;
#X obj 640 631 bng 19 250 50 0 empty empty empty 0 -10 0 12 #fcfcfc #000000 #000000;
#X obj 640 656 t b b;
#X obj 672 683 f;
#X obj 702 684 + 1;
#X msg 687 657 0;
#X obj 618 583 expr if($f1 < 100 \, 1 \, 0);
#X msg 806 584 set;
#X obj 781 664 list trim;
#X obj 702 708 % 100;
#X text 614 467 READ ARRAY AND SET CLICK ENVELOPE;
#X text 829 636 recursive array->list;
#X text 659 560 stopping condition;
#X text 868 655 reading;
#X obj 672 733 tabread \$0-click-env;
#X obj 621 408 tabwrite \$0-click-env;
#X msg 304 257 const 0;
#X obj 304 281 send \$0-click-env;
#X obj 519 121 t b b b;
#X obj 532 154 s \$0-set;
#X obj 452 155 s \$0-play;
#X obj 149 531 r \$0-reset;
#X obj 111 506 r \$0-play;
#X obj 328 750 outlet~;
#X obj 113 48 inlet;
#X obj 162 47 inlet;
#X obj 388 51 inlet;
#X obj 781 688 s \$0-reset;
#X obj 806 536 r \$0-set;
#X obj 304 204 s \$0-initialize;
#X obj 304 233 r \$0-initialize;
#X obj 765 330 r \$0-initialize;
#X text 143 122 PLAY;
#X text 199 122 RESET;
#X obj 148 357 hsl 64 19 0.01 1 0 0 empty empty saturation -2 -10 0 12 #feffc6 #000000 #000000 0 1;
#X obj 149 312 hsl 64 19 0.01 1 0 0 empty empty vcf\ freq -2 -10 0 12 #c6ffc7 #000000 #000000 0 1;
#X obj 213 48 inlet;
#X obj 264 48 inlet;
#X obj 328 671 oversat~;
#X obj 303 584 sig~;
#X obj 284 612 vcf~ 2;
#X obj 381 643 * 30;
#X obj 303 560 * 10000;
#X obj 328 721 *~;
#X obj 148 397 hsl 64 19 0 1 0 0 empty empty vol -2 -10 0 12 #dfdfdf #000000 #000000 0 1;
#X obj 321 48 inlet;
#X connect 0 0 71 0;
#X connect 1 0 0 0;
#X connect 3 0 14 0;
#X connect 4 0 49 0;
#X connect 5 0 6 0;
#X connect 5 0 46 1;
#X connect 6 0 7 0;
#X connect 7 0 5 1;
#X connect 8 0 5 0;
#X connect 9 0 10 0;
#X connect 10 0 11 0;
#X connect 11 0 12 1;
#X connect 12 0 46 0;
#X connect 13 0 9 0;
#X connect 14 0 12 0;
#X connect 14 1 17 0;
#X connect 14 2 5 0;
#X connect 15 0 16 1;
#X connect 16 0 13 0;
#X connect 17 0 18 0;
#X connect 18 0 16 0;
#X connect 21 0 60 0;
#X connect 22 0 25 1;
#X connect 23 0 22 1;
#X connect 24 0 30 0;
#X connect 24 0 38 0;
#X connect 24 0 36 0;
#X connect 25 0 22 0;
#X connect 25 0 39 0;
#X connect 26 0 27 0;
#X connect 27 0 28 0;
#X connect 27 0 31 0;
#X connect 28 0 27 1;
#X connect 29 0 32 0;
#X connect 30 0 27 0;
#X connect 31 0 37 0;
#X connect 32 0 26 0;
#X connect 32 0 33 0;
#X connect 33 0 25 0;
#X connect 33 1 34 0;
#X connect 34 0 35 0;
#X connect 34 0 45 0;
#X connect 35 0 40 0;
#X connect 36 0 34 0;
#X connect 37 0 29 0;
#X connect 38 0 22 0;
#X connect 39 0 58 0;
#X connect 40 0 34 1;
#X connect 45 0 23 0;
#X connect 47 0 48 0;
#X connect 49 0 51 0;
#X connect 49 1 50 0;
#X connect 49 2 3 0;
#X connect 52 0 0 0;
#X connect 53 0 1 0;
#X connect 55 0 4 0;
#X connect 56 0 15 0;
#X connect 57 0 21 0;
#X connect 59 0 24 0;
#X connect 61 0 47 0;
#X connect 62 0 8 0;
#X connect 65 0 72 0;
#X connect 66 0 73 0;
#X connect 67 0 65 0;
#X connect 68 0 66 0;
#X connect 69 0 74 0;
#X connect 70 0 71 1;
#X connect 71 0 69 0;
#X connect 72 0 69 1;
#X connect 73 0 70 0;
#X connect 74 0 54 0;
#X connect 75 0 74 1;
#X connect 76 0 75 0;
#X coords 0 -1 1 1 170 350 1 100 100;
