#N canvas 0 0 781 791 12;
#X obj 352 199 noise~;
#X obj 352 252 bng 19 250 50 0 empty empty empty 0 -10 0 12 #fcfcfc #000000 #000000;
#X obj 352 276 random 100;
#X floatatom 526 344 5 0 0 0 - - - 0;
#X obj 526 367 sig~;
#X obj 428 450 vcf~ 5;
#X obj 352 228 threshold~ 0.9999;
#X obj 526 319 * 1000;
#X floatatom 404 177 8 0 0 0 - - - 0;
#X obj 404 153 -;
#X msg 404 129 1;
#X msg 404 199 set \$1 10 0.1 10;
#X obj 352 354 list append;
#X msg 352 330 list \$1;
#X msg 426 329 list \$1;
#X msg 352 379 next \$1 \$2;
#X obj 352 404 clone knuckle~ 20;
#X obj 596 377 + 0.5;
#X obj 596 353 * 100;
#X obj 404 104 * 0.0015;
#X obj 352 305 / 50;
#X obj 426 304 + 300;
#X obj 152 161 hsl 64 19 0.01 1 1 0 empty empty play\ prob -2 -10 0 12 #ffe3c6 #000000 #000000 0 1;
#X obj 150 249 hsl 64 19 0.01 1 0 0 empty empty saturation -2 -10 0 12 #feffc6 #000000 #000000 0 1;
#X obj 151 204 hsl 64 19 0.01 1 0 0 empty empty vcf\ freq -2 -10 0 12 #c6ffc7 #000000 #000000 0 1;
#X obj 150 289 hsl 64 19 0 1 0 0 empty empty vol -2 -10 0 12 #dfdfdf #000000 #000000 0 1;
#X obj 409 557 *~;
#X obj 409 581 outlet~;
#X obj 434 492 oversat~;
#X connect 0 0 6 0;
#X connect 1 0 2 0;
#X connect 2 0 20 0;
#X connect 2 0 21 0;
#X connect 3 0 4 0;
#X connect 4 0 5 1;
#X connect 5 0 28 0;
#X connect 6 0 1 0;
#X connect 7 0 3 0;
#X connect 8 0 11 0;
#X connect 9 0 8 0;
#X connect 10 0 9 0;
#X connect 11 0 6 0;
#X connect 12 0 15 0;
#X connect 13 0 12 0;
#X connect 14 0 12 1;
#X connect 15 0 16 0;
#X connect 16 0 5 0;
#X connect 17 0 28 1;
#X connect 18 0 17 0;
#X connect 19 0 9 1;
#X connect 19 0 10 0;
#X connect 20 0 13 0;
#X connect 21 0 14 0;
#X connect 22 0 19 0;
#X connect 23 0 18 0;
#X connect 24 0 7 0;
#X connect 25 0 26 1;
#X connect 26 0 27 0;
#X connect 28 0 26 0;
#X coords 0 -1 1 1 170 250 1 100 100;
