#N canvas 0 0 744 659 12;
#X obj 352 199 noise~;
#X obj 352 252 bng 19 250 50 0 empty empty empty 0 -10 0 12 #fcfcfc #000000 #000000;
#X obj 352 276 random 100;
#X floatatom 526 344 5 0 0 0 - - - 0;
#X obj 526 367 sig~;
#X obj 424 454 vcf~ 5;
#X obj 352 228 threshold~ 0.9999;
#X obj 526 319 * 1000;
#X floatatom 404 177 8 0 0 0 - - - 0;
#X obj 404 153 -;
#X msg 404 129 1;
#X msg 404 199 set \$1 10 0.1 10;
#X obj 352 354 list append;
#X msg 352 330 list \$1;
#X msg 426 329 list \$1;
#X msg 352 379 next \$1 \$2;
#X obj 352 404 clone knuckle~ 20;
#X obj 596 377 + 0.5;
#X obj 404 104 * 0.0015;
#X obj 352 305 / 50;
#X obj 426 304 + 300;
#X obj 150 194 hsl 64 19 0 1 0 0 empty empty kg-play-prob -2 -10 0 12 #ffe3c6 #000000 #000000 0 1;
#X obj 148 282 hsl 64 19 0 1 0 0 empty empty kg-saturation -2 -10 0 12 #feffc6 #000000 #000000 0 1;
#X obj 149 237 hsl 64 19 0 1 0 0 empty empty kg-vcf-freq -2 -10 0 12 #c6ffc7 #000000 #000000 0 1;
#X obj 148 322 hsl 64 19 0 1 0 0 empty empty kg-vol -2 -10 0 12 #dfdfdf #000000 #000000 0 1;
#X obj 424 525 *~;
#X obj 424 580 outlet~;
#X obj 424 486 oversat~;
#X obj 95 62 inlet;
#X obj 143 61 inlet;
#X obj 193 62 inlet;
#X obj 241 61 inlet;
#X obj 191 13 r kg-saturation;
#X obj 231 37 r kg-vol;
#X obj 81 13 r kg-play-prob;
#X obj 121 38 r kg-vcf-freq;
#X obj 404 56 + 1;
#X obj 404 80 log 2;
#X obj 596 353 * 30;
#X obj 166 138 tgl 25 0 empty empty kg-ON 0 -10 0 12 #ff0400 #000000 #000000 0 1;
#X obj 424 552 *~;
#X obj 21 110 r kg-ON;
#X connect 0 0 6 0;
#X connect 1 0 2 0;
#X connect 2 0 19 0;
#X connect 2 0 20 0;
#X connect 3 0 4 0;
#X connect 4 0 5 1;
#X connect 5 0 27 0;
#X connect 6 0 1 0;
#X connect 7 0 3 0;
#X connect 8 0 11 0;
#X connect 9 0 8 0;
#X connect 10 0 9 0;
#X connect 11 0 6 0;
#X connect 12 0 15 0;
#X connect 13 0 12 0;
#X connect 14 0 12 1;
#X connect 15 0 16 0;
#X connect 16 0 5 0;
#X connect 17 0 27 1;
#X connect 18 0 9 1;
#X connect 18 0 10 0;
#X connect 19 0 13 0;
#X connect 20 0 14 0;
#X connect 21 0 36 0;
#X connect 22 0 38 0;
#X connect 23 0 7 0;
#X connect 24 0 25 1;
#X connect 25 0 40 0;
#X connect 27 0 25 0;
#X connect 28 0 21 0;
#X connect 29 0 23 0;
#X connect 30 0 22 0;
#X connect 31 0 24 0;
#X connect 32 0 22 0;
#X connect 33 0 24 0;
#X connect 34 0 21 0;
#X connect 35 0 23 0;
#X connect 36 0 37 0;
#X connect 37 0 18 0;
#X connect 38 0 17 0;
#X connect 39 0 40 1;
#X connect 40 0 26 0;
#X connect 41 0 39 0;
#X coords 0 -1 1 1 170 270 1 100 100;
