#N canvas 0 0 1061 872 12;
#X obj 111 557 cyclone/click~;
#X obj 111 532 bng 19 250 50 0 empty empty empty 0 -10 0 12 #fcfcfc #000000 #000000;
#X text 122 467 CLICK;
#X obj 174 143 bng 19 250 50 0 empty empty empty 0 -10 0 12 #ff8300 #000000 #000000;
#X obj 150 267 hsl 64 19 0 1 0 0 empty empty rnc-change-prob -2 -10 0 12 #ffe3c6 #000000 #000000 0 1;
#N canvas 526 526 450 278 (subpatch) 0;
#X array \$0-click-env 100 float 3;
#A 0 0.00367649 0.00851399 -0.0116745 -0.00696599 0.00861073 0.00145125 0.0016125 0.0132547 0.00761099 -0.0152542 0.00909448 0.0148027 9.67514e-05 -0.00886873 0.0116422 -0.00906223 0.0125452 0.000548249 -0.00751424 0.00280575 -0.0151897 -0.00403124 0.013416 -0.00661124 0.0117712 -0.0128677 -0.0114487 -0.0112875 0.00403124 0.0019995 0.00622424 0.00851399 -0.00622424 0.0137385 0.00612749 0.00938473 -0.010707 -0.00348299 0.00451499 -0.0109327 -0.00957823 0.013803 -0.00316049 -0.00603074 0.00428924 -0.015996 -0.0103845 -0.00222525 -0.00361199 -0.00561149 -3.22498e-05 0.00570824 0.00299924 0.002322 -0.00961048 -0.00228975 -0.014577 -0.0120937 -0.002451 0.00029025 0.00703049 0.00990073 0.0025155 -0.0025155 -0.00922348 0.00370874 -0.00503099 0.00290249 -0.00719174 -0.0014835 0.00470849 0.002709 -0.00757874 0.011997 0.00467624 -0.00441824 0.00435374 0.00944923 0.00699824 9.67514e-05 -0.00228975 -0.00790124 -0.00196725 -0.00216075 0.00825598 -0.0116422 0.002451 0.00557924 -0.00712724 0.0132225 -0.01419 -0.0140932 0.00644999 -0.00503099 0.01548 -0.0160605 -0.00841724 -0.00748199 0.002064 0.00570824;
#X coords 0 1 100 -1 100 50 1 0 0;
#X restore 138 185 graph;
#X obj 222 142 bng 19 250 50 0 empty empty empty 0 -10 0 12 #9c00ff #000000 #000000;
#X obj 806 611 list;
#X msg 672 759 list \$1;
#X obj 806 560 bng 19 250 50 0 empty empty empty 0 -10 0 12 #fcfcfc #000000 #000000;
#X obj 781 638 list;
#X obj 618 511 bng 19 250 50 0 empty empty empty 0 -10 0 12 #fcfcfc #000000 #000000;
#X obj 618 535 f;
#X obj 649 535 + 1;
#X obj 620 607 sel 1;
#X msg 649 511 0;
#X floatatom 618 560 5 0 0 0 - - - 0;
#X obj 640 631 bng 19 250 50 0 empty empty empty 0 -10 0 12 #fcfcfc #000000 #000000;
#X obj 640 656 t b b;
#X obj 672 683 f;
#X obj 702 684 + 1;
#X msg 687 657 0;
#X obj 618 583 expr if($f1 < 100 \, 1 \, 0);
#X msg 806 584 set;
#X obj 781 664 list trim;
#X obj 702 708 % 100;
#X text 614 467 READ ARRAY AND SET CLICK ENVELOPE;
#X text 829 636 recursive array->list;
#X text 659 560 stopping condition;
#X text 868 655 reading;
#X obj 672 733 tabread \$0-click-env;
#X msg 304 257 const 0;
#X obj 304 281 send \$0-click-env;
#X obj 149 531 r \$0-reset;
#X obj 111 506 r \$0-play;
#X obj 113 57 inlet;
#X obj 162 56 inlet;
#X obj 388 60 inlet;
#X obj 781 688 s \$0-reset;
#X obj 806 536 r \$0-set;
#X obj 304 204 s \$0-initialize;
#X obj 304 233 r \$0-initialize;
#X text 167 122 PLAY;
#X text 214 122 RESET;
#X obj 148 357 hsl 64 19 0.01 1 0 0 empty empty saturation -2 -10 0 12 #feffc6 #000000 #000000 0 1;
#X obj 149 312 hsl 64 19 0.01 1 0 0 empty empty vcf\ freq -2 -10 0 12 #c6ffc7 #000000 #000000 0 1;
#X obj 213 57 inlet;
#X obj 264 57 inlet;
#X obj 328 671 oversat~;
#X obj 303 584 sig~;
#X obj 284 612 vcf~ 2;
#X obj 381 643 * 30;
#X obj 303 560 * 10000;
#X obj 148 397 hsl 64 19 0 1 0 0 empty empty rnc-vol -2 -10 0 12 #dfdfdf #000000 #000000 0 1;
#X obj 321 57 inlet;
#X obj 784 367 f;
#X obj 817 368 + 1;
#X obj 817 392 % 100;
#X msg 784 340 0;
#X obj 640 296 random 1000;
#X obj 640 246 cyclone/uzi 100;
#X obj 640 270 t b b;
#X obj 640 344 * 0.1;
#X obj 785 220 hsl 64 19 0.01 1 1 0 empty empty rand-range -2 -10 0 12 #fcfcfc #000000 #000000 0 1;
#X obj 640 320 / 500;
#X obj 640 368 - 0.1;
#X obj 594 217 t b b b;
#X text 624 190 RANDOM NOISE;
#X obj 640 393 tabwrite \$0-click-env;
#X obj 784 314 r \$0-initialize;
#X obj 486 246 s \$0-play;
#X obj 563 246 s \$0-set;
#X obj 782 173 *;
#X obj 126 141 tgl 19 0 empty empty rnc-ON -10 -10 0 12 #ff0400 #000000 #000000 0 1;
#X obj 48 163 spigot;
#X obj 34 21 r rnc-ON;
#X obj 126 20 r rnc-change-prob;
#X obj 278 20 r rnc-vol;
#X obj 430 777 *~;
#X floatatom 491 663 5 0 0 0 - - - 0;
#X obj 447 664 * -1;
#X obj 447 688 + 1;
#X floatatom 447 712 5 0 0 0 - - - 0;
#X obj 427 745 *~;
#X obj 467 745 *~;
#X obj 467 777 *~;
#X obj 387 812 outlet~;
#X obj 474 812 outlet~;
#X obj 398 402 random 1000;
#X obj 398 426 / 1000;
#X obj 398 450 s rnc-pan;
#X obj 491 637 r rnc-pan;
#X connect 0 0 50 0;
#X connect 1 0 0 0;
#X connect 3 0 66 0;
#X connect 3 0 88 0;
#X connect 4 0 72 0;
#X connect 4 0 72 1;
#X connect 6 0 40 0;
#X connect 7 0 10 1;
#X connect 8 0 7 1;
#X connect 9 0 15 0;
#X connect 9 0 23 0;
#X connect 9 0 21 0;
#X connect 10 0 7 0;
#X connect 10 0 24 0;
#X connect 11 0 12 0;
#X connect 12 0 13 0;
#X connect 12 0 16 0;
#X connect 13 0 12 1;
#X connect 14 0 17 0;
#X connect 15 0 12 0;
#X connect 16 0 22 0;
#X connect 17 0 11 0;
#X connect 17 0 18 0;
#X connect 18 0 10 0;
#X connect 18 1 19 0;
#X connect 19 0 20 0;
#X connect 19 0 30 0;
#X connect 20 0 25 0;
#X connect 21 0 19 0;
#X connect 22 0 14 0;
#X connect 23 0 7 0;
#X connect 24 0 38 0;
#X connect 25 0 19 1;
#X connect 30 0 8 0;
#X connect 31 0 32 0;
#X connect 33 0 0 0;
#X connect 34 0 1 0;
#X connect 35 0 74 0;
#X connect 36 0 4 0;
#X connect 37 0 6 0;
#X connect 39 0 9 0;
#X connect 41 0 31 0;
#X connect 44 0 51 0;
#X connect 45 0 52 0;
#X connect 46 0 44 0;
#X connect 47 0 45 0;
#X connect 48 0 83 0;
#X connect 48 0 84 0;
#X connect 49 0 50 1;
#X connect 50 0 48 0;
#X connect 51 0 48 1;
#X connect 52 0 49 0;
#X connect 53 0 78 1;
#X connect 53 0 85 1;
#X connect 54 0 53 0;
#X connect 55 0 56 0;
#X connect 55 0 68 1;
#X connect 56 0 57 0;
#X connect 57 0 55 1;
#X connect 58 0 55 0;
#X connect 59 0 64 0;
#X connect 60 0 61 0;
#X connect 61 0 59 0;
#X connect 61 1 55 0;
#X connect 62 0 65 0;
#X connect 63 0 62 1;
#X connect 63 0 65 1;
#X connect 64 0 62 0;
#X connect 65 0 68 0;
#X connect 66 0 70 0;
#X connect 66 1 71 0;
#X connect 66 2 60 0;
#X connect 69 0 58 0;
#X connect 72 0 63 0;
#X connect 73 0 74 1;
#X connect 74 0 3 0;
#X connect 75 0 73 0;
#X connect 76 0 4 0;
#X connect 77 0 53 0;
#X connect 78 0 86 0;
#X connect 79 0 80 0;
#X connect 79 0 84 1;
#X connect 80 0 81 0;
#X connect 81 0 82 0;
#X connect 82 0 83 1;
#X connect 83 0 78 0;
#X connect 84 0 85 0;
#X connect 85 0 87 0;
#X connect 88 0 89 0;
#X connect 89 0 90 0;
#X connect 91 0 79 0;
#X coords 0 -1 1 1 170 350 1 100 100;
