#N canvas 217 106 642 522 12;
#X obj 293 270 +~;
#X obj 311 242 *~ 0.7;
#X floatatom 311 190 5 0 0 0 - - - 0;
#X obj 346 296 +~;
#X obj 364 268 *~ 0.7;
#X obj 311 215 delread~ \$0-del-R 160;
#X obj 293 323 delwrite~ \$0-del-L 2000;
#X obj 346 348 delwrite~ \$0-del-R 2000;
#X obj 364 241 delread~ \$0-del-L 160;
#X floatatom 403 189 5 0 0 0 - - - 0;
#X text 335 109 STEREO DELAY;
#X obj 312 141 * 300;
#X obj 312 165 + 70;
#X obj 165 57 inlet;
#X obj 123 153 hsl 64 19 0 1 0 0 empty empty sd-del-time -2 -10 0 12 #e3c6ff #000000 #000000 0 1;
#X obj 221 57 inlet;
#X obj 122 199 hsl 64 19 0 1 0 0 empty empty sd-del-feedback -2 -10 0 12 #c7c6ff #000000 #000000 0 1;
#X obj 234 413 outlet~;
#X obj 296 413 outlet~;
#X obj 49 57 inlet~;
#X obj 103 56 inlet~;
#X obj 74 24 r sd-del-time;
#X obj 174 24 r sd-del-feedback;
#X obj 316 25 loadbang;
#X msg 316 49 0;
#X connect 0 0 6 0;
#X connect 0 0 17 0;
#X connect 1 0 0 1;
#X connect 2 0 5 0;
#X connect 2 0 8 0;
#X connect 3 0 7 0;
#X connect 3 0 18 0;
#X connect 4 0 3 1;
#X connect 5 0 1 0;
#X connect 8 0 4 0;
#X connect 9 0 4 1;
#X connect 9 0 1 1;
#X connect 11 0 12 0;
#X connect 12 0 2 0;
#X connect 13 0 14 0;
#X connect 14 0 11 0;
#X connect 15 0 16 0;
#X connect 16 0 9 0;
#X connect 19 0 0 0;
#X connect 20 0 3 0;
#X connect 21 0 14 0;
#X connect 22 0 16 0;
#X connect 23 0 24 0;
#X connect 24 0 14 0;
#X connect 24 0 16 0;
#X coords 0 -1 1 1 130 150 1 100 100;
