#N canvas 217 106 656 631 12;
#X obj 319 283 +~;
#X obj 337 255 *~ 0.7;
#X floatatom 337 203 5 0 0 0 - - - 0;
#X obj 372 309 +~;
#X obj 390 281 *~ 0.7;
#X obj 337 228 delread~ \$0-del-R 160;
#X obj 319 336 delwrite~ \$0-del-L 2000;
#X obj 372 361 delwrite~ \$0-del-R 2000;
#X obj 390 254 delread~ \$0-del-L 160;
#X floatatom 429 202 5 0 0 0 - - - 0;
#X text 361 122 STEREO DELAY;
#X obj 338 154 * 300;
#X obj 338 178 + 70;
#X obj 165 57 inlet;
#X obj 128 153 hsl 64 19 0 127 0 0 empty empty del\ time -2 -10 0 12 #e3c6ff #000000 #000000 0 1;
#X obj 221 57 inlet;
#X obj 127 199 hsl 64 19 0 127 0 0 empty empty del\ feedback -2 -10 0 12 #c7c6ff #000000 #000000 0 1;
#X obj 291 465 outlet~;
#X obj 353 465 outlet~;
#X obj 49 57 inlet~;
#X obj 103 56 inlet~;
#X connect 0 0 6 0;
#X connect 0 0 17 0;
#X connect 1 0 0 1;
#X connect 2 0 5 0;
#X connect 2 0 8 0;
#X connect 3 0 7 0;
#X connect 3 0 18 0;
#X connect 4 0 3 1;
#X connect 5 0 1 0;
#X connect 8 0 4 0;
#X connect 9 0 4 1;
#X connect 9 0 1 1;
#X connect 11 0 12 0;
#X connect 12 0 2 0;
#X connect 13 0 14 0;
#X connect 14 0 11 0;
#X connect 15 0 16 0;
#X connect 16 0 9 0;
#X connect 19 0 0 0;
#X connect 20 0 3 0;
#X coords 0 -1 1 1 120 150 1 100 100;
