#N canvas 0 0 1440 872 12;
#X obj 345 279 hsl 64 19 0 1 0 0 empty empty empty -2 -10 0 12 #fcfcfc #000000 #000000 0 1;
#X obj 146 150 tgl 30 0 empty empty START 0 -10 0 12 #ff0400 #000000 #000000 0 1;
#X floatatom 198 161 6 0 0 2 TEMPO - - 0;
#X obj 39 143 s start;
#X obj 214 44 s tempo;
#N canvas 121 121 275 332 prob-bang 0;
#X obj 64 73 bng 19 250 50 0 empty empty empty 0 -10 0 12 #fcfcfc #000000 #000000;
#X floatatom 64 149 5 0 0 0 - - - 0;
#X obj 64 223 bng 19 250 50 0 empty empty empty 0 -10 0 12 #fcfcfc #000000 #000000;
#X obj 64 198 sel 1;
#X obj 64 174 expr if($f1 < $f2 \, 1 \, 0);
#X obj 64 101 random 10000;
#X obj 64 125 / 10000;
#X obj 64 48 inlet;
#X obj 181 150 inlet;
#X obj 64 247 outlet;
#X connect 0 0 5 0;
#X connect 1 0 4 0;
#X connect 2 0 9 0;
#X connect 3 0 2 0;
#X connect 4 0 3 0;
#X connect 5 0 6 0;
#X connect 6 0 1 0;
#X connect 7 0 0 0;
#X connect 8 0 4 1;
#X restore 862 170 pd prob-bang;
#X obj 472 45 metro 5000;
#X obj 472 18 r start;
#X obj 539 19 r tempo;
#X obj 472 70 s stoc-bang-0;
#X obj 260 154 bng 25 250 50 0 empty empty CYCLE 0 -10 0 12 #ff8300 #000000 #000000;
#X obj 44 270 s p-1;
#X obj 943 144 r p-1;
#X obj 862 144 metro 5000;
#X obj 929 119 /;
#X floatatom 1015 119 5 0 0 0 - - - 0;
#X obj 929 94 r tempo;
#X text 910 62 LAYER 1;
#X text 998 72 SET SUBDIV;
#X obj 916 350 s stoc-bang-1;
#N canvas 121 121 275 332 prob-bang 0;
#X obj 64 73 bng 19 250 50 0 empty empty empty 0 -10 0 12 #fcfcfc #000000 #000000;
#X floatatom 64 149 5 0 0 0 - - - 0;
#X obj 64 223 bng 19 250 50 0 empty empty empty 0 -10 0 12 #fcfcfc #000000 #000000;
#X obj 64 198 sel 1;
#X obj 64 174 expr if($f1 < $f2 \, 1 \, 0);
#X obj 64 101 random 10000;
#X obj 64 125 / 10000;
#X obj 64 48 inlet;
#X obj 181 150 inlet;
#X obj 64 247 outlet;
#X connect 0 0 5 0;
#X connect 1 0 4 0;
#X connect 2 0 9 0;
#X connect 3 0 2 0;
#X connect 4 0 3 0;
#X connect 5 0 6 0;
#X connect 6 0 1 0;
#X connect 7 0 0 0;
#X connect 8 0 4 1;
#X restore 857 565 pd prob-bang;
#X obj 938 539 r p-1;
#X obj 857 539 metro 5000;
#X obj 924 514 /;
#X floatatom 1014 516 5 0 0 0 - - - 0;
#X obj 924 489 r tempo;
#X text 1003 464 SET SUBDIV;
#X text 887 459 LAYER 2;
#X obj 345 296 hsl 64 19 0 1 0 0 empty empty empty -2 -10 0 12 #fcfcfc #000000 #000000 0 1;
#X obj 45 326 s p-2;
#X obj 345 315 hsl 64 19 0 1 0 0 empty empty empty -2 -10 0 12 #fcfcfc #000000 #000000 0 1;
#X obj 345 334 hsl 64 19 0 1 0 0 empty empty empty -2 -10 0 12 #fcfcfc #000000 #000000 0 1;
#X obj 43 396 s p-3;
#X obj 41 458 s p-4;
#N canvas 121 121 275 332 prob-bang 0;
#X obj 64 73 bng 19 250 50 0 empty empty empty 0 -10 0 12 #fcfcfc #000000 #000000;
#X floatatom 64 149 5 0 0 0 - - - 0;
#X obj 64 223 bng 19 250 50 0 empty empty empty 0 -10 0 12 #fcfcfc #000000 #000000;
#X obj 64 198 sel 1;
#X obj 64 174 expr if($f1 < $f2 \, 1 \, 0);
#X obj 64 101 random 10000;
#X obj 64 125 / 10000;
#X obj 64 48 inlet;
#X obj 181 150 inlet;
#X obj 64 247 outlet;
#X connect 0 0 5 0;
#X connect 1 0 4 0;
#X connect 2 0 9 0;
#X connect 3 0 2 0;
#X connect 4 0 3 0;
#X connect 5 0 6 0;
#X connect 6 0 1 0;
#X connect 7 0 0 0;
#X connect 8 0 4 1;
#X restore 1176 161 pd prob-bang;
#X obj 1176 135 metro 5000;
#X obj 1243 110 /;
#X floatatom 1333 112 5 0 0 0 - - - 0;
#X obj 1243 85 r tempo;
#X text 1316 62 SET SUBDIV;
#N canvas 121 121 275 332 prob-bang 0;
#X obj 64 73 bng 19 250 50 0 empty empty empty 0 -10 0 12 #fcfcfc #000000 #000000;
#X floatatom 64 149 5 0 0 0 - - - 0;
#X obj 64 223 bng 19 250 50 0 empty empty empty 0 -10 0 12 #fcfcfc #000000 #000000;
#X obj 64 198 sel 1;
#X obj 64 174 expr if($f1 < $f2 \, 1 \, 0);
#X obj 64 101 random 10000;
#X obj 64 125 / 10000;
#X obj 64 48 inlet;
#X obj 181 150 inlet;
#X obj 64 247 outlet;
#X connect 0 0 5 0;
#X connect 1 0 4 0;
#X connect 2 0 9 0;
#X connect 3 0 2 0;
#X connect 4 0 3 0;
#X connect 5 0 6 0;
#X connect 6 0 1 0;
#X connect 7 0 0 0;
#X connect 8 0 4 1;
#X restore 1171 538 pd prob-bang;
#X obj 1171 512 metro 5000;
#X obj 1238 487 /;
#X floatatom 1328 489 5 0 0 0 - - - 0;
#X obj 1238 462 r tempo;
#X text 1310 443 SET SUBDIV;
#X text 1206 55 LAYER 3;
#X text 1218 429 LAYER 4;
#X obj 1199 352 s stoc-bang-3;
#X obj 1257 135 r p-3;
#X obj 1252 512 r p-4;
#X obj 1193 760 s stoc-bang-4;
#N canvas 121 121 275 332 prob-bang 0;
#X obj 64 73 bng 19 250 50 0 empty empty empty 0 -10 0 12 #fcfcfc #000000 #000000;
#X floatatom 64 149 5 0 0 0 - - - 0;
#X obj 64 223 bng 19 250 50 0 empty empty empty 0 -10 0 12 #fcfcfc #000000 #000000;
#X obj 64 198 sel 1;
#X obj 64 174 expr if($f1 < $f2 \, 1 \, 0);
#X obj 64 101 random 10000;
#X obj 64 125 / 10000;
#X obj 64 48 inlet;
#X obj 181 150 inlet;
#X obj 64 247 outlet;
#X connect 0 0 5 0;
#X connect 1 0 4 0;
#X connect 2 0 9 0;
#X connect 3 0 2 0;
#X connect 4 0 3 0;
#X connect 5 0 6 0;
#X connect 6 0 1 0;
#X connect 7 0 0 0;
#X connect 8 0 4 1;
#X restore 1454 151 pd prob-bang;
#X obj 1454 125 metro 5000;
#X obj 1521 100 /;
#X floatatom 1611 102 5 0 0 0 - - - 0;
#X obj 1521 75 r tempo;
#X text 1600 55 SET SUBDIV;
#X obj 1578 752 bng 19 250 50 0 empty empty empty 0 -10 0 12 #fcfcfc #000000 #000000;
#N canvas 121 121 275 332 prob-bang 0;
#X obj 64 73 bng 19 250 50 0 empty empty empty 0 -10 0 12 #fcfcfc #000000 #000000;
#X floatatom 64 149 5 0 0 0 - - - 0;
#X obj 64 223 bng 19 250 50 0 empty empty empty 0 -10 0 12 #fcfcfc #000000 #000000;
#X obj 64 198 sel 1;
#X obj 64 174 expr if($f1 < $f2 \, 1 \, 0);
#X obj 64 101 random 10000;
#X obj 64 125 / 10000;
#X obj 64 48 inlet;
#X obj 181 150 inlet;
#X obj 64 247 outlet;
#X connect 0 0 5 0;
#X connect 1 0 4 0;
#X connect 2 0 9 0;
#X connect 3 0 2 0;
#X connect 4 0 3 0;
#X connect 5 0 6 0;
#X connect 6 0 1 0;
#X connect 7 0 0 0;
#X connect 8 0 4 1;
#X restore 1452 552 pd prob-bang;
#X obj 1452 526 metro 5000;
#X obj 1519 501 /;
#X floatatom 1609 503 5 0 0 0 - - - 0;
#X obj 1519 476 r tempo;
#X text 1593 478 SET SUBDIV;
#X text 1484 45 LAYER 5;
#X text 1482 446 LAYER 6;
#X obj 1535 125 r p-5;
#X obj 1492 343 s stoc-bang-5;
#X obj 1533 526 r p-6;
#X obj 345 353 hsl 64 19 0 1 0 0 empty empty empty -2 -10 0 12 #fcfcfc #000000 #000000 0 1;
#X obj 345 372 hsl 64 19 0 1 0 0 empty empty empty -2 -10 0 12 #fcfcfc #000000 #000000 0 1;
#X obj 39 512 s p-5;
#X obj 37 561 s p-6;
#X obj 415 166 tgl 25 0 empty empty empty 0 -10 0 12 #c7c6ff #000000 #000000 0 1;
#X obj 965 173 f;
#X obj 1012 173 + 1;
#X floatatom 965 197 5 0 0 0 - - - 0;
#X obj 1012 197 % 64;
#X msg 1059 198 0;
#N canvas 0 0 1440 872 graphics 0;
#X obj 76 284 bng 12 250 50 0 empty empty empty 0 -10 0 12 #fcfcfc #000000 #000000;
#X obj 89 284 bng 12 250 50 0 empty empty empty 0 -10 0 12 #fcfcfc #000000 #000000;
#X obj 101 284 bng 12 250 50 0 empty empty empty 0 -10 0 12 #fcfcfc #000000 #000000;
#X obj 114 284 bng 12 250 50 0 empty empty empty 0 -10 0 12 #fcfcfc #000000 #000000;
#X obj 126 284 bng 12 250 50 0 empty empty empty 0 -10 0 12 #fcfcfc #000000 #000000;
#X obj 139 284 bng 12 250 50 0 empty empty empty 0 -10 0 12 #fcfcfc #000000 #000000;
#X obj 151 284 bng 12 250 50 0 empty empty empty 0 -10 0 12 #fcfcfc #000000 #000000;
#X obj 164 284 bng 12 250 50 0 empty empty empty 0 -10 0 12 #fcfcfc #000000 #000000;
#X obj 95 102 sel 0;
#X obj 136 102 sel 1;
#X obj 177 102 sel 2;
#X obj 218 102 sel 3;
#X obj 259 102 sel 4;
#X obj 300 102 sel 5;
#X obj 341 102 sel 6;
#X obj 382 102 sel 7;
#X obj 516 101 sel 8;
#X obj 557 101 sel 9;
#X obj 598 101 sel 10;
#X obj 646 101 sel 11;
#X obj 694 101 sel 12;
#X obj 742 101 sel 13;
#X obj 790 101 sel 14;
#X obj 838 101 sel 15;
#X obj 95 127 sel 16;
#X obj 143 127 sel 17;
#X obj 191 127 sel 18;
#X obj 239 127 sel 19;
#X obj 287 127 sel 20;
#X obj 335 127 sel 21;
#X obj 383 127 sel 22;
#X obj 432 127 sel 23;
#X obj 523 126 sel 24;
#X obj 571 126 sel 25;
#X obj 619 126 sel 26;
#X obj 667 126 sel 27;
#X obj 715 126 sel 28;
#X obj 763 126 sel 29;
#X obj 811 126 sel 30;
#X obj 859 126 sel 31;
#X obj 95 154 sel 32;
#X obj 143 154 sel 33;
#X obj 191 154 sel 34;
#X obj 239 154 sel 35;
#X obj 287 154 sel 36;
#X obj 335 154 sel 37;
#X obj 383 154 sel 38;
#X obj 432 154 sel 39;
#X obj 523 153 sel 40;
#X obj 571 153 sel 41;
#X obj 619 153 sel 42;
#X obj 667 153 sel 43;
#X obj 715 153 sel 44;
#X obj 763 153 sel 45;
#X obj 811 153 sel 46;
#X obj 859 153 sel 47;
#X obj 95 180 sel 48;
#X obj 143 180 sel 49;
#X obj 191 180 sel 50;
#X obj 239 180 sel 51;
#X obj 287 180 sel 52;
#X obj 335 180 sel 53;
#X obj 383 180 sel 54;
#X obj 432 180 sel 55;
#X obj 523 179 sel 56;
#X obj 571 179 sel 57;
#X obj 619 179 sel 58;
#X obj 667 179 sel 59;
#X obj 715 179 sel 60;
#X obj 763 179 sel 61;
#X obj 811 179 sel 62;
#X obj 859 179 sel 63;
#X obj 182 284 bng 12 250 50 0 empty empty empty 0 -10 0 12 #fcfcfc #000000 #000000;
#X obj 195 284 bng 12 250 50 0 empty empty empty 0 -10 0 12 #fcfcfc #000000 #000000;
#X obj 207 284 bng 12 250 50 0 empty empty empty 0 -10 0 12 #fcfcfc #000000 #000000;
#X obj 220 284 bng 12 250 50 0 empty empty empty 0 -10 0 12 #fcfcfc #000000 #000000;
#X obj 232 284 bng 12 250 50 0 empty empty empty 0 -10 0 12 #fcfcfc #000000 #000000;
#X obj 245 284 bng 12 250 50 0 empty empty empty 0 -10 0 12 #fcfcfc #000000 #000000;
#X obj 257 284 bng 12 250 50 0 empty empty empty 0 -10 0 12 #fcfcfc #000000 #000000;
#X obj 270 284 bng 12 250 50 0 empty empty empty 0 -10 0 12 #fcfcfc #000000 #000000;
#X obj 288 284 bng 12 250 50 0 empty empty empty 0 -10 0 12 #fcfcfc #000000 #000000;
#X obj 301 284 bng 12 250 50 0 empty empty empty 0 -10 0 12 #fcfcfc #000000 #000000;
#X obj 313 284 bng 12 250 50 0 empty empty empty 0 -10 0 12 #fcfcfc #000000 #000000;
#X obj 326 284 bng 12 250 50 0 empty empty empty 0 -10 0 12 #fcfcfc #000000 #000000;
#X obj 338 284 bng 12 250 50 0 empty empty empty 0 -10 0 12 #fcfcfc #000000 #000000;
#X obj 351 284 bng 12 250 50 0 empty empty empty 0 -10 0 12 #fcfcfc #000000 #000000;
#X obj 363 284 bng 12 250 50 0 empty empty empty 0 -10 0 12 #fcfcfc #000000 #000000;
#X obj 376 284 bng 12 250 50 0 empty empty empty 0 -10 0 12 #fcfcfc #000000 #000000;
#X obj 393 284 bng 12 250 50 0 empty empty empty 0 -10 0 12 #fcfcfc #000000 #000000;
#X obj 406 284 bng 12 250 50 0 empty empty empty 0 -10 0 12 #fcfcfc #000000 #000000;
#X obj 418 284 bng 12 250 50 0 empty empty empty 0 -10 0 12 #fcfcfc #000000 #000000;
#X obj 431 284 bng 12 250 50 0 empty empty empty 0 -10 0 12 #fcfcfc #000000 #000000;
#X obj 443 284 bng 12 250 50 0 empty empty empty 0 -10 0 12 #fcfcfc #000000 #000000;
#X obj 456 284 bng 12 250 50 0 empty empty empty 0 -10 0 12 #fcfcfc #000000 #000000;
#X obj 468 284 bng 12 250 50 0 empty empty empty 0 -10 0 12 #fcfcfc #000000 #000000;
#X obj 481 284 bng 12 250 50 0 empty empty empty 0 -10 0 12 #fcfcfc #000000 #000000;
#X obj 501 284 bng 12 250 50 0 empty empty empty 0 -10 0 12 #fcfcfc #000000 #000000;
#X obj 514 284 bng 12 250 50 0 empty empty empty 0 -10 0 12 #fcfcfc #000000 #000000;
#X obj 526 284 bng 12 250 50 0 empty empty empty 0 -10 0 12 #fcfcfc #000000 #000000;
#X obj 539 284 bng 12 250 50 0 empty empty empty 0 -10 0 12 #fcfcfc #000000 #000000;
#X obj 551 284 bng 12 250 50 0 empty empty empty 0 -10 0 12 #fcfcfc #000000 #000000;
#X obj 564 284 bng 12 250 50 0 empty empty empty 0 -10 0 12 #fcfcfc #000000 #000000;
#X obj 576 284 bng 12 250 50 0 empty empty empty 0 -10 0 12 #fcfcfc #000000 #000000;
#X obj 589 284 bng 12 250 50 0 empty empty empty 0 -10 0 12 #fcfcfc #000000 #000000;
#X obj 605 284 bng 12 250 50 0 empty empty empty 0 -10 0 12 #fcfcfc #000000 #000000;
#X obj 618 284 bng 12 250 50 0 empty empty empty 0 -10 0 12 #fcfcfc #000000 #000000;
#X obj 630 284 bng 12 250 50 0 empty empty empty 0 -10 0 12 #fcfcfc #000000 #000000;
#X obj 643 284 bng 12 250 50 0 empty empty empty 0 -10 0 12 #fcfcfc #000000 #000000;
#X obj 655 284 bng 12 250 50 0 empty empty empty 0 -10 0 12 #fcfcfc #000000 #000000;
#X obj 668 284 bng 12 250 50 0 empty empty empty 0 -10 0 12 #fcfcfc #000000 #000000;
#X obj 680 284 bng 12 250 50 0 empty empty empty 0 -10 0 12 #fcfcfc #000000 #000000;
#X obj 693 284 bng 12 250 50 0 empty empty empty 0 -10 0 12 #fcfcfc #000000 #000000;
#X obj 711 284 bng 12 250 50 0 empty empty empty 0 -10 0 12 #fcfcfc #000000 #000000;
#X obj 724 284 bng 12 250 50 0 empty empty empty 0 -10 0 12 #fcfcfc #000000 #000000;
#X obj 736 284 bng 12 250 50 0 empty empty empty 0 -10 0 12 #fcfcfc #000000 #000000;
#X obj 749 284 bng 12 250 50 0 empty empty empty 0 -10 0 12 #fcfcfc #000000 #000000;
#X obj 761 284 bng 12 250 50 0 empty empty empty 0 -10 0 12 #fcfcfc #000000 #000000;
#X obj 774 284 bng 12 250 50 0 empty empty empty 0 -10 0 12 #fcfcfc #000000 #000000;
#X obj 786 284 bng 12 250 50 0 empty empty empty 0 -10 0 12 #fcfcfc #000000 #000000;
#X obj 799 284 bng 12 250 50 0 empty empty empty 0 -10 0 12 #fcfcfc #000000 #000000;
#X obj 815 284 bng 12 250 50 0 empty empty empty 0 -10 0 12 #fcfcfc #000000 #000000;
#X obj 828 284 bng 12 250 50 0 empty empty empty 0 -10 0 12 #fcfcfc #000000 #000000;
#X obj 840 284 bng 12 250 50 0 empty empty empty 0 -10 0 12 #fcfcfc #000000 #000000;
#X obj 853 284 bng 12 250 50 0 empty empty empty 0 -10 0 12 #fcfcfc #000000 #000000;
#X obj 865 284 bng 12 250 50 0 empty empty empty 0 -10 0 12 #fcfcfc #000000 #000000;
#X obj 878 284 bng 12 250 50 0 empty empty empty 0 -10 0 12 #fcfcfc #000000 #000000;
#X obj 890 284 bng 12 250 50 0 empty empty empty 0 -10 0 12 #fcfcfc #000000 #000000;
#X obj 903 284 bng 12 250 50 0 empty empty empty 0 -10 0 12 #fcfcfc #000000 #000000;
#X obj 445 43 r n-1;
#X connect 8 0 0 0;
#X connect 9 0 1 0;
#X connect 10 0 2 0;
#X connect 11 0 3 0;
#X connect 12 0 4 0;
#X connect 13 0 5 0;
#X connect 14 0 6 0;
#X connect 15 0 7 0;
#X connect 16 0 72 0;
#X connect 17 0 73 0;
#X connect 18 0 74 0;
#X connect 19 0 75 0;
#X connect 20 0 76 0;
#X connect 21 0 77 0;
#X connect 22 0 78 0;
#X connect 23 0 79 0;
#X connect 24 0 80 0;
#X connect 25 0 81 0;
#X connect 26 0 82 0;
#X connect 27 0 83 0;
#X connect 28 0 84 0;
#X connect 29 0 85 0;
#X connect 30 0 86 0;
#X connect 31 0 87 0;
#X connect 32 0 88 0;
#X connect 33 0 89 0;
#X connect 34 0 90 0;
#X connect 35 0 91 0;
#X connect 36 0 92 0;
#X connect 37 0 93 0;
#X connect 38 0 94 0;
#X connect 39 0 95 0;
#X connect 40 0 96 0;
#X connect 41 0 97 0;
#X connect 42 0 98 0;
#X connect 43 0 99 0;
#X connect 44 0 100 0;
#X connect 45 0 101 0;
#X connect 46 0 102 0;
#X connect 47 0 103 0;
#X connect 48 0 104 0;
#X connect 49 0 105 0;
#X connect 50 0 106 0;
#X connect 51 0 107 0;
#X connect 52 0 108 0;
#X connect 53 0 109 0;
#X connect 54 0 110 0;
#X connect 55 0 111 0;
#X connect 56 0 112 0;
#X connect 57 0 113 0;
#X connect 58 0 114 0;
#X connect 59 0 115 0;
#X connect 60 0 116 0;
#X connect 61 0 117 0;
#X connect 62 0 118 0;
#X connect 63 0 119 0;
#X connect 64 0 120 0;
#X connect 65 0 121 0;
#X connect 66 0 122 0;
#X connect 67 0 123 0;
#X connect 68 0 124 0;
#X connect 69 0 125 0;
#X connect 70 0 126 0;
#X connect 71 0 127 0;
#X connect 128 0 15 0;
#X connect 128 0 71 0;
#X connect 128 0 70 0;
#X connect 128 0 69 0;
#X connect 128 0 68 0;
#X connect 128 0 67 0;
#X connect 128 0 66 0;
#X connect 128 0 65 0;
#X connect 128 0 64 0;
#X connect 128 0 63 0;
#X connect 128 0 62 0;
#X connect 128 0 61 0;
#X connect 128 0 60 0;
#X connect 128 0 59 0;
#X connect 128 0 58 0;
#X connect 128 0 57 0;
#X connect 128 0 56 0;
#X connect 128 0 55 0;
#X connect 128 0 54 0;
#X connect 128 0 53 0;
#X connect 128 0 52 0;
#X connect 128 0 51 0;
#X connect 128 0 50 0;
#X connect 128 0 49 0;
#X connect 128 0 48 0;
#X connect 128 0 47 0;
#X connect 128 0 46 0;
#X connect 128 0 45 0;
#X connect 128 0 44 0;
#X connect 128 0 43 0;
#X connect 128 0 42 0;
#X connect 128 0 41 0;
#X connect 128 0 40 0;
#X connect 128 0 39 0;
#X connect 128 0 38 0;
#X connect 128 0 37 0;
#X connect 128 0 36 0;
#X connect 128 0 35 0;
#X connect 128 0 34 0;
#X connect 128 0 33 0;
#X connect 128 0 32 0;
#X connect 128 0 31 0;
#X connect 128 0 30 0;
#X connect 128 0 29 0;
#X connect 128 0 28 0;
#X connect 128 0 27 0;
#X connect 128 0 26 0;
#X connect 128 0 25 0;
#X connect 128 0 24 0;
#X connect 128 0 23 0;
#X connect 128 0 22 0;
#X connect 128 0 21 0;
#X connect 128 0 20 0;
#X connect 128 0 19 0;
#X connect 128 0 18 0;
#X connect 128 0 17 0;
#X connect 128 0 16 0;
#X connect 128 0 14 0;
#X connect 128 0 13 0;
#X connect 128 0 12 0;
#X connect 128 0 11 0;
#X connect 128 0 10 0;
#X connect 128 0 9 0;
#X connect 128 0 8 0;
#X restore 639 146 pd graphics;
#X obj 1054 326 f;
#X obj 1054 350 s n-1;
#X obj 963 570 f;
#X obj 1010 570 + 1;
#X floatatom 963 594 5 0 0 0 - - - 0;
#X obj 1010 594 % 64;
#X msg 1051 594 0;
#X obj 1034 730 f;
#X obj 1288 170 f;
#X obj 1335 170 + 1;
#X floatatom 1288 194 5 0 0 0 - - - 0;
#X obj 1335 194 % 64;
#X msg 1377 194 0;
#X obj 1341 324 f;
#X obj 1286 552 f;
#X obj 1333 552 + 1;
#X floatatom 1286 576 5 0 0 0 - - - 0;
#X obj 1333 576 % 64;
#X msg 1373 575 0;
#X obj 1342 738 f;
#X obj 1570 565 f;
#X obj 1617 565 + 1;
#X floatatom 1570 589 5 0 0 0 - - - 0;
#X obj 1617 589 % 64;
#X msg 1661 590 0;
#X obj 1616 728 f;
#X obj 1561 151 f;
#X obj 1608 151 + 1;
#X floatatom 1561 175 5 0 0 0 - - - 0;
#X obj 1608 175 % 64;
#X msg 1650 175 0;
#X obj 1642 320 f;
#X obj 1034 754 s n-2;
#X obj 1341 348 s n-3;
#X obj 1342 762 s n-4;
#X obj 1642 344 s n-5;
#X obj 1616 752 s n-6;
#X obj 1015 142 s new-sub;
#X obj 1014 539 s new-sub;
#X obj 1333 135 s new-sub;
#X obj 1328 512 s new-sub;
#X obj 1611 125 s new-sub;
#X obj 1609 526 s new-sub;
#X obj 279 45 r new-sub;
#X obj 279 69 bng 19 250 50 0 empty empty empty 0 -10 0 12 #fcfcfc #000000 #000000;
#X obj 266 278 tgl 19 0 empty empty empty 0 -10 0 12 #fcfcfc #000000 #000000 0 1;
#X obj 297 278 tgl 19 0 empty empty empty 0 -10 0 12 #fcfcfc #000000 #000000 0 1;
#X obj 234 278 tgl 19 0 empty empty empty 0 -10 0 12 #fcfcfc #000000 #000000 0 1;
#X obj 266 297 tgl 19 0 empty empty empty 0 -10 0 12 #fcfcfc #000000 #000000 0 1;
#X obj 297 297 tgl 19 0 empty empty empty 0 -10 0 12 #fcfcfc #000000 #000000 0 1;
#X obj 234 297 tgl 19 0 empty empty empty 0 -10 0 12 #fcfcfc #000000 #000000 0 1;
#X obj 266 316 tgl 19 0 empty empty empty 0 -10 0 12 #fcfcfc #000000 #000000 0 1;
#X obj 297 316 tgl 19 0 empty empty empty 0 -10 0 12 #fcfcfc #000000 #000000 0 1;
#X obj 234 316 tgl 19 0 empty empty empty 0 -10 0 12 #fcfcfc #000000 #000000 0 1;
#X obj 266 335 tgl 19 0 empty empty empty 0 -10 0 12 #fcfcfc #000000 #000000 0 1;
#X obj 297 335 tgl 19 0 empty empty empty 0 -10 0 12 #fcfcfc #000000 #000000 0 1;
#X obj 234 335 tgl 19 0 empty empty empty 0 -10 0 12 #fcfcfc #000000 #000000 0 1;
#X obj 266 354 tgl 19 0 empty empty empty 0 -10 0 12 #fcfcfc #000000 #000000 0 1;
#X obj 297 354 tgl 19 0 empty empty empty 0 -10 0 12 #fcfcfc #000000 #000000 0 1;
#X obj 234 354 tgl 19 0 empty empty empty 0 -10 0 12 #fcfcfc #000000 #000000 0 1;
#X obj 266 373 tgl 19 0 empty empty empty 0 -10 0 12 #fcfcfc #000000 #000000 0 1;
#X obj 297 373 tgl 19 0 empty empty empty 0 -10 0 12 #fcfcfc #000000 #000000 0 1;
#X obj 234 373 tgl 19 0 empty empty empty 0 -10 0 12 #fcfcfc #000000 #000000 0 1;
#X obj 1059 175 sel 0;
#X obj 1051 569 sel 0;
#X obj 1377 170 sel 0;
#X obj 1373 552 sel 0;
#X obj 1661 566 sel 0;
#X obj 1650 151 sel 0;
#X floatatom 173 277 5 1 64 0 - - - 0;
#X floatatom 173 297 5 1 64 0 - - - 0;
#X floatatom 173 317 5 1 64 0 - - - 0;
#X floatatom 173 337 5 1 64 0 - - - 0;
#X floatatom 173 357 5 1 64 0 - - - 0;
#X floatatom 173 377 5 1 64 0 - - - 0;
#X obj 44 248 s s-1;
#X obj 1015 94 r s-1;
#X obj 1014 490 r s-2;
#X obj 1334 87 r s-3;
#X obj 1328 464 r s-4;
#X obj 1611 77 r s-5;
#X obj 1609 455 r s-6;
#X obj 44 300 s s-2;
#X obj 44 360 s s-3;
#X obj 42 430 s s-4;
#X obj 40 487 s s-5;
#X obj 38 536 s s-6;
#X obj 24 178 loadbang;
#X msg 62 202 5000;
#X msg 24 203 1;
#X msg 99 478 2;
#X msg 97 508 4;
#X msg 98 541 8;
#X msg 97 575 16;
#X msg 96 604 32;
#X msg 96 636 64;
#X obj 130 279 tgl 19 0 empty empty empty 0 -10 0 12 #fcfcfc #000000 #000000 0 1;
#X obj 130 298 tgl 19 0 empty empty empty 0 -10 0 12 #fcfcfc #000000 #000000 0 1;
#X obj 130 317 tgl 19 0 empty empty empty 0 -10 0 12 #fcfcfc #000000 #000000 0 1;
#X obj 130 336 tgl 19 0 empty empty empty 0 -10 0 12 #fcfcfc #000000 #000000 0 1;
#X obj 130 355 tgl 19 0 empty empty empty 0 -10 0 12 #fcfcfc #000000 #000000 0 1;
#X obj 130 373 tgl 19 0 empty empty empty 0 -10 0 12 #fcfcfc #000000 #000000 0 1;
#X text 129 251 ON;
#X obj 380 475 r pp-1;
#X obj 380 502 r pp-2;
#X obj 434 475 r pp-3;
#X obj 434 502 r pp-4;
#X obj 486 475 r pp-5;
#X obj 486 502 r pp-6;
#X obj 139 214 hsl 162 19 0 1 0 0 empty empty empty -2 -10 0 12 #faff00 #000000 #000000 0 1;
#X obj 638 117 s PROBABILITY;
#X floatatom 1771 153 5 0 0 0 - - - 0;
#X obj 1771 129 r PROBABILITY;
#X obj 1774 193 *;
#X obj 1774 242 *;
#X obj 1774 283 *;
#X obj 1775 329 *;
#X obj 1776 369 *;
#X text 403 142 NESTED;
#X text 345 122 PROBABILITY RULE;
#X text 343 193 RANDOM;
#X obj 638 89 s random-prob;
#X obj 637 60 s nested-prob;
#X obj 1889 221 s pp-1;
#X obj 1897 263 s pp-2;
#X obj 1900 309 s pp-3;
#X obj 1900 350 s pp-4;
#X obj 1901 396 s pp-5;
#X obj 1902 436 s pp-6;
#X obj 1826 205 spigot;
#X obj 1865 170 r nested-prob;
#X obj 1828 252 spigot;
#X obj 1831 295 spigot;
#X obj 1830 342 spigot;
#X obj 1832 379 spigot;
#X obj 1832 421 spigot;
#X obj 357 166 tgl 25 0 empty empty empty 0 -10 0 12 #e3c6ff #000000 #000000 0 1;
#X text 348 143 SAME;
#X obj 639 31 s same-prob;
#X obj 2084 195 s pp-1;
#X obj 2092 237 s pp-2;
#X obj 2095 283 s pp-3;
#X obj 2095 324 s pp-4;
#X obj 2096 370 s pp-5;
#X obj 2097 410 s pp-6;
#X obj 2029 191 spigot;
#X obj 2031 238 spigot;
#X obj 2034 281 spigot;
#X obj 2033 328 spigot;
#X obj 2035 365 spigot;
#X obj 2035 407 spigot;
#X obj 2068 156 r same-prob;
#X obj 1798 545 random 1000;
#X obj 1798 569 / 1000;
#X obj 1798 626 random 1000;
#X obj 1798 650 / 1000;
#X obj 1888 546 random 1000;
#X obj 1888 570 / 1000;
#X obj 1888 627 random 1000;
#X obj 1888 651 / 1000;
#X obj 1986 546 random 1000;
#X obj 1986 570 / 1000;
#X obj 1986 627 random 1000;
#X obj 1986 651 / 1000;
#X obj 1798 595 s pp-1;
#X obj 1798 679 s pp-2;
#X obj 1888 595 s pp-3;
#X obj 1888 680 s pp-4;
#X obj 1986 595 s pp-5;
#X obj 1986 681 s pp-6;
#X obj 357 217 bng 25 250 50 0 empty empty empty 0 -10 0 12 #c6feff #000000 #000000;
#X obj 1800 506 r random-prob;
#X obj 415 216 bng 25 250 50 0 empty empty empty 0 -10 0 12 #c6ffc7 #000000 #000000;
#X text 409 194 ALL 1;
#X msg 536 201 1;
#X obj 603 483 sel 1;
#X msg 603 507 0;
#X obj 557 481 sel 1;
#X msg 557 505 0;
#X obj 862 200 spigot;
#X obj 862 115 r start;
#X obj 1176 185 spigot;
#X obj 1454 175 spigot;
#X obj 1452 576 spigot;
#X obj 1171 562 spigot;
#X obj 857 589 spigot;
#X obj 64 821 outlet;
#X obj 291 820 outlet;
#X obj 397 818 outlet;
#X obj 506 818 outlet;
#X obj 615 818 outlet;
#X obj 724 818 outlet;
#X obj 177 798 r stoc-bang-1;
#X obj 177 822 outlet;
#X obj 64 797 r stoc-bang-0;
#X obj 291 796 r stoc-bang-2;
#X obj 397 794 r stoc-bang-3;
#X obj 506 794 r stoc-bang-4;
#X obj 615 794 r stoc-bang-5;
#X obj 724 794 r stoc-bang-6;
#X obj 431 279 bng 19 250 50 0 empty empty empty 0 -10 0 12 #fcfcfc #000000 #000000;
#X obj 431 298 bng 19 250 50 0 empty empty empty 0 -10 0 12 #fcfcfc #000000 #000000;
#X obj 431 317 bng 19 250 50 0 empty empty empty 0 -10 0 12 #fcfcfc #000000 #000000;
#X obj 431 336 bng 19 250 50 0 empty empty empty 0 -10 0 12 #fcfcfc #000000 #000000;
#X obj 431 355 bng 19 250 50 0 empty empty empty 0 -10 0 12 #fcfcfc #000000 #000000;
#X obj 431 374 bng 19 250 50 0 empty empty empty 0 -10 0 12 #fcfcfc #000000 #000000;
#X obj 538 265 r stoc-bang-1;
#X obj 538 239 r stoc-bang-0;
#X obj 538 292 r stoc-bang-2;
#X obj 537 320 r stoc-bang-3;
#X obj 537 348 r stoc-bang-4;
#X obj 537 374 r stoc-bang-5;
#X obj 538 400 r stoc-bang-6;
#X obj 908 757 s stoc-bang-2;
#X obj 857 513 r start;
#X obj 1171 486 r start;
#X obj 1452 500 r start;
#X obj 1454 99 r start;
#X obj 1176 109 r start;
#X obj 1530 629 % 2;
#X obj 1503 658 sel 0;
#X obj 1557 658 sel 1;
#X obj 1503 718 spigot;
#X obj 1557 718 spigot;
#X obj 1443 719 spigot;
#X obj 1476 752 s stoc-bang-6;
#X obj 175 453 sel 1;
#X msg 175 477 0;
#X obj 222 454 sel 1;
#X msg 222 478 0;
#X obj 269 454 sel 1;
#X msg 269 478 0;
#X obj 181 715 sel 1;
#X msg 181 739 0;
#X obj 228 716 sel 1;
#X msg 228 740 0;
#X obj 275 716 sel 1;
#X msg 275 740 0;
#X obj 176 504 sel 1;
#X msg 176 528 0;
#X obj 223 505 sel 1;
#X msg 223 529 0;
#X obj 270 505 sel 1;
#X msg 270 529 0;
#X obj 176 553 sel 1;
#X msg 176 577 0;
#X obj 223 554 sel 1;
#X msg 223 578 0;
#X obj 270 554 sel 1;
#X msg 270 578 0;
#X obj 177 604 sel 1;
#X msg 177 628 0;
#X obj 224 605 sel 1;
#X msg 224 629 0;
#X obj 271 605 sel 1;
#X msg 271 629 0;
#X obj 178 656 sel 1;
#X msg 178 680 0;
#X obj 225 657 sel 1;
#X msg 225 681 0;
#X obj 272 657 sel 1;
#X msg 272 681 0;
#X obj 1243 611 % 2;
#X obj 1216 640 sel 0;
#X obj 1270 640 sel 1;
#X obj 1218 726 spigot;
#X obj 1272 726 spigot;
#X obj 1158 727 spigot;
#X obj 1298 760 bng 19 250 50 0 empty empty empty 0 -10 0 12 #fcfcfc #000000 #000000;
#X obj 942 624 % 2;
#X obj 915 653 sel 0;
#X obj 969 653 sel 1;
#X obj 917 724 spigot;
#X obj 971 724 spigot;
#X obj 857 725 spigot;
#X obj 879 758 bng 19 250 50 0 empty empty empty 0 -10 0 12 #fcfcfc #000000 #000000;
#X obj 956 225 % 2;
#X obj 929 254 sel 0;
#X obj 983 254 sel 1;
#X obj 929 310 spigot;
#X obj 983 310 spigot;
#X obj 869 311 spigot;
#X obj 1253 224 % 2;
#X obj 1226 253 sel 0;
#X obj 1280 253 sel 1;
#X obj 1226 318 spigot;
#X obj 1280 318 spigot;
#X obj 1166 319 spigot;
#X obj 1542 215 % 2;
#X obj 1515 244 sel 0;
#X obj 1569 244 sel 1;
#X obj 1515 305 spigot;
#X obj 1569 305 spigot;
#X obj 1455 306 spigot;
#X obj 886 350 bng 19 250 50 0 empty empty empty 0 -10 0 12 #fcfcfc #000000 #000000;
#X obj 1165 354 bng 19 250 50 0 empty empty empty 0 -10 0 12 #fcfcfc #000000 #000000;
#X obj 1452 345 bng 19 250 50 0 empty empty empty 0 -10 0 12 #fcfcfc #000000 #000000;
#X text 335 252 PROBABILITIES;
#X text 152 194 GLOBAL PROBABILITY;
#X text 231 251 ALL;
#X text 259 251 EVEN;
#X text 296 251 ODD;
#X text 166 252 SUBDIVS;
#X obj 929 280 spigot;
#X obj 983 280 spigot;
#X obj 1226 277 spigot;
#X obj 1280 277 spigot;
#X obj 1515 272 spigot;
#X obj 1569 272 spigot;
#X obj 915 685 spigot;
#X obj 969 685 spigot;
#X obj 1216 683 spigot;
#X obj 1270 683 spigot;
#X obj 1503 688 spigot;
#X obj 1557 688 spigot;
#X connect 0 0 11 0;
#X connect 1 0 3 0;
#X connect 2 0 4 0;
#X connect 5 0 260 0;
#X connect 6 0 10 0;
#X connect 7 0 6 0;
#X connect 8 0 6 1;
#X connect 10 0 9 0;
#X connect 12 0 5 1;
#X connect 13 0 5 0;
#X connect 13 0 75 0;
#X connect 14 0 13 1;
#X connect 15 0 14 1;
#X connect 15 0 78 1;
#X connect 15 0 118 0;
#X connect 16 0 14 0;
#X connect 20 0 266 0;
#X connect 21 0 20 1;
#X connect 22 0 20 0;
#X connect 22 0 83 0;
#X connect 23 0 22 1;
#X connect 24 0 23 1;
#X connect 24 0 119 0;
#X connect 24 0 86 1;
#X connect 25 0 23 0;
#X connect 28 0 29 0;
#X connect 30 0 32 0;
#X connect 31 0 33 0;
#X connect 34 0 262 0;
#X connect 35 0 34 0;
#X connect 35 0 89 0;
#X connect 36 0 35 1;
#X connect 37 0 36 1;
#X connect 37 0 92 1;
#X connect 37 0 120 0;
#X connect 38 0 36 0;
#X connect 40 0 265 0;
#X connect 41 0 40 0;
#X connect 41 0 95 0;
#X connect 42 0 41 1;
#X connect 43 0 42 1;
#X connect 43 0 98 1;
#X connect 43 0 121 0;
#X connect 44 0 42 0;
#X connect 49 0 34 1;
#X connect 50 0 40 1;
#X connect 52 0 263 0;
#X connect 53 0 52 0;
#X connect 53 0 107 0;
#X connect 54 0 53 1;
#X connect 55 0 54 1;
#X connect 55 0 110 1;
#X connect 55 0 122 0;
#X connect 56 0 54 0;
#X connect 59 0 264 0;
#X connect 60 0 59 0;
#X connect 60 0 101 0;
#X connect 61 0 60 1;
#X connect 62 0 61 1;
#X connect 62 0 104 1;
#X connect 62 0 123 0;
#X connect 63 0 61 0;
#X connect 67 0 52 1;
#X connect 69 0 59 1;
#X connect 70 0 72 0;
#X connect 71 0 73 0;
#X connect 74 0 203 0;
#X connect 74 0 258 0;
#X connect 75 0 76 0;
#X connect 75 0 77 0;
#X connect 76 0 78 0;
#X connect 77 0 81 1;
#X connect 77 0 357 0;
#X connect 78 0 75 1;
#X connect 79 0 75 0;
#X connect 81 0 82 0;
#X connect 83 0 84 0;
#X connect 83 0 85 0;
#X connect 84 0 86 0;
#X connect 85 0 88 1;
#X connect 85 0 350 0;
#X connect 86 0 83 1;
#X connect 87 0 83 0;
#X connect 88 0 113 0;
#X connect 89 0 90 0;
#X connect 89 0 91 0;
#X connect 90 0 92 0;
#X connect 91 0 94 1;
#X connect 91 0 363 0;
#X connect 92 0 89 1;
#X connect 93 0 89 0;
#X connect 94 0 114 0;
#X connect 95 0 96 0;
#X connect 95 0 97 0;
#X connect 96 0 98 0;
#X connect 97 0 100 1;
#X connect 97 0 343 0;
#X connect 98 0 95 1;
#X connect 99 0 95 0;
#X connect 100 0 115 0;
#X connect 101 0 102 0;
#X connect 101 0 103 0;
#X connect 102 0 104 0;
#X connect 103 0 106 1;
#X connect 103 0 300 0;
#X connect 104 0 101 1;
#X connect 105 0 101 0;
#X connect 106 0 117 0;
#X connect 107 0 108 0;
#X connect 107 0 109 0;
#X connect 108 0 110 0;
#X connect 109 0 112 1;
#X connect 109 0 369 0;
#X connect 110 0 107 1;
#X connect 111 0 107 0;
#X connect 112 0 116 0;
#X connect 124 0 125 0;
#X connect 125 0 2 0;
#X connect 126 0 311 0;
#X connect 126 0 361 1;
#X connect 127 0 309 0;
#X connect 127 0 360 1;
#X connect 128 0 307 0;
#X connect 128 0 362 1;
#X connect 129 0 323 0;
#X connect 129 0 354 1;
#X connect 130 0 321 0;
#X connect 130 0 353 1;
#X connect 131 0 319 0;
#X connect 131 0 355 1;
#X connect 132 0 329 0;
#X connect 132 0 367 1;
#X connect 133 0 327 0;
#X connect 133 0 366 1;
#X connect 134 0 325 0;
#X connect 134 0 368 1;
#X connect 135 0 335 0;
#X connect 135 0 347 1;
#X connect 136 0 333 0;
#X connect 136 0 346 1;
#X connect 137 0 331 0;
#X connect 137 0 348 1;
#X connect 138 0 341 0;
#X connect 138 0 373 1;
#X connect 139 0 339 0;
#X connect 139 0 372 1;
#X connect 140 0 337 0;
#X connect 140 0 374 1;
#X connect 141 0 304 1;
#X connect 141 0 317 0;
#X connect 142 0 303 1;
#X connect 142 0 315 0;
#X connect 143 0 305 1;
#X connect 143 0 313 0;
#X connect 144 0 79 0;
#X connect 145 0 87 0;
#X connect 146 0 93 0;
#X connect 147 0 99 0;
#X connect 148 0 105 0;
#X connect 149 0 111 0;
#X connect 150 0 156 0;
#X connect 151 0 163 0;
#X connect 152 0 164 0;
#X connect 153 0 165 0;
#X connect 154 0 166 0;
#X connect 155 0 167 0;
#X connect 157 0 15 0;
#X connect 158 0 24 0;
#X connect 159 0 37 0;
#X connect 160 0 43 0;
#X connect 161 0 55 0;
#X connect 162 0 62 0;
#X connect 168 0 169 0;
#X connect 168 0 170 0;
#X connect 168 0 171 0;
#X connect 168 0 176 0;
#X connect 168 0 175 0;
#X connect 168 0 174 0;
#X connect 168 0 173 0;
#X connect 168 0 172 0;
#X connect 168 0 182 0;
#X connect 168 0 181 0;
#X connect 168 0 180 0;
#X connect 168 0 179 0;
#X connect 168 0 178 0;
#X connect 168 0 177 0;
#X connect 168 0 128 0;
#X connect 168 0 143 0;
#X connect 168 0 140 0;
#X connect 168 0 137 0;
#X connect 168 0 134 0;
#X connect 168 0 131 0;
#X connect 169 0 2 0;
#X connect 170 0 71 0;
#X connect 170 0 70 0;
#X connect 170 0 31 0;
#X connect 170 0 30 0;
#X connect 170 0 28 0;
#X connect 170 0 0 0;
#X connect 171 0 150 0;
#X connect 172 0 151 0;
#X connect 173 0 152 0;
#X connect 174 0 153 0;
#X connect 175 0 154 0;
#X connect 176 0 155 0;
#X connect 177 0 260 1;
#X connect 177 0 384 1;
#X connect 177 0 385 1;
#X connect 178 0 266 1;
#X connect 178 0 390 1;
#X connect 178 0 391 1;
#X connect 179 0 262 1;
#X connect 179 0 386 1;
#X connect 179 0 387 1;
#X connect 180 0 265 1;
#X connect 180 0 392 1;
#X connect 180 0 393 1;
#X connect 181 0 263 1;
#X connect 181 0 388 1;
#X connect 181 0 389 1;
#X connect 182 0 264 1;
#X connect 182 0 394 1;
#X connect 182 0 395 1;
#X connect 184 0 0 0;
#X connect 185 0 28 0;
#X connect 186 0 30 0;
#X connect 187 0 31 0;
#X connect 188 0 70 0;
#X connect 189 0 71 0;
#X connect 190 0 191 0;
#X connect 192 0 194 0;
#X connect 192 0 194 1;
#X connect 192 0 195 1;
#X connect 192 0 196 1;
#X connect 192 0 197 1;
#X connect 192 0 198 1;
#X connect 192 0 210 0;
#X connect 192 0 226 0;
#X connect 192 0 231 0;
#X connect 192 0 230 0;
#X connect 192 0 229 0;
#X connect 192 0 228 0;
#X connect 192 0 227 0;
#X connect 193 0 192 0;
#X connect 194 0 195 0;
#X connect 194 0 212 0;
#X connect 195 0 196 0;
#X connect 195 0 213 0;
#X connect 196 0 197 0;
#X connect 196 0 214 0;
#X connect 197 0 198 0;
#X connect 197 0 215 0;
#X connect 198 0 216 0;
#X connect 210 0 204 0;
#X connect 211 0 210 1;
#X connect 211 0 212 1;
#X connect 211 0 216 1;
#X connect 211 0 215 1;
#X connect 211 0 214 1;
#X connect 211 0 213 1;
#X connect 212 0 205 0;
#X connect 213 0 206 0;
#X connect 214 0 207 0;
#X connect 215 0 208 0;
#X connect 216 0 209 0;
#X connect 217 0 219 0;
#X connect 217 0 256 0;
#X connect 226 0 220 0;
#X connect 227 0 221 0;
#X connect 228 0 222 0;
#X connect 229 0 223 0;
#X connect 230 0 224 0;
#X connect 231 0 225 0;
#X connect 232 0 226 1;
#X connect 232 0 227 1;
#X connect 232 0 231 1;
#X connect 232 0 230 1;
#X connect 232 0 229 1;
#X connect 232 0 228 1;
#X connect 233 0 234 0;
#X connect 234 0 245 0;
#X connect 235 0 236 0;
#X connect 236 0 246 0;
#X connect 237 0 238 0;
#X connect 238 0 247 0;
#X connect 239 0 240 0;
#X connect 240 0 248 0;
#X connect 241 0 242 0;
#X connect 242 0 249 0;
#X connect 243 0 244 0;
#X connect 244 0 250 0;
#X connect 251 0 202 0;
#X connect 252 0 233 0;
#X connect 252 0 237 0;
#X connect 252 0 241 0;
#X connect 252 0 235 0;
#X connect 252 0 243 0;
#X connect 252 0 239 0;
#X connect 253 0 255 0;
#X connect 255 0 71 0;
#X connect 255 0 70 0;
#X connect 255 0 31 0;
#X connect 255 0 30 0;
#X connect 255 0 28 0;
#X connect 255 0 0 0;
#X connect 256 0 257 0;
#X connect 257 0 74 0;
#X connect 258 0 259 0;
#X connect 259 0 217 0;
#X connect 260 0 81 0;
#X connect 260 0 362 0;
#X connect 261 0 13 0;
#X connect 261 0 144 0;
#X connect 262 0 94 0;
#X connect 262 0 368 0;
#X connect 263 0 112 0;
#X connect 263 0 374 0;
#X connect 264 0 106 0;
#X connect 264 0 305 0;
#X connect 265 0 348 0;
#X connect 265 0 100 0;
#X connect 266 0 88 0;
#X connect 266 0 355 0;
#X connect 273 0 274 0;
#X connect 275 0 267 0;
#X connect 276 0 268 0;
#X connect 277 0 269 0;
#X connect 278 0 270 0;
#X connect 279 0 271 0;
#X connect 280 0 272 0;
#X connect 287 0 281 0;
#X connect 289 0 282 0;
#X connect 290 0 283 0;
#X connect 291 0 284 0;
#X connect 292 0 285 0;
#X connect 293 0 286 0;
#X connect 295 0 22 0;
#X connect 295 0 145 0;
#X connect 296 0 41 0;
#X connect 296 0 147 0;
#X connect 297 0 60 0;
#X connect 297 0 148 0;
#X connect 298 0 53 0;
#X connect 298 0 149 0;
#X connect 299 0 35 0;
#X connect 299 0 146 0;
#X connect 300 0 301 0;
#X connect 300 0 302 0;
#X connect 301 0 394 0;
#X connect 302 0 395 0;
#X connect 303 0 306 0;
#X connect 303 0 58 0;
#X connect 304 0 306 0;
#X connect 304 0 58 0;
#X connect 305 0 306 0;
#X connect 305 0 58 0;
#X connect 307 0 308 0;
#X connect 308 0 127 0;
#X connect 308 0 126 0;
#X connect 309 0 310 0;
#X connect 310 0 128 0;
#X connect 310 0 126 0;
#X connect 311 0 312 0;
#X connect 312 0 128 0;
#X connect 312 0 127 0;
#X connect 313 0 314 0;
#X connect 314 0 142 0;
#X connect 314 0 141 0;
#X connect 315 0 316 0;
#X connect 316 0 143 0;
#X connect 316 0 141 0;
#X connect 317 0 318 0;
#X connect 318 0 143 0;
#X connect 318 0 142 0;
#X connect 319 0 320 0;
#X connect 320 0 130 0;
#X connect 320 0 129 0;
#X connect 321 0 322 0;
#X connect 322 0 131 0;
#X connect 322 0 129 0;
#X connect 323 0 324 0;
#X connect 324 0 131 0;
#X connect 324 0 130 0;
#X connect 325 0 326 0;
#X connect 326 0 133 0;
#X connect 326 0 132 0;
#X connect 327 0 328 0;
#X connect 328 0 134 0;
#X connect 328 0 132 0;
#X connect 329 0 330 0;
#X connect 330 0 134 0;
#X connect 330 0 133 0;
#X connect 331 0 332 0;
#X connect 332 0 136 0;
#X connect 332 0 135 0;
#X connect 333 0 334 0;
#X connect 334 0 137 0;
#X connect 334 0 135 0;
#X connect 335 0 336 0;
#X connect 336 0 137 0;
#X connect 336 0 136 0;
#X connect 337 0 338 0;
#X connect 338 0 139 0;
#X connect 338 0 138 0;
#X connect 339 0 340 0;
#X connect 340 0 140 0;
#X connect 340 0 138 0;
#X connect 341 0 342 0;
#X connect 342 0 140 0;
#X connect 342 0 139 0;
#X connect 343 0 344 0;
#X connect 343 0 345 0;
#X connect 344 0 392 0;
#X connect 345 0 393 0;
#X connect 346 0 51 0;
#X connect 346 0 349 0;
#X connect 347 0 51 0;
#X connect 347 0 349 0;
#X connect 348 0 51 0;
#X connect 348 0 349 0;
#X connect 350 0 351 0;
#X connect 350 0 352 0;
#X connect 351 0 390 0;
#X connect 352 0 391 0;
#X connect 353 0 294 0;
#X connect 353 0 356 0;
#X connect 354 0 294 0;
#X connect 354 0 356 0;
#X connect 355 0 294 0;
#X connect 355 0 356 0;
#X connect 357 0 358 0;
#X connect 357 0 359 0;
#X connect 358 0 384 0;
#X connect 359 0 385 0;
#X connect 360 0 19 0;
#X connect 360 0 375 0;
#X connect 361 0 19 0;
#X connect 361 0 375 0;
#X connect 362 0 19 0;
#X connect 362 0 375 0;
#X connect 363 0 364 0;
#X connect 363 0 365 0;
#X connect 364 0 386 0;
#X connect 365 0 387 0;
#X connect 366 0 48 0;
#X connect 366 0 376 0;
#X connect 367 0 48 0;
#X connect 367 0 376 0;
#X connect 368 0 48 0;
#X connect 368 0 376 0;
#X connect 369 0 370 0;
#X connect 369 0 371 0;
#X connect 370 0 388 0;
#X connect 371 0 389 0;
#X connect 372 0 68 0;
#X connect 372 0 377 0;
#X connect 373 0 68 0;
#X connect 373 0 377 0;
#X connect 374 0 68 0;
#X connect 374 0 377 0;
#X connect 384 0 360 0;
#X connect 385 0 361 0;
#X connect 386 0 366 0;
#X connect 387 0 367 0;
#X connect 388 0 372 0;
#X connect 389 0 373 0;
#X connect 390 0 353 0;
#X connect 391 0 354 0;
#X connect 392 0 346 0;
#X connect 393 0 347 0;
#X connect 394 0 303 0;
#X connect 395 0 304 0;
#X coords 0 -1 1 1 400 320 1 100 100;
