#N canvas 63 63 966 634 12;
#X msg 549 174 open -e ValhallaSupermassive;
#X obj 185 377 vstplugin~;
#N canvas 101 355 513 414 message-out 0;
#X obj 20 17 inlet;
#X obj 20 63 s \$0-program-data;
#X obj 20 40 route program_data bank_data, f 39;
#X obj 135 63 s \$0-bank-data;
#X obj 278 135 print;
#X obj 278 114 spigot 1;
#X obj 337 114 tgl 15 0 empty empty empty 17 7 0 10 #fcfcfc #000000 #000000 0 1;
#X text 358 113 print messages;
#X obj 251 86 s \$0-out;
#X obj 251 63 t a a;
#X msg 28 178 param_automated <index> <value>;
#X msg 28 204 latency <numsamples>;
#X msg 30 257 midi <bytes...>;
#X msg 29 284 sysex <bytes...>;
#X text 233 172 a parameter has been changed in the GUI (or by changing a linked parameter)., f 40;
#X text 162 204 the plugin's internal processing latency has changed;
#X text 139 257 a MIDI message sent by the plugin;
#X text 139 284 a SysEx message sent by the plugin;
#X text 28 153 events:;
#X text 163 222 NOTE: the value includes the additional latency caused by multithreading (see the "-t" flag for "open"), f 55;
#X msg 29 337 crash;
#X text 312 85 goes to vstpresetbrowser;
#X text 23 87 see [pd preset];
#X text 83 338 the plugin subprocess has crashed.;
#X text 84 356 This is only sent for bridged or sandboxed plugins \, because normal plugins would simply crash Pd., f 52;
#X msg 29 311 update;
#X text 87 312 multiple parameters have changed internally;
#X connect 0 0 2 0;
#X connect 2 0 1 0;
#X connect 2 1 3 0;
#X connect 2 2 9 0;
#X connect 5 0 4 0;
#X connect 6 0 5 1;
#X connect 9 0 8 0;
#X connect 9 1 5 0;
#X restore 252 403 pd message-out;
#X msg 55 377 param_list;
#X obj 55 351 r \$0-rev-msg;
#X text 72 318 VALHALLA SUPERMASSIVE REVERB PLUGIN;
#X obj 549 106 loadbang;
#X msg 771 158 \; pd dsp 1;
#X obj 461 333 s \$0-rev-msg;
#X msg 475 259 preset_list;
#X text 567 260 find out path of presets;
#X text 658 283 save current settings as preset;
#X msg 475 309 param_list;
#X text 563 309 print list of plugin parameters;
#X msg 475 284 preset_save <Clicks> 0;
#X msg 460 202 program_read /Users/viivihirvonen/Library/Audio/Presets/Valhalla\\\ DSP\\\,\\\ LLC/ValhallaSupermassive/_Clicks_.fxp, f 63;
#X obj 549 151 del 5;
#X obj 460 151 del 10;
#X obj 70 68 inlet~;
#X obj 134 67 inlet~;
#X obj 167 455 outlet~;
#X obj 229 455 outlet~;
#X msg 234 132 param_set 0 \$1;
#X obj 129 140 hsl 64 19 0 1 0 0 empty empty rev-mix -2 -8 0 10 #c4fcfc #000000 #000000 0 1;
#X obj 234 158 s \$0-rev-msg;
#X obj 127 220 hsl 64 19 0 1 0 0 empty empty rev-feedback -2 -8 0 10 #c4c4fc #000000 #000000 0 1;
#X obj 232 269 s \$0-rev-msg;
#X msg 232 243 param_set 6 \$1;
#X obj 129 181 hsl 64 19 0 1 0 0 empty empty delay-time -2 -8 0 10 #00f8fc #000000 #000000 0 1;
#X obj 233 213 s \$0-rev-msg;
#X msg 233 187 param_set 3 \$1;
#X obj 204 66 inlet;
#X obj 254 66 inlet;
#X obj 306 66 inlet;
#X connect 0 0 8 0;
#X connect 1 0 20 0;
#X connect 1 1 21 0;
#X connect 1 2 2 0;
#X connect 3 0 1 0;
#X connect 4 0 1 0;
#X connect 6 0 7 0;
#X connect 6 0 16 0;
#X connect 6 0 17 0;
#X connect 9 0 8 0;
#X connect 12 0 8 0;
#X connect 14 0 8 0;
#X connect 15 0 8 0;
#X connect 16 0 0 0;
#X connect 17 0 15 0;
#X connect 18 0 1 0;
#X connect 19 0 1 1;
#X connect 22 0 24 0;
#X connect 23 0 22 0;
#X connect 25 0 27 0;
#X connect 27 0 26 0;
#X connect 28 0 30 0;
#X connect 30 0 29 0;
#X connect 31 0 23 0;
#X connect 32 0 28 0;
#X connect 33 0 25 0;
#X coords 0 -1 1 1 120 160 1 100 100;
