#N canvas 110 294 863 402 12;
#X obj 72 67 adc~ 3;
#X obj 183 64 adc~ 4;
#X obj 72 103 piezo-interaction-bela;
#X obj 183 147 piezo-interaction-bela;
#X obj 109 186 *~;
#X obj 332 291 limiter;
#X obj 332 315 dac~ 3 4;
#X obj 208 187 *~;
#X text 153 39 Tectonic plates;
#X text 75 38 Bones;
#X obj 293 99 piezo-interaction-bela;
#X obj 376 145 piezo-interaction-bela;
#X obj 330 182 *~;
#X obj 401 185 *~;
#X obj 293 63 adc~ 5;
#X obj 376 60 adc~ 6;
#X text 296 34 Heavy;
#X text 376 35 Flesh;
#X obj 473 97 piezo-interaction-bela;
#X obj 584 142 piezo-interaction-bela;
#X obj 482 182 *~;
#X obj 609 180 *~;
#X obj 473 61 adc~ 7;
#X obj 584 58 adc~ 8;
#X text 476 32 Touch;
#X text 584 33 Waves;
#X connect 0 0 2 0;
#X connect 1 0 3 0;
#X connect 2 0 4 0;
#X connect 2 1 4 1;
#X connect 3 0 7 0;
#X connect 3 1 7 1;
#X connect 4 0 5 0;
#X connect 5 0 6 0;
#X connect 5 0 6 1;
#X connect 7 0 5 0;
#X connect 10 0 12 0;
#X connect 10 1 12 1;
#X connect 11 0 13 0;
#X connect 11 1 13 1;
#X connect 12 0 5 0;
#X connect 13 0 5 0;
#X connect 14 0 10 0;
#X connect 15 0 11 0;
#X connect 18 0 20 0;
#X connect 18 1 20 1;
#X connect 19 0 21 0;
#X connect 19 1 21 1;
#X connect 20 0 5 0;
#X connect 21 0 5 0;
#X connect 22 0 18 0;
#X connect 23 0 19 0;
