#N canvas 586 96 408 362 12;
#X obj 60 74 t b;
#X obj 60 123 1;
#X obj 60 147 biquad~ 0 0 1 -1 0;
#X obj 60 171 *~;
#X obj 92 99 del 3;
#X obj 92 123 0;
#X obj 60 270 outlet~;
#X obj 60 50 inlet;
#X obj 112 171 loadbang;
#X obj 60 244 vcf~ 5;
#X obj 112 195 random 4000;
#X obj 112 219 + 5000;
#X obj 112 244 sig~;
#X connect 0 0 1 0;
#X connect 0 0 4 0;
#X connect 1 0 2 0;
#X connect 1 0 3 1;
#X connect 2 0 3 0;
#X connect 3 0 9 0;
#X connect 4 0 5 0;
#X connect 5 0 2 0;
#X connect 5 0 3 1;
#X connect 7 0 0 0;
#X connect 8 0 10 0;
#X connect 9 0 6 0;
#X connect 10 0 11 0;
#X connect 11 0 12 0;
#X connect 12 0 9 1;
