#N canvas 59 14 782 730 10;
#X obj 195 359 vline~;
#X obj 39 449 *~ 2048;
#X obj 163 598 *~;
#X msg 195 338 0 \, 1 \$1 0;
#X obj 147 318 t f f;
#X obj 147 404 / 1000;
#X obj 179 459 *~;
#X obj 195 399 *~;
#X obj 147 426 sig~;
#X obj 147 255 f;
#X obj 179 504 +~;
#X obj 343 25 inlet;
#X obj 343 46 t b a;
#X obj 395 72 unpack f f f;
#X obj 195 438 *~ 1;
#X obj 147 298 * 1;
#X obj 179 545 +~;
#X obj 474 93 s \$0-mydur;
#X obj 163 276 r \$0-mydur;
#X obj 395 131 s \$0-mystart;
#X obj 195 525 r \$0-mystart;
#X obj 218 419 r \$0-mypitch;
#X obj 288 123 random 100;
#X obj 288 143 / 100;
#X floatatom 288 163 5 0 0 0 - - - 0;
#X obj 288 182 expr if($f1 > $f2 \, 1 \, 2);
#X obj 288 202 sel 1;
#X obj 285 227 bng 15 250 50 0 empty empty empty 17 7 0 10 #fcfcfc #000000 #000000;
#X obj 489 371 vline~;
#X obj 333 461 *~ 2048;
#X obj 457 610 *~;
#X msg 489 350 0 \, 1 \$1 0;
#X obj 441 330 t f f;
#X obj 441 416 / 1000;
#X obj 473 471 *~;
#X obj 489 411 *~;
#X obj 441 438 sig~;
#X obj 441 267 f;
#X obj 473 516 +~;
#X obj 489 450 *~ 1;
#X obj 441 310 * 1;
#X obj 473 557 +~;
#X obj 457 288 r \$0-mydur;
#X obj 489 537 r \$0-mystart;
#X obj 316 227 bng 15 250 50 0 empty empty empty 17 7 0 10 #fcfcfc #000000 #000000;
#X obj 163 618 *~;
#X obj 457 630 *~;
#X obj 505 392 r \$2-grainpitch2;
#X obj 457 245 r \$2-graindur2;
#X obj 429 162 r \$2-probability;
#X obj 434 112 s \$0-mypitch;
#X obj 511 431 r \$0-mypitch;
#X obj 489 495 r \$2-grainstart2;
#X obj 473 582 tabread4~ \$2-source-array-2;
#X obj 485 609 r \$2-vol2;
#X obj 202 597 r \$2-vol1;
#X obj 179 570 tabread4~ \$2-source-array;
#X obj 195 483 r \$2-grainstart;
#X obj 211 379 r \$2-grainpitch;
#X obj 163 234 r \$2-graindur;
#X obj 333 482 tabread4~ \$2-grain-env;
#X obj 39 470 tabread4~ \$2-grain-env;
#X obj 295 680 throw~ \$2-bus;
#X connect 0 0 1 0;
#X connect 0 0 7 0;
#X connect 1 0 61 0;
#X connect 2 0 45 0;
#X connect 3 0 0 0;
#X connect 4 0 5 0;
#X connect 4 1 3 0;
#X connect 5 0 8 0;
#X connect 6 0 10 0;
#X connect 7 0 14 0;
#X connect 8 0 6 0;
#X connect 9 0 15 0;
#X connect 10 0 16 0;
#X connect 11 0 12 0;
#X connect 12 0 22 0;
#X connect 12 1 13 0;
#X connect 13 0 19 0;
#X connect 13 1 50 0;
#X connect 13 2 17 0;
#X connect 14 0 6 1;
#X connect 15 0 4 0;
#X connect 16 0 56 0;
#X connect 18 0 15 1;
#X connect 20 0 16 1;
#X connect 21 0 14 1;
#X connect 22 0 23 0;
#X connect 23 0 24 0;
#X connect 24 0 25 0;
#X connect 25 0 26 0;
#X connect 26 0 27 0;
#X connect 26 1 44 0;
#X connect 27 0 9 0;
#X connect 28 0 29 0;
#X connect 28 0 35 0;
#X connect 29 0 60 0;
#X connect 30 0 46 0;
#X connect 31 0 28 0;
#X connect 32 0 33 0;
#X connect 32 1 31 0;
#X connect 33 0 36 0;
#X connect 34 0 38 0;
#X connect 35 0 39 0;
#X connect 36 0 34 0;
#X connect 37 0 40 0;
#X connect 38 0 41 0;
#X connect 39 0 34 1;
#X connect 40 0 32 0;
#X connect 41 0 53 0;
#X connect 42 0 40 1;
#X connect 43 0 41 1;
#X connect 44 0 37 0;
#X connect 45 0 62 0;
#X connect 46 0 62 0;
#X connect 47 0 35 1;
#X connect 48 0 37 1;
#X connect 49 0 25 1;
#X connect 51 0 39 1;
#X connect 52 0 38 1;
#X connect 53 0 30 1;
#X connect 54 0 46 1;
#X connect 55 0 45 1;
#X connect 56 0 2 1;
#X connect 57 0 10 1;
#X connect 58 0 7 1;
#X connect 59 0 9 1;
#X connect 60 0 30 0;
#X connect 61 0 2 0;
