#N canvas 256 47 501 487 10;
#X obj 105 23 inlet~;
#X obj 121 120 -~;
#X obj 122 147 /~;
#X obj 122 174 outlet~;
#X obj 134 71 *~ -1;
#X obj 10 95 expr~ exp($v1*2.718);
#X obj 134 49 *~;
#X obj 149 23 inlet;
#X obj 9 130 expr~ (1/$v1)+$v1;
#X obj 135 95 expr~ exp($v1*2.718);
#X connect 0 0 6 0;
#X connect 1 0 2 0;
#X connect 2 0 3 0;
#X connect 4 0 9 0;
#X connect 5 0 1 0;
#X connect 5 0 8 0;
#X connect 6 0 5 0;
#X connect 6 0 4 0;
#X connect 7 0 6 1;
#X connect 8 0 2 1;
#X connect 9 0 1 1;
