#N canvas 72 38 819 693 12;
#X floatatom 119 232 5 0 0 0 - - - 0;
#X obj 119 279 expr~ if($v1 > 0.5 \, 1 - $v1 \, $v1), f 19;
#X obj 119 318 *~ 4;
#X obj 119 342 -~ 1;
#X obj 379 297 osc~;
#X obj 379 322 expr~ if($v1 > 0.5 \, 1 \, -1);
#X obj 443 221 tgl 15 0 empty empty empty 17 7 0 10 #fcfcfc #000000
#000000 0 1;
#X obj 443 271 random 1000;
#X obj 443 245 metro 100;
#X floatatom 378 244 5 0 0 0 - - - 0;
#X obj 119 255 phasor~ 95;
#X obj 379 273 + 60;
#X obj 464 220 loadbang;
#X text 388 155 SQUARE MODULATION;
#X text 135 206 TRIANGLE WAVE;
#X obj 142 85 noise~;
#X obj 77 171 snapshot~;
#X obj 142 136 +~ 95;
#X obj 57 112 tgl 15 0 empty empty empty 17 7 0 10 #fcfcfc #000000
#000000 0 1;
#X obj 78 111 loadbang;
#X text 96 39 noise freq mod;
#X obj 443 295 / 500;
#X obj 57 136 metro 100;
#X obj 260 436 *~;
#X obj 142 110 *~ 5;
#X obj 196 107 mtof;
#X obj 260 460 vcf~ 0.33;
#X obj 290 434 sig~;
#X obj 290 386 loadbang;
#X msg 290 410 77;
#X obj 272 554 *~;
#X obj 397 512 lop~ 0.5;
#X obj 320 48 loadbang;
#X msg 373 78 6;
#X msg 220 78 20;
#X obj 397 484 inlet~;
#X text 393 457 ENVELOPE;
#X obj 272 582 outlet~;
#X connect 0 0 10 0;
#X connect 1 0 2 0;
#X connect 2 0 3 0;
#X connect 3 0 23 0;
#X connect 4 0 5 0;
#X connect 5 0 23 1;
#X connect 6 0 8 0;
#X connect 7 0 21 0;
#X connect 8 0 7 0;
#X connect 9 0 11 1;
#X connect 10 0 1 0;
#X connect 11 0 4 0;
#X connect 12 0 6 0;
#X connect 15 0 24 0;
#X connect 16 0 0 0;
#X connect 17 0 16 0;
#X connect 18 0 22 0;
#X connect 19 0 18 0;
#X connect 21 0 11 0;
#X connect 22 0 16 0;
#X connect 23 0 26 0;
#X connect 24 0 17 0;
#X connect 25 0 17 1;
#X connect 26 0 30 0;
#X connect 26 1 30 0;
#X connect 27 0 26 1;
#X connect 28 0 29 0;
#X connect 29 0 27 0;
#X connect 30 0 37 0;
#X connect 31 0 30 1;
#X connect 32 0 33 0;
#X connect 32 0 34 0;
#X connect 33 0 9 0;
#X connect 34 0 25 0;
#X connect 35 0 31 0;
