#N canvas 92 92 955 622 12;
#X obj 298 398 *~;
#X obj 481 294 osc~;
#X obj 502 397 *~;
#X floatatom 499 185 5 0 0 0 - - - 0;
#X obj 459 398 *~;
#X obj 607 236 *~;
#X obj 607 259 lop~ 1;
#X obj 607 285 sqrt~;
#X obj 607 309 *~ 40;
#X floatatom 290 64 5 0 0 0 pitch - - 0;
#X obj 204 173 mtof;
#X obj 499 135 + 14;
#X obj 430 142 + 11;
#X obj 499 159 mtof;
#X obj 430 166 mtof;
#X obj 607 204 lop~ 0.5;
#X obj 355 162 mtof;
#X obj 409 398 *~;
#X obj 607 126 noise~;
#X obj 607 153 lop~ 0.5;
#X obj 607 178 lop~ 0.5;
#X obj 130 167 mtof;
#X obj 245 399 *~;
#X obj 130 143 - 4;
#X obj 281 167 mtof;
#X obj 364 398 *~;
#X obj 355 138 + 9;
#X obj 281 143 + 7;
#X text 790 88 LFO, f 4;
#X obj 757 137 +~ 1;
#X obj 757 192 snapshot~;
#X obj 757 163 *~ 0.5;
#X obj 757 113 osc~ 0.01;
#X obj 747 229 noise~;
#X obj 759 310 vcf~, f 8;
#X floatatom 828 281 5 0 0 0 - - - 0;
#X obj 828 257 + 1;
#X obj 828 233 * 2;
#X obj 773 279 +~ 100;
#X obj 773 255 *~ 100;
#X obj 839 135 tgl 15 0 empty empty empty 17 7 0 10 #fcfcfc #000000
#000000 0 1;
#X obj 839 155 metro 100;
#X obj 759 334 *~ 0.1;
#X obj 839 111 loadbang;
#X obj 481 213 noise~;
#X obj 481 269 +~;
#X obj 481 241 *~ 1;
#X obj 412 299 osc~;
#X floatatom 430 191 5 0 0 0 - - - 0;
#X obj 412 218 noise~;
#X obj 412 274 +~;
#X obj 412 246 *~ 1;
#X obj 337 299 osc~;
#X floatatom 355 187 5 0 0 0 - - - 0;
#X obj 337 218 noise~;
#X obj 337 274 +~;
#X obj 337 246 *~ 1;
#X obj 263 304 osc~;
#X floatatom 281 194 5 0 0 0 - - - 0;
#X obj 263 223 noise~;
#X obj 263 279 +~;
#X obj 263 251 *~ 1;
#X obj 186 302 osc~;
#X floatatom 204 196 5 0 0 0 - - - 0;
#X obj 186 221 noise~;
#X obj 186 277 +~;
#X obj 186 249 *~ 1;
#X obj 112 299 osc~;
#X floatatom 130 191 5 0 0 0 - - - 0;
#X obj 112 218 noise~;
#X obj 112 274 +~;
#X obj 112 246 *~ 1;
#X obj 290 12 loadbang;
#X msg 290 36 50;
#X obj 359 533 limiter;
#X obj 359 506 *~;
#X obj 359 561 outlet~;
#X obj 621 470 inlet~;
#X text 613 445 ENVELOPE;
#X connect 0 0 75 0;
#X connect 1 0 2 0;
#X connect 2 0 75 0;
#X connect 3 0 45 1;
#X connect 4 0 75 0;
#X connect 5 0 6 0;
#X connect 6 0 7 0;
#X connect 7 0 8 0;
#X connect 8 0 4 1;
#X connect 8 0 2 1;
#X connect 8 0 17 1;
#X connect 8 0 25 1;
#X connect 8 0 0 1;
#X connect 8 0 22 1;
#X connect 9 0 11 0;
#X connect 9 0 12 0;
#X connect 9 0 10 0;
#X connect 9 0 23 0;
#X connect 9 0 26 0;
#X connect 9 0 27 0;
#X connect 10 0 63 0;
#X connect 11 0 13 0;
#X connect 12 0 14 0;
#X connect 13 0 3 0;
#X connect 14 0 48 0;
#X connect 15 0 5 0;
#X connect 15 0 5 1;
#X connect 16 0 53 0;
#X connect 17 0 75 0;
#X connect 18 0 19 0;
#X connect 19 0 20 0;
#X connect 20 0 15 0;
#X connect 21 0 68 0;
#X connect 22 0 75 0;
#X connect 23 0 21 0;
#X connect 24 0 58 0;
#X connect 25 0 75 0;
#X connect 26 0 16 0;
#X connect 27 0 24 0;
#X connect 29 0 31 0;
#X connect 30 0 37 0;
#X connect 31 0 39 0;
#X connect 31 0 30 0;
#X connect 32 0 29 0;
#X connect 33 0 34 0;
#X connect 34 0 42 0;
#X connect 35 0 34 2;
#X connect 36 0 35 0;
#X connect 37 0 36 0;
#X connect 38 0 34 1;
#X connect 39 0 38 0;
#X connect 40 0 41 0;
#X connect 41 0 30 0;
#X connect 42 0 75 0;
#X connect 43 0 40 0;
#X connect 44 0 46 0;
#X connect 45 0 1 0;
#X connect 46 0 45 0;
#X connect 47 0 4 0;
#X connect 48 0 50 1;
#X connect 49 0 51 0;
#X connect 50 0 47 0;
#X connect 51 0 50 0;
#X connect 52 0 17 0;
#X connect 53 0 55 1;
#X connect 54 0 56 0;
#X connect 55 0 52 0;
#X connect 56 0 55 0;
#X connect 57 0 25 0;
#X connect 58 0 60 1;
#X connect 59 0 61 0;
#X connect 60 0 57 0;
#X connect 61 0 60 0;
#X connect 62 0 0 0;
#X connect 63 0 65 1;
#X connect 64 0 66 0;
#X connect 65 0 62 0;
#X connect 66 0 65 0;
#X connect 67 0 22 0;
#X connect 68 0 70 1;
#X connect 69 0 71 0;
#X connect 70 0 67 0;
#X connect 71 0 70 0;
#X connect 72 0 73 0;
#X connect 73 0 9 0;
#X connect 74 0 76 0;
#X connect 75 0 74 0;
#X connect 77 0 75 1;
