#N canvas 63 63 1377 809 12;
#X obj 360 190 *~;
#X obj 360 213 lop~ 1;
#X obj 360 239 sqrt~;
#X obj 275 187 *~;
#X obj 275 210 lop~ 1;
#X obj 275 236 sqrt~;
#X obj 193 185 *~;
#X obj 193 208 lop~ 1;
#X obj 193 234 sqrt~;
#X obj 122 183 *~;
#X obj 122 206 lop~ 1;
#X obj 122 232 sqrt~;
#X obj 509 519 wrap~;
#X obj 558 518 wrap~;
#X obj 607 517 wrap~;
#X obj 1146 456 tgl 15 0 empty empty empty 17 7 0 10 #fcfcfc #000000
#000000 0 1;
#X obj 1146 476 metro 100;
#X floatatom 545 359 5 0 0 0 - - - 0;
#X obj 562 740 *~;
#X obj 509 460 +~;
#X obj 558 460 +~;
#X obj 607 458 +~;
#X floatatom 670 611 5 0 0 0 - - - 0;
#X obj 662 517 wrap~;
#X obj 662 458 +~;
#X floatatom 615 681 5 0 0 0 - - - 0;
#X obj 562 704 lop~ 500;
#X text 1045 408 LFO, f 4;
#X obj 1012 457 +~ 1;
#X obj 1027 518 snapshot~;
#X obj 1012 483 *~ 0.5;
#X obj 1012 433 osc~ 0.01;
#X obj 551 644 vcf~ 15, f 10;
#X obj 1027 543 * 10;
#X obj 1027 567 + 10;
#X obj 825 476 noise~;
#X obj 837 557 vcf~, f 8;
#X floatatom 906 528 5 0 0 0 - - - 0;
#X obj 1070 569 + 1;
#X obj 1070 545 * 2;
#X obj 851 526 +~ 100;
#X obj 851 502 *~ 100;
#X floatatom 1103 593 5 0 0 0 - - - 0;
#X obj 1103 546 * 30;
#X obj 1169 451 loadbang;
#X obj 527 562 *~;
#X obj 567 563 *~;
#X obj 605 561 *~;
#X obj 645 562 *~;
#X text 556 116 LFO, f 4;
#X obj 624 70 noise~;
#X obj 584 235 +~;
#X obj 624 96 lop~ 0.5;
#X obj 523 165 +~ 1;
#X obj 624 120 lop~ 0.5;
#X obj 623 171 hip~ 0;
#X obj 624 145 lop~ 0.5;
#X obj 523 141 osc~ 0.1;
#X obj 523 191 *~ 0.05;
#X obj 623 195 *~ 5;
#X obj 584 288 +~ 0.61;
#X obj 1201 276 +~ 1.14;
#X obj 800 276 +~ 0.45;
#X obj 1005 276 +~ 0.91;
#X text 772 106 LFO, f 4;
#X obj 840 60 noise~;
#X obj 800 225 +~;
#X obj 840 86 lop~ 0.5;
#X obj 739 155 +~ 1;
#X obj 840 110 lop~ 0.5;
#X obj 839 161 hip~ 0;
#X obj 840 135 lop~ 0.5;
#X obj 739 131 osc~ 0.1;
#X obj 739 181 *~ 0.05;
#X obj 839 185 *~ 5;
#X text 977 104 LFO, f 4;
#X obj 1045 58 noise~;
#X obj 1005 223 +~;
#X obj 1045 84 lop~ 0.5;
#X obj 944 153 +~ 1;
#X obj 1045 108 lop~ 0.5;
#X obj 1044 159 hip~ 0;
#X obj 1045 133 lop~ 0.5;
#X obj 944 129 osc~ 0.1;
#X obj 944 179 *~ 0.05;
#X obj 1044 183 *~ 5;
#X text 1173 103 LFO, f 4;
#X obj 1241 57 noise~;
#X obj 1201 222 +~;
#X obj 1241 83 lop~ 0.5;
#X obj 1140 152 +~ 1;
#X obj 1241 107 lop~ 0.5;
#X obj 1240 158 hip~ 0;
#X obj 1241 132 lop~ 0.5;
#X obj 1140 128 osc~ 0.1;
#X obj 1140 178 *~ 0.05;
#X obj 1240 182 *~ 5;
#X obj 584 263 *~ 3;
#X obj 800 251 *~ 3;
#X obj 1005 249 *~ 3;
#X obj 1201 250 *~ 3;
#X obj 909 460 lop~ 0.5;
#X obj 327 115 lop~ 0.5;
#X obj 774 448 lop~ 0.5;
#X obj 1103 570 + 20;
#X obj 509 490 *~ 1;
#X obj 558 489 *~ 2;
#X obj 607 488 *~ 3;
#X obj 662 488 *~ 4;
#X obj 837 581 *~ 0.2;
#X obj 967 519 *~ 300;
#X obj 967 543 +~ 300;
#X obj 125 154 bp~ 8 5;
#X obj 200 154 bp~ 80 5;
#X obj 283 156 bp~ 800 5;
#X obj 368 154 bp~ 8000 5;
#X obj 476 417 *~ 0.2;
#X obj 533 416 *~ 0.2;
#X obj 593 415 *~ 0.2;
#X obj 650 414 *~ 0.2;
#X obj 545 387 phasor~ 94;
#X obj 189 74 inlet~;
#X obj 327 76 inlet~;
#X text 189 47 SOUND;
#X text 320 47 ENVELOPE;
#X obj 562 774 outlet~;
#X connect 0 0 1 0;
#X connect 1 0 2 0;
#X connect 2 0 45 1;
#X connect 2 0 119 0;
#X connect 3 0 4 0;
#X connect 4 0 5 0;
#X connect 5 0 46 1;
#X connect 5 0 118 0;
#X connect 6 0 7 0;
#X connect 7 0 8 0;
#X connect 8 0 47 1;
#X connect 8 0 101 0;
#X connect 8 0 117 0;
#X connect 9 0 10 0;
#X connect 10 0 11 0;
#X connect 11 0 48 1;
#X connect 11 0 103 0;
#X connect 11 0 116 0;
#X connect 12 0 45 0;
#X connect 13 0 46 0;
#X connect 14 0 47 0;
#X connect 15 0 16 0;
#X connect 16 0 29 0;
#X connect 17 0 120 0;
#X connect 18 0 125 0;
#X connect 19 0 105 0;
#X connect 20 0 106 0;
#X connect 21 0 107 0;
#X connect 22 0 32 2;
#X connect 23 0 48 0;
#X connect 24 0 108 0;
#X connect 25 0 26 1;
#X connect 26 0 18 0;
#X connect 28 0 30 0;
#X connect 29 0 33 0;
#X connect 29 0 39 0;
#X connect 29 0 43 0;
#X connect 30 0 29 0;
#X connect 31 0 28 0;
#X connect 32 0 26 0;
#X connect 32 1 26 0;
#X connect 33 0 34 0;
#X connect 34 0 22 0;
#X connect 35 0 36 0;
#X connect 36 0 109 0;
#X connect 37 0 36 2;
#X connect 38 0 37 0;
#X connect 39 0 38 0;
#X connect 40 0 36 1;
#X connect 41 0 40 0;
#X connect 43 0 104 0;
#X connect 44 0 15 0;
#X connect 45 0 32 0;
#X connect 46 0 32 0;
#X connect 47 0 32 0;
#X connect 48 0 32 0;
#X connect 50 0 52 0;
#X connect 51 0 97 0;
#X connect 52 0 54 0;
#X connect 53 0 58 0;
#X connect 54 0 56 0;
#X connect 55 0 59 0;
#X connect 56 0 55 0;
#X connect 57 0 53 0;
#X connect 58 0 51 0;
#X connect 59 0 51 1;
#X connect 60 0 19 1;
#X connect 61 0 24 1;
#X connect 62 0 20 1;
#X connect 63 0 21 1;
#X connect 65 0 67 0;
#X connect 66 0 98 0;
#X connect 67 0 69 0;
#X connect 68 0 73 0;
#X connect 69 0 71 0;
#X connect 70 0 74 0;
#X connect 71 0 70 0;
#X connect 72 0 68 0;
#X connect 73 0 66 0;
#X connect 74 0 66 1;
#X connect 76 0 78 0;
#X connect 77 0 99 0;
#X connect 78 0 80 0;
#X connect 79 0 84 0;
#X connect 80 0 82 0;
#X connect 81 0 85 0;
#X connect 82 0 81 0;
#X connect 83 0 79 0;
#X connect 84 0 77 0;
#X connect 85 0 77 1;
#X connect 87 0 89 0;
#X connect 88 0 100 0;
#X connect 89 0 91 0;
#X connect 90 0 95 0;
#X connect 91 0 93 0;
#X connect 92 0 96 0;
#X connect 93 0 92 0;
#X connect 94 0 90 0;
#X connect 95 0 88 0;
#X connect 96 0 88 1;
#X connect 97 0 60 0;
#X connect 98 0 62 0;
#X connect 99 0 63 0;
#X connect 100 0 61 0;
#X connect 101 0 110 0;
#X connect 102 0 18 1;
#X connect 103 0 41 0;
#X connect 104 0 42 0;
#X connect 105 0 12 0;
#X connect 106 0 13 0;
#X connect 107 0 14 0;
#X connect 108 0 23 0;
#X connect 109 0 26 0;
#X connect 110 0 111 0;
#X connect 111 0 32 1;
#X connect 112 0 9 1;
#X connect 112 0 9 0;
#X connect 113 0 6 0;
#X connect 113 0 6 1;
#X connect 114 0 3 0;
#X connect 114 0 3 1;
#X connect 115 0 0 0;
#X connect 115 0 0 1;
#X connect 116 0 19 1;
#X connect 117 0 20 1;
#X connect 118 0 21 1;
#X connect 119 0 24 1;
#X connect 120 0 19 0;
#X connect 120 0 21 0;
#X connect 120 0 20 0;
#X connect 120 0 24 0;
#X connect 121 0 112 0;
#X connect 121 0 115 0;
#X connect 121 0 114 0;
#X connect 121 0 113 0;
#X connect 122 0 102 0;
