#N canvas 110 294 863 402 12;
#X obj 72 67 adc~ 3;
#X obj 183 64 adc~ 4;
#X obj 72 103 piezo-interaction-bela;
#X obj 183 147 piezo-interaction-bela;
#X obj 332 291 limiter;
#X obj 332 315 dac~ 3 4;
#X text 153 39 Tectonic plates;
#X text 75 38 Bones;
#X obj 293 99 piezo-interaction-bela;
#X obj 376 145 piezo-interaction-bela;
#X obj 293 63 adc~ 5;
#X obj 376 60 adc~ 6;
#X text 296 34 Heavy;
#X text 376 35 Flesh;
#X obj 473 97 piezo-interaction-bela;
#X obj 584 142 piezo-interaction-bela;
#X obj 473 61 adc~ 7;
#X obj 584 58 adc~ 8;
#X text 587 32 Touch;
#X text 475 36 Waves;
#X obj 497 186 3.waves;
#X obj 186 192 2.tectonic-plates;
#X obj 72 148 6.bones;
#X connect 0 0 2 0;
#X connect 1 0 3 0;
#X connect 2 0 22 0;
#X connect 2 1 22 1;
#X connect 3 1 21 0;
#X connect 4 0 5 0;
#X connect 4 0 5 1;
#X connect 10 0 8 0;
#X connect 11 0 9 0;
#X connect 14 1 20 0;
#X connect 16 0 14 0;
#X connect 17 0 15 0;
#X connect 20 0 4 0;
#X connect 21 0 4 0;
#X connect 22 0 4 0;
