#N canvas 0 0 1440 872 12;
#X obj 503 57 tgl 19 0 empty empty empty 0 -10 0 12 #fcfcfc #000000 #000000 0 1;
#X obj 503 105 f;
#X obj 548 105 + 1;
#X msg 465 78 0;
#X floatatom 503 129 5 0 0 0 - - - 0;
#X obj 77 186 sel 0;
#X obj 132 185 sel 1;
#X obj 77 210 bng 19 250 50 0 empty empty empty 0 -10 0 12 #fcfcfc #000000 #000000;
#X obj 77 235 spigot;
#X obj 103 210 tgl 19 0 empty empty empty 0 -10 0 12 #fcfcfc #000000 #000000 0 1;
#X obj 132 210 bng 19 250 50 0 empty empty empty 0 -10 0 12 #fcfcfc #000000 #000000;
#X obj 132 235 spigot;
#X obj 158 210 tgl 19 0 empty empty empty 0 -10 0 12 #fcfcfc #000000 #000000 0 1;
#X obj 189 210 bng 19 250 50 0 empty empty empty 0 -10 0 12 #fcfcfc #000000 #000000;
#X obj 189 235 spigot;
#X obj 215 210 tgl 19 0 empty empty empty 0 -10 0 12 #fcfcfc #000000 #000000 0 1;
#X obj 244 210 bng 19 250 50 0 empty empty empty 0 -10 0 12 #fcfcfc #000000 #000000;
#X obj 244 235 spigot;
#X obj 270 210 tgl 19 0 empty empty empty 0 -10 0 12 #fcfcfc #000000 #000000 0 1;
#X obj 301 209 bng 19 250 50 0 empty empty empty 0 -10 0 12 #fcfcfc #000000 #000000;
#X obj 301 234 spigot;
#X obj 327 209 tgl 19 0 empty empty empty 0 -10 0 12 #fcfcfc #000000 #000000 0 1;
#X obj 356 209 bng 19 250 50 0 empty empty empty 0 -10 0 12 #fcfcfc #000000 #000000;
#X obj 356 234 spigot;
#X obj 382 209 tgl 19 0 empty empty empty 0 -10 0 12 #fcfcfc #000000 #000000 0 1;
#X obj 413 209 bng 19 250 50 0 empty empty empty 0 -10 0 12 #fcfcfc #000000 #000000;
#X obj 413 234 spigot;
#X obj 439 209 tgl 19 0 empty empty empty 0 -10 0 12 #fcfcfc #000000 #000000 0 1;
#X obj 468 209 bng 19 250 50 0 empty empty empty 0 -10 0 12 #fcfcfc #000000 #000000;
#X obj 468 234 spigot;
#X obj 494 209 tgl 19 0 empty empty empty 0 -10 0 12 #fcfcfc #000000 #000000 0 1;
#X obj 189 186 sel 2;
#X obj 244 185 sel 3;
#X obj 301 185 sel 4;
#X obj 356 184 sel 5;
#X obj 413 185 sel 6;
#X obj 468 184 sel 7;
#X obj 570 208 bng 19 250 50 0 empty empty empty 0 -10 0 12 #fcfcfc #000000 #000000;
#X obj 570 233 spigot;
#X obj 596 208 tgl 19 0 empty empty empty 0 -10 0 12 #fcfcfc #000000 #000000 0 1;
#X obj 625 208 bng 19 250 50 0 empty empty empty 0 -10 0 12 #fcfcfc #000000 #000000;
#X obj 625 233 spigot;
#X obj 651 208 tgl 19 0 empty empty empty 0 -10 0 12 #fcfcfc #000000 #000000 0 1;
#X obj 682 208 bng 19 250 50 0 empty empty empty 0 -10 0 12 #fcfcfc #000000 #000000;
#X obj 682 233 spigot;
#X obj 708 208 tgl 19 0 empty empty empty 0 -10 0 12 #fcfcfc #000000 #000000 0 1;
#X obj 737 208 bng 19 250 50 0 empty empty empty 0 -10 0 12 #fcfcfc #000000 #000000;
#X obj 737 233 spigot;
#X obj 763 208 tgl 19 0 empty empty empty 0 -10 0 12 #fcfcfc #000000 #000000 0 1;
#X obj 794 207 bng 19 250 50 0 empty empty empty 0 -10 0 12 #fcfcfc #000000 #000000;
#X obj 794 232 spigot;
#X obj 820 207 tgl 19 0 empty empty empty 0 -10 0 12 #fcfcfc #000000 #000000 0 1;
#X obj 849 207 bng 19 250 50 0 empty empty empty 0 -10 0 12 #fcfcfc #000000 #000000;
#X obj 849 232 spigot;
#X obj 875 207 tgl 19 0 empty empty empty 0 -10 0 12 #fcfcfc #000000 #000000 0 1;
#X obj 906 207 bng 19 250 50 0 empty empty empty 0 -10 0 12 #fcfcfc #000000 #000000;
#X obj 906 232 spigot;
#X obj 932 207 tgl 19 0 empty empty empty 0 -10 0 12 #fcfcfc #000000 #000000 0 1;
#X obj 961 207 bng 19 250 50 0 empty empty empty 0 -10 0 12 #fcfcfc #000000 #000000;
#X obj 961 232 spigot;
#X obj 987 207 tgl 19 0 empty empty empty 0 -10 0 12 #fcfcfc #000000 #000000 0 1;
#X obj 570 184 sel 8;
#X obj 625 183 sel 9;
#X obj 682 184 sel 10;
#X obj 737 183 sel 11;
#X obj 794 183 sel 12;
#X obj 849 182 sel 13;
#X obj 906 183 sel 14;
#X obj 961 182 sel 15;
#X obj 73 337 bng 19 250 50 0 empty empty empty 0 -10 0 12 #fcfcfc #000000 #000000;
#X obj 73 362 spigot;
#X obj 99 337 tgl 19 0 empty empty empty 0 -10 0 12 #fcfcfc #000000 #000000 0 1;
#X obj 128 337 bng 19 250 50 0 empty empty empty 0 -10 0 12 #fcfcfc #000000 #000000;
#X obj 128 362 spigot;
#X obj 154 337 tgl 19 0 empty empty empty 0 -10 0 12 #fcfcfc #000000 #000000 0 1;
#X obj 185 337 bng 19 250 50 0 empty empty empty 0 -10 0 12 #fcfcfc #000000 #000000;
#X obj 185 362 spigot;
#X obj 211 337 tgl 19 0 empty empty empty 0 -10 0 12 #fcfcfc #000000 #000000 0 1;
#X obj 240 337 bng 19 250 50 0 empty empty empty 0 -10 0 12 #fcfcfc #000000 #000000;
#X obj 240 362 spigot;
#X obj 266 337 tgl 19 0 empty empty empty 0 -10 0 12 #fcfcfc #000000 #000000 0 1;
#X obj 297 336 bng 19 250 50 0 empty empty empty 0 -10 0 12 #fcfcfc #000000 #000000;
#X obj 297 361 spigot;
#X obj 323 336 tgl 19 0 empty empty empty 0 -10 0 12 #fcfcfc #000000 #000000 0 1;
#X obj 352 336 bng 19 250 50 0 empty empty empty 0 -10 0 12 #fcfcfc #000000 #000000;
#X obj 352 361 spigot;
#X obj 378 336 tgl 19 0 empty empty empty 0 -10 0 12 #fcfcfc #000000 #000000 0 1;
#X obj 409 336 bng 19 250 50 0 empty empty empty 0 -10 0 12 #fcfcfc #000000 #000000;
#X obj 409 361 spigot;
#X obj 435 336 tgl 19 0 empty empty empty 0 -10 0 12 #fcfcfc #000000 #000000 0 1;
#X obj 464 336 bng 19 250 50 0 empty empty empty 0 -10 0 12 #fcfcfc #000000 #000000;
#X obj 464 361 spigot;
#X obj 490 336 tgl 19 0 empty empty empty 0 -10 0 12 #fcfcfc #000000 #000000 0 1;
#X obj 569 336 bng 19 250 50 0 empty empty empty 0 -10 0 12 #fcfcfc #000000 #000000;
#X obj 569 361 spigot;
#X obj 595 336 tgl 19 0 empty empty empty 0 -10 0 12 #fcfcfc #000000 #000000 0 1;
#X obj 624 336 bng 19 250 50 0 empty empty empty 0 -10 0 12 #fcfcfc #000000 #000000;
#X obj 624 361 spigot;
#X obj 650 336 tgl 19 0 empty empty empty 0 -10 0 12 #fcfcfc #000000 #000000 0 1;
#X obj 681 336 bng 19 250 50 0 empty empty empty 0 -10 0 12 #fcfcfc #000000 #000000;
#X obj 681 361 spigot;
#X obj 707 336 tgl 19 0 empty empty empty 0 -10 0 12 #fcfcfc #000000 #000000 0 1;
#X obj 736 336 bng 19 250 50 0 empty empty empty 0 -10 0 12 #fcfcfc #000000 #000000;
#X obj 736 361 spigot;
#X obj 762 336 tgl 19 0 empty empty empty 0 -10 0 12 #fcfcfc #000000 #000000 0 1;
#X obj 793 335 bng 19 250 50 0 empty empty empty 0 -10 0 12 #fcfcfc #000000 #000000;
#X obj 793 360 spigot;
#X obj 819 335 tgl 19 0 empty empty empty 0 -10 0 12 #fcfcfc #000000 #000000 0 1;
#X obj 848 335 bng 19 250 50 0 empty empty empty 0 -10 0 12 #fcfcfc #000000 #000000;
#X obj 848 360 spigot;
#X obj 874 335 tgl 19 0 empty empty empty 0 -10 0 12 #fcfcfc #000000 #000000 0 1;
#X obj 905 335 bng 19 250 50 0 empty empty empty 0 -10 0 12 #fcfcfc #000000 #000000;
#X obj 905 360 spigot;
#X obj 931 335 tgl 19 0 empty empty empty 0 -10 0 12 #fcfcfc #000000 #000000 0 1;
#X obj 960 335 bng 19 250 50 0 empty empty empty 0 -10 0 12 #fcfcfc #000000 #000000;
#X obj 960 360 spigot;
#X obj 986 335 tgl 19 0 empty empty empty 0 -10 0 12 #fcfcfc #000000 #000000 0 1;
#X obj 73 313 sel 16;
#X obj 128 312 sel 17;
#X obj 185 313 sel 18;
#X obj 240 312 sel 19;
#X obj 297 312 sel 20;
#X obj 352 311 sel 21;
#X obj 409 312 sel 22;
#X obj 464 311 sel 23;
#X obj 569 312 sel 24;
#X obj 624 311 sel 25;
#X obj 681 312 sel 26;
#X obj 736 311 sel 27;
#X obj 793 311 sel 28;
#X obj 848 310 sel 29;
#X obj 905 311 sel 30;
#X obj 960 310 sel 31;
#X obj 77 259 bng 19 250 50 0 empty empty empty 0 -10 0 12 #fcfcfc #000000 #000000;
#X obj 132 259 bng 19 250 50 0 empty empty empty 0 -10 0 12 #fcfcfc #000000 #000000;
#X obj 189 259 bng 19 250 50 0 empty empty empty 0 -10 0 12 #fcfcfc #000000 #000000;
#X obj 244 259 bng 19 250 50 0 empty empty empty 0 -10 0 12 #fcfcfc #000000 #000000;
#X obj 301 258 bng 19 250 50 0 empty empty empty 0 -10 0 12 #fcfcfc #000000 #000000;
#X obj 356 258 bng 19 250 50 0 empty empty empty 0 -10 0 12 #fcfcfc #000000 #000000;
#X obj 413 258 bng 19 250 50 0 empty empty empty 0 -10 0 12 #fcfcfc #000000 #000000;
#X obj 468 258 bng 19 250 50 0 empty empty empty 0 -10 0 12 #fcfcfc #000000 #000000;
#X obj 570 257 bng 19 250 50 0 empty empty empty 0 -10 0 12 #fcfcfc #000000 #000000;
#X obj 625 257 bng 19 250 50 0 empty empty empty 0 -10 0 12 #fcfcfc #000000 #000000;
#X obj 682 257 bng 19 250 50 0 empty empty empty 0 -10 0 12 #fcfcfc #000000 #000000;
#X obj 737 257 bng 19 250 50 0 empty empty empty 0 -10 0 12 #fcfcfc #000000 #000000;
#X obj 794 256 bng 19 250 50 0 empty empty empty 0 -10 0 12 #fcfcfc #000000 #000000;
#X obj 849 256 bng 19 250 50 0 empty empty empty 0 -10 0 12 #fcfcfc #000000 #000000;
#X obj 906 256 bng 19 250 50 0 empty empty empty 0 -10 0 12 #fcfcfc #000000 #000000;
#X obj 961 256 bng 19 250 50 0 empty empty empty 0 -10 0 12 #fcfcfc #000000 #000000;
#X obj 73 386 bng 19 250 50 0 empty empty empty 0 -10 0 12 #fcfcfc #000000 #000000;
#X obj 128 386 bng 19 250 50 0 empty empty empty 0 -10 0 12 #fcfcfc #000000 #000000;
#X obj 185 386 bng 19 250 50 0 empty empty empty 0 -10 0 12 #fcfcfc #000000 #000000;
#X obj 240 386 bng 19 250 50 0 empty empty empty 0 -10 0 12 #fcfcfc #000000 #000000;
#X obj 297 385 bng 19 250 50 0 empty empty empty 0 -10 0 12 #fcfcfc #000000 #000000;
#X obj 352 385 bng 19 250 50 0 empty empty empty 0 -10 0 12 #fcfcfc #000000 #000000;
#X obj 409 385 bng 19 250 50 0 empty empty empty 0 -10 0 12 #fcfcfc #000000 #000000;
#X obj 464 385 bng 19 250 50 0 empty empty empty 0 -10 0 12 #fcfcfc #000000 #000000;
#X obj 569 385 bng 19 250 50 0 empty empty empty 0 -10 0 12 #fcfcfc #000000 #000000;
#X obj 624 385 bng 19 250 50 0 empty empty empty 0 -10 0 12 #fcfcfc #000000 #000000;
#X obj 681 385 bng 19 250 50 0 empty empty empty 0 -10 0 12 #fcfcfc #000000 #000000;
#X obj 736 385 bng 19 250 50 0 empty empty empty 0 -10 0 12 #fcfcfc #000000 #000000;
#X obj 793 384 bng 19 250 50 0 empty empty empty 0 -10 0 12 #fcfcfc #000000 #000000;
#X obj 848 384 bng 19 250 50 0 empty empty empty 0 -10 0 12 #fcfcfc #000000 #000000;
#X obj 905 384 bng 19 250 50 0 empty empty empty 0 -10 0 12 #fcfcfc #000000 #000000;
#X obj 960 384 bng 19 250 50 0 empty empty empty 0 -10 0 12 #fcfcfc #000000 #000000;
#X obj 503 477 s kick;
#X obj 548 129 % 32;
#X obj 66 536 sel 0;
#X obj 121 535 sel 1;
#X obj 66 560 bng 19 250 50 0 empty empty empty 0 -10 0 12 #fcfcfc #000000 #000000;
#X obj 66 585 spigot;
#X obj 92 560 tgl 19 0 empty empty empty 0 -10 0 12 #fcfcfc #000000 #000000 0 1;
#X obj 121 560 bng 19 250 50 0 empty empty empty 0 -10 0 12 #fcfcfc #000000 #000000;
#X obj 121 585 spigot;
#X obj 147 560 tgl 19 0 empty empty empty 0 -10 0 12 #fcfcfc #000000 #000000 0 1;
#X obj 178 560 bng 19 250 50 0 empty empty empty 0 -10 0 12 #fcfcfc #000000 #000000;
#X obj 178 585 spigot;
#X obj 204 560 tgl 19 0 empty empty empty 0 -10 0 12 #fcfcfc #000000 #000000 0 1;
#X obj 233 560 bng 19 250 50 0 empty empty empty 0 -10 0 12 #fcfcfc #000000 #000000;
#X obj 233 585 spigot;
#X obj 259 560 tgl 19 0 empty empty empty 0 -10 0 12 #fcfcfc #000000 #000000 0 1;
#X obj 290 559 bng 19 250 50 0 empty empty empty 0 -10 0 12 #fcfcfc #000000 #000000;
#X obj 290 584 spigot;
#X obj 316 559 tgl 19 0 empty empty empty 0 -10 0 12 #fcfcfc #000000 #000000 0 1;
#X obj 345 559 bng 19 250 50 0 empty empty empty 0 -10 0 12 #fcfcfc #000000 #000000;
#X obj 345 584 spigot;
#X obj 371 559 tgl 19 0 empty empty empty 0 -10 0 12 #fcfcfc #000000 #000000 0 1;
#X obj 402 559 bng 19 250 50 0 empty empty empty 0 -10 0 12 #fcfcfc #000000 #000000;
#X obj 402 584 spigot;
#X obj 428 559 tgl 19 0 empty empty empty 0 -10 0 12 #fcfcfc #000000 #000000 0 1;
#X obj 457 559 bng 19 250 50 0 empty empty empty 0 -10 0 12 #fcfcfc #000000 #000000;
#X obj 457 584 spigot;
#X obj 483 559 tgl 19 0 empty empty empty 0 -10 0 12 #fcfcfc #000000 #000000 0 1;
#X obj 178 536 sel 2;
#X obj 233 535 sel 3;
#X obj 290 535 sel 4;
#X obj 345 534 sel 5;
#X obj 402 535 sel 6;
#X obj 457 534 sel 7;
#X obj 559 558 bng 19 250 50 0 empty empty empty 0 -10 0 12 #fcfcfc #000000 #000000;
#X obj 559 583 spigot;
#X obj 585 558 tgl 19 0 empty empty empty 0 -10 0 12 #fcfcfc #000000 #000000 0 1;
#X obj 614 558 bng 19 250 50 0 empty empty empty 0 -10 0 12 #fcfcfc #000000 #000000;
#X obj 614 583 spigot;
#X obj 640 558 tgl 19 0 empty empty empty 0 -10 0 12 #fcfcfc #000000 #000000 0 1;
#X obj 671 558 bng 19 250 50 0 empty empty empty 0 -10 0 12 #fcfcfc #000000 #000000;
#X obj 671 583 spigot;
#X obj 697 558 tgl 19 0 empty empty empty 0 -10 0 12 #fcfcfc #000000 #000000 0 1;
#X obj 726 558 bng 19 250 50 0 empty empty empty 0 -10 0 12 #fcfcfc #000000 #000000;
#X obj 726 583 spigot;
#X obj 752 558 tgl 19 0 empty empty empty 0 -10 0 12 #fcfcfc #000000 #000000 0 1;
#X obj 783 557 bng 19 250 50 0 empty empty empty 0 -10 0 12 #fcfcfc #000000 #000000;
#X obj 783 582 spigot;
#X obj 809 557 tgl 19 0 empty empty empty 0 -10 0 12 #fcfcfc #000000 #000000 0 1;
#X obj 838 557 bng 19 250 50 0 empty empty empty 0 -10 0 12 #fcfcfc #000000 #000000;
#X obj 838 582 spigot;
#X obj 864 557 tgl 19 0 empty empty empty 0 -10 0 12 #fcfcfc #000000 #000000 0 1;
#X obj 895 557 bng 19 250 50 0 empty empty empty 0 -10 0 12 #fcfcfc #000000 #000000;
#X obj 895 582 spigot;
#X obj 921 557 tgl 19 0 empty empty empty 0 -10 0 12 #fcfcfc #000000 #000000 0 1;
#X obj 950 557 bng 19 250 50 0 empty empty empty 0 -10 0 12 #fcfcfc #000000 #000000;
#X obj 950 582 spigot;
#X obj 976 557 tgl 19 0 empty empty empty 0 -10 0 12 #fcfcfc #000000 #000000 0 1;
#X obj 559 534 sel 8;
#X obj 614 533 sel 9;
#X obj 671 534 sel 10;
#X obj 726 533 sel 11;
#X obj 783 533 sel 12;
#X obj 838 532 sel 13;
#X obj 895 533 sel 14;
#X obj 950 532 sel 15;
#X obj 62 687 bng 19 250 50 0 empty empty empty 0 -10 0 12 #fcfcfc #000000 #000000;
#X obj 62 712 spigot;
#X obj 88 687 tgl 19 0 empty empty empty 0 -10 0 12 #fcfcfc #000000 #000000 0 1;
#X obj 117 687 bng 19 250 50 0 empty empty empty 0 -10 0 12 #fcfcfc #000000 #000000;
#X obj 117 712 spigot;
#X obj 143 687 tgl 19 0 empty empty empty 0 -10 0 12 #fcfcfc #000000 #000000 0 1;
#X obj 174 687 bng 19 250 50 0 empty empty empty 0 -10 0 12 #fcfcfc #000000 #000000;
#X obj 174 712 spigot;
#X obj 200 687 tgl 19 0 empty empty empty 0 -10 0 12 #fcfcfc #000000 #000000 0 1;
#X obj 229 687 bng 19 250 50 0 empty empty empty 0 -10 0 12 #fcfcfc #000000 #000000;
#X obj 229 712 spigot;
#X obj 255 687 tgl 19 0 empty empty empty 0 -10 0 12 #fcfcfc #000000 #000000 0 1;
#X obj 286 686 bng 19 250 50 0 empty empty empty 0 -10 0 12 #fcfcfc #000000 #000000;
#X obj 286 711 spigot;
#X obj 312 686 tgl 19 0 empty empty empty 0 -10 0 12 #fcfcfc #000000 #000000 0 1;
#X obj 341 686 bng 19 250 50 0 empty empty empty 0 -10 0 12 #fcfcfc #000000 #000000;
#X obj 341 711 spigot;
#X obj 367 686 tgl 19 0 empty empty empty 0 -10 0 12 #fcfcfc #000000 #000000 0 1;
#X obj 398 686 bng 19 250 50 0 empty empty empty 0 -10 0 12 #fcfcfc #000000 #000000;
#X obj 398 711 spigot;
#X obj 424 686 tgl 19 0 empty empty empty 0 -10 0 12 #fcfcfc #000000 #000000 0 1;
#X obj 453 686 bng 19 250 50 0 empty empty empty 0 -10 0 12 #fcfcfc #000000 #000000;
#X obj 453 711 spigot;
#X obj 479 686 tgl 19 0 empty empty empty 0 -10 0 12 #fcfcfc #000000 #000000 0 1;
#X obj 558 686 bng 19 250 50 0 empty empty empty 0 -10 0 12 #fcfcfc #000000 #000000;
#X obj 558 711 spigot;
#X obj 584 686 tgl 19 0 empty empty empty 0 -10 0 12 #fcfcfc #000000 #000000 0 1;
#X obj 613 686 bng 19 250 50 0 empty empty empty 0 -10 0 12 #fcfcfc #000000 #000000;
#X obj 613 711 spigot;
#X obj 639 686 tgl 19 0 empty empty empty 0 -10 0 12 #fcfcfc #000000 #000000 0 1;
#X obj 670 686 bng 19 250 50 0 empty empty empty 0 -10 0 12 #fcfcfc #000000 #000000;
#X obj 670 711 spigot;
#X obj 696 686 tgl 19 0 empty empty empty 0 -10 0 12 #fcfcfc #000000 #000000 0 1;
#X obj 725 686 bng 19 250 50 0 empty empty empty 0 -10 0 12 #fcfcfc #000000 #000000;
#X obj 725 711 spigot;
#X obj 751 686 tgl 19 0 empty empty empty 0 -10 0 12 #fcfcfc #000000 #000000 0 1;
#X obj 782 685 bng 19 250 50 0 empty empty empty 0 -10 0 12 #fcfcfc #000000 #000000;
#X obj 782 710 spigot;
#X obj 808 685 tgl 19 0 empty empty empty 0 -10 0 12 #fcfcfc #000000 #000000 0 1;
#X obj 837 685 bng 19 250 50 0 empty empty empty 0 -10 0 12 #fcfcfc #000000 #000000;
#X obj 837 710 spigot;
#X obj 863 685 tgl 19 0 empty empty empty 0 -10 0 12 #fcfcfc #000000 #000000 0 1;
#X obj 894 685 bng 19 250 50 0 empty empty empty 0 -10 0 12 #fcfcfc #000000 #000000;
#X obj 894 710 spigot;
#X obj 920 685 tgl 19 0 empty empty empty 0 -10 0 12 #fcfcfc #000000 #000000 0 1;
#X obj 949 685 bng 19 250 50 0 empty empty empty 0 -10 0 12 #fcfcfc #000000 #000000;
#X obj 949 710 spigot;
#X obj 975 685 tgl 19 0 empty empty empty 0 -10 0 12 #fcfcfc #000000 #000000 0 1;
#X obj 62 663 sel 16;
#X obj 117 662 sel 17;
#X obj 174 663 sel 18;
#X obj 229 662 sel 19;
#X obj 286 662 sel 20;
#X obj 341 661 sel 21;
#X obj 398 662 sel 22;
#X obj 453 661 sel 23;
#X obj 558 662 sel 24;
#X obj 613 661 sel 25;
#X obj 670 662 sel 26;
#X obj 725 661 sel 27;
#X obj 782 661 sel 28;
#X obj 837 660 sel 29;
#X obj 894 661 sel 30;
#X obj 949 660 sel 31;
#X obj 66 609 bng 19 250 50 0 empty empty empty 0 -10 0 12 #fcfcfc #000000 #000000;
#X obj 121 609 bng 19 250 50 0 empty empty empty 0 -10 0 12 #fcfcfc #000000 #000000;
#X obj 178 609 bng 19 250 50 0 empty empty empty 0 -10 0 12 #fcfcfc #000000 #000000;
#X obj 233 609 bng 19 250 50 0 empty empty empty 0 -10 0 12 #fcfcfc #000000 #000000;
#X obj 290 608 bng 19 250 50 0 empty empty empty 0 -10 0 12 #fcfcfc #000000 #000000;
#X obj 345 608 bng 19 250 50 0 empty empty empty 0 -10 0 12 #fcfcfc #000000 #000000;
#X obj 402 608 bng 19 250 50 0 empty empty empty 0 -10 0 12 #fcfcfc #000000 #000000;
#X obj 457 608 bng 19 250 50 0 empty empty empty 0 -10 0 12 #fcfcfc #000000 #000000;
#X obj 559 607 bng 19 250 50 0 empty empty empty 0 -10 0 12 #fcfcfc #000000 #000000;
#X obj 614 607 bng 19 250 50 0 empty empty empty 0 -10 0 12 #fcfcfc #000000 #000000;
#X obj 671 607 bng 19 250 50 0 empty empty empty 0 -10 0 12 #fcfcfc #000000 #000000;
#X obj 726 607 bng 19 250 50 0 empty empty empty 0 -10 0 12 #fcfcfc #000000 #000000;
#X obj 783 606 bng 19 250 50 0 empty empty empty 0 -10 0 12 #fcfcfc #000000 #000000;
#X obj 838 606 bng 19 250 50 0 empty empty empty 0 -10 0 12 #fcfcfc #000000 #000000;
#X obj 895 606 bng 19 250 50 0 empty empty empty 0 -10 0 12 #fcfcfc #000000 #000000;
#X obj 950 606 bng 19 250 50 0 empty empty empty 0 -10 0 12 #fcfcfc #000000 #000000;
#X obj 62 736 bng 19 250 50 0 empty empty empty 0 -10 0 12 #fcfcfc #000000 #000000;
#X obj 117 736 bng 19 250 50 0 empty empty empty 0 -10 0 12 #fcfcfc #000000 #000000;
#X obj 174 736 bng 19 250 50 0 empty empty empty 0 -10 0 12 #fcfcfc #000000 #000000;
#X obj 229 736 bng 19 250 50 0 empty empty empty 0 -10 0 12 #fcfcfc #000000 #000000;
#X obj 286 735 bng 19 250 50 0 empty empty empty 0 -10 0 12 #fcfcfc #000000 #000000;
#X obj 341 735 bng 19 250 50 0 empty empty empty 0 -10 0 12 #fcfcfc #000000 #000000;
#X obj 398 735 bng 19 250 50 0 empty empty empty 0 -10 0 12 #fcfcfc #000000 #000000;
#X obj 453 735 bng 19 250 50 0 empty empty empty 0 -10 0 12 #fcfcfc #000000 #000000;
#X obj 558 735 bng 19 250 50 0 empty empty empty 0 -10 0 12 #fcfcfc #000000 #000000;
#X obj 613 735 bng 19 250 50 0 empty empty empty 0 -10 0 12 #fcfcfc #000000 #000000;
#X obj 670 735 bng 19 250 50 0 empty empty empty 0 -10 0 12 #fcfcfc #000000 #000000;
#X obj 725 735 bng 19 250 50 0 empty empty empty 0 -10 0 12 #fcfcfc #000000 #000000;
#X obj 782 734 bng 19 250 50 0 empty empty empty 0 -10 0 12 #fcfcfc #000000 #000000;
#X obj 837 734 bng 19 250 50 0 empty empty empty 0 -10 0 12 #fcfcfc #000000 #000000;
#X obj 894 734 bng 19 250 50 0 empty empty empty 0 -10 0 12 #fcfcfc #000000 #000000;
#X obj 949 734 bng 19 250 50 0 empty empty empty 0 -10 0 12 #fcfcfc #000000 #000000;
#X obj 563 57 / 32;
#X msg 602 81 5000;
#X obj 503 81 metro 156;
#X floatatom 588 33 5 0 0 0 - - - 0;
#X floatatom 542 33 5 0 0 0 - - - 0;
#X obj 602 57 loadbang;
#X obj 492 827 s click;
#X obj 1129 83 / 127;
#X obj 1129 108 * -1;
#X obj 1181 82 hsl 162 19 0 1 0 0 empty empty empty -2 -10 0 12 #fcfcfc #000000 #000000 0 1;
#X obj 1129 132 + 1;
#X obj 1129 156 * 2000;
#X obj 1129 180 + 3000;
#X obj 1129 58 ctlin 58;
#X text 1147 296 insert commands:;
#X text 1190 324 all clicks;
#X text 1141 350 every other click;
#X text 1148 378 every other kick;
#X text 1134 402 stochastic rhythms;
#X obj 1229 504 tgl 19 0 empty empty empty 0 -10 0 12 #fcfcfc #000000 #000000 0 1;
#X connect 0 0 3 0;
#X connect 0 0 329 0;
#X connect 1 0 2 0;
#X connect 1 0 4 0;
#X connect 2 0 166 0;
#X connect 3 0 1 0;
#X connect 4 0 5 0;
#X connect 4 0 6 0;
#X connect 4 0 68 0;
#X connect 4 0 67 0;
#X connect 4 0 66 0;
#X connect 4 0 65 0;
#X connect 4 0 64 0;
#X connect 4 0 63 0;
#X connect 4 0 62 0;
#X connect 4 0 61 0;
#X connect 4 0 36 0;
#X connect 4 0 35 0;
#X connect 4 0 34 0;
#X connect 4 0 33 0;
#X connect 4 0 32 0;
#X connect 4 0 31 0;
#X connect 4 0 117 0;
#X connect 4 0 132 0;
#X connect 4 0 131 0;
#X connect 4 0 130 0;
#X connect 4 0 129 0;
#X connect 4 0 128 0;
#X connect 4 0 127 0;
#X connect 4 0 126 0;
#X connect 4 0 125 0;
#X connect 4 0 124 0;
#X connect 4 0 123 0;
#X connect 4 0 122 0;
#X connect 4 0 121 0;
#X connect 4 0 120 0;
#X connect 4 0 119 0;
#X connect 4 0 118 0;
#X connect 4 0 167 0;
#X connect 4 0 230 0;
#X connect 4 0 229 0;
#X connect 4 0 228 0;
#X connect 4 0 227 0;
#X connect 4 0 226 0;
#X connect 4 0 225 0;
#X connect 4 0 224 0;
#X connect 4 0 223 0;
#X connect 4 0 198 0;
#X connect 4 0 197 0;
#X connect 4 0 196 0;
#X connect 4 0 195 0;
#X connect 4 0 194 0;
#X connect 4 0 193 0;
#X connect 4 0 168 0;
#X connect 4 0 279 0;
#X connect 4 0 294 0;
#X connect 4 0 293 0;
#X connect 4 0 292 0;
#X connect 4 0 291 0;
#X connect 4 0 290 0;
#X connect 4 0 289 0;
#X connect 4 0 288 0;
#X connect 4 0 287 0;
#X connect 4 0 286 0;
#X connect 4 0 285 0;
#X connect 4 0 284 0;
#X connect 4 0 283 0;
#X connect 4 0 282 0;
#X connect 4 0 281 0;
#X connect 4 0 280 0;
#X connect 5 0 7 0;
#X connect 6 0 10 0;
#X connect 7 0 8 0;
#X connect 8 0 133 0;
#X connect 9 0 8 1;
#X connect 10 0 11 0;
#X connect 11 0 134 0;
#X connect 12 0 11 1;
#X connect 13 0 14 0;
#X connect 14 0 135 0;
#X connect 15 0 14 1;
#X connect 16 0 17 0;
#X connect 17 0 136 0;
#X connect 18 0 17 1;
#X connect 19 0 20 0;
#X connect 20 0 137 0;
#X connect 21 0 20 1;
#X connect 22 0 23 0;
#X connect 23 0 138 0;
#X connect 24 0 23 1;
#X connect 25 0 26 0;
#X connect 26 0 139 0;
#X connect 27 0 26 1;
#X connect 28 0 29 0;
#X connect 29 0 140 0;
#X connect 30 0 29 1;
#X connect 31 0 13 0;
#X connect 32 0 16 0;
#X connect 33 0 19 0;
#X connect 34 0 22 0;
#X connect 35 0 25 0;
#X connect 36 0 28 0;
#X connect 37 0 38 0;
#X connect 38 0 141 0;
#X connect 39 0 38 1;
#X connect 40 0 41 0;
#X connect 41 0 142 0;
#X connect 42 0 41 1;
#X connect 43 0 44 0;
#X connect 44 0 143 0;
#X connect 45 0 44 1;
#X connect 46 0 47 0;
#X connect 47 0 144 0;
#X connect 48 0 47 1;
#X connect 49 0 50 0;
#X connect 50 0 145 0;
#X connect 51 0 50 1;
#X connect 52 0 53 0;
#X connect 53 0 146 0;
#X connect 54 0 53 1;
#X connect 55 0 56 0;
#X connect 56 0 147 0;
#X connect 57 0 56 1;
#X connect 58 0 59 0;
#X connect 59 0 148 0;
#X connect 60 0 59 1;
#X connect 61 0 37 0;
#X connect 62 0 40 0;
#X connect 63 0 43 0;
#X connect 64 0 46 0;
#X connect 65 0 49 0;
#X connect 66 0 52 0;
#X connect 67 0 55 0;
#X connect 68 0 58 0;
#X connect 69 0 70 0;
#X connect 70 0 149 0;
#X connect 71 0 70 1;
#X connect 72 0 73 0;
#X connect 73 0 150 0;
#X connect 74 0 73 1;
#X connect 75 0 76 0;
#X connect 76 0 151 0;
#X connect 77 0 76 1;
#X connect 78 0 79 0;
#X connect 79 0 152 0;
#X connect 80 0 79 1;
#X connect 81 0 82 0;
#X connect 82 0 153 0;
#X connect 83 0 82 1;
#X connect 84 0 85 0;
#X connect 85 0 154 0;
#X connect 86 0 85 1;
#X connect 87 0 88 0;
#X connect 88 0 155 0;
#X connect 89 0 88 1;
#X connect 90 0 91 0;
#X connect 91 0 156 0;
#X connect 92 0 91 1;
#X connect 93 0 94 0;
#X connect 94 0 157 0;
#X connect 95 0 94 1;
#X connect 96 0 97 0;
#X connect 97 0 158 0;
#X connect 98 0 97 1;
#X connect 99 0 100 0;
#X connect 100 0 159 0;
#X connect 101 0 100 1;
#X connect 102 0 103 0;
#X connect 103 0 160 0;
#X connect 104 0 103 1;
#X connect 105 0 106 0;
#X connect 106 0 161 0;
#X connect 107 0 106 1;
#X connect 108 0 109 0;
#X connect 109 0 162 0;
#X connect 110 0 109 1;
#X connect 111 0 112 0;
#X connect 112 0 163 0;
#X connect 113 0 112 1;
#X connect 114 0 115 0;
#X connect 115 0 164 0;
#X connect 116 0 115 1;
#X connect 117 0 69 0;
#X connect 118 0 72 0;
#X connect 119 0 75 0;
#X connect 120 0 78 0;
#X connect 121 0 81 0;
#X connect 122 0 84 0;
#X connect 123 0 87 0;
#X connect 124 0 90 0;
#X connect 125 0 93 0;
#X connect 126 0 96 0;
#X connect 127 0 99 0;
#X connect 128 0 102 0;
#X connect 129 0 105 0;
#X connect 130 0 108 0;
#X connect 131 0 111 0;
#X connect 132 0 114 0;
#X connect 133 0 165 0;
#X connect 134 0 165 0;
#X connect 135 0 165 0;
#X connect 136 0 165 0;
#X connect 137 0 165 0;
#X connect 138 0 165 0;
#X connect 139 0 165 0;
#X connect 140 0 165 0;
#X connect 141 0 165 0;
#X connect 142 0 165 0;
#X connect 143 0 165 0;
#X connect 144 0 165 0;
#X connect 145 0 165 0;
#X connect 146 0 165 0;
#X connect 147 0 165 0;
#X connect 148 0 165 0;
#X connect 149 0 165 0;
#X connect 150 0 165 0;
#X connect 151 0 165 0;
#X connect 152 0 165 0;
#X connect 153 0 165 0;
#X connect 154 0 165 0;
#X connect 155 0 165 0;
#X connect 156 0 165 0;
#X connect 157 0 165 0;
#X connect 158 0 165 0;
#X connect 159 0 165 0;
#X connect 160 0 165 0;
#X connect 161 0 165 0;
#X connect 162 0 165 0;
#X connect 163 0 165 0;
#X connect 164 0 165 0;
#X connect 166 0 1 1;
#X connect 167 0 169 0;
#X connect 168 0 172 0;
#X connect 169 0 170 0;
#X connect 170 0 295 0;
#X connect 171 0 170 1;
#X connect 172 0 173 0;
#X connect 173 0 296 0;
#X connect 174 0 173 1;
#X connect 175 0 176 0;
#X connect 176 0 297 0;
#X connect 177 0 176 1;
#X connect 178 0 179 0;
#X connect 179 0 298 0;
#X connect 180 0 179 1;
#X connect 181 0 182 0;
#X connect 182 0 299 0;
#X connect 183 0 182 1;
#X connect 184 0 185 0;
#X connect 185 0 300 0;
#X connect 186 0 185 1;
#X connect 187 0 188 0;
#X connect 188 0 301 0;
#X connect 189 0 188 1;
#X connect 190 0 191 0;
#X connect 191 0 302 0;
#X connect 192 0 191 1;
#X connect 193 0 175 0;
#X connect 194 0 178 0;
#X connect 195 0 181 0;
#X connect 196 0 184 0;
#X connect 197 0 187 0;
#X connect 198 0 190 0;
#X connect 199 0 200 0;
#X connect 200 0 303 0;
#X connect 201 0 200 1;
#X connect 202 0 203 0;
#X connect 203 0 304 0;
#X connect 204 0 203 1;
#X connect 205 0 206 0;
#X connect 206 0 305 0;
#X connect 207 0 206 1;
#X connect 208 0 209 0;
#X connect 209 0 306 0;
#X connect 210 0 209 1;
#X connect 211 0 212 0;
#X connect 212 0 307 0;
#X connect 213 0 212 1;
#X connect 214 0 215 0;
#X connect 215 0 308 0;
#X connect 216 0 215 1;
#X connect 217 0 218 0;
#X connect 218 0 309 0;
#X connect 219 0 218 1;
#X connect 220 0 221 0;
#X connect 221 0 310 0;
#X connect 222 0 221 1;
#X connect 223 0 199 0;
#X connect 224 0 202 0;
#X connect 225 0 205 0;
#X connect 226 0 208 0;
#X connect 227 0 211 0;
#X connect 228 0 214 0;
#X connect 229 0 217 0;
#X connect 230 0 220 0;
#X connect 231 0 232 0;
#X connect 232 0 311 0;
#X connect 233 0 232 1;
#X connect 234 0 235 0;
#X connect 235 0 312 0;
#X connect 236 0 235 1;
#X connect 237 0 238 0;
#X connect 238 0 313 0;
#X connect 239 0 238 1;
#X connect 240 0 241 0;
#X connect 241 0 314 0;
#X connect 242 0 241 1;
#X connect 243 0 244 0;
#X connect 244 0 315 0;
#X connect 245 0 244 1;
#X connect 246 0 247 0;
#X connect 247 0 316 0;
#X connect 248 0 247 1;
#X connect 249 0 250 0;
#X connect 250 0 317 0;
#X connect 251 0 250 1;
#X connect 252 0 253 0;
#X connect 253 0 318 0;
#X connect 254 0 253 1;
#X connect 255 0 256 0;
#X connect 256 0 319 0;
#X connect 257 0 256 1;
#X connect 258 0 259 0;
#X connect 259 0 320 0;
#X connect 260 0 259 1;
#X connect 261 0 262 0;
#X connect 262 0 321 0;
#X connect 263 0 262 1;
#X connect 264 0 265 0;
#X connect 265 0 322 0;
#X connect 266 0 265 1;
#X connect 267 0 268 0;
#X connect 268 0 323 0;
#X connect 269 0 268 1;
#X connect 270 0 271 0;
#X connect 271 0 324 0;
#X connect 272 0 271 1;
#X connect 273 0 274 0;
#X connect 274 0 325 0;
#X connect 275 0 274 1;
#X connect 276 0 277 0;
#X connect 277 0 326 0;
#X connect 278 0 277 1;
#X connect 279 0 231 0;
#X connect 280 0 234 0;
#X connect 281 0 237 0;
#X connect 282 0 240 0;
#X connect 283 0 243 0;
#X connect 284 0 246 0;
#X connect 285 0 249 0;
#X connect 286 0 252 0;
#X connect 287 0 255 0;
#X connect 288 0 258 0;
#X connect 289 0 261 0;
#X connect 290 0 264 0;
#X connect 291 0 267 0;
#X connect 292 0 270 0;
#X connect 293 0 273 0;
#X connect 294 0 276 0;
#X connect 295 0 333 0;
#X connect 296 0 333 0;
#X connect 297 0 333 0;
#X connect 298 0 333 0;
#X connect 299 0 333 0;
#X connect 300 0 333 0;
#X connect 301 0 333 0;
#X connect 302 0 333 0;
#X connect 303 0 333 0;
#X connect 304 0 333 0;
#X connect 305 0 333 0;
#X connect 306 0 333 0;
#X connect 307 0 333 0;
#X connect 308 0 333 0;
#X connect 309 0 333 0;
#X connect 310 0 333 0;
#X connect 311 0 333 0;
#X connect 312 0 333 0;
#X connect 313 0 333 0;
#X connect 314 0 333 0;
#X connect 315 0 333 0;
#X connect 316 0 333 0;
#X connect 317 0 333 0;
#X connect 318 0 333 0;
#X connect 319 0 333 0;
#X connect 320 0 333 0;
#X connect 321 0 333 0;
#X connect 322 0 333 0;
#X connect 323 0 333 0;
#X connect 324 0 333 0;
#X connect 325 0 333 0;
#X connect 326 0 333 0;
#X connect 327 0 329 1;
#X connect 328 0 327 0;
#X connect 329 0 1 0;
#X connect 330 0 327 1;
#X connect 331 0 327 0;
#X connect 332 0 328 0;
#X connect 334 0 335 0;
#X connect 334 0 336 0;
#X connect 335 0 337 0;
#X connect 337 0 338 0;
#X connect 338 0 339 0;
#X connect 339 0 331 0;
#X connect 340 0 334 0;
#X connect 346 0 222 0;
#X connect 346 0 171 0;
#X connect 346 0 174 0;
#X connect 346 0 177 0;
#X connect 346 0 180 0;
#X connect 346 0 183 0;
#X connect 346 0 186 0;
#X connect 346 0 189 0;
#X connect 346 0 192 0;
#X connect 346 0 201 0;
#X connect 346 0 204 0;
#X connect 346 0 207 0;
#X connect 346 0 210 0;
#X connect 346 0 213 0;
#X connect 346 0 216 0;
#X connect 346 0 219 0;
#X connect 346 0 278 0;
#X connect 346 0 233 0;
#X connect 346 0 236 0;
#X connect 346 0 239 0;
#X connect 346 0 242 0;
#X connect 346 0 245 0;
#X connect 346 0 248 0;
#X connect 346 0 251 0;
#X connect 346 0 254 0;
#X connect 346 0 257 0;
#X connect 346 0 260 0;
#X connect 346 0 263 0;
#X connect 346 0 266 0;
#X connect 346 0 269 0;
#X connect 346 0 272 0;
#X connect 346 0 275 0;
