#N canvas 0 0 1280 778 10;
#N canvas 380 0 900 778 kick_synth 0;
#X floatatom 287 137 5 0 0 0 - - -;
#X text 268 164 fDec = 250;
#X floatatom 292 356 5 0 0 0 - - -;
#X text 327 360 pScale = 1;
#X obj 233 401 *~ 1;
#X obj 233 422 phasor~;
#X obj 221 132 bng 15 250 50 0 empty empty empty 17 7 0 10 -262144
-1 -1;
#X obj 233 442 expr~ if ($v1 > 0.5 \, 0 \, 1);
#X obj 265 471 noise~;
#X floatatom 406 356 5 0 0 0 - - -;
#X obj 339 413 *~ 1.5;
#X obj 236 514 vcf~ 0.5;
#X obj 370 699 *~;
#X obj 357 535 osc~;
#X floatatom 494 447 5 0 0 0 - - -;
#X obj 356 504 *~ 1;
#X obj 221 160 f 250;
#X obj 221 109 inlet;
#X text 219 88 trig;
#X obj 287 117 inlet;
#X text 287 95 decay time;
#X obj 292 325 inlet;
#X text 290 305 pitchScale;
#X text 406 318 filterScale;
#X obj 406 332 inlet;
#X text 447 427 sineVol;
#X obj 370 720 outlet~;
#X obj 494 426 inlet;
#N canvas 0 23 450 300 vol_env 0;
#X obj 125 167 vline~;
#X obj 125 188 *~;
#X msg 115 115 0.5 \, 1 5 \, 0.5 60 5 \, 0 \$1 65;
#X obj 108 69 inlet;
#X obj 125 209 outlet~;
#X connect 0 0 1 0;
#X connect 0 0 1 1;
#X connect 1 0 4 0;
#X connect 2 0 0 0;
#X connect 3 0 2 0;
#X restore 51 502 pd vol_env;
#N canvas 0 23 450 300 pitch_env 0;
#X obj 37 37 inlet;
#X obj 33 107 vline~;
#X obj 36 222 mtof~;
#X msg 36 73 1 \, 0.5 5 \, 0 \$1 5;
#X obj 33 155 *~ 80;
#X obj 33 176 +~ 29;
#X obj 33 128 *~;
#X obj 36 243 outlet~;
#X connect 0 0 3 0;
#X connect 1 0 6 0;
#X connect 1 0 6 1;
#X connect 2 0 7 0;
#X connect 3 0 1 0;
#X connect 4 0 5 0;
#X connect 5 0 2 0;
#X connect 6 0 4 0;
#X restore 221 247 pd pitch_env;
#X obj 670 353 loadbang;
#X obj 736 405 mtof;
#X obj 780 480 + 10;
#X obj 639 531 samphold~;
#X obj 699 505 phasor~;
#X obj 720 532 samphold~;
#X obj 780 506 phasor~;
#X obj 783 405 random 100;
#X text 698 455 SAMPLE CRUSHING;
#X obj 680 575 *~ 0.7;
#X text 637 258 LFO, f 4;
#X obj 604 307 +~ 1;
#X obj 604 333 *~ 0.5;
#X obj 604 283 osc~ 0.01;
#X obj 578 405 vcf~, f 8;
#X obj 604 382 +~ 100;
#X obj 604 358 *~ 100;
#X obj 578 429 *~ 0.1;
#X obj 580 256 noise~;
#X obj 578 455 *~ 5;
#X msg 775 381 30;
#X obj 735 258 inlet;
#X obj 657 382 random 2;
#X obj 657 406 + 3;
#X obj 308 570 +~;
#X text 733 237 CRUSH;
#X obj 283 699 *~;
#X obj 283 720 outlet~;
#X text 274 749 clean out;
#X text 362 747 crush out;
#X obj 736 381 + 1;
#X connect 0 0 16 1;
#X connect 2 0 4 1;
#X connect 4 0 5 0;
#X connect 5 0 7 0;
#X connect 6 0 16 0;
#X connect 7 0 11 0;
#X connect 8 0 11 0;
#X connect 9 0 10 1;
#X connect 10 0 11 1;
#X connect 11 1 54 0;
#X connect 12 0 26 0;
#X connect 13 0 54 1;
#X connect 14 0 15 1;
#X connect 15 0 13 0;
#X connect 16 0 28 0;
#X connect 16 0 29 0;
#X connect 17 0 6 0;
#X connect 19 0 0 0;
#X connect 21 0 2 0;
#X connect 24 0 9 0;
#X connect 27 0 14 0;
#X connect 28 0 12 0;
#X connect 28 0 56 0;
#X connect 29 0 4 0;
#X connect 29 0 10 0;
#X connect 29 0 15 0;
#X connect 30 0 37 0;
#X connect 30 0 50 0;
#X connect 30 0 52 0;
#X connect 31 0 32 0;
#X connect 31 0 34 0;
#X connect 32 0 36 0;
#X connect 33 0 39 0;
#X connect 34 0 33 1;
#X connect 35 0 39 0;
#X connect 36 0 35 1;
#X connect 37 0 32 1;
#X connect 39 0 12 1;
#X connect 41 0 42 0;
#X connect 42 0 46 0;
#X connect 43 0 41 0;
#X connect 44 0 47 0;
#X connect 45 0 44 1;
#X connect 46 0 45 0;
#X connect 47 0 49 0;
#X connect 48 0 44 0;
#X connect 49 0 33 0;
#X connect 49 0 35 0;
#X connect 50 0 31 0;
#X connect 51 0 60 0;
#X connect 52 0 53 0;
#X connect 53 0 44 2;
#X connect 54 0 35 0;
#X connect 54 0 33 0;
#X connect 54 0 56 1;
#X connect 56 0 57 0;
#X connect 60 0 31 0;
#X restore 141 423 pd kick_synth;
#X f 34;
#X obj 37 294 bng 15 250 50 0 empty empty empty 17 7 0 10 -262144 -1
-1;
#X obj 180 725 dac~;
#X obj 37 272 r kick;
#X obj 935 93 tgl 15 0 empty empty empty 17 7 0 10 -262144 -1 -1 0
1;
#X obj 935 135 s kick;
#X obj 53 532 abs;
#X obj 53 508 - 1;
#X obj 50 566 *~;
#X obj 79 565 *~;
#X msg 83 508 0.5;
#X obj 52 455 r crush-amt;
#X obj 673 329 hsl 64 16 0 1 0 0 empty empty crush -2 -10 0 12 -258113
-1 -1 5512 1;
#X obj 754 329 hsl 64 16 0 1 0 0 empty empty crush-amt -2 -10 0 12
-257985 -1 -1 2596 1;
#X obj 751 356 s crush-amt;
#X obj 670 375 s crush;
#X obj 342 398 r crush;
#X obj 593 330 hsl 64 16 0 1 0 0 empty empty tone -2 -8 0 10 -204800
-1 -1 0 1;
#X obj 550 376 s tone;
#X msg 427 324 1.1;
#X msg 388 323 0.442;
#X msg 349 323 481;
#X obj 360 277 loadbang;
#X obj 173 686 *~;
#X obj 372 674 hsl 136 16 0 1 0 0 empty empty vol -2 -8 0 10 -228856
-1 -1 11893 1;
#X obj 590 279 ctlin 24;
#X obj 670 275 ctlin 25;
#X obj 751 276 ctlin 26;
#X obj 449 644 / 127;
#X obj 449 623 ctlin 27;
#X obj 751 297 / 127;
#X obj 670 296 / 127;
#X obj 590 300 / 127;
#X obj 519 310 random 100;
#X obj 935 114 metro 500;
#X obj 519 331 / 200;
#X obj 550 354 +;
#X obj 670 354 * 35;
#X obj 519 288 r kick;
#X obj 181 245 vsl 15 128 50 2000 1 0 empty kick_decay empty 0 -9 0
10 -262144 -1 -1 7142 1;
#X obj 221 245 vsl 15 128 0.1 3 0 0 empty kick_pitch empty 0 -9 0 10
-262144 -1 -1 2836 1;
#X obj 301 246 vsl 15 128 0 2 0 0 empty kick_sine empty 0 -9 0 10 -262144
-1 -1 5569 1;
#X obj 261 245 vsl 15 128 0.1 3 0 0 empty kick_filter empty 0 -9 0
10 -262144 -1 -1 2750 1;
#X obj 108 215 + 50;
#X obj 220 130 + 0.1;
#X obj 234 29 r kick;
#X obj 220 89 / 1000;
#X obj 220 69 random 1000;
#X obj 297 130 + 0.1;
#X obj 297 89 / 1000;
#X obj 297 69 random 1000;
#X obj 411 93 random 1000;
#X obj 411 113 / 1000;
#X obj 670 223 random 1000;
#X obj 670 243 / 1000;
#X obj 670 202 r kick;
#X obj 749 223 random 1000;
#X obj 749 243 / 1000;
#X obj 297 109 * 2;
#X obj 653 60 r stoc-bang;
#X obj 640 148 s kick;
#X text 929 237 control groups of parameters with knobs;
#X text 905 253 (like to TONE one here but for all of them);
#X text 892 311 use probabilities to make some mappings more common
;
#X text 953 335 eg. high number of clicks is rare;
#X text 913 360 kick more likely on more important beats;
#X obj 653 80 random 2;
#X obj 653 100 sel 1;
#X obj 688 148 s click;
#X obj 688 128 bng 15 250 50 0 empty empty empty 17 7 0 10 -262144
-1 -1;
#X obj 555 508 hsl 162 19 0 1 0 0 empty empty empty -2 -10 0 12 -262144
-1 -1 6923 1;
#X floatatom 552 532 5 0 0 0 - - -;
#X obj 552 555 * -1;
#X obj 552 579 + 1;
#X floatatom 552 603 5 0 0 0 - - -;
#X obj 171 652 *~;
#X obj 211 652 *~;
#X obj 203 687 *~;
#X obj 552 465 random 1000;
#X obj 552 485 / 1000;
#X obj 370 624 random 1000;
#X obj 370 644 / 1000;
#X obj 83 488 loadbang;
#X obj 640 128 bng 15 250 50 0 empty empty empty 17 7 0 10 -262144
-1 -1;
#X obj 108 195 random 700;
#X obj 220 109 * 1.7;
#X connect 0 0 8 0;
#X connect 0 1 9 0;
#X connect 1 0 0 0;
#X connect 3 0 1 0;
#X connect 4 0 34 0;
#X connect 6 0 8 1;
#X connect 7 0 6 0;
#X connect 8 0 75 0;
#X connect 8 0 76 0;
#X connect 9 0 75 0;
#X connect 9 0 76 0;
#X connect 10 0 7 0;
#X connect 10 0 9 1;
#X connect 11 0 7 0;
#X connect 11 0 9 1;
#X connect 12 0 37 0;
#X connect 13 0 14 0;
#X connect 16 0 0 5;
#X connect 17 0 36 1;
#X connect 19 0 0 3;
#X connect 20 0 0 2;
#X connect 21 0 0 1;
#X connect 22 0 21 0;
#X connect 22 0 20 0;
#X connect 22 0 19 0;
#X connect 23 0 2 0;
#X connect 24 0 23 1;
#X connect 24 0 77 1;
#X connect 25 0 32 0;
#X connect 26 0 31 0;
#X connect 27 0 30 0;
#X connect 28 0 24 0;
#X connect 29 0 28 0;
#X connect 30 0 13 0;
#X connect 31 0 12 0;
#X connect 32 0 17 0;
#X connect 33 0 35 0;
#X connect 34 0 5 0;
#X connect 35 0 36 0;
#X connect 36 0 18 0;
#X connect 37 0 15 0;
#X connect 38 0 33 0;
#X connect 39 0 0 1;
#X connect 40 0 0 2;
#X connect 41 0 0 4;
#X connect 42 0 0 3;
#X connect 43 0 39 0;
#X connect 44 0 40 0;
#X connect 45 0 47 0;
#X connect 45 0 50 0;
#X connect 45 0 51 0;
#X connect 45 0 84 0;
#X connect 46 0 85 0;
#X connect 47 0 46 0;
#X connect 48 0 42 0;
#X connect 49 0 58 0;
#X connect 50 0 49 0;
#X connect 51 0 52 0;
#X connect 52 0 41 0;
#X connect 53 0 54 0;
#X connect 54 0 12 0;
#X connect 55 0 53 0;
#X connect 55 0 56 0;
#X connect 55 0 78 0;
#X connect 55 0 80 0;
#X connect 56 0 57 0;
#X connect 57 0 13 0;
#X connect 58 0 48 0;
#X connect 59 0 66 0;
#X connect 66 0 67 0;
#X connect 67 0 83 0;
#X connect 67 1 69 0;
#X connect 69 0 68 0;
#X connect 70 0 71 0;
#X connect 71 0 72 0;
#X connect 71 0 76 1;
#X connect 72 0 73 0;
#X connect 73 0 74 0;
#X connect 74 0 75 1;
#X connect 75 0 23 0;
#X connect 76 0 77 0;
#X connect 77 0 2 1;
#X connect 78 0 79 0;
#X connect 79 0 70 0;
#X connect 80 0 81 0;
#X connect 81 0 24 0;
#X connect 82 0 10 0;
#X connect 83 0 60 0;
#X connect 84 0 43 0;
#X connect 85 0 44 0;
