#N canvas 0 0 1280 778 10;
#N canvas 380 0 900 778 kick_synth 0;
#X floatatom 287 137 5 0 0 0 - - -;
#X text 268 164 fDec = 250;
#X floatatom 292 356 5 0 0 0 - - -;
#X text 327 360 pScale = 1;
#X obj 233 401 *~ 1;
#X obj 233 422 phasor~;
#X obj 221 132 bng 15 250 50 0 empty empty empty 17 7 0 10 -262144
-1 -1;
#X obj 233 442 expr~ if ($v1 > 0.5 \, 0 \, 1);
#X obj 265 471 noise~;
#X floatatom 406 356 5 0 0 0 - - -;
#X obj 339 413 *~ 1.5;
#X obj 236 514 vcf~ 0.5;
#X obj 370 699 *~;
#X obj 357 535 osc~;
#X floatatom 494 447 5 0 0 0 - - -;
#X obj 356 504 *~ 1;
#X obj 221 160 f 250;
#X obj 221 109 inlet;
#X text 219 88 trig;
#X obj 287 117 inlet;
#X text 287 95 decay time;
#X obj 292 325 inlet;
#X text 290 305 pitchScale;
#X text 406 318 filterScale;
#X obj 406 332 inlet;
#X text 447 427 sineVol;
#X obj 370 720 outlet~;
#X obj 494 426 inlet;
#N canvas 0 23 450 300 vol_env 0;
#X obj 125 167 vline~;
#X obj 125 188 *~;
#X msg 115 115 0.5 \, 1 5 \, 0.5 60 5 \, 0 \$1 65;
#X obj 108 69 inlet;
#X obj 125 209 outlet~;
#X connect 0 0 1 0;
#X connect 0 0 1 1;
#X connect 1 0 4 0;
#X connect 2 0 0 0;
#X connect 3 0 2 0;
#X restore 51 502 pd vol_env;
#N canvas 0 23 450 300 pitch_env 0;
#X obj 37 37 inlet;
#X obj 33 107 vline~;
#X obj 36 222 mtof~;
#X msg 36 73 1 \, 0.5 5 \, 0 \$1 5;
#X obj 33 155 *~ 80;
#X obj 33 176 +~ 29;
#X obj 33 128 *~;
#X obj 36 243 outlet~;
#X connect 0 0 3 0;
#X connect 1 0 6 0;
#X connect 1 0 6 1;
#X connect 2 0 7 0;
#X connect 3 0 1 0;
#X connect 4 0 5 0;
#X connect 5 0 2 0;
#X connect 6 0 4 0;
#X restore 221 247 pd pitch_env;
#X obj 670 353 loadbang;
#X obj 736 405 mtof;
#X obj 780 480 + 10;
#X obj 639 531 samphold~;
#X obj 699 505 phasor~;
#X obj 720 532 samphold~;
#X obj 780 506 phasor~;
#X obj 783 405 random 100;
#X text 698 455 SAMPLE CRUSHING;
#X obj 680 575 *~ 0.7;
#X text 637 258 LFO, f 4;
#X obj 604 307 +~ 1;
#X obj 604 333 *~ 0.5;
#X obj 604 283 osc~ 0.01;
#X obj 578 405 vcf~, f 8;
#X obj 604 382 +~ 100;
#X obj 604 358 *~ 100;
#X obj 578 429 *~ 0.1;
#X obj 580 256 noise~;
#X obj 578 455 *~ 5;
#X msg 775 381 30;
#X obj 735 258 inlet;
#X obj 657 382 random 2;
#X obj 657 406 + 3;
#X obj 308 570 +~;
#X text 733 237 CRUSH;
#X obj 283 699 *~;
#X obj 283 720 outlet~;
#X text 274 749 clean out;
#X text 362 747 crush out;
#X obj 736 381 + 1;
#X connect 0 0 16 1;
#X connect 2 0 4 1;
#X connect 4 0 5 0;
#X connect 5 0 7 0;
#X connect 6 0 16 0;
#X connect 7 0 11 0;
#X connect 8 0 11 0;
#X connect 9 0 10 1;
#X connect 10 0 11 1;
#X connect 11 1 54 0;
#X connect 12 0 26 0;
#X connect 13 0 54 1;
#X connect 14 0 15 1;
#X connect 15 0 13 0;
#X connect 16 0 28 0;
#X connect 16 0 29 0;
#X connect 17 0 6 0;
#X connect 19 0 0 0;
#X connect 21 0 2 0;
#X connect 24 0 9 0;
#X connect 27 0 14 0;
#X connect 28 0 12 0;
#X connect 28 0 56 0;
#X connect 29 0 4 0;
#X connect 29 0 10 0;
#X connect 29 0 15 0;
#X connect 30 0 37 0;
#X connect 30 0 50 0;
#X connect 30 0 52 0;
#X connect 31 0 32 0;
#X connect 31 0 34 0;
#X connect 32 0 36 0;
#X connect 33 0 39 0;
#X connect 34 0 33 1;
#X connect 35 0 39 0;
#X connect 36 0 35 1;
#X connect 37 0 32 1;
#X connect 39 0 12 1;
#X connect 41 0 42 0;
#X connect 42 0 46 0;
#X connect 43 0 41 0;
#X connect 44 0 47 0;
#X connect 45 0 44 1;
#X connect 46 0 45 0;
#X connect 47 0 49 0;
#X connect 48 0 44 0;
#X connect 49 0 33 0;
#X connect 49 0 35 0;
#X connect 50 0 31 0;
#X connect 51 0 60 0;
#X connect 52 0 53 0;
#X connect 53 0 44 2;
#X connect 54 0 35 0;
#X connect 54 0 33 0;
#X connect 54 0 56 1;
#X connect 56 0 57 0;
#X connect 60 0 31 0;
#X restore 142 226 pd kick_synth;
#X f 34;
#X obj 38 97 bng 15 250 50 0 empty empty empty 17 7 0 10 -262144 -1
-1;
#X obj 169 545 dac~;
#X obj 38 75 r kick;
#X obj 568 62 tgl 15 0 empty empty empty 17 7 0 10 -262144 -1 -1 0
1;
#X obj 568 104 s kick;
#X obj 54 421 abs;
#X obj 54 397 - 1;
#X obj 159 457 *~;
#X obj 191 457 *~;
#X msg 84 397 0.5;
#X obj 53 344 r crush-amt;
#X obj 624 197 hsl 64 16 0 1 0 0 empty empty crush -2 -10 0 12 -258113
-1 -1 2300 1;
#X obj 705 197 hsl 64 16 0 1 0 0 empty empty crush-amt -2 -10 0 12
-257985 -1 -1 5600 1;
#X obj 702 221 s crush-amt;
#X obj 621 240 s crush;
#X obj 343 201 r crush;
#X obj 543 197 hsl 64 16 0 1 0 0 empty empty tone -2 -8 0 10 -204800
-1 -1 6300 1;
#X obj 500 243 s tone;
#X obj 298 200 r tone;
#X msg 259 198 1.1;
#X msg 220 197 0.442;
#X msg 181 197 481;
#X obj 91 75 loadbang;
#X obj 175 507 *~;
#X obj 260 523 hsl 136 16 0 1 0 0 empty empty vol -2 -8 0 10 -228856
-1 -1 0 1;
#X obj 540 146 ctlin 24;
#X obj 621 143 ctlin 25;
#X obj 702 144 ctlin 26;
#X obj 257 495 / 127;
#X obj 257 474 ctlin 27;
#X obj 702 165 / 127;
#X obj 621 164 / 127;
#X obj 540 167 / 127;
#X obj 469 177 random 100;
#X obj 568 83 metro 500;
#X obj 469 198 / 200;
#X obj 500 221 +;
#X obj 621 219 * 35;
#X obj 469 155 r kick;
#X obj 189 48 vsl 15 128 50 2000 1 0 empty kick_decay empty 0 -9 0
10 -262144 -1 -1 0 1;
#X obj 226 48 vsl 15 128 0.1 3 0 0 empty kick_pitch empty 0 -9 0 10
-262144 -1 -1 0 1;
#X obj 297 49 vsl 15 128 0 2 0 0 empty kick_sine empty 0 -9 0 10 -262144
-1 -1 0 1;
#X obj 261 48 vsl 15 128 0.1 3 0 0 empty kick_filter empty 0 -9 0 10
-262144 -1 -1 0 1;
#X connect 0 0 8 0;
#X connect 0 1 9 0;
#X connect 1 0 0 0;
#X connect 3 0 1 0;
#X connect 4 0 35 0;
#X connect 6 0 8 1;
#X connect 7 0 6 0;
#X connect 8 0 24 0;
#X connect 9 0 24 0;
#X connect 10 0 7 0;
#X connect 10 0 9 1;
#X connect 11 0 7 0;
#X connect 11 0 9 1;
#X connect 12 0 38 0;
#X connect 13 0 14 0;
#X connect 16 0 0 5;
#X connect 17 0 37 1;
#X connect 19 0 0 4;
#X connect 19 0 0 2;
#X connect 20 0 0 3;
#X connect 21 0 0 2;
#X connect 22 0 0 1;
#X connect 23 0 22 0;
#X connect 23 0 21 0;
#X connect 23 0 20 0;
#X connect 23 0 10 0;
#X connect 24 0 2 0;
#X connect 24 0 2 1;
#X connect 25 0 24 1;
#X connect 26 0 33 0;
#X connect 27 0 32 0;
#X connect 28 0 31 0;
#X connect 29 0 25 0;
#X connect 30 0 29 0;
#X connect 31 0 13 0;
#X connect 32 0 12 0;
#X connect 33 0 17 0;
#X connect 34 0 36 0;
#X connect 35 0 5 0;
#X connect 36 0 37 0;
#X connect 37 0 18 0;
#X connect 38 0 15 0;
#X connect 39 0 34 0;
#X connect 40 0 0 1;
#X connect 41 0 0 2;
#X connect 42 0 0 4;
#X connect 43 0 0 3;
