#N canvas 0 38 1512 916 12;
#X obj 417 483 knuckles-gen~;
#X obj 229 453 clicks-cascade~;
#X obj 1232 594 out~;
#X obj 1232 273 valhalla-rev~;
#X obj 887 73 transmitter-in~;
#X obj 1232 474 tape-sat~;
#X text 1242 452 ANALOG SOUND;
#X text 880 41 INPUT FROM PAIN CREATURE;
#X obj 369 804 throw~ L-bus;
#X obj 609 801 throw~ R-bus;
#X obj 1197 66 catch~ L-bus;
#X obj 1292 67 catch~ R-bus;
#X obj 1232 112 stereo-delay~;
#X obj 525 323 throw~ L-bus;
#X obj 678 323 throw~ R-bus;
#N canvas 0 38 1512 916 mapping 0;
#X obj 45 25 ctlin;
#X floatatom 61 52 5 0 0 0 - - - 0;
#X obj 56 165 s cc-num-clicks;
#X obj 56 245 s cc-del-time;
#X obj 56 325 s cc-del-feedback;
#X obj 55 409 s cc-vol;
#X obj 56 115 ctlin 16;
#X obj 56 139 / 127;
#X obj 56 218 / 127;
#X obj 56 300 / 127;
#X obj 55 383 / 127;
#X obj 56 194 ctlin 17;
#X obj 56 276 ctlin 18;
#X obj 55 359 ctlin 19;
#X obj 218 139 / 127;
#X obj 218 218 / 127;
#X obj 218 300 / 127;
#X obj 217 383 / 127;
#X obj 218 115 ctlin 20;
#X obj 218 165 s kg-play-prob;
#X obj 218 245 s kg-vcf-freq;
#X obj 218 194 ctlin 21;
#X obj 218 325 s kg-saturation;
#X obj 217 409 s kg-vol;
#X obj 218 276 ctlin 22;
#X obj 217 359 ctlin 23;
#X obj 1369 549 ctlin 62;
#X obj 1369 573 / 127;
#X obj 1369 597 s master-vol;
#X obj 1194 391 / 127;
#X obj 1194 367 ctlin 61;
#X obj 1194 415 s ti-vol;
#X obj 1194 308 / 127;
#X obj 1194 284 ctlin 60;
#X obj 1194 332 s ts-GREASE;
#X obj 1194 226 / 127;
#X obj 1193 148 / 127;
#X obj 1194 202 ctlin 59;
#X obj 1193 124 ctlin 58;
#X obj 1194 250 s vr-rev-feedback;
#X obj 1193 172 s vr-rev-mix;
#X obj 984 144 / 127;
#X obj 984 120 ctlin 54;
#X obj 984 331 s sd-del-feedback;
#X obj 985 249 s sd-del-time;
#X obj 985 223 / 127;
#X obj 984 304 / 127;
#X obj 985 199 ctlin 55;
#X obj 984 280 ctlin 56;
#X obj 493 537 notein 1;
#X obj 167 582 sel 1;
#X obj 167 607 tgl 19 0 empty empty empty 0 -10 0 12 #fcfcfc #000000 #000000 0 1;
#X obj 167 631 sel 1;
#X obj 167 655 tgl 19 0 empty empty empty 0 -10 0 12 #fcfcfc #000000 #000000 0 1;
#X obj 167 679 s cc-ON;
#X obj 235 608 tgl 19 0 empty empty empty 0 -10 0 12 #fcfcfc #000000 #000000 0 1;
#X obj 235 656 tgl 19 0 empty empty empty 0 -10 0 12 #fcfcfc #000000 #000000 0 1;
#X obj 235 583 sel 4;
#X obj 235 680 s kg-ON;
#X obj 235 632 sel 1;
#X obj 1365 174 tgl 19 0 empty empty empty 0 -10 0 12 #fcfcfc #000000 #000000 0 1;
#X obj 1365 222 tgl 19 0 empty empty empty 0 -10 0 12 #fcfcfc #000000 #000000 0 1;
#X obj 1365 198 sel 1;
#X obj 1365 149 sel 25;
#X obj 313 609 tgl 19 0 empty empty empty 0 -10 0 12 #fcfcfc #000000 #000000 0 1;
#X obj 313 657 tgl 19 0 empty empty empty 0 -10 0 12 #fcfcfc #000000 #000000 0 1;
#X obj 313 633 sel 1;
#X obj 499 142 / 127;
#X obj 499 221 / 127;
#X obj 499 303 / 127;
#X obj 498 386 / 127;
#X obj 400 609 tgl 19 0 empty empty empty 0 -10 0 12 #fcfcfc #000000 #000000 0 1;
#X obj 400 657 tgl 19 0 empty empty empty 0 -10 0 12 #fcfcfc #000000 #000000 0 1;
#X obj 400 633 sel 1;
#X obj 400 584 sel 10;
#X obj 357 141 / 127;
#X obj 357 220 / 127;
#X obj 357 302 / 127;
#X obj 356 385 / 127;
#X obj 357 167 s sc-change-prob;
#X obj 356 411 s sc-vol;
#X obj 495 612 tgl 19 0 empty empty empty 0 -10 0 12 #fcfcfc #000000 #000000 0 1;
#X obj 495 660 tgl 19 0 empty empty empty 0 -10 0 12 #fcfcfc #000000 #000000 0 1;
#X obj 495 636 sel 1;
#X obj 495 587 sel 13;
#X obj 566 609 tgl 19 0 empty empty empty 0 -10 0 12 #fcfcfc #000000 #000000 0 1;
#X obj 566 657 tgl 19 0 empty empty empty 0 -10 0 12 #fcfcfc #000000 #000000 0 1;
#X obj 566 633 sel 1;
#X obj 566 584 sel 16;
#X obj 566 682 s rnc-ON;
#X obj 655 140 / 127;
#X obj 656 220 / 127;
#X obj 655 301 / 127;
#X obj 654 384 / 127;
#X obj 1364 301 tgl 19 0 empty empty empty 0 -10 0 12 #fcfcfc #000000 #000000 0 1;
#X obj 1364 325 sel 1;
#X obj 1364 276 sel 26;
#X obj 1364 350 bng 19 250 50 0 empty empty empty 0 -10 0 12 #fcfcfc #000000 #000000;
#X obj 1367 432 tgl 19 0 empty empty empty 0 -10 0 12 #fcfcfc #000000 #000000 0 1;
#X obj 1367 456 sel 1;
#X obj 1367 481 bng 19 250 50 0 empty empty empty 0 -10 0 12 #fcfcfc #000000 #000000;
#X obj 1367 508 s spsm-all1;
#X obj 1367 407 sel 27;
#X obj 638 611 tgl 19 0 empty empty empty 0 -10 0 12 #fcfcfc #000000 #000000 0 1;
#X obj 638 659 tgl 19 0 empty empty empty 0 -10 0 12 #fcfcfc #000000 #000000 0 1;
#X obj 638 635 sel 1;
#X obj 638 586 sel 19;
#X obj 725 611 tgl 19 0 empty empty empty 0 -10 0 12 #fcfcfc #000000 #000000 0 1;
#X obj 725 659 tgl 19 0 empty empty empty 0 -10 0 12 #fcfcfc #000000 #000000 0 1;
#X obj 725 635 sel 1;
#X obj 725 586 sel 22;
#X obj 638 684 s spsm-same;
#X obj 725 684 s spsm-nested;
#X msg 827 646 0;
#X msg 875 648 0;
#X obj 165 740 tgl 19 0 empty empty empty 0 -10 0 12 #fcfcfc #000000 #000000 0 1;
#X obj 165 764 sel 1;
#X obj 165 788 tgl 19 0 empty empty empty 0 -10 0 12 #fcfcfc #000000 #000000 0 1;
#X obj 165 715 sel 3;
#X obj 165 812 s preset1;
#X text 37 711 II BUTTON ROW;
#X text 26 730 sequencer presets;
#X text 44 584 I BUTTON ROW;
#X text 26 606 instruments bypass;
#X text 556 31 COLUMNS: instruments;
#X obj 357 244 s sc-crush;
#X obj 357 326 s sc-crush-amt;
#X obj 984 393 / 127;
#X obj 984 369 ctlin 57;
#X obj 984 420 s global-tempo;
#X obj 1402 351 tgl 19 0 empty empty empty 0 -10 0 12 #fcfcfc #000000 #000000 0 1;
#X msg 1441 350 0;
#X msg 1418 221 0;
#X obj 1364 377 s rat-random;
#X obj 1365 246 s rat-regular;
#X obj 984 170 s rat-GLOBAL-PROBABILITY;
#X obj 499 118 ctlin 28;
#X obj 357 117 ctlin 24;
#X obj 499 197 ctlin 29;
#X obj 499 279 ctlin 30;
#X obj 498 362 ctlin 31;
#X obj 357 196 ctlin 25;
#X obj 357 278 ctlin 26;
#X obj 356 361 ctlin 27;
#X obj 655 116 ctlin 46;
#X obj 656 196 ctlin 47;
#X obj 655 277 ctlin 48;
#X obj 654 360 ctlin 49;
#X obj 806 383 / 127;
#X obj 806 359 ctlin 53;
#X obj 806 409 s rat-synth-vol;
#X obj 313 584 sel 7;
#X obj 313 680 s sc-ON;
#X obj 495 684 s fgc-ON;
#X obj 499 168 s oversat;
#X obj 655 166 s oversat-mix;
#X obj 499 248 s bit-crush;
#X obj 656 244 s bit-crush-mix;
#X obj 499 328 s sample-crush;
#X obj 655 325 s sample-crush-mix;
#X obj 498 412 s delay;
#X obj 654 410 s delay-feedback;
#X obj 400 682 s stutter-ON;
#X connect 0 1 1 0;
#X connect 6 0 7 0;
#X connect 7 0 2 0;
#X connect 8 0 3 0;
#X connect 9 0 4 0;
#X connect 10 0 5 0;
#X connect 11 0 8 0;
#X connect 12 0 9 0;
#X connect 13 0 10 0;
#X connect 14 0 19 0;
#X connect 15 0 20 0;
#X connect 16 0 22 0;
#X connect 17 0 23 0;
#X connect 18 0 14 0;
#X connect 21 0 15 0;
#X connect 24 0 16 0;
#X connect 25 0 17 0;
#X connect 26 0 27 0;
#X connect 27 0 28 0;
#X connect 29 0 31 0;
#X connect 30 0 29 0;
#X connect 32 0 34 0;
#X connect 33 0 32 0;
#X connect 35 0 39 0;
#X connect 36 0 40 0;
#X connect 37 0 35 0;
#X connect 38 0 36 0;
#X connect 41 0 135 0;
#X connect 42 0 41 0;
#X connect 45 0 44 0;
#X connect 46 0 43 0;
#X connect 47 0 45 0;
#X connect 48 0 46 0;
#X connect 49 0 50 0;
#X connect 49 0 57 0;
#X connect 49 0 63 0;
#X connect 49 0 74 0;
#X connect 49 0 84 0;
#X connect 49 0 96 0;
#X connect 49 0 102 0;
#X connect 49 0 106 0;
#X connect 49 0 110 0;
#X connect 49 0 151 0;
#X connect 50 0 51 0;
#X connect 51 0 52 0;
#X connect 52 0 53 0;
#X connect 53 0 54 0;
#X connect 55 0 59 0;
#X connect 56 0 58 0;
#X connect 57 0 55 0;
#X connect 59 0 56 0;
#X connect 60 0 62 0;
#X connect 61 0 134 0;
#X connect 62 0 61 0;
#X connect 62 0 132 0;
#X connect 63 0 60 0;
#X connect 64 0 66 0;
#X connect 65 0 152 0;
#X connect 66 0 65 0;
#X connect 67 0 154 0;
#X connect 68 0 156 0;
#X connect 69 0 158 0;
#X connect 70 0 160 0;
#X connect 71 0 73 0;
#X connect 72 0 162 0;
#X connect 73 0 72 0;
#X connect 74 0 71 0;
#X connect 75 0 79 0;
#X connect 76 0 125 0;
#X connect 77 0 126 0;
#X connect 78 0 80 0;
#X connect 81 0 83 0;
#X connect 82 0 153 0;
#X connect 83 0 82 0;
#X connect 84 0 81 0;
#X connect 85 0 87 0;
#X connect 86 0 89 0;
#X connect 87 0 86 0;
#X connect 88 0 85 0;
#X connect 90 0 155 0;
#X connect 91 0 157 0;
#X connect 92 0 159 0;
#X connect 93 0 161 0;
#X connect 94 0 95 0;
#X connect 95 0 97 0;
#X connect 95 0 130 0;
#X connect 95 0 131 0;
#X connect 96 0 94 0;
#X connect 98 0 99 0;
#X connect 99 0 100 0;
#X connect 100 0 101 0;
#X connect 102 0 98 0;
#X connect 103 0 105 0;
#X connect 104 0 111 0;
#X connect 105 0 104 0;
#X connect 105 0 114 0;
#X connect 106 0 103 0;
#X connect 107 0 109 0;
#X connect 108 0 112 0;
#X connect 109 0 108 0;
#X connect 109 0 113 0;
#X connect 110 0 107 0;
#X connect 113 0 104 0;
#X connect 114 0 108 0;
#X connect 115 0 116 0;
#X connect 116 0 117 0;
#X connect 117 0 119 0;
#X connect 118 0 115 0;
#X connect 127 0 129 0;
#X connect 128 0 127 0;
#X connect 130 0 133 0;
#X connect 131 0 61 0;
#X connect 132 0 130 0;
#X connect 136 0 67 0;
#X connect 137 0 75 0;
#X connect 138 0 68 0;
#X connect 139 0 69 0;
#X connect 140 0 70 0;
#X connect 141 0 76 0;
#X connect 142 0 77 0;
#X connect 143 0 78 0;
#X connect 144 0 90 0;
#X connect 145 0 91 0;
#X connect 146 0 92 0;
#X connect 147 0 93 0;
#X connect 148 0 150 0;
#X connect 149 0 148 0;
#X connect 151 0 64 0;
#X restore 109 157 pd mapping;
#X obj 111 50 clock;
#X obj 603 404 smooth-click~;
#X obj 465 379 r KICK;
#X obj 526 69 sequencer;
#X obj 229 412 r CRASH;
#X obj 887 262 oversat;
#X obj 887 380 bit-crush;
#X obj 887 501 sample-crush;
#X obj 887 616 stutter~;
#X obj 887 735 feedback-delay;
#X obj 70 706 tgl 40 0 empty empty RECORD 0 -10 0 12 #ff0400 #551312 #000000 0 1;
#X obj 97 906 loadbang;
#X msg 141 993 start;
#X msg 192 995 stop;
#X obj 105 1039 writesf~ 2;
#X obj 141 968 sel 1;
#X obj 192 970 sel 0;
#X obj 303 900 loadbang;
#X msg 346 990 start;
#X msg 397 992 stop;
#X obj 310 1036 writesf~ 2;
#X obj 346 965 sel 1;
#X obj 397 967 sel 0;
#X obj 518 898 loadbang;
#X msg 535 986 start;
#X msg 586 988 stop;
#X obj 525 1029 writesf~ 2;
#X obj 535 961 sel 1;
#X obj 586 963 sel 0;
#X obj 754 892 loadbang;
#X msg 772 985 start;
#X msg 823 987 stop;
#X obj 769 1032 writesf~ 2;
#X obj 772 960 sel 1;
#X obj 823 962 sel 0;
#X obj 68 294 loadbang;
#X msg 83 376 start;
#X msg 134 378 stop;
#X obj 68 414 writesf~ 2;
#X obj 83 351 sel 1;
#X obj 134 353 sel 0;
#X msg 68 321 open record/synth.wav;
#X msg 97 935 open record/clicks.wav;
#X msg 303 929 open record/kuckles.wav;
#X msg 518 927 open record/drum.wav;
#X msg 754 921 open record/pain-creature.wav;
#X text 1265 35 MIX;
#X text 943 232 DISTORTIONS;
#X connect 0 0 8 0;
#X connect 0 0 9 0;
#X connect 0 0 36 0;
#X connect 0 0 36 1;
#X connect 1 0 8 0;
#X connect 1 0 30 0;
#X connect 1 1 9 0;
#X connect 1 1 30 1;
#X connect 3 0 5 0;
#X connect 3 1 5 1;
#X connect 4 0 21 0;
#X connect 5 0 2 0;
#X connect 5 1 2 1;
#X connect 10 0 12 0;
#X connect 11 0 12 1;
#X connect 12 0 3 0;
#X connect 12 1 3 1;
#X connect 17 0 8 0;
#X connect 17 0 42 0;
#X connect 17 1 9 0;
#X connect 17 1 42 1;
#X connect 18 0 17 0;
#X connect 18 0 1 0;
#X connect 19 0 13 0;
#X connect 19 0 54 0;
#X connect 19 1 14 0;
#X connect 19 1 54 1;
#X connect 20 0 1 0;
#X connect 21 0 22 0;
#X connect 22 0 23 0;
#X connect 23 0 24 0;
#X connect 23 0 24 1;
#X connect 24 0 25 0;
#X connect 24 1 25 1;
#X connect 25 0 8 0;
#X connect 25 0 48 0;
#X connect 25 1 9 0;
#X connect 25 1 48 1;
#X connect 26 0 31 0;
#X connect 26 0 32 0;
#X connect 26 0 37 0;
#X connect 26 0 56 0;
#X connect 26 0 55 0;
#X connect 26 0 50 0;
#X connect 26 0 49 0;
#X connect 26 0 38 0;
#X connect 26 0 44 0;
#X connect 26 0 43 0;
#X connect 27 0 58 0;
#X connect 28 0 30 0;
#X connect 29 0 30 0;
#X connect 31 0 28 0;
#X connect 32 0 29 0;
#X connect 33 0 59 0;
#X connect 34 0 36 0;
#X connect 35 0 36 0;
#X connect 37 0 34 0;
#X connect 38 0 35 0;
#X connect 39 0 60 0;
#X connect 40 0 42 0;
#X connect 41 0 42 0;
#X connect 43 0 40 0;
#X connect 44 0 41 0;
#X connect 45 0 61 0;
#X connect 46 0 48 0;
#X connect 47 0 48 0;
#X connect 49 0 46 0;
#X connect 50 0 47 0;
#X connect 51 0 57 0;
#X connect 52 0 54 0;
#X connect 53 0 54 0;
#X connect 55 0 52 0;
#X connect 56 0 53 0;
#X connect 57 0 54 0;
#X connect 58 0 30 0;
#X connect 59 0 36 0;
#X connect 60 0 42 0;
#X connect 61 0 48 0;
