#N canvas 452 81 704 603 12;
#X obj 405 334 +~;
#X obj 423 306 *~ 0.7;
#X floatatom 423 254 5 0 0 0 - - - 0;
#X obj 458 360 +~;
#X obj 476 332 *~ 0.7;
#X obj 423 279 delread~ \$0-del-R 160;
#X obj 405 387 delwrite~ \$0-del-L 2000;
#X obj 458 412 delwrite~ \$0-del-R 2000;
#X obj 476 305 delread~ \$0-del-L 160;
#X floatatom 515 253 5 0 0 0 - - - 0;
#X text 473 82 STEREO DELAY;
#X obj 424 205 * 300;
#X obj 424 229 + 70;
#X obj 121 134 hsl 162 19 0 1 0 0 empty empty sd-del-time 10 10 0 12 #e3c6ff #000000 #000000 0 1;
#X obj 121 164 hsl 162 19 0 1.1 0 0 empty empty sd-del-feedback 10 10 0 12 #c7c6ff #000000 #000000 0 1;
#X obj 329 464 limiter;
#X obj 391 464 limiter;
#X obj 329 488 outlet~;
#X obj 391 488 outlet~;
#X obj 131 265 inlet~;
#X obj 232 264 inlet~;
#X obj 139 43 r delay;
#X obj 142 73 r delay-feedback;
#X connect 0 0 6 0;
#X connect 0 0 15 0;
#X connect 1 0 0 1;
#X connect 2 0 5 0;
#X connect 2 0 8 0;
#X connect 3 0 7 0;
#X connect 3 0 16 0;
#X connect 4 0 3 1;
#X connect 5 0 1 0;
#X connect 8 0 4 0;
#X connect 9 0 4 1;
#X connect 9 0 1 1;
#X connect 11 0 12 0;
#X connect 12 0 2 0;
#X connect 13 0 11 0;
#X connect 14 0 9 0;
#X connect 15 0 17 0;
#X connect 16 0 18 0;
#X connect 19 0 0 0;
#X connect 20 0 3 0;
#X connect 21 0 13 0;
#X connect 22 0 14 0;
#X coords 0 -1 1 1 200 100 1 100 100;
