#N canvas 150 188 752 582 12;
#X obj 431 179 oversat~;
#X obj 122 126 hsl 162 19 0 1 0 0 empty empty oversat 10 10 0 12 #faff00 #000000 #000000 0 1;
#X obj 379 92 inlet~;
#X floatatom 481 260 5 0 0 0 - - - 0;
#X obj 481 283 * -1;
#X obj 481 307 + 1;
#X floatatom 481 331 5 0 0 0 - - - 0;
#X obj 402 369 *~;
#X obj 442 369 *~;
#X obj 122 162 hsl 162 19 0 1 0 0 empty empty mix 10 10 0 12 #feffc6 #000000 #000000 0 1;
#X obj 416 409 outlet~;
#X obj 87 25 r oversat;
#X obj 123 74 r oversat-mix;
#X obj 327 151 * 30;
#X obj 575 57 loadbang;
#X msg 575 81 0;
#X connect 0 0 8 0;
#X connect 1 0 13 0;
#X connect 2 0 0 0;
#X connect 2 0 7 0;
#X connect 3 0 4 0;
#X connect 3 0 8 1;
#X connect 4 0 5 0;
#X connect 5 0 6 0;
#X connect 6 0 7 1;
#X connect 7 0 10 0;
#X connect 8 0 10 0;
#X connect 9 0 3 0;
#X connect 11 0 1 0;
#X connect 12 0 9 0;
#X connect 13 0 0 1;
#X connect 14 0 15 0;
#X connect 15 0 9 0;
#X coords 0 -1 1 1 200 100 1 100 100;
