#N canvas 239 161 776 664 12;
#X obj 460 157 loadbang;
#X obj 526 209 mtof;
#X obj 570 284 + 10;
#X obj 429 335 samphold~;
#X obj 489 309 phasor~;
#X obj 510 336 samphold~;
#X obj 570 310 phasor~;
#X obj 573 209 random 100;
#X text 488 259 SAMPLE CRUSHING;
#X obj 470 379 *~ 0.7;
#X text 424 59 LFO, f 4;
#X obj 394 111 +~ 1;
#X obj 394 137 *~ 0.5;
#X obj 394 87 osc~ 0.01;
#X obj 368 209 vcf~, f 8;
#X obj 394 186 +~ 100;
#X obj 394 162 *~ 100;
#X obj 368 233 *~ 0.1;
#X obj 369 60 noise~;
#X obj 368 259 *~ 5;
#X msg 565 185 30;
#X obj 447 186 random 2;
#X obj 447 210 + 3;
#X obj 526 185 + 1;
#X text 457 20 SAMPLE CRUSH;
#X obj 121 125 hsl 162 19 0 1 0 0 empty empty sample-crush 10 10 0 12 #9c00ff #ffffff #ffffff 0 1;
#X floatatom 550 424 5 0 0 0 - - - 0;
#X obj 550 447 * -1;
#X obj 550 471 + 1;
#X floatatom 550 495 5 0 0 0 - - - 0;
#X obj 471 533 *~;
#X obj 511 533 *~;
#X obj 121 159 hsl 162 19 0 1 0 0 empty empty mix 10 10 0 12 #e3c6ff #000000 #000000 0 1;
#X obj 486 575 outlet~;
#X obj 141 266 inlet~;
#X obj 143 34 r sample-crush;
#X obj 561 115 * 30;
#X obj 139 66 r sample-crush-mix;
#X connect 0 0 7 0;
#X connect 0 0 20 0;
#X connect 0 0 21 0;
#X connect 1 0 2 0;
#X connect 1 0 4 0;
#X connect 2 0 6 0;
#X connect 3 0 9 0;
#X connect 4 0 3 1;
#X connect 5 0 9 0;
#X connect 6 0 5 1;
#X connect 7 0 2 1;
#X connect 9 0 31 0;
#X connect 11 0 12 0;
#X connect 12 0 16 0;
#X connect 13 0 11 0;
#X connect 14 0 17 0;
#X connect 15 0 14 1;
#X connect 16 0 15 0;
#X connect 17 0 19 0;
#X connect 18 0 14 0;
#X connect 19 0 3 0;
#X connect 19 0 5 0;
#X connect 20 0 1 0;
#X connect 21 0 22 0;
#X connect 22 0 14 2;
#X connect 23 0 1 0;
#X connect 25 0 36 0;
#X connect 26 0 27 0;
#X connect 26 0 31 1;
#X connect 27 0 28 0;
#X connect 28 0 29 0;
#X connect 29 0 30 1;
#X connect 30 0 33 0;
#X connect 31 0 33 0;
#X connect 32 0 26 0;
#X connect 34 0 3 0;
#X connect 34 0 5 0;
#X connect 34 0 30 0;
#X connect 35 0 25 0;
#X connect 36 0 23 0;
#X connect 37 0 32 0;
#X coords 0 -1 1 1 200 100 1 100 100;
