#N canvas 0 0 655 483 12;
#X obj 162 304 *~;
#X obj 375 252 osc~;
#X obj 349 303 *~;
#X obj 306 304 *~;
#X obj 457 175 *~;
#X obj 457 198 lop~ 1;
#X obj 457 224 sqrt~;
#X obj 457 248 *~ 40;
#X floatatom 218 142 5 0 0 0 pitch - - 0;
#X obj 135 204 mtof;
#X obj 393 177 + 14;
#X obj 324 178 + 11;
#X obj 393 201 mtof;
#X obj 324 202 mtof;
#X obj 260 203 mtof;
#X obj 256 304 *~;
#X obj 76 198 mtof;
#X obj 109 305 *~;
#X obj 76 174 - 4;
#X obj 194 205 mtof;
#X obj 211 304 *~;
#X obj 260 179 + 9;
#X obj 194 181 + 7;
#X obj 375 227 +~;
#X obj 306 251 osc~;
#X obj 306 226 +~;
#X obj 242 253 osc~;
#X obj 242 228 +~;
#X obj 176 255 osc~;
#X obj 176 230 +~;
#X obj 117 254 osc~;
#X obj 117 229 +~;
#X obj 58 251 osc~;
#X obj 58 226 +~;
#X obj 218 90 loadbang;
#X msg 218 114 50;
#X obj 212 362 *~;
#X obj 212 395 outlet~;
#X obj 303 371 inlet~;
#X text 295 346 ENVELOPE;
#X obj 457 143 r~ lopn1;
#X obj 296 90 r~ noise1;
#X obj 376 89 r~ noise2;
#X obj 532 173 *~;
#X obj 532 196 lop~ 1;
#X obj 532 222 sqrt~;
#X obj 532 246 *~ 40;
#X obj 532 141 r~ lopn2;
#X obj 452 299 r~ vcf-noise;
#X obj 303 397 lop~ 2;
#X obj 452 327 *~ 0.7;
#X text 205 61 ADDITIVE SYNTH;
#X connect 0 0 36 0;
#X connect 1 0 2 0;
#X connect 2 0 36 0;
#X connect 3 0 36 0;
#X connect 4 0 5 0;
#X connect 5 0 6 0;
#X connect 6 0 7 0;
#X connect 7 0 17 1;
#X connect 7 0 20 1;
#X connect 7 0 2 1;
#X connect 8 0 10 0;
#X connect 8 0 11 0;
#X connect 8 0 9 0;
#X connect 8 0 18 0;
#X connect 8 0 21 0;
#X connect 8 0 22 0;
#X connect 9 0 31 1;
#X connect 10 0 12 0;
#X connect 11 0 13 0;
#X connect 12 0 23 1;
#X connect 13 0 25 1;
#X connect 14 0 27 1;
#X connect 15 0 36 0;
#X connect 16 0 33 1;
#X connect 17 0 36 0;
#X connect 18 0 16 0;
#X connect 19 0 29 1;
#X connect 20 0 36 0;
#X connect 21 0 14 0;
#X connect 22 0 19 0;
#X connect 23 0 1 0;
#X connect 24 0 3 0;
#X connect 25 0 24 0;
#X connect 26 0 15 0;
#X connect 27 0 26 0;
#X connect 28 0 20 0;
#X connect 29 0 28 0;
#X connect 30 0 0 0;
#X connect 31 0 30 0;
#X connect 32 0 17 0;
#X connect 33 0 32 0;
#X connect 34 0 35 0;
#X connect 35 0 8 0;
#X connect 36 0 37 0;
#X connect 38 0 49 0;
#X connect 40 0 4 0;
#X connect 40 0 4 1;
#X connect 41 0 25 0;
#X connect 41 0 33 0;
#X connect 41 0 29 0;
#X connect 42 0 23 0;
#X connect 42 0 31 0;
#X connect 42 0 27 0;
#X connect 43 0 44 0;
#X connect 44 0 45 0;
#X connect 45 0 46 0;
#X connect 46 0 0 1;
#X connect 46 0 15 1;
#X connect 46 0 3 1;
#X connect 47 0 43 0;
#X connect 47 0 43 1;
#X connect 48 0 50 0;
#X connect 49 0 36 1;
#X connect 50 0 36 0;
