#N canvas 0 38 1512 916 12;
#X obj 431 415 fragmented-glitch-click~;
#X obj 246 494 knuckles-gen~;
#X obj 805 417 pixel-burst-click~;
#X obj 995 416 random-noise-click~;
#X obj 63 464 clicks-cascade~;
#X obj 1259 593 out~;
#X obj 1267 272 valhalla-rev~;
#X text 100 120 ADAPT FOR VBAP FOR 4.1;
#X text 74 144 - each module will have 4 outs;
#X text 73 162 - add a 4 channel mixer before out;
#X obj 1010 89 transmitter-in~;
#X text 78 50 - modify each sequencer sound;
#X text 78 69 - initialize all modules;
#X text 79 88 - try different sequencers;
#X text 126 30 TO DO LIST;
#X obj 1267 473 tape-sat~;
#X text 1297 14 AMBIENCE;
#X text 1277 451 ANALOG SOUND;
#X text 1007 57 INPUT FROM PAIN CREATURE;
#X obj 1267 100 stereo-delay~;
#N canvas 0 38 1440 872 mapping 0;
#X obj 45 25 ctlin;
#X floatatom 61 52 5 0 0 0 - - - 0;
#X obj 56 165 s cc-num-clicks;
#X obj 56 245 s cc-del-time;
#X obj 56 325 s cc-del-feedback;
#X obj 55 409 s cc-vol;
#X obj 56 115 ctlin 16;
#X obj 56 139 / 127;
#X obj 56 218 / 127;
#X obj 56 300 / 127;
#X obj 55 383 / 127;
#X obj 56 194 ctlin 17;
#X obj 56 276 ctlin 18;
#X obj 55 359 ctlin 19;
#X obj 218 139 / 127;
#X obj 218 218 / 127;
#X obj 218 300 / 127;
#X obj 217 383 / 127;
#X obj 218 115 ctlin 20;
#X obj 218 165 s kg-play-prob;
#X obj 218 245 s kg-vcf-freq;
#X obj 218 194 ctlin 21;
#X obj 218 325 s kg-saturation;
#X obj 217 409 s kg-vol;
#X obj 218 276 ctlin 22;
#X obj 217 359 ctlin 23;
#X obj 1302 600 ctlin 62;
#X obj 1302 624 / 127;
#X obj 1302 648 s master-vol;
#X obj 1131 379 / 127;
#X obj 1131 355 ctlin 61;
#X obj 1131 403 s ti-vol;
#X obj 1131 296 / 127;
#X obj 1131 272 ctlin 60;
#X obj 1131 320 s ts-GREASE;
#X obj 1131 214 / 127;
#X obj 1130 136 / 127;
#X obj 1131 190 ctlin 59;
#X obj 1130 112 ctlin 58;
#X obj 1131 238 s vr-rev-feedback;
#X obj 1130 160 s vr-rev-mix;
#X obj 937 161 s spsm-GLOBAL-PROBABILITY;
#X obj 937 135 / 127;
#X obj 937 111 ctlin 54;
#X obj 937 322 s sd-del-feedback;
#X obj 938 240 s sd-del-time;
#X obj 938 214 / 127;
#X obj 937 295 / 127;
#X obj 938 190 ctlin 55;
#X obj 937 271 ctlin 56;
#X obj 493 537 notein 1;
#X obj 167 582 sel 1;
#X obj 167 607 tgl 19 0 empty empty empty 0 -10 0 12 #fcfcfc #000000 #000000 0 1;
#X obj 167 631 sel 1;
#X obj 167 655 tgl 19 0 empty empty empty 0 -10 0 12 #fcfcfc #000000 #000000 0 1;
#X obj 167 679 s cc-ON;
#X obj 235 608 tgl 19 0 empty empty empty 0 -10 0 12 #fcfcfc #000000 #000000 0 1;
#X obj 235 656 tgl 19 0 empty empty empty 0 -10 0 12 #fcfcfc #000000 #000000 0 1;
#X obj 235 583 sel 4;
#X obj 235 680 s kg-ON;
#X obj 235 632 sel 1;
#X obj 1298 225 tgl 19 0 empty empty empty 0 -10 0 12 #fcfcfc #000000 #000000 0 1;
#X obj 1298 273 tgl 19 0 empty empty empty 0 -10 0 12 #fcfcfc #000000 #000000 0 1;
#X obj 1298 249 sel 1;
#X obj 1298 200 sel 25;
#X obj 1298 297 s spsm-START;
#X obj 313 609 tgl 19 0 empty empty empty 0 -10 0 12 #fcfcfc #000000 #000000 0 1;
#X obj 313 657 tgl 19 0 empty empty empty 0 -10 0 12 #fcfcfc #000000 #000000 0 1;
#X obj 313 633 sel 1;
#X obj 313 584 sel 7;
#X obj 313 680 s fgc-ON;
#X obj 371 141 / 127;
#X obj 371 220 / 127;
#X obj 371 302 / 127;
#X obj 370 385 / 127;
#X obj 371 117 ctlin 24;
#X obj 371 196 ctlin 25;
#X obj 371 278 ctlin 26;
#X obj 370 361 ctlin 27;
#X obj 371 167 s fgc-change-prob;
#X obj 371 247 s fgc-vcf-freq;
#X obj 371 327 s fgc-saturation;
#X obj 370 411 s fgc-vol;
#X obj 400 609 tgl 19 0 empty empty empty 0 -10 0 12 #fcfcfc #000000 #000000 0 1;
#X obj 400 657 tgl 19 0 empty empty empty 0 -10 0 12 #fcfcfc #000000 #000000 0 1;
#X obj 400 633 sel 1;
#X obj 400 682 s sc-ON;
#X obj 400 584 sel 10;
#X obj 514 142 / 127;
#X obj 514 221 / 127;
#X obj 514 303 / 127;
#X obj 513 386 / 127;
#X obj 514 118 ctlin 28;
#X obj 514 197 ctlin 29;
#X obj 514 279 ctlin 30;
#X obj 513 362 ctlin 31;
#X obj 514 168 s sc-change-prob;
#X obj 513 412 s sc-vol;
#X obj 480 610 tgl 19 0 empty empty empty 0 -10 0 12 #fcfcfc #000000 #000000 0 1;
#X obj 480 658 tgl 19 0 empty empty empty 0 -10 0 12 #fcfcfc #000000 #000000 0 1;
#X obj 480 634 sel 1;
#X obj 480 585 sel 13;
#X obj 480 682 s pbc-ON;
#X obj 648 141 / 127;
#X obj 648 220 / 127;
#X obj 648 302 / 127;
#X obj 647 385 / 127;
#X obj 648 117 ctlin 46;
#X obj 648 196 ctlin 47;
#X obj 648 278 ctlin 48;
#X obj 647 361 ctlin 49;
#X obj 647 411 s pbc-vol;
#X obj 648 167 s pbc-data-points;
#X obj 566 609 tgl 19 0 empty empty empty 0 -10 0 12 #fcfcfc #000000 #000000 0 1;
#X obj 566 657 tgl 19 0 empty empty empty 0 -10 0 12 #fcfcfc #000000 #000000 0 1;
#X obj 566 633 sel 1;
#X obj 566 584 sel 16;
#X obj 566 682 s rnc-ON;
#X obj 789 140 / 127;
#X obj 789 219 / 127;
#X obj 789 301 / 127;
#X obj 788 384 / 127;
#X obj 789 116 ctlin 50;
#X obj 789 195 ctlin 51;
#X obj 789 277 ctlin 52;
#X obj 788 360 ctlin 53;
#X obj 788 410 s rnc-vol;
#X obj 789 166 s rnc-change-prob;
#X obj 1297 352 tgl 19 0 empty empty empty 0 -10 0 12 #fcfcfc #000000 #000000 0 1;
#X obj 1297 376 sel 1;
#X obj 1297 327 sel 26;
#X obj 1297 401 bng 19 250 50 0 empty empty empty 0 -10 0 12 #fcfcfc #000000 #000000;
#X obj 1297 428 s spsm-random;
#X obj 1300 483 tgl 19 0 empty empty empty 0 -10 0 12 #fcfcfc #000000 #000000 0 1;
#X obj 1300 507 sel 1;
#X obj 1300 532 bng 19 250 50 0 empty empty empty 0 -10 0 12 #fcfcfc #000000 #000000;
#X obj 1300 559 s spsm-all1;
#X obj 1300 458 sel 27;
#X obj 638 611 tgl 19 0 empty empty empty 0 -10 0 12 #fcfcfc #000000 #000000 0 1;
#X obj 638 659 tgl 19 0 empty empty empty 0 -10 0 12 #fcfcfc #000000 #000000 0 1;
#X obj 638 635 sel 1;
#X obj 638 586 sel 19;
#X obj 725 611 tgl 19 0 empty empty empty 0 -10 0 12 #fcfcfc #000000 #000000 0 1;
#X obj 725 659 tgl 19 0 empty empty empty 0 -10 0 12 #fcfcfc #000000 #000000 0 1;
#X obj 725 635 sel 1;
#X obj 725 586 sel 22;
#X obj 638 684 s spsm-same;
#X obj 725 684 s spsm-nested;
#X msg 827 646 0;
#X msg 875 648 0;
#X obj 165 740 tgl 19 0 empty empty empty 0 -10 0 12 #fcfcfc #000000 #000000 0 1;
#X obj 165 764 sel 1;
#X obj 165 788 tgl 19 0 empty empty empty 0 -10 0 12 #fcfcfc #000000 #000000 0 1;
#X obj 165 715 sel 3;
#X obj 165 812 s preset1;
#X text 37 711 II BUTTON ROW;
#X text 26 730 sequencer presets;
#X text 44 584 I BUTTON ROW;
#X text 26 606 instruments bypass;
#X text 556 31 COLUMNS: instruments;
#X obj 514 245 s sc-crush;
#X obj 514 327 s sc-crush-amt;
#X obj 933 385 / 127;
#X obj 933 361 ctlin 57;
#X obj 933 412 s global-tempo;
#X obj 1335 402 tgl 19 0 empty empty empty 0 -10 0 12 #fcfcfc #000000 #000000 0 1;
#X msg 1374 401 0;
#X msg 1351 272 0;
#X connect 0 1 1 0;
#X connect 6 0 7 0;
#X connect 7 0 2 0;
#X connect 8 0 3 0;
#X connect 9 0 4 0;
#X connect 10 0 5 0;
#X connect 11 0 8 0;
#X connect 12 0 9 0;
#X connect 13 0 10 0;
#X connect 14 0 19 0;
#X connect 15 0 20 0;
#X connect 16 0 22 0;
#X connect 17 0 23 0;
#X connect 18 0 14 0;
#X connect 21 0 15 0;
#X connect 24 0 16 0;
#X connect 25 0 17 0;
#X connect 26 0 27 0;
#X connect 27 0 28 0;
#X connect 29 0 31 0;
#X connect 30 0 29 0;
#X connect 32 0 34 0;
#X connect 33 0 32 0;
#X connect 35 0 39 0;
#X connect 36 0 40 0;
#X connect 37 0 35 0;
#X connect 38 0 36 0;
#X connect 42 0 41 0;
#X connect 43 0 42 0;
#X connect 46 0 45 0;
#X connect 47 0 44 0;
#X connect 48 0 46 0;
#X connect 49 0 47 0;
#X connect 50 0 51 0;
#X connect 50 0 58 0;
#X connect 50 0 64 0;
#X connect 50 0 69 0;
#X connect 50 0 87 0;
#X connect 50 0 101 0;
#X connect 50 0 116 0;
#X connect 50 0 130 0;
#X connect 50 0 137 0;
#X connect 50 0 141 0;
#X connect 50 0 145 0;
#X connect 51 0 52 0;
#X connect 52 0 53 0;
#X connect 53 0 54 0;
#X connect 54 0 55 0;
#X connect 56 0 60 0;
#X connect 57 0 59 0;
#X connect 58 0 56 0;
#X connect 60 0 57 0;
#X connect 61 0 63 0;
#X connect 62 0 65 0;
#X connect 63 0 62 0;
#X connect 63 0 167 0;
#X connect 64 0 61 0;
#X connect 66 0 68 0;
#X connect 67 0 70 0;
#X connect 68 0 67 0;
#X connect 69 0 66 0;
#X connect 71 0 79 0;
#X connect 72 0 80 0;
#X connect 73 0 81 0;
#X connect 74 0 82 0;
#X connect 75 0 71 0;
#X connect 76 0 72 0;
#X connect 77 0 73 0;
#X connect 78 0 74 0;
#X connect 83 0 85 0;
#X connect 84 0 86 0;
#X connect 85 0 84 0;
#X connect 87 0 83 0;
#X connect 88 0 96 0;
#X connect 89 0 160 0;
#X connect 90 0 161 0;
#X connect 91 0 97 0;
#X connect 92 0 88 0;
#X connect 93 0 89 0;
#X connect 94 0 90 0;
#X connect 95 0 91 0;
#X connect 98 0 100 0;
#X connect 99 0 102 0;
#X connect 100 0 99 0;
#X connect 101 0 98 0;
#X connect 103 0 112 0;
#X connect 106 0 111 0;
#X connect 107 0 103 0;
#X connect 108 0 104 0;
#X connect 109 0 105 0;
#X connect 110 0 106 0;
#X connect 113 0 115 0;
#X connect 114 0 117 0;
#X connect 115 0 114 0;
#X connect 116 0 113 0;
#X connect 118 0 127 0;
#X connect 121 0 126 0;
#X connect 122 0 118 0;
#X connect 123 0 119 0;
#X connect 124 0 120 0;
#X connect 125 0 121 0;
#X connect 128 0 129 0;
#X connect 129 0 131 0;
#X connect 129 0 165 0;
#X connect 129 0 166 0;
#X connect 130 0 128 0;
#X connect 133 0 134 0;
#X connect 134 0 135 0;
#X connect 135 0 136 0;
#X connect 137 0 133 0;
#X connect 138 0 140 0;
#X connect 139 0 146 0;
#X connect 140 0 139 0;
#X connect 140 0 149 0;
#X connect 141 0 138 0;
#X connect 142 0 144 0;
#X connect 143 0 147 0;
#X connect 144 0 143 0;
#X connect 144 0 148 0;
#X connect 145 0 142 0;
#X connect 148 0 139 0;
#X connect 149 0 143 0;
#X connect 150 0 151 0;
#X connect 151 0 152 0;
#X connect 152 0 154 0;
#X connect 153 0 150 0;
#X connect 162 0 164 0;
#X connect 163 0 162 0;
#X connect 165 0 132 0;
#X connect 166 0 62 0;
#X connect 167 0 165 0;
#X restore 90 342 pd mapping;
#X obj 91 232 clock;
#X obj 620 416 smooth-click~;
#X obj 481 316 r KICK;
#X obj 431 384 r SNARE;
#X obj 995 385 r HIHAT;
#X obj 805 385 r CRASH;
#X msg 392 143 define_loudspeakers 2 -45 45 135 -135, f 20;
#X obj 392 119 loadbang;
#X obj 392 45 tgl 19 0 empty empty empty 0 -10 0 12 #fcfcfc #000000 #000000 0 1;
#X obj 392 69 metro 100;
#X obj 392 93 s vbap-metro;
#X obj 392 182 s vbap-define-loudspeakers;
#X obj 1255 40 catch~ FL-bus;
#X obj 1357 39 catch~ FR-bus;
#X obj 1255 67 catch~ BR-bus;
#X obj 1357 67 catch~ BL-bus;
#X obj 1010 256 throw~ FL-bus;
#X obj 1114 256 throw~ FR-bus;
#X obj 1010 282 throw~ BR-bus;
#X obj 1114 282 throw~ BL-bus;
#X obj 421 826 throw~ FL-bus;
#X obj 576 825 throw~ FR-bus;
#X obj 728 824 throw~ BR-bus;
#X obj 879 824 throw~ BL-bus;
#X connect 0 0 41 0;
#X connect 0 1 42 0;
#X connect 0 2 43 0;
#X connect 0 3 44 0;
#X connect 1 0 41 0;
#X connect 1 0 43 0;
#X connect 1 0 44 0;
#X connect 1 0 42 0;
#X connect 2 0 41 0;
#X connect 2 1 42 0;
#X connect 2 2 43 0;
#X connect 2 3 44 0;
#X connect 3 0 41 0;
#X connect 3 1 42 0;
#X connect 3 2 43 0;
#X connect 3 3 44 0;
#X connect 4 0 41 0;
#X connect 4 1 42 0;
#X connect 4 2 43 0;
#X connect 4 3 44 0;
#X connect 6 0 15 0;
#X connect 6 1 15 1;
#X connect 6 2 15 2;
#X connect 6 3 15 3;
#X connect 10 0 37 0;
#X connect 10 0 38 0;
#X connect 10 0 39 0;
#X connect 10 0 40 0;
#X connect 15 0 5 0;
#X connect 15 1 5 1;
#X connect 15 2 5 2;
#X connect 15 3 5 3;
#X connect 19 0 6 0;
#X connect 19 1 6 1;
#X connect 19 2 6 2;
#X connect 19 3 6 3;
#X connect 22 0 41 0;
#X connect 22 1 42 0;
#X connect 22 2 43 0;
#X connect 22 3 44 0;
#X connect 23 0 22 0;
#X connect 23 0 4 0;
#X connect 24 0 0 0;
#X connect 25 0 3 0;
#X connect 26 0 2 0;
#X connect 27 0 32 0;
#X connect 28 0 27 0;
#X connect 29 0 30 0;
#X connect 30 0 31 0;
#X connect 33 0 19 0;
#X connect 34 0 19 1;
#X connect 35 0 19 2;
#X connect 36 0 19 3;
