#N canvas 0 38 1512 916 8;
#X msg 370 201 next \$1;
#X msg 370 176 2;
#X obj 370 150 bng 19 250 50 0 empty empty empty 0 -10 0 12 #fcfcfc #000000 #000000;
#X obj 479 202 del 100;
#X obj 479 154 random 1000;
#X obj 566 154 f;
#X floatatom 566 178 5 0 0 0 - - - 0;
#X obj 479 329 spigot;
#X obj 518 280 f;
#X obj 570 281 + 1;
#X obj 518 254 bng 19 250 50 0 empty empty empty 0 -10 0 12 #fcfcfc #000000 #000000;
#X floatatom 518 304 5 0 0 0 - - - 0;
#X msg 544 254 0;
#X obj 479 226 t b b b;
#X obj 195 129 bng 25 250 50 0 empty empty empty 0 -10 0 12 #ff8300 #000000 #000000;
#X obj 455 112 t b b b;
#X obj 596 155 * 1.1;
#X floatatom 645 290 5 0 50 2 num_clicks - - 0;
#X obj 645 230 int;
#X obj 645 254 + 1;
#X obj 479 178 + 70;
#X obj 539 343 /;
#X obj 677 394 * -1;
#X obj 677 418 + 1;
#X floatatom 677 442 5 0 0 0 - - - 0;
#X msg 566 130 30;
#X obj 127 757 +~;
#X obj 139 734 *~ 0.7;
#X floatatom 338 677 5 0 0 0 - - - 0;
#X obj 338 629 * 300;
#X obj 338 653 + 70;
#X text 606 129 generate many randomly spaced clicks;
#X obj 645 206 * 50;
#X obj 570 305 % 50;
#X obj 151 182 hsl 64 19 0 1 0 0 empty empty random\ panning -2 -10 0 12 #fcfcfc #000000 #000000 0 1;
#X obj 317 759 +~;
#X obj 329 738 *~ 0.7;
#X floatatom 450 626 5 0 0 0 - - - 0;
#X obj 508 394 / 2;
#X floatatom 508 418 5 0 0 0 - - - 0;
#X obj 554 465 random 2;
#X obj 492 515 + 0.5;
#X obj 508 465 * -1;
#X obj 508 489 + 0.5;
#X obj 493 537 f;
#X obj 508 441 t f f b;
#X obj 554 489 sel 1;
#X obj 576 508 bng 19 250 50 0 empty empty empty 0 -10 0 12 #fcfcfc #000000 #000000;
#X obj 576 533 f;
#X text 512 374 random panning;
#X text 634 371 volume decreases;
#X obj 152 224 hsl 64 19 0 1 0 0 empty empty cc-num-clicks -2 -8 0 10 #c4fcfc #000000 #000000 0 1;
#X obj 152 264 hsl 64 19 0 1 0 0 empty empty cc-del-time -2 -8 0 10 #e0c4fc #000000 #000000 0 1;
#X obj 151 310 hsl 64 19 0 1 0 0 empty empty cc-del-feeback -2 -8 0 10 #c4c4fc #000000 #000000 0 1;
#X text 894 176 change panning in 4.1 with vbap;
#X text 821 192 select random center in the 360 degrees and spread around it;
#X obj 151 353 hsl 64 19 0 1 0 0 empty empty cc-vol -2 -8 0 10 #dfdfdf #000000 #000000 0 1;
#X obj 109 65 inlet;
#X obj 150 65 inlet;
#X obj 189 65 inlet;
#X obj 228 65 inlet;
#X obj 370 226 clone click 50;
#X obj 269 67 inlet;
#X obj 62 35 r cc-num-clicks;
#X obj 148 22 r cc-del-time;
#X obj 190 44 r cc-del-feedback;
#X obj 246 22 r cc-vol;
#X obj 73 495 s \$0-num-clicks;
#X obj 645 162 r \$0-num-clicks;
#X obj 338 608 r \$0-click-del-time;
#X obj 450 608 r \$0-click-del-feedback;
#X obj 271 495 s \$0-click-del-feedback;
#X obj 163 495 s \$0-click-del-time;
#X obj 145 130 tgl 25 0 empty empty cc-ON 0 -8 0 8 #ff0400 #000000 #000000 0 1;
#X obj 59 142 spigot;
#X obj 75 15 r cc-ON;
#X floatatom 999 427 5 0 0 2 - - - 0;
#X obj 980 490 route 0 1 2 3;
#X floatatom 980 576 10 0 0 0 - - - 0;
#X floatatom 995 555 10 0 0 0 - - - 0;
#X floatatom 1011 533 10 0 0 0 - - - 0;
#X floatatom 1026 512 10 0 0 0 - - - 0;
#X obj 1002 411 hsl 100 13 0 360 0 0 empty empty azimuth 10 7 0 10 #fcfcfc #000000 #000000 0 1;
#X floatatom 1037 447 5 0 0 2 - - - 0;
#X obj 1040 430 hsl 100 13 0 100 0 0 empty empty spread 10 7 0 10 #fcfcfc #000000 #000000 0 1;
#X obj 980 468 vbap 90 0 30;
#X text 1146 429 (0-100);
#X text 1107 410 (0-360);
#X obj 937 613 *~;
#X obj 961 613 *~;
#X obj 985 613 *~;
#X obj 1013 613 *~;
#X obj 980 386 r vbap-define-loudspeakers;
#X obj 980 366 r vbap-metro;
#X obj 998 312 +;
#X floatatom 1010 290 5 0 0 2 pan-center - - 0;
#X obj 937 639 *~;
#X obj 961 639 *~;
#X obj 985 639 *~;
#X obj 1013 639 *~;
#X floatatom 957 263 5 0 0 2 pan-spread - - 0;
#X obj 317 804 limiter;
#X obj 127 801 limiter;
#X obj 642 805 limiter;
#X obj 484 804 limiter;
#X obj 127 821 outlet~;
#X obj 317 824 outlet~;
#X obj 484 824 outlet~;
#X obj 642 825 outlet~;
#X obj 150 758 delwrite~ \$0-del-FR 2000;
#X obj 139 713 delread~ \$0-del-FR 160;
#X obj 329 717 delread~ \$0-del-FL 160;
#X obj 341 759 delwrite~ \$0-del-FL 2000;
#X obj 127 779 *~;
#X obj 317 782 *~;
#X obj 484 782 *~;
#X obj 642 783 *~;
#X text 423 583 delay;
#X obj 642 759 +~;
#X obj 654 736 *~ 0.7;
#X obj 484 760 +~;
#X obj 496 739 *~ 0.7;
#X obj 654 715 delread~ \$0-del-BR 160;
#X obj 666 758 delwrite~ \$0-del-BR 2000;
#X obj 496 718 delread~ \$0-del-BL 160;
#X obj 508 761 delwrite~ \$0-del-BL 2000;
#X obj 938 106 inlet;
#X obj 1036 112 inlet;
#X obj 954 75 r cc-pan-spread;
#X obj 1052 81 r cc-pan-center;
#X obj 998 332 % 360;
#X obj 945 284 * 50;
#X obj 1232 609 hsl 64 19 0 1 0 0 empty empty random\ panning -2 -10 0 12 #fcfcfc #000000 #000000 0 1;
#X floatatom 1287 766 5 0 0 0 - - - 0;
#X obj 1229 633 * 360;
#X floatatom 1229 653 5 0 0 0 - - - 0;
#X obj 1288 737 sin;
#X obj 1229 699 * 6.28319;
#X obj 1229 673 / 360;
#X obj 1365 722 expr asin($f1);
#X floatatom 1365 753 5 0 0 0 - - - 0;
#X obj 1365 772 / 6.28319;
#X obj 1365 792 * 360;
#X floatatom 1365 812 5 0 0 0 - - - 0;
#X obj 1321 633 * 2;
#X obj 1321 653 - 1;
#X text 1273 564 project to rads;
#X connect 0 0 61 0;
#X connect 1 0 0 0;
#X connect 2 0 4 0;
#X connect 2 0 1 0;
#X connect 3 0 13 0;
#X connect 4 0 20 0;
#X connect 5 0 6 0;
#X connect 5 0 16 0;
#X connect 6 0 4 1;
#X connect 7 0 2 0;
#X connect 8 0 9 0;
#X connect 8 0 11 0;
#X connect 8 0 21 0;
#X connect 9 0 33 0;
#X connect 10 0 8 0;
#X connect 11 0 7 1;
#X connect 12 0 8 0;
#X connect 13 0 7 0;
#X connect 13 1 10 0;
#X connect 13 2 5 0;
#X connect 14 0 15 0;
#X connect 15 0 2 0;
#X connect 15 1 12 0;
#X connect 15 2 25 0;
#X connect 16 0 5 1;
#X connect 17 0 21 1;
#X connect 17 0 33 1;
#X connect 18 0 19 0;
#X connect 19 0 17 0;
#X connect 20 0 3 0;
#X connect 21 0 22 0;
#X connect 21 0 38 0;
#X connect 22 0 23 0;
#X connect 23 0 24 0;
#X connect 24 0 96 1;
#X connect 24 0 99 1;
#X connect 24 0 98 1;
#X connect 24 0 97 1;
#X connect 25 0 5 0;
#X connect 26 0 109 0;
#X connect 26 0 113 0;
#X connect 27 0 26 1;
#X connect 28 0 110 0;
#X connect 28 0 111 0;
#X connect 28 0 124 0;
#X connect 28 0 122 0;
#X connect 29 0 30 0;
#X connect 30 0 28 0;
#X connect 32 0 18 0;
#X connect 33 0 8 1;
#X connect 34 0 131 0;
#X connect 35 0 112 0;
#X connect 35 0 114 0;
#X connect 36 0 35 1;
#X connect 37 0 36 1;
#X connect 37 0 27 1;
#X connect 37 0 121 1;
#X connect 37 0 119 1;
#X connect 38 0 39 0;
#X connect 39 0 45 0;
#X connect 40 0 46 0;
#X connect 41 0 44 1;
#X connect 42 0 43 0;
#X connect 43 0 48 1;
#X connect 44 0 34 0;
#X connect 45 0 41 0;
#X connect 45 1 42 0;
#X connect 45 2 40 0;
#X connect 46 0 44 0;
#X connect 46 1 47 0;
#X connect 47 0 48 0;
#X connect 48 0 34 0;
#X connect 51 0 67 0;
#X connect 52 0 72 0;
#X connect 53 0 71 0;
#X connect 56 0 113 1;
#X connect 56 0 116 1;
#X connect 56 0 115 1;
#X connect 56 0 114 1;
#X connect 57 0 74 0;
#X connect 58 0 51 0;
#X connect 59 0 52 0;
#X connect 60 0 53 0;
#X connect 61 0 88 0;
#X connect 61 0 91 0;
#X connect 61 0 90 0;
#X connect 61 0 89 0;
#X connect 62 0 56 0;
#X connect 63 0 51 0;
#X connect 64 0 52 0;
#X connect 65 0 53 0;
#X connect 66 0 56 0;
#X connect 68 0 32 0;
#X connect 69 0 29 0;
#X connect 70 0 37 0;
#X connect 73 0 74 1;
#X connect 74 0 14 0;
#X connect 75 0 73 0;
#X connect 76 0 85 1;
#X connect 77 0 78 0;
#X connect 77 1 79 0;
#X connect 77 2 80 0;
#X connect 77 3 81 0;
#X connect 78 0 88 1;
#X connect 79 0 89 1;
#X connect 80 0 90 1;
#X connect 81 0 91 1;
#X connect 82 0 76 0;
#X connect 83 0 85 3;
#X connect 84 0 83 0;
#X connect 85 0 77 0;
#X connect 88 0 96 0;
#X connect 89 0 97 0;
#X connect 90 0 98 0;
#X connect 91 0 99 0;
#X connect 92 0 85 0;
#X connect 93 0 85 0;
#X connect 94 0 130 0;
#X connect 95 0 94 1;
#X connect 96 0 26 0;
#X connect 97 0 35 0;
#X connect 98 0 120 0;
#X connect 99 0 118 0;
#X connect 100 0 131 1;
#X connect 101 0 106 0;
#X connect 102 0 105 0;
#X connect 103 0 108 0;
#X connect 104 0 107 0;
#X connect 110 0 27 0;
#X connect 111 0 36 0;
#X connect 113 0 102 0;
#X connect 114 0 101 0;
#X connect 115 0 104 0;
#X connect 116 0 103 0;
#X connect 118 0 123 0;
#X connect 118 0 116 0;
#X connect 119 0 118 1;
#X connect 120 0 125 0;
#X connect 120 0 115 0;
#X connect 121 0 120 1;
#X connect 122 0 119 0;
#X connect 124 0 121 0;
#X connect 126 0 100 0;
#X connect 127 0 95 0;
#X connect 128 0 100 0;
#X connect 129 0 95 0;
#X connect 130 0 82 0;
#X connect 131 0 94 0;
#X connect 132 0 134 0;
#X connect 132 0 144 0;
#X connect 134 0 135 0;
#X connect 135 0 138 0;
#X connect 136 0 133 0;
#X connect 137 0 136 0;
#X connect 138 0 137 0;
#X connect 139 0 140 0;
#X connect 140 0 141 0;
#X connect 141 0 142 0;
#X connect 142 0 143 0;
#X connect 144 0 145 0;
#X connect 145 0 139 0;
#X coords 0 -1 1 1 170 300 1 100 100;
