#N canvas 0 38 1440 872 12;
#X obj 111 557 cyclone/click~;
#X obj 111 532 bng 19 250 50 0 empty empty empty 0 -10 0 12 #fcfcfc #000000 #000000;
#X text 122 467 CLICK;
#X obj 620 158 cyclone/uzi 100;
#X obj 173 142 bng 19 250 50 0 empty empty empty 0 -10 0 12 #ff8300 #000000 #000000;
#X obj 765 383 f;
#X obj 798 384 + 1;
#X obj 798 408 % 100;
#X msg 765 356 0;
#X obj 621 310 random 1000;
#X obj 621 334 / 500;
#X obj 621 358 - 1;
#X obj 621 384 f;
#X obj 621 282 sel 1;
#X obj 620 182 t b b b;
#X obj 150 267 hsl 64 19 0 1 0 0 empty empty fgc-change-prob -2 -10 0 12 #ffe3c6 #000000 #000000 0 1;
#X obj 621 258 expr if($f1 < $f2 \, 1 \, 0);
#X obj 621 208 random 1000;
#X obj 621 232 / 1000;
#X text 552 95 FRAGMENTED GLITCH CLICKS;
#N canvas 526 526 450 278 (subpatch) 0;
#X array \$0-click-env 100 float 3;
#A 0 -0.824 0 0 0 0 0 0 0 0 0 0 0 0 0 0.486 0.486 0.486 0.486 0.486 0.486 0.486 0.486 0.486 0.486 0.486 0.486 0.12 0.522 0.522 0.522 0.522 0.522 0.522 0.522 0.522 0.522 0.522 0.522 0.522 0.522 0.522 0.522 0.522 -0.038 0.112 0.112 0.444 0.444 -0.62 0.43 0.43 0.43 0.43 0.43 0.43 0.43 0.43 0.43 0.43 0.43 0.43 0.43 0.43 0.43 0.43 0.43 0.43 0.43 0.43 0.43 0.43 0.43 0.43 0.43 0.43 0.43 0.43 0.43 0.43 0.804 0.804 0.804 0.804 0.804 0.804 -0.984 -0.984 -0.984 -0.984 -0.984 -0.984 -0.984 -0.984 -0.824 -0.824 -0.824 -0.824 -0.824 -0.824 -0.824;
#X coords 0 1 100 -1 100 50 1 0 0;
#X restore 138 185 graph;
#X obj 213 142 bng 19 250 50 0 empty empty empty 0 -10 0 12 #9c00ff #000000 #000000;
#X obj 806 611 list;
#X msg 672 759 list \$1;
#X obj 806 560 bng 19 250 50 0 empty empty empty 0 -10 0 12 #fcfcfc #000000 #000000;
#X obj 781 638 list;
#X obj 618 511 bng 19 250 50 0 empty empty empty 0 -10 0 12 #fcfcfc #000000 #000000;
#X obj 618 535 f;
#X obj 649 535 + 1;
#X obj 620 607 sel 1;
#X msg 649 511 0;
#X floatatom 618 560 5 0 0 0 - - - 0;
#X obj 640 631 bng 19 250 50 0 empty empty empty 0 -10 0 12 #fcfcfc #000000 #000000;
#X obj 640 656 t b b;
#X obj 672 683 f;
#X obj 702 684 + 1;
#X msg 687 657 0;
#X obj 618 583 expr if($f1 < 100 \, 1 \, 0);
#X msg 806 584 set;
#X obj 781 664 list trim;
#X obj 702 708 % 100;
#X text 614 467 READ ARRAY AND SET CLICK ENVELOPE;
#X text 829 636 recursive array->list;
#X text 659 560 stopping condition;
#X text 868 655 reading;
#X obj 672 733 tabread \$0-click-env;
#X obj 621 408 tabwrite \$0-click-env;
#X msg 304 257 const 0;
#X obj 304 281 send \$0-click-env;
#X obj 519 121 t b b b;
#X obj 532 154 s \$0-set;
#X obj 452 155 s \$0-play;
#X obj 149 531 r \$0-reset;
#X obj 111 506 r \$0-play;
#X obj 86 73 inlet;
#X obj 135 72 inlet;
#X obj 353 72 inlet;
#X obj 781 688 s \$0-reset;
#X obj 806 536 r \$0-set;
#X obj 304 204 s \$0-initialize;
#X obj 304 233 r \$0-initialize;
#X obj 765 330 r \$0-initialize;
#X text 166 121 PLAY;
#X text 205 122 RESET;
#X obj 148 357 hsl 64 19 0 1 0 0 empty empty fgc-saturation -2 -10 0 12 #feffc6 #000000 #000000 0 1;
#X obj 149 312 hsl 64 19 0 1 0 0 empty empty fgc-vcf-freq -2 -10 0 12 #c6ffc7 #000000 #000000 0 1;
#X obj 186 73 inlet;
#X obj 237 73 inlet;
#X obj 150 676 oversat~;
#X obj 130 620 sig~;
#X obj 111 648 vcf~ 2;
#X obj 203 648 * 30;
#X obj 130 596 * 10000;
#X obj 148 397 hsl 64 19 0 1 0 0 empty empty fgc-vol -2 -10 0 12 #dfdfdf #000000 #000000 0 1;
#X obj 294 73 inlet;
#X obj 126 141 tgl 19 0 empty empty fgc-ON -10 -10 0 12 #ff0400 #000000 #000000 0 1;
#X obj 46 135 spigot;
#X obj 46 26 r fgc-ON;
#X obj 302 138 loadbang;
#X obj 786 232 *;
#X obj 126 27 r fgc-change-prob;
#X obj 268 25 r fgc-vcf-freq;
#X obj 383 26 r fgc-saturation;
#X obj 514 27 r fgc-vol;
#X obj 191 597 * 10;
#X floatatom 1113 244 5 0 0 2 - - - 0;
#X obj 1086 307 route 0 1 2 3;
#X floatatom 1086 395 10 0 0 0 - - - 0;
#X floatatom 1108 374 10 0 0 0 - - - 0;
#X floatatom 1130 352 10 0 0 0 - - - 0;
#X floatatom 1152 331 10 0 0 0 - - - 0;
#X obj 1116 228 hsl 100 13 0 360 0 0 empty empty azimuth 10 7 0 10 #fcfcfc #000000 #000000 0 1;
#X floatatom 1167 263 5 0 0 2 - - - 0;
#X obj 1170 246 hsl 100 13 0 100 0 0 empty empty spread 10 7 0 10 #fcfcfc #000000 #000000 0 1;
#X obj 1086 285 vbap 90 0 30;
#X text 1276 245 (0-100);
#X text 1221 227 (0-360);
#X obj 1043 430 *~;
#X obj 1105 430 *~;
#X obj 1168 430 *~;
#X obj 1231 430 *~;
#X obj 1086 201 r vbap-define-loudspeakers;
#X obj 1086 175 r vbap-metro;
#X obj 1043 458 *~;
#X obj 1105 458 *~;
#X obj 1168 458 *~;
#X obj 1231 458 *~;
#X obj 1113 74 inlet;
#X obj 1160 74 r fgc-azimuth;
#X obj 1171 104 r fgc-spread;
#X obj 1043 482 outlet~;
#X obj 1105 482 outlet~;
#X obj 1168 482 outlet~;
#X obj 1231 482 outlet~;
#X connect 0 0 70 0;
#X connect 1 0 0 0;
#X connect 3 0 14 0;
#X connect 4 0 49 0;
#X connect 5 0 6 0;
#X connect 5 0 46 1;
#X connect 6 0 7 0;
#X connect 7 0 5 1;
#X connect 8 0 5 0;
#X connect 9 0 10 0;
#X connect 10 0 11 0;
#X connect 11 0 12 1;
#X connect 12 0 46 0;
#X connect 13 0 9 0;
#X connect 14 0 12 0;
#X connect 14 1 17 0;
#X connect 14 2 5 0;
#X connect 15 0 79 0;
#X connect 15 0 79 1;
#X connect 16 0 13 0;
#X connect 17 0 18 0;
#X connect 18 0 16 0;
#X connect 21 0 59 0;
#X connect 22 0 25 1;
#X connect 23 0 22 1;
#X connect 24 0 30 0;
#X connect 24 0 38 0;
#X connect 24 0 36 0;
#X connect 25 0 22 0;
#X connect 25 0 39 0;
#X connect 26 0 27 0;
#X connect 27 0 28 0;
#X connect 27 0 31 0;
#X connect 28 0 27 1;
#X connect 29 0 32 0;
#X connect 30 0 27 0;
#X connect 31 0 37 0;
#X connect 32 0 26 0;
#X connect 32 0 33 0;
#X connect 33 0 25 0;
#X connect 33 1 34 0;
#X connect 34 0 35 0;
#X connect 34 0 45 0;
#X connect 35 0 40 0;
#X connect 36 0 34 0;
#X connect 37 0 29 0;
#X connect 38 0 22 0;
#X connect 39 0 57 0;
#X connect 40 0 34 1;
#X connect 45 0 23 0;
#X connect 47 0 48 0;
#X connect 49 0 51 0;
#X connect 49 1 50 0;
#X connect 49 2 3 0;
#X connect 52 0 0 0;
#X connect 53 0 1 0;
#X connect 54 0 76 0;
#X connect 55 0 15 0;
#X connect 56 0 21 0;
#X connect 58 0 24 0;
#X connect 60 0 47 0;
#X connect 61 0 8 0;
#X connect 64 0 71 0;
#X connect 64 0 84 0;
#X connect 65 0 72 0;
#X connect 66 0 64 0;
#X connect 67 0 65 0;
#X connect 68 0 97 0;
#X connect 68 0 100 0;
#X connect 68 0 99 0;
#X connect 68 0 98 0;
#X connect 69 0 70 1;
#X connect 70 1 68 0;
#X connect 71 0 68 1;
#X connect 72 0 69 0;
#X connect 73 0 103 1;
#X connect 73 0 106 1;
#X connect 73 0 105 1;
#X connect 73 0 104 1;
#X connect 74 0 73 0;
#X connect 75 0 76 1;
#X connect 76 0 4 0;
#X connect 77 0 75 0;
#X connect 78 0 21 0;
#X connect 79 0 16 1;
#X connect 80 0 15 0;
#X connect 81 0 65 0;
#X connect 82 0 64 0;
#X connect 83 0 73 0;
#X connect 84 0 70 2;
#X connect 85 0 94 1;
#X connect 86 0 87 0;
#X connect 86 1 88 0;
#X connect 86 2 89 0;
#X connect 86 3 90 0;
#X connect 87 0 97 1;
#X connect 88 0 98 1;
#X connect 89 0 99 1;
#X connect 90 0 100 1;
#X connect 91 0 85 0;
#X connect 92 0 94 3;
#X connect 93 0 92 0;
#X connect 94 0 86 0;
#X connect 97 0 103 0;
#X connect 98 0 104 0;
#X connect 99 0 105 0;
#X connect 100 0 106 0;
#X connect 101 0 94 0;
#X connect 102 0 94 0;
#X connect 103 0 110 0;
#X connect 104 0 111 0;
#X connect 105 0 112 0;
#X connect 106 0 113 0;
#X connect 107 0 91 0;
#X connect 108 0 91 0;
#X connect 109 0 93 0;
#X coords 0 -1 1 1 170 350 1 100 100;
