#N canvas 0 38 750 588 12;
#X obj 468 202 *~;
#X obj 408 202 *~;
#X obj 121 147 vu 16 160 empty empty -1 -8 0 10 #404040 #000000 0 0;
#X obj 429 76 env~;
#X obj 429 99 - 90;
#X obj 141 147 vu 16 160 empty empty -1 -8 0 10 #404040 #000000 0 0;
#X obj 479 75 env~;
#X obj 479 98 - 90;
#X obj 408 227 limiter;
#X obj 468 227 limiter;
#X obj 29 57 inlet~;
#X obj 93 57 inlet~;
#X obj 238 147 vsl 19 160 0 1 0 0 empty empty empty 0 -9 0 12 #dfdfdf #000000 #000000 0 1;
#X obj 316 61 inlet;
#X text 218 110 master-;
#X text 234 124 vol;
#X obj 292 23 r master-vol;
#X obj 127 321 tgl 19 0 empty empty RECORD 30 10 0 12 #ff0400 #000000 #000000 0 1;
#X obj 125 391 loadbang;
#X msg 314 431 start;
#X msg 365 433 stop;
#X obj 314 406 sel 1;
#X msg 125 420 open pain-creature.wav;
#X obj 365 408 sel 0;
#X obj 595 202 *~;
#X obj 535 202 *~;
#X obj 556 76 env~;
#X obj 556 99 - 90;
#X obj 606 75 env~;
#X obj 606 98 - 90;
#X obj 535 227 limiter;
#X obj 595 227 limiter;
#X obj 408 278 dac~ 1 2 3 4, f 27;
#X text 121 121 FL;
#X text 142 121 FR;
#X obj 162 147 vu 16 160 empty empty -1 -8 0 10 #404040 #000000 0 0;
#X obj 182 147 vu 16 160 empty empty -1 -8 0 10 #404040 #000000 1 0;
#X text 162 121 BR;
#X text 183 121 BL;
#X obj 157 57 inlet~;
#X obj 216 57 inlet~;
#X obj 227 477 writesf~ 4;
#X connect 0 0 9 0;
#X connect 1 0 8 0;
#X connect 3 0 4 0;
#X connect 4 0 2 0;
#X connect 6 0 7 0;
#X connect 7 0 5 0;
#X connect 8 0 3 0;
#X connect 8 0 32 0;
#X connect 8 0 41 0;
#X connect 9 0 6 0;
#X connect 9 0 32 1;
#X connect 9 0 41 1;
#X connect 10 0 1 0;
#X connect 11 0 0 0;
#X connect 12 0 0 1;
#X connect 12 0 1 1;
#X connect 12 0 25 1;
#X connect 12 0 24 1;
#X connect 13 0 12 0;
#X connect 16 0 12 0;
#X connect 17 0 21 0;
#X connect 17 0 23 0;
#X connect 18 0 22 0;
#X connect 19 0 41 0;
#X connect 20 0 41 0;
#X connect 21 0 19 0;
#X connect 22 0 41 0;
#X connect 23 0 20 0;
#X connect 24 0 31 0;
#X connect 25 0 30 0;
#X connect 26 0 27 0;
#X connect 27 0 35 0;
#X connect 28 0 29 0;
#X connect 29 0 36 0;
#X connect 30 0 26 0;
#X connect 30 0 32 2;
#X connect 30 0 41 2;
#X connect 31 0 28 0;
#X connect 31 0 32 3;
#X connect 31 0 41 3;
#X connect 39 0 25 0;
#X connect 40 0 24 0;
#X coords 0 -1 1 1 180 250 1 100 100;
