#N canvas 0 38 1512 916 12;
#X obj 111 557 cyclone/click~;
#X obj 111 532 bng 19 250 50 0 empty empty empty 0 -10 0 12 #fcfcfc #000000 #000000;
#X text 122 467 CLICK;
#X obj 175 143 bng 19 250 50 0 empty empty empty 0 -10 0 12 #ff8300 #000000 #000000;
#X obj 150 267 hsl 64 19 0 1 0 0 empty empty pbc-data-points -2 -10 0 12 #ffe3c6 #000000 #000000 0 1;
#N canvas 526 526 450 278 (subpatch) 0;
#X array \$0-click-env 100 float 3;
#A 0 0 0.401795 0.734185 -0.186693 0.224488 -0.673366 -0.25762 -0.254166 0.38522 -0.221659 0.337171 0.0761756 0.187698 0.363688 -0.395639 0.153171 0.25042 -0.250029 -0.13642 -0.117307 -0.00507316 -0.0780878 -0.0477659 0.177717 0.115873 -0.0196098 0.0646244 0.0512 -0.0299415 0.00511225 0 0 0 0 0 0 0 0 0 0 0 0 0 0 0 0 0 0 0 0 0 0 0 0 0 0 0 0 0 0 0 0 0 0 0 0 0 0 0 0 0 0 0 0 0 0 0 0 0 0 0 0 0 0 0 0 0 0 0 0 0 0 0 0 0 0 0 0 0 0;
#X coords 0 1 100 -1 100 50 1 0 0;
#X restore 138 185 graph;
#X obj 219 142 bng 19 250 50 0 empty empty empty 0 -10 0 12 #9c00ff #000000 #000000;
#X obj 752 611 list;
#X msg 618 759 list \$1;
#X obj 752 560 bng 19 250 50 0 empty empty empty 0 -10 0 12 #fcfcfc #000000 #000000;
#X obj 727 638 list;
#X obj 564 511 bng 19 250 50 0 empty empty empty 0 -10 0 12 #fcfcfc #000000 #000000;
#X obj 564 535 f;
#X obj 595 535 + 1;
#X obj 566 607 sel 1;
#X msg 595 511 0;
#X floatatom 564 560 5 0 0 0 - - - 0;
#X obj 586 631 bng 19 250 50 0 empty empty empty 0 -10 0 12 #fcfcfc #000000 #000000;
#X obj 586 656 t b b;
#X obj 618 683 f;
#X obj 648 684 + 1;
#X msg 633 657 0;
#X obj 564 583 expr if($f1 < 100 \, 1 \, 0);
#X msg 752 584 set;
#X obj 727 664 list trim;
#X obj 648 708 % 100;
#X text 560 467 READ ARRAY AND SET CLICK ENVELOPE;
#X text 775 636 recursive array->list;
#X text 605 560 stopping condition;
#X text 814 655 reading;
#X obj 618 733 tabread \$0-click-env;
#X msg 304 257 const 0;
#X obj 304 281 send \$0-click-env;
#X obj 149 531 r \$0-reset;
#X obj 111 506 r \$0-play;
#X obj 113 48 inlet;
#X obj 162 47 inlet;
#X obj 388 51 inlet;
#X obj 727 688 s \$0-reset;
#X obj 752 536 r \$0-set;
#X obj 304 204 s \$0-initialize;
#X obj 304 233 r \$0-initialize;
#X text 168 122 PLAY;
#X text 211 122 RESET;
#X obj 148 357 hsl 64 19 0.01 1 0 0 empty empty saturation -2 -10 0 12 #feffc6 #000000 #000000 0 1;
#X obj 149 312 hsl 64 19 0.01 1 0 0 empty empty vcf\ freq -2 -10 0 12 #c6ffc7 #000000 #000000 0 1;
#X obj 213 48 inlet;
#X obj 264 48 inlet;
#X obj 328 671 oversat~;
#X obj 303 584 sig~;
#X obj 284 612 vcf~ 2;
#X obj 381 643 * 30;
#X obj 303 560 * 10000;
#X obj 148 397 hsl 64 19 0 1 0 0 empty empty pbc-vol -2 -10 0 12 #dfdfdf #000000 #000000 0 1;
#X obj 321 48 inlet;
#X obj 657 191 cyclone/uzi 4;
#X obj 657 250 random 1000;
#X obj 657 274 / 500;
#X obj 657 298 - 1;
#X obj 801 322 f;
#X obj 834 323 + 1;
#X obj 834 347 % 100;
#X msg 801 295 0;
#X obj 657 215 t b b;
#X obj 617 152 t b b b b;
#X obj 568 235 hsl 64 19 1 100 0 0 empty empty data-points -2 -10 0 12 #fcfcfc #000000 #000000 0 1;
#X obj 565 260 t b f;
#X msg 565 284 1;
#X obj 565 308 /;
#X obj 566 333 *;
#X obj 566 357 t b f;
#X msg 566 381 1;
#X obj 566 405 -;
#X obj 657 323 *;
#X text 654 122 PIXEL BURSTS;
#X obj 657 348 tabwrite \$0-click-env;
#X obj 471 187 s \$0-play;
#X obj 584 187 s \$0-set;
#X obj 801 269 r \$0-initialize;
#X obj 765 191 s \$0-initialize;
#X obj 519 236 * 99;
#X obj 519 260 + 1;
#X obj 126 142 tgl 19 0 empty empty pbc-ON -10 -10 0 12 #ff0400 #000000 #000000 0 1;
#X obj 33 146 spigot;
#X obj 28 13 r pbc-ON;
#X obj 111 14 r pbc-data-points;
#X obj 271 16 r pbc-vol;
#X floatatom 1104 486 5 0 0 2 - - - 0;
#X obj 1077 549 route 0 1 2 3;
#X floatatom 1077 637 10 0 0 0 - - - 0;
#X floatatom 1099 616 10 0 0 0 - - - 0;
#X floatatom 1121 594 10 0 0 0 - - - 0;
#X floatatom 1143 573 10 0 0 0 - - - 0;
#X obj 1107 470 hsl 100 13 0 360 0 0 empty empty azimuth 10 7 0 10 #fcfcfc #000000 #000000 0 1;
#X floatatom 1158 505 5 0 0 2 - - - 0;
#X obj 1161 488 hsl 100 13 0 100 0 0 empty empty spread 10 7 0 10 #fcfcfc #000000 #000000 0 1;
#X obj 1077 527 vbap 90 0 30;
#X text 1267 487 (0-100);
#X text 1212 469 (0-360);
#X obj 1034 672 *~;
#X obj 1096 672 *~;
#X obj 1159 672 *~;
#X obj 1222 672 *~;
#X obj 1077 443 r vbap-define-loudspeakers;
#X obj 1077 417 r vbap-metro;
#X obj 1034 700 *~;
#X obj 1096 700 *~;
#X obj 1159 700 *~;
#X obj 1222 700 *~;
#X obj 1104 316 inlet;
#X obj 1034 724 outlet~;
#X obj 1096 724 outlet~;
#X obj 1159 724 outlet~;
#X obj 1222 724 outlet~;
#X obj 1151 316 r pbc-azimuth;
#X obj 1162 346 r pbc-spread;
#X connect 0 0 50 0;
#X connect 1 0 0 0;
#X connect 3 0 64 0;
#X connect 4 0 80 0;
#X connect 6 0 40 0;
#X connect 7 0 10 1;
#X connect 8 0 7 1;
#X connect 9 0 15 0;
#X connect 9 0 23 0;
#X connect 9 0 21 0;
#X connect 10 0 7 0;
#X connect 10 0 24 0;
#X connect 11 0 12 0;
#X connect 12 0 13 0;
#X connect 12 0 16 0;
#X connect 13 0 12 1;
#X connect 14 0 17 0;
#X connect 15 0 12 0;
#X connect 16 0 22 0;
#X connect 17 0 11 0;
#X connect 17 0 18 0;
#X connect 18 0 10 0;
#X connect 18 1 19 0;
#X connect 19 0 20 0;
#X connect 19 0 30 0;
#X connect 20 0 25 0;
#X connect 21 0 19 0;
#X connect 22 0 14 0;
#X connect 23 0 7 0;
#X connect 24 0 38 0;
#X connect 25 0 19 1;
#X connect 30 0 8 0;
#X connect 31 0 32 0;
#X connect 33 0 0 0;
#X connect 34 0 1 0;
#X connect 35 0 83 0;
#X connect 36 0 4 0;
#X connect 37 0 6 0;
#X connect 39 0 9 0;
#X connect 41 0 31 0;
#X connect 44 0 51 0;
#X connect 45 0 52 0;
#X connect 46 0 44 0;
#X connect 47 0 45 0;
#X connect 48 0 99 0;
#X connect 48 0 102 0;
#X connect 48 0 101 0;
#X connect 48 0 100 0;
#X connect 49 0 50 1;
#X connect 50 0 48 0;
#X connect 51 0 48 1;
#X connect 52 0 49 0;
#X connect 53 0 105 1;
#X connect 53 0 108 1;
#X connect 53 0 107 1;
#X connect 53 0 106 1;
#X connect 54 0 53 0;
#X connect 55 0 63 0;
#X connect 56 0 57 0;
#X connect 57 0 58 0;
#X connect 58 0 73 0;
#X connect 59 0 60 0;
#X connect 59 0 69 0;
#X connect 59 0 75 1;
#X connect 60 0 61 0;
#X connect 61 0 59 1;
#X connect 62 0 59 0;
#X connect 63 0 56 0;
#X connect 63 1 59 0;
#X connect 64 0 76 0;
#X connect 64 1 77 0;
#X connect 64 2 55 0;
#X connect 64 3 79 0;
#X connect 65 0 55 1;
#X connect 65 0 66 0;
#X connect 66 0 67 0;
#X connect 66 1 68 1;
#X connect 67 0 68 0;
#X connect 68 0 69 1;
#X connect 69 0 70 0;
#X connect 70 0 71 0;
#X connect 70 1 72 1;
#X connect 71 0 72 0;
#X connect 72 0 73 1;
#X connect 73 0 75 0;
#X connect 78 0 62 0;
#X connect 80 0 81 0;
#X connect 81 0 65 0;
#X connect 82 0 83 1;
#X connect 83 0 3 0;
#X connect 84 0 82 0;
#X connect 85 0 4 0;
#X connect 86 0 53 0;
#X connect 87 0 96 1;
#X connect 88 0 89 0;
#X connect 88 1 90 0;
#X connect 88 2 91 0;
#X connect 88 3 92 0;
#X connect 89 0 99 1;
#X connect 90 0 100 1;
#X connect 91 0 101 1;
#X connect 92 0 102 1;
#X connect 93 0 87 0;
#X connect 94 0 96 3;
#X connect 95 0 94 0;
#X connect 96 0 88 0;
#X connect 99 0 105 0;
#X connect 100 0 106 0;
#X connect 101 0 107 0;
#X connect 102 0 108 0;
#X connect 103 0 96 0;
#X connect 104 0 96 0;
#X connect 105 0 110 0;
#X connect 106 0 111 0;
#X connect 107 0 112 0;
#X connect 108 0 113 0;
#X connect 109 0 93 0;
#X connect 114 0 93 0;
#X connect 115 0 95 0;
#X coords 0 -1 1 1 170 350 1 100 100;
