#N canvas 0 38 1261 916 12;
#X obj 117 198 tgl 25 0 empty empty ratchet -10 -10 0 12 #ff8300 #000000 #000000 0 1;
#X obj 656 157 metro 1000;
#X floatatom 655 230 5 0 0 0 - - - 0;
#X obj 655 182 random 2000;
#N canvas 121 121 275 332 prob-bang 0;
#X obj 64 73 bng 19 250 50 0 empty empty empty 0 -10 0 12 #fcfcfc #000000 #000000;
#X floatatom 64 149 5 0 0 0 - - - 0;
#X obj 64 223 bng 19 250 50 0 empty empty empty 0 -10 0 12 #fcfcfc #000000 #000000;
#X obj 64 198 sel 1;
#X obj 64 174 expr if($f1 < $f2 \, 1 \, 0);
#X obj 64 101 random 10000;
#X obj 64 125 / 10000;
#X obj 64 48 inlet;
#X obj 181 150 inlet;
#X obj 64 247 outlet;
#X connect 0 0 5 0;
#X connect 1 0 4 0;
#X connect 2 0 9 0;
#X connect 3 0 2 0;
#X connect 4 0 3 0;
#X connect 5 0 6 0;
#X connect 6 0 1 0;
#X connect 7 0 0 0;
#X connect 8 0 4 1;
#X restore 685 384 pd prob-bang;
#X floatatom 1052 280 5 0 0 0 - - - 0;
#N canvas 121 121 275 332 prob-bang 0;
#X obj 64 73 bng 19 250 50 0 empty empty empty 0 -10 0 12 #fcfcfc #000000 #000000;
#X floatatom 64 149 5 0 0 0 - - - 0;
#X obj 64 223 bng 19 250 50 0 empty empty empty 0 -10 0 12 #fcfcfc #000000 #000000;
#X obj 64 198 sel 1;
#X obj 64 174 expr if($f1 < $f2 \, 1 \, 0);
#X obj 64 101 random 10000;
#X obj 64 125 / 10000;
#X obj 64 48 inlet;
#X obj 181 150 inlet;
#X obj 64 247 outlet;
#X connect 0 0 5 0;
#X connect 1 0 4 0;
#X connect 2 0 9 0;
#X connect 3 0 2 0;
#X connect 4 0 3 0;
#X connect 5 0 6 0;
#X connect 6 0 1 0;
#X connect 7 0 0 0;
#X connect 8 0 4 1;
#X restore 924 381 pd prob-bang;
#X obj 117 234 bng 25 250 50 0 empty empty empty 0 -10 0 12 #faff00 #000000 #000000;
#X obj 655 257 / 16;
#X floatatom 842 148 5 0 0 0 - - - 0;
#X obj 842 171 * -1;
#X obj 842 198 + 4;
#X obj 842 222 * -1;
#X floatatom 842 246 5 0 0 0 - - - 0;
#X obj 818 279 * 12;
#X obj 891 223 * -1;
#X floatatom 891 247 5 0 0 0 - - - 0;
#X obj 891 199 + 3;
#X obj 940 223 * -1;
#X floatatom 940 247 5 0 0 0 - - - 0;
#X obj 989 224 * -1;
#X floatatom 989 248 5 0 0 0 - - - 0;
#X obj 940 199 + 2;
#X obj 989 200 + 1;
#N canvas 121 121 275 332 prob-bang 0;
#X obj 64 73 bng 19 250 50 0 empty empty empty 0 -10 0 12 #fcfcfc #000000 #000000;
#X floatatom 64 149 5 0 0 0 - - - 0;
#X obj 64 223 bng 19 250 50 0 empty empty empty 0 -10 0 12 #fcfcfc #000000 #000000;
#X obj 64 198 sel 1;
#X obj 64 174 expr if($f1 < $f2 \, 1 \, 0);
#X obj 64 101 random 10000;
#X obj 64 125 / 10000;
#X obj 64 48 inlet;
#X obj 181 150 inlet;
#X obj 64 247 outlet;
#X connect 0 0 5 0;
#X connect 1 0 4 0;
#X connect 2 0 9 0;
#X connect 3 0 2 0;
#X connect 4 0 3 0;
#X connect 5 0 6 0;
#X connect 6 0 1 0;
#X connect 7 0 0 0;
#X connect 8 0 4 1;
#X restore 786 384 pd prob-bang;
#N canvas 121 121 275 332 prob-bang 0;
#X obj 64 73 bng 19 250 50 0 empty empty empty 0 -10 0 12 #fcfcfc #000000 #000000;
#X floatatom 64 149 5 0 0 0 - - - 0;
#X obj 64 223 bng 19 250 50 0 empty empty empty 0 -10 0 12 #fcfcfc #000000 #000000;
#X obj 64 198 sel 1;
#X obj 64 174 expr if($f1 < $f2 \, 1 \, 0);
#X obj 64 101 random 10000;
#X obj 64 125 / 10000;
#X obj 64 48 inlet;
#X obj 181 150 inlet;
#X obj 64 247 outlet;
#X connect 0 0 5 0;
#X connect 1 0 4 0;
#X connect 2 0 9 0;
#X connect 3 0 2 0;
#X connect 4 0 3 0;
#X connect 5 0 6 0;
#X connect 6 0 1 0;
#X connect 7 0 0 0;
#X connect 8 0 4 1;
#X restore 1025 381 pd prob-bang;
#X obj 865 279 * 13;
#X obj 913 280 * 14;
#X obj 964 280 * 15;
#X obj 749 494 s KICK;
#X obj 924 355 del;
#X obj 1025 355 del;
#X obj 685 356 del;
#X obj 786 356 del;
#N canvas 121 121 275 332 prob-bang 0;
#X obj 64 73 bng 19 250 50 0 empty empty empty 0 -10 0 12 #fcfcfc #000000 #000000;
#X floatatom 64 149 5 0 0 0 - - - 0;
#X obj 64 223 bng 19 250 50 0 empty empty empty 0 -10 0 12 #fcfcfc #000000 #000000;
#X obj 64 198 sel 1;
#X obj 64 174 expr if($f1 < $f2 \, 1 \, 0);
#X obj 64 101 random 10000;
#X obj 64 125 / 10000;
#X obj 64 48 inlet;
#X obj 181 150 inlet;
#X obj 64 247 outlet;
#X connect 0 0 5 0;
#X connect 1 0 4 0;
#X connect 2 0 9 0;
#X connect 3 0 2 0;
#X connect 4 0 3 0;
#X connect 5 0 6 0;
#X connect 6 0 1 0;
#X connect 7 0 0 0;
#X connect 8 0 4 1;
#X restore 686 447 pd prob-bang;
#N canvas 121 121 275 332 prob-bang 0;
#X obj 64 73 bng 19 250 50 0 empty empty empty 0 -10 0 12 #fcfcfc #000000 #000000;
#X floatatom 64 149 5 0 0 0 - - - 0;
#X obj 64 223 bng 19 250 50 0 empty empty empty 0 -10 0 12 #fcfcfc #000000 #000000;
#X obj 64 198 sel 1;
#X obj 64 174 expr if($f1 < $f2 \, 1 \, 0);
#X obj 64 101 random 10000;
#X obj 64 125 / 10000;
#X obj 64 48 inlet;
#X obj 181 150 inlet;
#X obj 64 247 outlet;
#X connect 0 0 5 0;
#X connect 1 0 4 0;
#X connect 2 0 9 0;
#X connect 3 0 2 0;
#X connect 4 0 3 0;
#X connect 5 0 6 0;
#X connect 6 0 1 0;
#X connect 7 0 0 0;
#X connect 8 0 4 1;
#X restore 787 447 pd prob-bang;
#X obj 685 413 del;
#X obj 786 413 del;
#X obj 643 414 / 2;
#N canvas 121 121 275 332 prob-bang 0;
#X obj 64 73 bng 19 250 50 0 empty empty empty 0 -10 0 12 #fcfcfc #000000 #000000;
#X floatatom 64 149 5 0 0 0 - - - 0;
#X obj 64 223 bng 19 250 50 0 empty empty empty 0 -10 0 12 #fcfcfc #000000 #000000;
#X obj 64 198 sel 1;
#X obj 64 174 expr if($f1 < $f2 \, 1 \, 0);
#X obj 64 101 random 10000;
#X obj 64 125 / 10000;
#X obj 64 48 inlet;
#X obj 181 150 inlet;
#X obj 64 247 outlet;
#X connect 0 0 5 0;
#X connect 1 0 4 0;
#X connect 2 0 9 0;
#X connect 3 0 2 0;
#X connect 4 0 3 0;
#X connect 5 0 6 0;
#X connect 6 0 1 0;
#X connect 7 0 0 0;
#X connect 8 0 4 1;
#X restore 924 446 pd prob-bang;
#N canvas 121 121 275 332 prob-bang 0;
#X obj 64 73 bng 19 250 50 0 empty empty empty 0 -10 0 12 #fcfcfc #000000 #000000;
#X floatatom 64 149 5 0 0 0 - - - 0;
#X obj 64 223 bng 19 250 50 0 empty empty empty 0 -10 0 12 #fcfcfc #000000 #000000;
#X obj 64 198 sel 1;
#X obj 64 174 expr if($f1 < $f2 \, 1 \, 0);
#X obj 64 101 random 10000;
#X obj 64 125 / 10000;
#X obj 64 48 inlet;
#X obj 181 150 inlet;
#X obj 64 247 outlet;
#X connect 0 0 5 0;
#X connect 1 0 4 0;
#X connect 2 0 9 0;
#X connect 3 0 2 0;
#X connect 4 0 3 0;
#X connect 5 0 6 0;
#X connect 6 0 1 0;
#X connect 7 0 0 0;
#X connect 8 0 4 1;
#X restore 1025 446 pd prob-bang;
#X obj 923 412 del;
#X obj 1024 412 del;
#X obj 172 155 hsl 162 19 1000 15000 0 0 empty empty tempo 10 10 0 12 #e3c6ff #000000 #000000 0 1;
#X obj 172 181 hsl 162 19 0 1 0 0 empty empty randomness 10 10 0 12 #c7c6ff #000000 #000000 0 1;
#X obj 227 595 *~;
#X obj 227 623 *~;
#X obj 276 578 tgl 19 0 empty empty on-off\ glitch 25 10 0 12 #fcfcfc #000000 #000000 0 1;
#X msg 276 546 1;
#X msg 276 602 \$1 20;
#X obj 276 626 line~;
#X msg 802 115 16;
#X msg 842 116 32;
#X obj 774 50 random 4;
#X obj 774 74 sel 0 1 2 3;
#X obj 655 206 + 200;
#X text 799 316 RANDOMIZED RATCHETING;
#X obj 745 206 + 50;
#X obj 745 182 / 10;
#X obj 824 494 s SNARE;
#X obj 894 495 s CRASH;
#X obj 210 466 *~ 10000;
#X msg 884 116 64;
#X msg 761 115 8;
#X obj 83 418 noise~;
#X obj 83 442 lop~ 500;
#X obj 961 494 s HIHAT;
#X obj 313 55 r spsm-GLOBAL-PROBABILITY;
#X obj 390 98 r global-tempo;
#X obj 390 122 * 14000;
#X obj 390 146 + 1000;
#X obj 117 149 tgl 25 0 empty empty regular -10 -10 0 12 #ff0400 #000000 #000000 0 1;
#X obj 388 183 metro 5000;
#X obj 41 169 sel 1;
#X msg 41 193 0;
#X obj 41 218 sel 1;
#X msg 41 242 0;
#X obj 156 416 random 3;
#X obj 83 466 *~ 0.05;
#X obj 156 466 vcf~ 2;
#N canvas 92 130 466 493 pad-synth 0;
#X obj 74 89 inlet;
#X obj 74 115 sel 0 1 2;
#X obj 254 288 osc~;
#X obj 152 330 *~;
#X obj 84 277 osc~;
#X msg 55 235 50;
#X msg 104 235 15;
#X obj 65 157 bng 19 250 50 0 empty empty empty 0 -10 0 12 #fcfcfc #000000 #000000;
#X obj 173 159 bng 19 250 50 0 empty empty empty 0 -10 0 12 #fcfcfc #000000 #000000;
#X msg 169 229 50;
#X msg 218 229 25;
#X obj 287 162 bng 19 250 50 0 empty empty empty 0 -10 0 12 #fcfcfc #000000 #000000;
#X msg 331 229 25;
#X msg 282 229 75;
#X obj 151 366 *~ 3;
#X obj 151 390 outlet~;
#X connect 0 0 1 0;
#X connect 1 0 7 0;
#X connect 1 1 8 0;
#X connect 1 2 11 0;
#X connect 2 0 3 1;
#X connect 3 0 14 0;
#X connect 4 0 3 0;
#X connect 5 0 4 0;
#X connect 6 0 2 0;
#X connect 7 0 5 0;
#X connect 7 0 6 0;
#X connect 8 0 9 0;
#X connect 8 0 10 0;
#X connect 9 0 4 0;
#X connect 10 0 2 0;
#X connect 11 0 13 0;
#X connect 11 0 12 0;
#X connect 12 0 2 0;
#X connect 13 0 4 0;
#X connect 14 0 15 0;
#X restore 156 441 pd pad-synth;
#N canvas 121 159 306 300 envelope 0;
#X obj 72 116 vline~;
#X obj 72 144 *~;
#X obj 72 168 *~;
#X obj 72 196 *~;
#X msg 72 90 1 \$1;
#X obj 72 62 t b f f;
#X obj 129 90 del 1000;
#X obj 182 65 - 5;
#X msg 129 115 0 2;
#X obj 72 32 inlet;
#X obj 72 220 outlet~;
#X connect 0 0 1 0;
#X connect 0 0 1 1;
#X connect 1 0 2 0;
#X connect 1 0 2 1;
#X connect 1 0 3 1;
#X connect 2 0 3 0;
#X connect 3 0 10 0;
#X connect 4 0 0 0;
#X connect 5 0 6 0;
#X connect 5 1 4 0;
#X connect 5 2 7 0;
#X connect 6 0 8 0;
#X connect 7 0 6 1;
#X connect 8 0 0 0;
#X connect 9 0 5 0;
#X restore 290 464 pd envelope;
#X floatatom 668 688 5 0 0 2 - - - 0;
#X obj 641 751 route 0 1 2 3;
#X floatatom 641 839 10 0 0 0 - - - 0;
#X floatatom 663 818 10 0 0 0 - - - 0;
#X floatatom 685 796 10 0 0 0 - - - 0;
#X floatatom 707 775 10 0 0 0 - - - 0;
#X obj 671 672 hsl 100 13 0 360 0 0 empty empty azimuth 10 7 0 10 #fcfcfc #000000 #000000 0 1;
#X floatatom 722 707 5 0 0 2 - - - 0;
#X obj 725 690 hsl 100 13 0 100 0 0 empty empty spread 10 7 0 10 #fcfcfc #000000 #000000 0 1;
#X obj 641 729 vbap 90 0 30;
#X text 831 689 (0-100);
#X text 776 671 (0-360);
#X obj 127 686 *~;
#X obj 189 686 *~;
#X obj 252 686 *~;
#X obj 315 686 *~;
#X obj 641 645 r vbap-define-loudspeakers;
#X obj 641 619 r vbap-metro;
#X obj 127 714 *~;
#X obj 189 714 *~;
#X obj 252 714 *~;
#X obj 315 714 *~;
#X obj 666 589 inlet;
#X obj 127 738 outlet~;
#X obj 189 738 outlet~;
#X obj 252 738 outlet~;
#X obj 315 738 outlet~;
#X obj 172 208 hsl 162 19 0 1 0 0 empty empty synth-vol 10 10 0 12 #dfdfdf #000000 #000000 0 1;
#X obj 713 589 r rat-azimuth;
#X obj 736 619 r rat-spread;
#X obj 894 586 r vbap-metro;
#X obj 894 610 snapshot~;
#X floatatom 894 634 5 0 0 0 - - - 0;
#X floatatom 970 780 5 0 0 2 spread - - 0;
#X obj 911 829 % 360;
#X obj 173 236 hsl 162 19 0 360 0 0 empty empty pan-azimuth 10 10 0 10 #fcfcfc #000000 #000000 0 1;
#X obj 1063 818 f;
#X floatatom 1096 819 5 0 0 0 - - - 0;
#X obj 910 804 +;
#X obj 1021 614 random 2;
#X obj 1021 588 t b b;
#X obj 1021 638 sel 0;
#X obj 1078 637 sel 1;
#X obj 894 740 spigot;
#X obj 933 716 tgl 19 0 empty empty empty 0 -10 0 12 #fcfcfc #000000 #000000 0 1;
#X obj 968 740 spigot;
#X obj 1007 716 tgl 19 0 empty empty empty 0 -10 0 12 #fcfcfc #000000 #000000 0 1;
#X msg 1032 678 0;
#X msg 999 679 1;
#X msg 1111 678 0;
#X msg 1075 678 1;
#X obj 940 633 * -1;
#X floatatom 940 681 5 0 0 0 - - - 0;
#X obj 940 657 + 6;
#X obj 1096 844 outlet;
#X obj 836 619 * 20;
#X obj 836 643 + 30;
#X obj 101 55 r rat-regular;
#X obj 211 56 r rat-random;
#X text 795 19 SEQUENCER;
#X text 816 546 PANNING;
#X text 168 352 SYNTH;
#X text 112 108 METRO;
#X obj 910 778 * 30;
#X connect 0 0 1 0;
#X connect 0 0 47 0;
#X connect 0 0 75 0;
#X connect 1 0 3 0;
#X connect 1 0 7 0;
#X connect 1 0 32 0;
#X connect 1 0 33 0;
#X connect 1 0 30 0;
#X connect 1 0 31 0;
#X connect 1 0 53 0;
#X connect 2 0 8 0;
#X connect 2 0 81 0;
#X connect 3 0 55 0;
#X connect 4 0 36 0;
#X connect 4 0 66 0;
#X connect 4 0 47 0;
#X connect 5 0 4 1;
#X connect 5 0 6 1;
#X connect 5 0 24 1;
#X connect 5 0 25 1;
#X connect 5 0 34 1;
#X connect 5 0 35 1;
#X connect 5 0 40 1;
#X connect 5 0 39 1;
#X connect 6 0 41 0;
#X connect 6 0 66 0;
#X connect 7 0 48 0;
#X connect 7 0 77 0;
#X connect 7 0 29 0;
#X connect 7 0 122 0;
#X connect 8 0 14 0;
#X connect 8 0 26 0;
#X connect 8 0 28 0;
#X connect 8 0 27 0;
#X connect 8 0 38 0;
#X connect 9 0 10 0;
#X connect 9 0 8 1;
#X connect 10 0 11 0;
#X connect 10 0 17 0;
#X connect 10 0 23 0;
#X connect 10 0 22 0;
#X connect 11 0 12 0;
#X connect 12 0 13 0;
#X connect 13 0 14 1;
#X connect 14 0 32 1;
#X connect 15 0 16 0;
#X connect 16 0 26 1;
#X connect 17 0 15 0;
#X connect 18 0 19 0;
#X connect 19 0 27 1;
#X connect 20 0 21 0;
#X connect 21 0 28 1;
#X connect 22 0 18 0;
#X connect 23 0 20 0;
#X connect 24 0 37 0;
#X connect 24 0 59 0;
#X connect 25 0 42 0;
#X connect 25 0 59 0;
#X connect 26 0 30 1;
#X connect 27 0 33 1;
#X connect 28 0 31 1;
#X connect 30 0 6 0;
#X connect 31 0 25 0;
#X connect 32 0 4 0;
#X connect 33 0 24 0;
#X connect 34 0 66 0;
#X connect 35 0 47 0;
#X connect 35 0 59 0;
#X connect 36 0 34 0;
#X connect 37 0 35 0;
#X connect 38 0 37 1;
#X connect 38 0 36 1;
#X connect 38 0 41 1;
#X connect 38 0 42 1;
#X connect 39 0 66 0;
#X connect 40 0 47 0;
#X connect 40 0 59 0;
#X connect 41 0 39 0;
#X connect 42 0 40 0;
#X connect 43 0 3 1;
#X connect 43 0 58 0;
#X connect 44 0 5 0;
#X connect 45 0 46 0;
#X connect 46 0 94 0;
#X connect 46 0 97 0;
#X connect 46 0 96 0;
#X connect 46 0 95 0;
#X connect 47 0 49 0;
#X connect 48 0 47 0;
#X connect 49 0 50 0;
#X connect 50 0 46 1;
#X connect 52 0 9 0;
#X connect 53 0 54 0;
#X connect 54 0 63 0;
#X connect 54 1 51 0;
#X connect 54 2 52 0;
#X connect 54 3 62 0;
#X connect 55 0 1 1;
#X connect 55 0 2 0;
#X connect 57 0 55 1;
#X connect 58 0 57 0;
#X connect 61 0 79 1;
#X connect 62 0 9 0;
#X connect 64 0 65 0;
#X connect 65 0 78 0;
#X connect 67 0 44 0;
#X connect 68 0 69 0;
#X connect 69 0 70 0;
#X connect 70 0 43 0;
#X connect 71 0 72 0;
#X connect 71 0 73 0;
#X connect 72 0 29 0;
#X connect 73 0 74 0;
#X connect 74 0 0 0;
#X connect 75 0 76 0;
#X connect 76 0 71 0;
#X connect 77 0 80 0;
#X connect 78 0 45 0;
#X connect 79 1 45 0;
#X connect 80 0 79 0;
#X connect 81 0 45 1;
#X connect 81 0 61 0;
#X connect 81 0 113 0;
#X connect 82 0 91 1;
#X connect 83 0 84 0;
#X connect 83 1 85 0;
#X connect 83 2 86 0;
#X connect 83 3 87 0;
#X connect 84 0 94 1;
#X connect 85 0 95 1;
#X connect 86 0 96 1;
#X connect 87 0 97 1;
#X connect 88 0 82 0;
#X connect 89 0 91 3;
#X connect 90 0 89 0;
#X connect 91 0 83 0;
#X connect 94 0 100 0;
#X connect 95 0 101 0;
#X connect 96 0 102 0;
#X connect 97 0 103 0;
#X connect 98 0 91 0;
#X connect 99 0 91 0;
#X connect 100 0 105 0;
#X connect 101 0 106 0;
#X connect 102 0 107 0;
#X connect 103 0 108 0;
#X connect 104 0 88 0;
#X connect 109 0 100 1;
#X connect 109 0 103 1;
#X connect 109 0 102 1;
#X connect 109 0 101 1;
#X connect 110 0 88 0;
#X connect 111 0 90 0;
#X connect 112 0 113 0;
#X connect 113 0 114 0;
#X connect 114 0 133 0;
#X connect 114 0 125 0;
#X connect 114 0 137 0;
#X connect 115 0 145 1;
#X connect 116 0 117 0;
#X connect 117 0 118 1;
#X connect 117 0 88 0;
#X connect 118 0 119 0;
#X connect 119 0 120 1;
#X connect 119 0 136 0;
#X connect 120 0 116 0;
#X connect 121 0 123 0;
#X connect 121 0 124 0;
#X connect 122 0 118 0;
#X connect 122 1 121 0;
#X connect 123 0 129 0;
#X connect 123 0 130 0;
#X connect 124 0 132 0;
#X connect 124 0 131 0;
#X connect 125 0 145 0;
#X connect 126 0 125 1;
#X connect 127 0 145 0;
#X connect 128 0 127 1;
#X connect 129 0 128 0;
#X connect 130 0 126 0;
#X connect 131 0 126 0;
#X connect 132 0 128 0;
#X connect 133 0 135 0;
#X connect 134 0 127 0;
#X connect 135 0 134 0;
#X connect 137 0 138 0;
#X connect 138 0 90 0;
#X connect 139 0 71 0;
#X connect 140 0 0 0;
#X connect 145 0 120 0;
#X coords 0 -1 1 1 260 170 1 100 100;
