#N canvas 0 38 1261 916 12;
#X obj 117 198 tgl 25 0 empty empty ratchet -10 -10 0 12 #ff8300 #000000 #000000 0 1;
#X obj 656 157 metro 1000;
#X floatatom 655 230 5 0 0 0 - - - 0;
#X obj 655 182 random 2000;
#N canvas 121 121 275 332 prob-bang 0;
#X obj 64 73 bng 19 250 50 0 empty empty empty 0 -10 0 12 #fcfcfc #000000 #000000;
#X floatatom 64 149 5 0 0 0 - - - 0;
#X obj 64 223 bng 19 250 50 0 empty empty empty 0 -10 0 12 #fcfcfc #000000 #000000;
#X obj 64 198 sel 1;
#X obj 64 174 expr if($f1 < $f2 \, 1 \, 0);
#X obj 64 101 random 10000;
#X obj 64 125 / 10000;
#X obj 64 48 inlet;
#X obj 181 150 inlet;
#X obj 64 247 outlet;
#X connect 0 0 5 0;
#X connect 1 0 4 0;
#X connect 2 0 9 0;
#X connect 3 0 2 0;
#X connect 4 0 3 0;
#X connect 5 0 6 0;
#X connect 6 0 1 0;
#X connect 7 0 0 0;
#X connect 8 0 4 1;
#X restore 685 384 pd prob-bang;
#X floatatom 1052 280 5 0 0 0 - - - 0;
#N canvas 121 121 275 332 prob-bang 0;
#X obj 64 73 bng 19 250 50 0 empty empty empty 0 -10 0 12 #fcfcfc #000000 #000000;
#X floatatom 64 149 5 0 0 0 - - - 0;
#X obj 64 223 bng 19 250 50 0 empty empty empty 0 -10 0 12 #fcfcfc #000000 #000000;
#X obj 64 198 sel 1;
#X obj 64 174 expr if($f1 < $f2 \, 1 \, 0);
#X obj 64 101 random 10000;
#X obj 64 125 / 10000;
#X obj 64 48 inlet;
#X obj 181 150 inlet;
#X obj 64 247 outlet;
#X connect 0 0 5 0;
#X connect 1 0 4 0;
#X connect 2 0 9 0;
#X connect 3 0 2 0;
#X connect 4 0 3 0;
#X connect 5 0 6 0;
#X connect 6 0 1 0;
#X connect 7 0 0 0;
#X connect 8 0 4 1;
#X restore 924 381 pd prob-bang;
#X obj 117 234 bng 25 250 50 0 empty empty empty 0 -10 0 12 #faff00 #000000 #000000;
#X obj 655 257 / 16;
#X floatatom 842 148 5 0 0 0 - - - 0;
#X obj 842 171 * -1;
#X obj 842 198 + 4;
#X obj 842 222 * -1;
#X floatatom 842 246 5 0 0 0 - - - 0;
#X obj 818 279 * 12;
#X obj 891 223 * -1;
#X floatatom 891 247 5 0 0 0 - - - 0;
#X obj 891 199 + 3;
#X obj 940 223 * -1;
#X floatatom 940 247 5 0 0 0 - - - 0;
#X obj 989 224 * -1;
#X floatatom 989 248 5 0 0 0 - - - 0;
#X obj 940 199 + 2;
#X obj 989 200 + 1;
#N canvas 121 121 275 332 prob-bang 0;
#X obj 64 73 bng 19 250 50 0 empty empty empty 0 -10 0 12 #fcfcfc #000000 #000000;
#X floatatom 64 149 5 0 0 0 - - - 0;
#X obj 64 223 bng 19 250 50 0 empty empty empty 0 -10 0 12 #fcfcfc #000000 #000000;
#X obj 64 198 sel 1;
#X obj 64 174 expr if($f1 < $f2 \, 1 \, 0);
#X obj 64 101 random 10000;
#X obj 64 125 / 10000;
#X obj 64 48 inlet;
#X obj 181 150 inlet;
#X obj 64 247 outlet;
#X connect 0 0 5 0;
#X connect 1 0 4 0;
#X connect 2 0 9 0;
#X connect 3 0 2 0;
#X connect 4 0 3 0;
#X connect 5 0 6 0;
#X connect 6 0 1 0;
#X connect 7 0 0 0;
#X connect 8 0 4 1;
#X restore 786 384 pd prob-bang;
#N canvas 121 121 275 332 prob-bang 0;
#X obj 64 73 bng 19 250 50 0 empty empty empty 0 -10 0 12 #fcfcfc #000000 #000000;
#X floatatom 64 149 5 0 0 0 - - - 0;
#X obj 64 223 bng 19 250 50 0 empty empty empty 0 -10 0 12 #fcfcfc #000000 #000000;
#X obj 64 198 sel 1;
#X obj 64 174 expr if($f1 < $f2 \, 1 \, 0);
#X obj 64 101 random 10000;
#X obj 64 125 / 10000;
#X obj 64 48 inlet;
#X obj 181 150 inlet;
#X obj 64 247 outlet;
#X connect 0 0 5 0;
#X connect 1 0 4 0;
#X connect 2 0 9 0;
#X connect 3 0 2 0;
#X connect 4 0 3 0;
#X connect 5 0 6 0;
#X connect 6 0 1 0;
#X connect 7 0 0 0;
#X connect 8 0 4 1;
#X restore 1025 381 pd prob-bang;
#X obj 865 279 * 13;
#X obj 913 280 * 14;
#X obj 964 280 * 15;
#X obj 749 494 s KICK;
#X obj 924 355 del;
#X obj 1025 355 del;
#X obj 685 356 del;
#X obj 786 356 del;
#N canvas 121 121 275 332 prob-bang 0;
#X obj 64 73 bng 19 250 50 0 empty empty empty 0 -10 0 12 #fcfcfc #000000 #000000;
#X floatatom 64 149 5 0 0 0 - - - 0;
#X obj 64 223 bng 19 250 50 0 empty empty empty 0 -10 0 12 #fcfcfc #000000 #000000;
#X obj 64 198 sel 1;
#X obj 64 174 expr if($f1 < $f2 \, 1 \, 0);
#X obj 64 101 random 10000;
#X obj 64 125 / 10000;
#X obj 64 48 inlet;
#X obj 181 150 inlet;
#X obj 64 247 outlet;
#X connect 0 0 5 0;
#X connect 1 0 4 0;
#X connect 2 0 9 0;
#X connect 3 0 2 0;
#X connect 4 0 3 0;
#X connect 5 0 6 0;
#X connect 6 0 1 0;
#X connect 7 0 0 0;
#X connect 8 0 4 1;
#X restore 686 447 pd prob-bang;
#N canvas 121 121 275 332 prob-bang 0;
#X obj 64 73 bng 19 250 50 0 empty empty empty 0 -10 0 12 #fcfcfc #000000 #000000;
#X floatatom 64 149 5 0 0 0 - - - 0;
#X obj 64 223 bng 19 250 50 0 empty empty empty 0 -10 0 12 #fcfcfc #000000 #000000;
#X obj 64 198 sel 1;
#X obj 64 174 expr if($f1 < $f2 \, 1 \, 0);
#X obj 64 101 random 10000;
#X obj 64 125 / 10000;
#X obj 64 48 inlet;
#X obj 181 150 inlet;
#X obj 64 247 outlet;
#X connect 0 0 5 0;
#X connect 1 0 4 0;
#X connect 2 0 9 0;
#X connect 3 0 2 0;
#X connect 4 0 3 0;
#X connect 5 0 6 0;
#X connect 6 0 1 0;
#X connect 7 0 0 0;
#X connect 8 0 4 1;
#X restore 787 447 pd prob-bang;
#X obj 685 413 del;
#X obj 786 413 del;
#X obj 643 414 / 2;
#N canvas 121 121 275 332 prob-bang 0;
#X obj 64 73 bng 19 250 50 0 empty empty empty 0 -10 0 12 #fcfcfc #000000 #000000;
#X floatatom 64 149 5 0 0 0 - - - 0;
#X obj 64 223 bng 19 250 50 0 empty empty empty 0 -10 0 12 #fcfcfc #000000 #000000;
#X obj 64 198 sel 1;
#X obj 64 174 expr if($f1 < $f2 \, 1 \, 0);
#X obj 64 101 random 10000;
#X obj 64 125 / 10000;
#X obj 64 48 inlet;
#X obj 181 150 inlet;
#X obj 64 247 outlet;
#X connect 0 0 5 0;
#X connect 1 0 4 0;
#X connect 2 0 9 0;
#X connect 3 0 2 0;
#X connect 4 0 3 0;
#X connect 5 0 6 0;
#X connect 6 0 1 0;
#X connect 7 0 0 0;
#X connect 8 0 4 1;
#X restore 924 446 pd prob-bang;
#N canvas 121 121 275 332 prob-bang 0;
#X obj 64 73 bng 19 250 50 0 empty empty empty 0 -10 0 12 #fcfcfc #000000 #000000;
#X floatatom 64 149 5 0 0 0 - - - 0;
#X obj 64 223 bng 19 250 50 0 empty empty empty 0 -10 0 12 #fcfcfc #000000 #000000;
#X obj 64 198 sel 1;
#X obj 64 174 expr if($f1 < $f2 \, 1 \, 0);
#X obj 64 101 random 10000;
#X obj 64 125 / 10000;
#X obj 64 48 inlet;
#X obj 181 150 inlet;
#X obj 64 247 outlet;
#X connect 0 0 5 0;
#X connect 1 0 4 0;
#X connect 2 0 9 0;
#X connect 3 0 2 0;
#X connect 4 0 3 0;
#X connect 5 0 6 0;
#X connect 6 0 1 0;
#X connect 7 0 0 0;
#X connect 8 0 4 1;
#X restore 1025 446 pd prob-bang;
#X obj 923 412 del;
#X obj 1024 412 del;
#X obj 172 155 hsl 162 19 1000 15000 0 0 empty empty tempo 10 10 0 12 #e3c6ff #000000 #000000 0 1;
#X obj 172 181 hsl 162 19 0 1 0 0 empty empty randomness 10 10 0 12 #c7c6ff #000000 #000000 0 1;
#X obj 227 595 *~;
#X obj 227 623 *~;
#X obj 276 578 tgl 19 0 empty empty on-off\ glitch 25 10 0 12 #fcfcfc #000000 #000000 0 1;
#X msg 276 546 1;
#X msg 276 602 \$1 20;
#X obj 276 626 line~;
#X msg 802 115 16;
#X msg 842 116 32;
#X obj 774 50 random 4;
#X obj 774 74 sel 0 1 2 3;
#X obj 655 206 + 200;
#X text 799 316 RANDOMIZED RATCHETING;
#X obj 745 206 + 50;
#X obj 745 182 / 10;
#X obj 824 494 s SNARE;
#X obj 894 495 s CRASH;
#X msg 884 116 64;
#X msg 761 115 8;
#X obj 83 418 noise~;
#X obj 83 442 lop~ 500;
#X obj 961 494 s HIHAT;
#X obj 313 55 r spsm-GLOBAL-PROBABILITY;
#X obj 390 98 r global-tempo;
#X obj 390 122 * 14000;
#X obj 390 146 + 1000;
#X obj 117 149 tgl 25 0 empty empty regular -10 -10 0 12 #ff0400 #000000 #000000 0 1;
#X obj 439 276 metro 5000;
#X obj 41 169 sel 1;
#X msg 41 193 0;
#X obj 41 218 sel 1;
#X msg 41 242 0;
#X obj 83 466 *~ 0.05;
#N canvas 0 38 1512 916 pad-synth 0;
#X obj 170 175 inlet;
#X obj 62 262 bng 19 250 50 0 empty empty empty 0 -10 0 12 #fcfcfc #000000 #000000;
#X obj 171 259 bng 19 250 50 0 empty empty empty 0 -10 0 12 #fcfcfc #000000 #000000;
#X obj 284 259 bng 19 250 50 0 empty empty empty 0 -10 0 12 #fcfcfc #000000 #000000;
#X obj 372 260 bng 19 250 50 0 empty empty empty 0 -10 0 12 #fcfcfc #000000 #000000;
#X obj 170 200 sel 0 1 2 3;
#X obj 821 842 outlet~;
#X obj 1033 400 noise~;
#X obj 1033 457 *~ 100;
#X obj 1033 521 clip~ -0.9 0.9;
#X obj 1033 429 bp~ 30 5;
#X obj 1033 488 hip~ 25;
#X obj 1033 557 hip~ 25;
#X text 1026 371 Lapping;
#X text 1212 88 Rumbling Bass Drone;
#X obj 1139 218 *~ 100;
#X obj 1139 139 noise~;
#X obj 1139 187 vcf~ 30 5;
#X obj 1203 122 loadbang;
#X msg 1203 152 140;
#X msg 1241 152 1;
#X obj 1139 283 vcf~ 30 5;
#X obj 1203 218 loadbang;
#X msg 1203 248 140;
#X msg 1241 248 1;
#X obj 1199 361 clip~ -1 1;
#X obj 1312 249 *~ 0.75;
#X obj 1312 282 *~;
#X obj 1312 317 *~;
#X obj 1377 299 loadbang;
#X msg 1415 329 1;
#X msg 1377 329 5;
#X obj 1312 361 vcf~ 5 1;
#X obj 1199 407 *~;
#X obj 1199 467 clip~ -1 1;
#X obj 1297 437 loadbang;
#X obj 1199 509 vcf~ 1000 1;
#X obj 1199 332 *~ 5;
#X obj 1273 564 clip~ -1 1;
#X obj 1199 438 *~ 3.25;
#X msg 1343 467 3;
#X obj 1367 534 loadbang;
#X obj 1273 613 vcf~ 1000 1;
#X obj 1273 535 *~ 4;
#X msg 1367 564 1000;
#X msg 1412 565 3;
#X obj 1273 663 hip~ 30;
#X obj 1312 221 sig~ 1;
#X msg 1297 467 110;
#X obj 239 415 phasor~;
#X obj 195 507 *~ 1;
#X obj 238 506 *~ 2;
#X obj 276 506 *~ 3;
#X obj 240 603 *~ 0.05;
#X obj 882 325 +~ 1.14;
#X obj 508 316 +~ 0.45;
#X obj 704 318 +~ 0.91;
#X text 516 111 LFO, f 4;
#X obj 584 65 noise~;
#X obj 544 230 +~;
#X obj 584 91 lop~ 0.5;
#X obj 483 160 +~ 1;
#X obj 584 115 lop~ 0.5;
#X obj 583 166 hip~ 0;
#X obj 584 140 lop~ 0.5;
#X obj 483 136 osc~ 0.1;
#X obj 483 186 *~ 0.05;
#X obj 583 190 *~ 5;
#X text 721 109 LFO, f 4;
#X obj 789 63 noise~;
#X obj 749 228 +~;
#X obj 789 89 lop~ 0.5;
#X obj 688 158 +~ 1;
#X obj 789 113 lop~ 0.5;
#X obj 788 164 hip~ 0;
#X obj 789 138 lop~ 0.5;
#X obj 688 134 osc~ 0.1;
#X obj 688 184 *~ 0.05;
#X obj 788 188 *~ 5;
#X text 917 108 LFO, f 4;
#X obj 985 62 noise~;
#X obj 945 227 +~;
#X obj 985 88 lop~ 0.5;
#X obj 884 157 +~ 1;
#X obj 985 112 lop~ 0.5;
#X obj 984 163 hip~ 0;
#X obj 985 137 lop~ 0.5;
#X obj 884 133 osc~ 0.1;
#X obj 884 183 *~ 0.05;
#X obj 984 187 *~ 5;
#X obj 508 291 *~ 3;
#X obj 704 291 *~ 3;
#X obj 882 299 *~ 3;
#X obj 195 460 +~;
#X obj 240 456 +~;
#X obj 282 454 +~;
#X obj 241 554 lop~ 150;
#X obj 824 801 *~ 1;
#X msg 62 286 40;
#X msg 171 283 60;
#X msg 284 283 80;
#X msg 372 284 100;
#X obj 1033 597 *~ 0.6;
#X obj 1273 697 *~ 0.5;
#X connect 0 0 5 0;
#X connect 1 0 98 0;
#X connect 2 0 99 0;
#X connect 3 0 100 0;
#X connect 4 0 101 0;
#X connect 5 0 1 0;
#X connect 5 1 2 0;
#X connect 5 2 3 0;
#X connect 5 3 4 0;
#X connect 7 0 10 0;
#X connect 8 0 11 0;
#X connect 9 0 12 0;
#X connect 10 0 8 0;
#X connect 11 0 9 0;
#X connect 12 0 102 0;
#X connect 15 0 21 0;
#X connect 16 0 17 0;
#X connect 17 0 15 0;
#X connect 18 0 19 0;
#X connect 18 0 20 0;
#X connect 19 0 17 1;
#X connect 20 0 17 2;
#X connect 21 1 37 0;
#X connect 22 0 23 0;
#X connect 22 0 24 0;
#X connect 23 0 21 1;
#X connect 24 0 21 2;
#X connect 25 0 33 0;
#X connect 26 0 27 0;
#X connect 26 0 27 1;
#X connect 27 0 28 0;
#X connect 27 0 28 1;
#X connect 28 0 32 0;
#X connect 29 0 31 0;
#X connect 29 0 30 0;
#X connect 30 0 32 2;
#X connect 31 0 32 1;
#X connect 32 1 33 1;
#X connect 33 0 39 0;
#X connect 34 0 36 0;
#X connect 35 0 40 0;
#X connect 35 0 48 0;
#X connect 36 1 43 0;
#X connect 37 0 25 0;
#X connect 38 0 42 0;
#X connect 39 0 34 0;
#X connect 40 0 36 2;
#X connect 41 0 44 0;
#X connect 41 0 45 0;
#X connect 42 1 46 0;
#X connect 43 0 38 0;
#X connect 44 0 42 1;
#X connect 45 0 42 2;
#X connect 46 0 103 0;
#X connect 47 0 26 0;
#X connect 48 0 36 1;
#X connect 49 0 93 0;
#X connect 49 0 94 0;
#X connect 49 0 95 0;
#X connect 50 0 96 0;
#X connect 51 0 96 0;
#X connect 52 0 96 0;
#X connect 53 0 97 0;
#X connect 54 0 95 1;
#X connect 55 0 93 1;
#X connect 56 0 94 1;
#X connect 58 0 60 0;
#X connect 59 0 90 0;
#X connect 60 0 62 0;
#X connect 61 0 66 0;
#X connect 62 0 64 0;
#X connect 63 0 67 0;
#X connect 64 0 63 0;
#X connect 65 0 61 0;
#X connect 66 0 59 0;
#X connect 67 0 59 1;
#X connect 69 0 71 0;
#X connect 70 0 91 0;
#X connect 71 0 73 0;
#X connect 72 0 77 0;
#X connect 73 0 75 0;
#X connect 74 0 78 0;
#X connect 75 0 74 0;
#X connect 76 0 72 0;
#X connect 77 0 70 0;
#X connect 78 0 70 1;
#X connect 80 0 82 0;
#X connect 81 0 92 0;
#X connect 82 0 84 0;
#X connect 83 0 88 0;
#X connect 84 0 86 0;
#X connect 85 0 89 0;
#X connect 86 0 85 0;
#X connect 87 0 83 0;
#X connect 88 0 81 0;
#X connect 89 0 81 1;
#X connect 90 0 55 0;
#X connect 91 0 56 0;
#X connect 92 0 54 0;
#X connect 93 0 50 0;
#X connect 94 0 51 0;
#X connect 95 0 52 0;
#X connect 96 0 53 0;
#X connect 97 0 6 0;
#X connect 98 0 49 0;
#X connect 99 0 49 0;
#X connect 100 0 49 0;
#X connect 101 0 49 0;
#X connect 102 0 97 0;
#X connect 103 0 97 0;
#X restore 156 441 pd pad-synth;
#N canvas 121 159 306 300 envelope 0;
#X obj 72 116 vline~;
#X obj 72 144 *~;
#X obj 72 168 *~;
#X obj 72 196 *~;
#X msg 72 90 1 \$1;
#X obj 72 62 t b f f;
#X obj 129 90 del 1000;
#X obj 182 65 - 5;
#X msg 129 115 0 2;
#X obj 72 32 inlet;
#X obj 72 220 outlet~;
#X connect 0 0 1 0;
#X connect 0 0 1 1;
#X connect 1 0 2 0;
#X connect 1 0 2 1;
#X connect 1 0 3 1;
#X connect 2 0 3 0;
#X connect 3 0 10 0;
#X connect 4 0 0 0;
#X connect 5 0 6 0;
#X connect 5 1 4 0;
#X connect 5 2 7 0;
#X connect 6 0 8 0;
#X connect 7 0 6 1;
#X connect 8 0 0 0;
#X connect 9 0 5 0;
#X restore 290 464 pd envelope;
#X floatatom 668 688 5 0 0 2 - - - 0;
#X obj 641 751 route 0 1 2 3;
#X floatatom 641 839 10 0 0 0 - - - 0;
#X floatatom 663 818 10 0 0 0 - - - 0;
#X floatatom 685 796 10 0 0 0 - - - 0;
#X floatatom 707 775 10 0 0 0 - - - 0;
#X obj 671 672 hsl 100 13 0 360 0 0 empty empty azimuth 10 7 0 10 #fcfcfc #000000 #000000 0 1;
#X floatatom 722 707 5 0 0 2 - - - 0;
#X obj 725 690 hsl 100 13 0 100 0 0 empty empty spread 10 7 0 10 #fcfcfc #000000 #000000 0 1;
#X obj 641 729 vbap 90 0 30;
#X text 831 689 (0-100);
#X text 776 671 (0-360);
#X obj 127 686 *~;
#X obj 189 686 *~;
#X obj 252 686 *~;
#X obj 315 686 *~;
#X obj 641 645 r vbap-define-loudspeakers;
#X obj 641 619 r vbap-metro;
#X obj 127 714 *~;
#X obj 189 714 *~;
#X obj 252 714 *~;
#X obj 315 714 *~;
#X obj 666 589 inlet;
#X obj 127 738 outlet~;
#X obj 189 738 outlet~;
#X obj 252 738 outlet~;
#X obj 315 738 outlet~;
#X obj 172 208 hsl 162 19 0 1 0 0 empty empty synth-vol 10 10 0 12 #dfdfdf #000000 #000000 0 1;
#X obj 713 589 r rat-azimuth;
#X obj 736 619 r rat-spread;
#X obj 894 586 r vbap-metro;
#X obj 894 610 snapshot~;
#X floatatom 894 634 5 0 0 0 - - - 0;
#X floatatom 970 780 5 0 0 2 spread - - 0;
#X obj 911 829 % 360;
#X obj 173 236 hsl 162 19 0 360 0 0 empty empty pan-azimuth 10 10 0 10 #fcfcfc #000000 #000000 0 1;
#X obj 1063 818 f;
#X floatatom 1096 819 5 0 0 0 - - - 0;
#X obj 910 804 +;
#X obj 1021 614 random 2;
#X obj 1021 588 t b b;
#X obj 1021 638 sel 0;
#X obj 1078 637 sel 1;
#X obj 894 740 spigot;
#X obj 933 716 tgl 19 0 empty empty empty 0 -10 0 12 #fcfcfc #000000 #000000 0 1;
#X obj 968 740 spigot;
#X obj 1007 716 tgl 19 0 empty empty empty 0 -10 0 12 #fcfcfc #000000 #000000 0 1;
#X msg 1032 678 0;
#X msg 999 679 1;
#X msg 1111 678 0;
#X msg 1075 678 1;
#X obj 940 633 * -1;
#X floatatom 940 681 5 0 0 0 - - - 0;
#X obj 940 657 + 6;
#X obj 1096 844 outlet;
#X obj 836 619 * 20;
#X obj 836 643 + 30;
#X obj 101 55 r rat-regular;
#X obj 211 56 r rat-random;
#X text 795 19 SEQUENCER;
#X text 816 546 PANNING;
#X text 168 352 SYNTH;
#X text 112 108 METRO;
#X obj 910 778 * 30;
#X obj 459 617 snapshot~;
#X floatatom 459 641 5 0 0 0 - - - 0;
#X obj 478 567 tgl 19 0 empty empty empty 0 -10 0 12 #fcfcfc #000000 #000000 0 1;
#X obj 478 591 metro 100;
#X obj 156 392 f;
#X obj 204 391 + 1;
#X floatatom 156 416 5 0 0 0 - - - 0;
#X obj 204 415 % 4;
#X obj 197 477 *~ 10000;
#X obj 174 513 vcf~ 2;
#X obj 1143 750 random 360;
#X connect 0 0 1 0;
#X connect 0 0 47 0;
#X connect 0 0 74 0;
#X connect 1 0 3 0;
#X connect 1 0 7 0;
#X connect 1 0 32 0;
#X connect 1 0 33 0;
#X connect 1 0 30 0;
#X connect 1 0 31 0;
#X connect 1 0 53 0;
#X connect 2 0 8 0;
#X connect 2 0 78 0;
#X connect 3 0 55 0;
#X connect 4 0 36 0;
#X connect 4 0 65 0;
#X connect 4 0 47 0;
#X connect 5 0 4 1;
#X connect 5 0 6 1;
#X connect 5 0 24 1;
#X connect 5 0 25 1;
#X connect 5 0 34 1;
#X connect 5 0 35 1;
#X connect 5 0 40 1;
#X connect 5 0 39 1;
#X connect 6 0 41 0;
#X connect 6 0 65 0;
#X connect 7 0 48 0;
#X connect 7 0 29 0;
#X connect 7 0 119 0;
#X connect 7 0 147 0;
#X connect 8 0 14 0;
#X connect 8 0 26 0;
#X connect 8 0 28 0;
#X connect 8 0 27 0;
#X connect 8 0 38 0;
#X connect 9 0 10 0;
#X connect 9 0 8 1;
#X connect 10 0 11 0;
#X connect 10 0 17 0;
#X connect 10 0 23 0;
#X connect 10 0 22 0;
#X connect 11 0 12 0;
#X connect 12 0 13 0;
#X connect 13 0 14 1;
#X connect 14 0 32 1;
#X connect 15 0 16 0;
#X connect 16 0 26 1;
#X connect 17 0 15 0;
#X connect 18 0 19 0;
#X connect 19 0 27 1;
#X connect 20 0 21 0;
#X connect 21 0 28 1;
#X connect 22 0 18 0;
#X connect 23 0 20 0;
#X connect 24 0 37 0;
#X connect 24 0 59 0;
#X connect 25 0 42 0;
#X connect 25 0 59 0;
#X connect 26 0 30 1;
#X connect 27 0 33 1;
#X connect 28 0 31 1;
#X connect 30 0 6 0;
#X connect 31 0 25 0;
#X connect 32 0 4 0;
#X connect 33 0 24 0;
#X connect 34 0 65 0;
#X connect 35 0 47 0;
#X connect 35 0 59 0;
#X connect 36 0 34 0;
#X connect 37 0 35 0;
#X connect 38 0 37 1;
#X connect 38 0 36 1;
#X connect 38 0 41 1;
#X connect 38 0 42 1;
#X connect 39 0 65 0;
#X connect 40 0 47 0;
#X connect 40 0 59 0;
#X connect 41 0 39 0;
#X connect 42 0 40 0;
#X connect 43 0 3 1;
#X connect 43 0 58 0;
#X connect 44 0 5 0;
#X connect 45 0 46 0;
#X connect 46 0 91 0;
#X connect 46 0 94 0;
#X connect 46 0 93 0;
#X connect 46 0 92 0;
#X connect 47 0 49 0;
#X connect 48 0 47 0;
#X connect 49 0 50 0;
#X connect 50 0 46 1;
#X connect 52 0 9 0;
#X connect 53 0 54 0;
#X connect 54 0 62 0;
#X connect 54 1 51 0;
#X connect 54 2 52 0;
#X connect 54 3 61 0;
#X connect 55 0 1 1;
#X connect 55 0 2 0;
#X connect 57 0 55 1;
#X connect 58 0 57 0;
#X connect 61 0 9 0;
#X connect 63 0 64 0;
#X connect 64 0 76 0;
#X connect 66 0 44 0;
#X connect 67 0 68 0;
#X connect 68 0 69 0;
#X connect 69 0 43 0;
#X connect 70 0 71 0;
#X connect 70 0 72 0;
#X connect 71 0 29 0;
#X connect 71 0 153 0;
#X connect 72 0 73 0;
#X connect 73 0 0 0;
#X connect 74 0 75 0;
#X connect 75 0 70 0;
#X connect 77 0 152 0;
#X connect 78 0 45 1;
#X connect 78 0 110 0;
#X connect 78 0 143 0;
#X connect 78 0 151 0;
#X connect 79 0 88 1;
#X connect 80 0 81 0;
#X connect 80 1 82 0;
#X connect 80 2 83 0;
#X connect 80 3 84 0;
#X connect 81 0 91 1;
#X connect 82 0 92 1;
#X connect 83 0 93 1;
#X connect 84 0 94 1;
#X connect 85 0 79 0;
#X connect 86 0 88 3;
#X connect 87 0 86 0;
#X connect 88 0 80 0;
#X connect 91 0 97 0;
#X connect 92 0 98 0;
#X connect 93 0 99 0;
#X connect 94 0 100 0;
#X connect 95 0 88 0;
#X connect 96 0 88 0;
#X connect 97 0 102 0;
#X connect 98 0 103 0;
#X connect 99 0 104 0;
#X connect 100 0 105 0;
#X connect 101 0 85 0;
#X connect 106 0 97 1;
#X connect 106 0 100 1;
#X connect 106 0 99 1;
#X connect 106 0 98 1;
#X connect 107 0 85 0;
#X connect 108 0 87 0;
#X connect 109 0 110 0;
#X connect 110 0 111 0;
#X connect 111 0 130 0;
#X connect 111 0 122 0;
#X connect 111 0 134 0;
#X connect 112 0 142 1;
#X connect 113 0 114 0;
#X connect 114 0 115 1;
#X connect 114 0 85 0;
#X connect 115 0 116 0;
#X connect 116 0 117 1;
#X connect 116 0 133 0;
#X connect 117 0 113 0;
#X connect 118 0 120 0;
#X connect 118 0 121 0;
#X connect 119 0 115 0;
#X connect 119 1 118 0;
#X connect 120 0 126 0;
#X connect 120 0 127 0;
#X connect 121 0 129 0;
#X connect 121 0 128 0;
#X connect 122 0 142 0;
#X connect 123 0 122 1;
#X connect 124 0 142 0;
#X connect 125 0 124 1;
#X connect 126 0 125 0;
#X connect 127 0 123 0;
#X connect 128 0 123 0;
#X connect 129 0 125 0;
#X connect 130 0 132 0;
#X connect 131 0 124 0;
#X connect 132 0 131 0;
#X connect 134 0 135 0;
#X connect 135 0 87 0;
#X connect 136 0 70 0;
#X connect 137 0 0 0;
#X connect 142 0 117 0;
#X connect 143 0 144 0;
#X connect 145 0 146 0;
#X connect 146 0 143 0;
#X connect 147 0 148 0;
#X connect 147 0 149 0;
#X connect 148 0 150 0;
#X connect 149 0 77 0;
#X connect 150 0 147 1;
#X connect 151 0 152 1;
#X connect 152 1 45 0;
#X connect 153 0 116 0;
#X coords 0 -1 1 1 260 170 1 100 100;
