#N canvas 0 38 1512 916 12;
#X obj 111 557 cyclone/click~;
#X obj 111 532 bng 19 250 50 0 empty empty empty 0 -10 0 12 #fcfcfc #000000 #000000;
#X text 122 467 CLICK;
#X obj 172 143 bng 19 250 50 0 empty empty empty 0 -10 0 12 #ff8300 #000000 #000000;
#X obj 150 267 hsl 64 19 0 1 0 0 empty empty sc-change-prob -2 -10 0 12 #ffe3c6 #000000 #000000 0 1;
#N canvas 526 526 450 278 (subpatch) 0;
#X array \$0-click-env 100 float 3;
#A 0 0 0 0 0 0 0 0 0 0 0 0 0 0 0 0 0 0 0 0 0 0 0 0 0 0 0 0 0 0 0 0 0 0 0 0 0 0 0 0 0 0 0 0 0 0 0 0 0 0 0 0 0 0 0 0 0 0 0 0 0 0 0 0 0 0 0 0 0 0 0 0 0 0 0 0 0 0 0 0 0 0 0 0 0 0 0 0 0 0 0 0 0 0 0 0 0 0 0 0 0;
#X coords 0 1 100 -1 100 50 1 0 0;
#X restore 138 185 graph;
#X obj 211 142 bng 19 250 50 0 empty empty empty 0 -10 0 12 #9c00ff #000000 #000000;
#X obj 1305 591 list;
#X msg 1171 739 list \$1;
#X obj 1305 540 bng 19 250 50 0 empty empty empty 0 -10 0 12 #fcfcfc #000000 #000000;
#X obj 1280 618 list;
#X obj 1117 491 bng 19 250 50 0 empty empty empty 0 -10 0 12 #fcfcfc #000000 #000000;
#X obj 1117 515 f;
#X obj 1148 515 + 1;
#X obj 1119 587 sel 1;
#X msg 1148 491 0;
#X floatatom 1117 540 5 0 0 0 - - - 0;
#X obj 1139 611 bng 19 250 50 0 empty empty empty 0 -10 0 12 #fcfcfc #000000 #000000;
#X obj 1139 636 t b b;
#X obj 1171 663 f;
#X obj 1201 664 + 1;
#X msg 1186 637 0;
#X obj 1117 563 expr if($f1 < 100 \, 1 \, 0);
#X msg 1305 564 set;
#X obj 1280 644 list trim;
#X obj 1201 688 % 100;
#X text 1113 447 READ ARRAY AND SET CLICK ENVELOPE;
#X text 1328 616 recursive array->list;
#X text 1158 540 stopping condition;
#X text 1367 635 reading;
#X obj 1171 713 tabread \$0-click-env;
#X msg 304 257 const 0;
#X obj 304 281 send \$0-click-env;
#X obj 149 531 r \$0-reset;
#X obj 111 506 r \$0-play;
#X obj 113 48 inlet;
#X obj 162 47 inlet;
#X obj 388 51 inlet;
#X obj 1280 668 s \$0-reset;
#X obj 1305 516 r \$0-set;
#X obj 304 204 s \$0-initialize;
#X obj 304 233 r \$0-initialize;
#X text 165 122 PLAY;
#X text 203 122 RESET;
#X obj 213 48 inlet;
#X obj 264 48 inlet;
#X obj 269 641 sig~;
#X obj 250 669 vcf~ 2;
#X obj 148 397 hsl 64 19 0 1 0 0 empty empty sc-vol -2 -10 0 12 #dfdfdf #000000 #000000 0 1;
#X obj 321 48 inlet;
#X obj 715 373 f;
#X obj 748 374 + 1;
#X obj 748 398 % 100;
#X msg 715 346 0;
#X obj 620 251 random 1000;
#X obj 620 201 cyclone/uzi 100;
#X obj 620 225 t b b;
#X obj 620 299 * 0.1;
#X obj 728 279 hsl 64 19 0.01 1 1 0 empty empty rand-range -2 -10 0 12 #fcfcfc #000000 #000000 0 1;
#X obj 620 275 / 500;
#X obj 620 323 - 0.1;
#X obj 570 347 f;
#X msg 570 321 0;
#X obj 602 347 +;
#X obj 570 371 clip -1 1;
#X text 592 138 SMOOTH CLICKS;
#X obj 459 199 s \$0-play;
#X obj 546 199 s \$0-set;
#X obj 571 398 tabwrite \$0-click-env;
#X obj 715 320 r \$0-initialize;
#X obj 132 143 tgl 19 0 empty empty sc-ON -10 -10 0 12 #ff0400 #000000 #000000 0 1;
#X obj 54 19 r sc-ON;
#X obj 44 132 spigot;
#X obj 725 238 *;
#X obj 139 18 r sc-change-prob;
#X obj 275 17 r sc-vol;
#X obj 456 50 loadbang;
#X obj 339 174 s kick;
#X obj 269 519 random 1000;
#X obj 269 543 / 1000;
#X obj 269 567 + 1;
#X obj 269 591 log 2;
#X obj 560 165 t b b b b b;
#X obj 469 500 bng 15 250 50 0 empty empty empty 17 7 0 10 #fc0400 #000000 #000000;
#X obj 469 478 r kick;
#X obj 530 659 abs;
#X obj 530 635 - 1;
#X obj 529 683 *~;
#X obj 558 682 *~;
#X msg 571 635 0.5;
#X obj 149 308 hsl 64 19 0 1 0 0 empty empty sc-crush -2 -10 0 12 #fcc4c4 #000000 #000000 0 1;
#X obj 149 354 hsl 64 19 0 1 0 0 empty empty sc-crush-amt -2 -10 0 12 #fcfcc4 #000000 #000000 0 1;
#X obj 293 380 * 35;
#X obj 1057 30 r kick;
#X obj 1053 174 hsl 64 16 0 1 0 0 empty empty pan -2 -10 0 12 #e0c4fc #000000 #000000 0 1;
#X obj 1050 112 random 1000;
#X obj 1050 137 / 1000;
#X obj 571 608 loadbang;
#X obj 1151 160 hsl 64 15 50 5000 0 0 empty empty decay -2 -8 0 10 #c4fcc4 #000000 #000000 0 1;
#X obj 1260 215 hsl 64 15 0.1 2 0 0 empty empty filter_scale -2 -8 0 10 #fce0c4 #000000 #000000 0 1;
#X obj 1367 166 hsl 64 15 0 1 0 0 empty empty sine_scale -2 -8 0 10 #f8fc00 #000000 #000000 0 1;
#X obj 1257 176 + 0.1;
#X obj 1257 123 / 1000;
#X obj 1257 98 random 1000;
#X obj 1365 102 random 1000;
#X obj 1257 147 * 2;
#X obj 1148 180 s kick-decay;
#X obj 1050 195 s kick-pan;
#X obj 291 441 s kick-crush-amt;
#X obj 530 584 r kick-crush-amt;
#X obj 293 401 s kick-crush;
#X obj 719 501 r kick-crush;
#X obj 1257 235 s kick-filter;
#X obj 1364 186 s kick-sine;
#X obj 524 477 r kick-decay;
#X obj 524 501 r kick-pitch;
#X obj 618 477 r kick-filter;
#X obj 619 500 r kick-sine;
#X obj 892 78 hsl 64 16 1 10 0 0 empty empty empty -2 -8 0 10 #fcfcfc #000000 #000000 0 1;
#X obj 486 538 kick_crush~, f 34;
#X obj 889 103 s kick-bit-crush;
#X obj 719 477 r kick-bit-crush;
#X obj 269 617 * 5000;
#X obj 353 16 r sc-crush;
#X obj 444 17 r sc-crush-amt;
#X obj 889 217 hsl 64 19 0 1 0 0 empty empty empty -2 -10 0 12 #fcfcfc #000000 #000000 0 1;
#X obj 886 141 random 1000;
#X obj 886 165 / 1000;
#X obj 886 189 * 0.5;
#X obj 886 245 s kick-pitch;
#X obj 889 51 random 4;
#X obj 1365 127 / 2000;
#X obj 1148 127 + 1000;
#X obj 1148 101 random 4000;
#X floatatom 851 604 5 0 0 2 - - - 0;
#X obj 824 667 route 0 1 2 3;
#X floatatom 824 755 10 0 0 0 - - - 0;
#X floatatom 846 734 10 0 0 0 - - - 0;
#X floatatom 868 712 10 0 0 0 - - - 0;
#X floatatom 890 691 10 0 0 0 - - - 0;
#X obj 854 588 hsl 100 13 0 360 0 0 empty empty azimuth 10 7 0 10 #fcfcfc #000000 #000000 0 1;
#X floatatom 905 623 5 0 0 2 - - - 0;
#X obj 908 606 hsl 100 13 0 100 0 0 empty empty spread 10 7 0 10 #fcfcfc #000000 #000000 0 1;
#X text 1014 605 (0-100);
#X text 959 587 (0-360);
#X obj 452 785 *~;
#X obj 514 785 *~;
#X obj 577 785 *~;
#X obj 640 785 *~;
#X obj 824 561 r vbap-define-loudspeakers;
#X obj 824 535 r vbap-metro;
#X obj 452 813 *~;
#X obj 514 813 *~;
#X obj 577 813 *~;
#X obj 640 813 *~;
#X obj 753 43 inlet;
#X obj 452 841 outlet~;
#X obj 514 841 outlet~;
#X obj 577 841 outlet~;
#X obj 640 841 outlet~;
#X obj 877 434 r sc-azimuth;
#X obj 909 464 r sc-spread;
#X obj 824 645 vbap 90 0 50;
#X connect 0 0 47 0;
#X connect 1 0 0 0;
#X connect 3 0 77 0;
#X connect 3 0 82 0;
#X connect 4 0 73 0;
#X connect 4 0 73 1;
#X connect 6 0 40 0;
#X connect 7 0 10 1;
#X connect 8 0 7 1;
#X connect 9 0 15 0;
#X connect 9 0 23 0;
#X connect 9 0 21 0;
#X connect 10 0 7 0;
#X connect 10 0 24 0;
#X connect 11 0 12 0;
#X connect 12 0 13 0;
#X connect 12 0 16 0;
#X connect 13 0 12 1;
#X connect 14 0 17 0;
#X connect 15 0 12 0;
#X connect 16 0 22 0;
#X connect 17 0 11 0;
#X connect 17 0 18 0;
#X connect 18 0 10 0;
#X connect 18 1 19 0;
#X connect 19 0 20 0;
#X connect 19 0 30 0;
#X connect 20 0 25 0;
#X connect 21 0 19 0;
#X connect 22 0 14 0;
#X connect 23 0 7 0;
#X connect 24 0 38 0;
#X connect 25 0 19 1;
#X connect 30 0 8 0;
#X connect 31 0 32 0;
#X connect 33 0 0 0;
#X connect 34 0 1 0;
#X connect 35 0 72 0;
#X connect 36 0 4 0;
#X connect 37 0 6 0;
#X connect 39 0 9 0;
#X connect 41 0 31 0;
#X connect 44 0 90 0;
#X connect 45 0 91 0;
#X connect 46 0 47 1;
#X connect 47 0 145 0;
#X connect 47 0 148 0;
#X connect 47 0 147 0;
#X connect 47 0 146 0;
#X connect 48 0 151 1;
#X connect 48 0 154 1;
#X connect 48 0 153 1;
#X connect 48 0 152 1;
#X connect 49 0 48 0;
#X connect 50 0 51 0;
#X connect 50 0 68 1;
#X connect 51 0 52 0;
#X connect 52 0 50 1;
#X connect 53 0 50 0;
#X connect 54 0 59 0;
#X connect 55 0 56 0;
#X connect 55 0 61 0;
#X connect 56 0 54 0;
#X connect 56 1 50 0;
#X connect 57 0 60 0;
#X connect 58 0 57 1;
#X connect 58 0 60 1;
#X connect 59 0 57 0;
#X connect 60 0 63 1;
#X connect 61 0 63 0;
#X connect 61 0 64 0;
#X connect 62 0 61 0;
#X connect 63 0 61 1;
#X connect 64 0 68 0;
#X connect 69 0 53 0;
#X connect 70 0 72 1;
#X connect 71 0 70 0;
#X connect 72 0 3 0;
#X connect 73 0 58 0;
#X connect 74 0 4 0;
#X connect 75 0 48 0;
#X connect 76 0 6 0;
#X connect 78 0 79 0;
#X connect 79 0 80 0;
#X connect 80 0 81 0;
#X connect 81 0 122 0;
#X connect 82 0 66 0;
#X connect 82 1 67 0;
#X connect 82 2 62 0;
#X connect 82 3 55 0;
#X connect 82 4 78 0;
#X connect 83 0 119 0;
#X connect 84 0 83 0;
#X connect 85 0 87 1;
#X connect 86 0 85 0;
#X connect 87 0 145 0;
#X connect 87 0 148 0;
#X connect 87 0 147 0;
#X connect 87 0 146 0;
#X connect 88 0 145 0;
#X connect 88 0 148 0;
#X connect 88 0 147 0;
#X connect 88 0 146 0;
#X connect 89 0 86 0;
#X connect 89 0 88 1;
#X connect 90 0 92 0;
#X connect 91 0 108 0;
#X connect 92 0 110 0;
#X connect 93 0 95 0;
#X connect 93 0 104 0;
#X connect 93 0 103 0;
#X connect 93 0 126 0;
#X connect 93 0 130 0;
#X connect 93 0 133 0;
#X connect 94 0 107 0;
#X connect 95 0 96 0;
#X connect 96 0 94 0;
#X connect 97 0 89 0;
#X connect 98 0 106 0;
#X connect 99 0 112 0;
#X connect 100 0 113 0;
#X connect 101 0 99 0;
#X connect 102 0 105 0;
#X connect 103 0 102 0;
#X connect 104 0 131 0;
#X connect 105 0 101 0;
#X connect 109 0 86 0;
#X connect 109 0 88 1;
#X connect 111 0 119 5;
#X connect 114 0 119 1;
#X connect 115 0 119 2;
#X connect 116 0 119 3;
#X connect 117 0 119 4;
#X connect 118 0 120 0;
#X connect 119 0 87 0;
#X connect 119 1 88 0;
#X connect 119 2 87 0;
#X connect 119 2 88 0;
#X connect 121 0 119 6;
#X connect 122 0 46 0;
#X connect 123 0 90 0;
#X connect 124 0 91 0;
#X connect 125 0 129 0;
#X connect 126 0 127 0;
#X connect 127 0 128 0;
#X connect 128 0 125 0;
#X connect 130 0 118 0;
#X connect 131 0 100 0;
#X connect 132 0 98 0;
#X connect 133 0 132 0;
#X connect 134 0 162 1;
#X connect 135 0 136 0;
#X connect 135 1 137 0;
#X connect 135 2 138 0;
#X connect 135 3 139 0;
#X connect 136 0 145 1;
#X connect 137 0 146 1;
#X connect 138 0 147 1;
#X connect 139 0 148 1;
#X connect 140 0 134 0;
#X connect 141 0 162 3;
#X connect 142 0 141 0;
#X connect 145 0 151 0;
#X connect 146 0 152 0;
#X connect 147 0 153 0;
#X connect 148 0 154 0;
#X connect 149 0 162 0;
#X connect 150 0 162 0;
#X connect 151 0 156 0;
#X connect 152 0 157 0;
#X connect 153 0 158 0;
#X connect 154 0 159 0;
#X connect 155 0 140 0;
#X connect 160 0 140 0;
#X connect 161 0 142 0;
#X connect 162 0 135 0;
#X coords 0 -1 1 1 170 350 1 100 100;
