#N canvas 217 106 952 515 12;
#X obj 74 333 +~;
#X obj 92 305 *~ 0.7;
#X floatatom 311 190 5 0 0 0 - - - 0;
#X obj 289 333 +~;
#X obj 307 305 *~ 0.7;
#X floatatom 378 189 5 0 0 0 - - - 0;
#X text 335 109 STEREO DELAY;
#X obj 312 141 * 300;
#X obj 312 165 + 70;
#X obj 270 56 inlet;
#X obj 123 153 hsl 64 19 0 1 0 0 empty empty sd-del-time -2 -10 0 12 #e3c6ff #000000 #000000 0 1;
#X obj 319 56 inlet;
#X obj 122 199 hsl 64 19 0 1 0 0 empty empty sd-del-feedback -2 -10 0 12 #c7c6ff #000000 #000000 0 1;
#X obj 70 412 outlet~;
#X obj 288 406 outlet~;
#X obj 49 57 inlet~;
#X obj 103 57 inlet~;
#X obj 74 24 r sd-del-time;
#X obj 174 24 r sd-del-feedback;
#X obj 379 26 loadbang;
#X msg 379 50 0;
#X obj 92 278 delread~ \$0-del-FR 160;
#X obj 80 361 delwrite~ \$0-del-FR 2000;
#X obj 297 360 delwrite~ \$0-del-FL 2000;
#X obj 307 278 delread~ \$0-del-FL 160;
#X obj 498 333 +~;
#X obj 516 305 *~ 0.7;
#X obj 713 333 +~;
#X obj 731 305 *~ 0.7;
#X obj 494 412 outlet~;
#X obj 712 406 outlet~;
#X obj 516 278 delread~ \$0-del-BL 160;
#X obj 504 361 delwrite~ \$0-del-BL 2000;
#X obj 731 278 delread~ \$0-del-BR 160;
#X obj 721 360 delwrite~ \$0-del-BR 2000;
#X obj 159 57 inlet~;
#X obj 213 57 inlet~;
#X connect 0 0 13 0;
#X connect 0 0 22 0;
#X connect 1 0 0 1;
#X connect 2 0 21 0;
#X connect 2 0 24 0;
#X connect 2 0 31 0;
#X connect 2 0 33 0;
#X connect 3 0 14 0;
#X connect 3 0 23 0;
#X connect 4 0 3 1;
#X connect 5 0 4 1;
#X connect 5 0 1 1;
#X connect 5 0 26 1;
#X connect 5 0 28 1;
#X connect 7 0 8 0;
#X connect 8 0 2 0;
#X connect 9 0 10 0;
#X connect 10 0 7 0;
#X connect 11 0 12 0;
#X connect 12 0 5 0;
#X connect 15 0 0 0;
#X connect 16 0 3 0;
#X connect 17 0 10 0;
#X connect 18 0 12 0;
#X connect 19 0 20 0;
#X connect 20 0 10 0;
#X connect 20 0 12 0;
#X connect 21 0 1 0;
#X connect 24 0 4 0;
#X connect 25 0 29 0;
#X connect 25 0 32 0;
#X connect 26 0 25 1;
#X connect 27 0 30 0;
#X connect 27 0 34 0;
#X connect 28 0 27 1;
#X connect 31 0 26 0;
#X connect 33 0 28 0;
#X connect 35 0 25 0;
#X connect 36 0 27 0;
#X coords 0 -1 1 1 130 150 1 100 100;
