#N canvas 0 38 804 446 12;
#X obj 188 259 vstplugin~;
#X msg 73 259 open -e MIAFat;
#X obj 73 232 loadbang;
#X obj 92 62 inlet~;
#X obj 159 63 inlet~;
#X obj 181 328 outlet~;
#X obj 245 328 outlet~;
#N canvas 101 355 513 414 message-out 0;
#X obj 20 17 inlet;
#X obj 20 63 s \$0-program-data;
#X obj 20 40 route program_data bank_data, f 39;
#X obj 135 63 s \$0-bank-data;
#X obj 278 135 print;
#X obj 278 114 spigot 1;
#X obj 337 114 tgl 15 0 empty empty empty 17 7 0 10 #fcfcfc #000000 #000000 0 1;
#X text 358 113 print messages;
#X obj 251 86 s \$0-out;
#X obj 251 63 t a a;
#X msg 28 178 param_automated <index> <value>;
#X msg 28 204 latency <numsamples>;
#X msg 30 257 midi <bytes...>;
#X msg 29 284 sysex <bytes...>;
#X text 233 172 a parameter has been changed in the GUI (or by changing a linked parameter)., f 40;
#X text 162 204 the plugin's internal processing latency has changed;
#X text 139 257 a MIDI message sent by the plugin;
#X text 139 284 a SysEx message sent by the plugin;
#X text 28 153 events:;
#X text 163 222 NOTE: the value includes the additional latency caused by multithreading (see the "-t" flag for "open"), f 55;
#X msg 29 337 crash;
#X text 312 85 goes to vstpresetbrowser;
#X text 23 87 see [pd preset];
#X text 83 338 the plugin subprocess has crashed.;
#X text 84 356 This is only sent for bridged or sandboxed plugins \, because normal plugins would simply crash Pd., f 52;
#X msg 29 311 update;
#X text 87 312 multiple parameters have changed internally;
#X connect 0 0 2 0;
#X connect 2 0 1 0;
#X connect 2 1 3 0;
#X connect 2 2 9 0;
#X connect 5 0 4 0;
#X connect 6 0 5 1;
#X connect 9 0 8 0;
#X connect 9 1 5 0;
#X restore 255 285 pd message-out;
#X msg 237 160 param_set 0 \$1;
#X obj 237 186 s \$0-rev-msg;
#X msg 72 313 param_list;
#X obj 72 287 r \$0-rev-msg;
#X obj 128 152 hsl 64 19 0 1 0 0 empty empty ts-GREASE -2 -10 0 12 #ff8300 #000000 #000000 0 1;
#X obj 342 64 inlet;
#X obj 344 35 r ts-GREASE;
#X obj 493 263 vstplugin~;
#X msg 378 263 open -e MIAFat;
#X obj 378 236 loadbang;
#X obj 486 332 outlet~;
#X obj 550 331 outlet~;
#N canvas 101 355 513 414 message-out 0;
#X obj 20 17 inlet;
#X obj 20 63 s \$0-program-data;
#X obj 20 40 route program_data bank_data, f 39;
#X obj 135 63 s \$0-bank-data;
#X obj 278 135 print;
#X obj 278 114 spigot 1;
#X obj 337 114 tgl 15 0 empty empty empty 17 7 0 10 #fcfcfc #000000 #000000 0 1;
#X text 358 113 print messages;
#X obj 251 86 s \$0-out;
#X obj 251 63 t a a;
#X msg 28 178 param_automated <index> <value>;
#X msg 28 204 latency <numsamples>;
#X msg 30 257 midi <bytes...>;
#X msg 29 284 sysex <bytes...>;
#X text 233 172 a parameter has been changed in the GUI (or by changing a linked parameter)., f 40;
#X text 162 204 the plugin's internal processing latency has changed;
#X text 139 257 a MIDI message sent by the plugin;
#X text 139 284 a SysEx message sent by the plugin;
#X text 28 153 events:;
#X text 163 222 NOTE: the value includes the additional latency caused by multithreading (see the "-t" flag for "open"), f 55;
#X msg 29 337 crash;
#X text 312 85 goes to vstpresetbrowser;
#X text 23 87 see [pd preset];
#X text 83 338 the plugin subprocess has crashed.;
#X text 84 356 This is only sent for bridged or sandboxed plugins \, because normal plugins would simply crash Pd., f 52;
#X msg 29 311 update;
#X text 87 312 multiple parameters have changed internally;
#X connect 0 0 2 0;
#X connect 2 0 1 0;
#X connect 2 1 3 0;
#X connect 2 2 9 0;
#X connect 5 0 4 0;
#X connect 6 0 5 1;
#X connect 9 0 8 0;
#X connect 9 1 5 0;
#X restore 560 289 pd message-out;
#X msg 377 317 param_list;
#X obj 377 291 r \$0-rev-msg;
#X obj 219 63 inlet~;
#X obj 283 63 inlet~;
#X connect 0 0 5 0;
#X connect 0 1 6 0;
#X connect 0 2 7 0;
#X connect 1 0 0 0;
#X connect 2 0 1 0;
#X connect 3 0 0 0;
#X connect 4 0 0 1;
#X connect 8 0 9 0;
#X connect 10 0 0 0;
#X connect 11 0 0 0;
#X connect 12 0 8 0;
#X connect 13 0 12 0;
#X connect 14 0 12 0;
#X connect 15 0 18 0;
#X connect 15 1 19 0;
#X connect 15 2 20 0;
#X connect 16 0 15 0;
#X connect 17 0 16 0;
#X connect 21 0 15 0;
#X connect 22 0 15 0;
#X connect 23 0 15 0;
#X connect 24 0 15 1;
#X coords 0 -1 1 1 120 100 1 100 100;
