#N canvas 0 0 1440 872 12;
#X obj 213 139 cyclone/click~;
#X obj 213 114 bng 19 250 50 0 empty empty empty 0 -10 0 12 #fcfcfc #000000 #000000;
#X msg 55 77 set -1 0.25 1 0.5;
#X msg 55 51 set 1;
#N canvas 150 150 450 278 (subpatch) 0;
#X array click-env 100 float 3;
#A 0 0.00347255 0.0226913 0.0385573 0.0127526 0.0269422 0.027481 0.0573569 0.0803476 0.0544232 0.0397547 0.0102979 0.0293371 0.0231703 0.0452629 0.0247269 0.0186201 0.0361025 0.0564589 0.0574168 0.0542436 0.06993 0.089029 0.0946569 0.0686128 0.0686128 0.0450234 0.0196977 0.0268823 0.00383177 -0.0183806 -0.0149679 -0.0014968 0.0204162 0.0463406 0.0325102 0.0161054 0.00999854 0.0198175 0.0392757 0.0205958 0.0490947 0.0220926 0.0490348 0.0715465 0.0845386 0.107709 0.0905856 0.104955 0.124533 0.126149 0.142135 0.136328 0.156325 0.147883 0.122377 0.1307 0.150038 0.137525 0.146446 0.138243 0.148541 0.132915 0.150278 0.157043 0.144051 0.150577 0.139381 0.141476 0.160456 0.177399 0.164527 0.156504 0.182369 0.188356 0.203922 0.199193 0.169975 0.190631 0.191469 0.165964 0.160396 0.174166 0.190691 0.2053 0.214999 0.207694 0.235654 0.258585 0.273852 0.262477 0.258406 0.285468 0.275289 0.300974 0.281336 0.276187 0.302052 0.272236 0.277265 0;
#X coords 0 1 100 -1 200 140 1 0 0;
#X restore 604 83 graph;
#X obj 251 113 r reset;
#X obj 1130 335 random 1000;
#X floatatom 1130 407 5 0 0 0 - - - 0;
#X obj 1089 281 bng 19 250 50 0 empty empty empty 0 -10 0 12 #fcfcfc #000000 #000000;
#X obj 1130 359 / 500;
#X obj 1130 383 - 1;
#X msg 837 166 \; click-env const 0;
#X obj 1130 433 tabwrite click-env;
#X obj 1089 305 t b b b b;
#X obj 1155 93 tgl 19 0 empty empty empty 0 -10 0 12 #fcfcfc #000000 #000000 0 1;
#X obj 1155 117 metro 500;
#X floatatom 1215 94 5 0 0 0 - - - 0;
#X obj 1173 166 + 200;
#X obj 1085 335 s set;
#X obj 1033 335 s play;
#X obj 213 88 r play;
#X obj 1253 407 f;
#X obj 1286 408 + 1;
#X obj 1286 432 % 100;
#X msg 1253 380 0;
#X obj 836 92 bng 19 250 50 0 empty empty empty 0 -10 0 12 #fcfcfc #000000 #000000;
#X obj 836 116 s initialize;
#X obj 837 142 r initialize;
#X obj 1253 354 r initialize;
#X msg 216 219 open -e ValhallaSupermassive;
#X obj 216 270 vstplugin~;
#N canvas 101 355 513 414 message-out 0;
#X obj 20 17 inlet;
#X obj 20 63 s \$0-program-data;
#X obj 20 40 route program_data bank_data, f 39;
#X obj 135 63 s \$0-bank-data;
#X obj 278 135 print;
#X obj 278 114 spigot 1;
#X obj 337 114 tgl 15 0 empty empty empty 17 7 0 10 #fcfcfc #000000 #000000 0 1;
#X text 358 113 print messages;
#X obj 251 86 s \$0-out;
#X obj 251 63 t a a;
#X msg 28 178 param_automated <index> <value>;
#X msg 28 204 latency <numsamples>;
#X msg 30 257 midi <bytes...>;
#X msg 29 284 sysex <bytes...>;
#X text 233 172 a parameter has been changed in the GUI (or by changing a linked parameter)., f 40;
#X text 162 204 the plugin's internal processing latency has changed;
#X text 139 257 a MIDI message sent by the plugin;
#X text 139 284 a SysEx message sent by the plugin;
#X text 28 153 events:;
#X text 163 222 NOTE: the value includes the additional latency caused by multithreading (see the "-t" flag for "open"), f 55;
#X msg 29 337 crash;
#X text 312 85 goes to vstpresetbrowser;
#X text 23 87 see [pd preset];
#X text 83 338 the plugin subprocess has crashed.;
#X text 84 356 This is only sent for bridged or sandboxed plugins \, because normal plugins would simply crash Pd., f 52;
#X msg 29 311 update;
#X text 87 312 multiple parameters have changed internally;
#X connect 0 0 2 0;
#X connect 2 0 1 0;
#X connect 2 1 3 0;
#X connect 2 2 9 0;
#X connect 5 0 4 0;
#X connect 6 0 5 1;
#X connect 9 0 8 0;
#X connect 9 1 5 0;
#X restore 283 296 pd message-out;
#X msg 128 270 param_list;
#X obj 228 246 r \$0-rev-msg;
#X obj 359 364 hsl 128 15 0 1 0 0 empty empty master-vol -2 -8 0 10 #dcdcdc #000000 #000000 0 1;
#X obj 278 362 *~;
#X obj 218 362 *~;
#X obj 85 469 vu 15 120 empty empty -1 -8 0 10 #404040 #000000 1 0;
#X obj 84 419 env~;
#X obj 84 442 - 90;
#X obj 135 468 vu 15 120 empty empty -1 -8 0 10 #404040 #000000 1 0;
#X obj 134 418 env~;
#X obj 134 441 - 90;
#X obj 218 438 dac~, f 9;
#X msg 107 747 param_set 0 \$1;
#X obj 110 723 hsl 128 15 0 1 0 0 empty empty rev-mix -2 -8 0 10 #c4fcfc #000000 #000000 0 1;
#X obj 107 773 s \$0-rev-msg;
#X obj 252 724 hsl 128 15 0 1 0 0 empty empty delay-time -2 -8 0 10 #00f8fc #000000 #000000 0 1;
#X obj 249 774 s \$0-rev-msg;
#X obj 395 724 hsl 128 15 0 1 0 0 empty empty rev-feedback -2 -8 0 10 #c4c4fc #000000 #000000 0 1;
#X obj 392 774 s \$0-rev-msg;
#X msg 249 748 param_set 3 \$1;
#X msg 392 748 param_set 6 \$1;
#X text 199 192 VALHALLA SUPERMASSIVE REVERB PLUGIN;
#X obj 550 718 ctlin 62;
#X obj 550 742 / 127;
#X obj 550 766 s master-vol;
#X obj 356 329 r master-vol;
#X obj 107 660 ctlin 58;
#X obj 107 684 / 127;
#X obj 249 683 / 127;
#X obj 249 659 ctlin 59;
#X obj 392 684 / 127;
#X obj 392 660 ctlin 60;
#X obj 218 387 limiter;
#X obj 278 387 limiter;
#N canvas 409 409 509 300 preset 0;
#X obj 25 31 loadbang;
#X msg 77 59 \; pd dsp 1;
#X obj 25 58 del 5;
#X obj 26 233 s \$0-rev-msg;
#X msg 40 159 preset_list;
#X text 132 160 find out path of presets;
#X text 223 183 save current settings as preset;
#X msg 40 209 param_list;
#X text 128 209 print list of plugin parameters;
#X msg 40 184 preset_save <Clicks> 0;
#X msg 25 102 program_read /Users/viivihirvonen/Library/Audio/Presets/Valhalla\\\ DSP\\\,\\\ LLC/ValhallaSupermassive/_Clicks_.fxp, f 63;
#X connect 0 0 1 0;
#X connect 0 0 2 0;
#X connect 2 0 10 0;
#X connect 4 0 3 0;
#X connect 7 0 3 0;
#X connect 9 0 3 0;
#X connect 10 0 3 0;
#X restore 333 246 pd preset;
#X obj 1127 687 tabwrite click-env;
#X obj 1250 661 f;
#X obj 1283 662 + 1;
#X obj 1283 686 % 100;
#X msg 1250 634 0;
#X obj 1250 608 r initialize;
#X obj 1127 590 random 1000;
#X obj 1127 540 cyclone/uzi 100;
#X obj 1127 564 t b b;
#X obj 1127 638 * 0.1;
#X obj 1048 591 hsl 64 19 0.01 1 1 0 empty empty rand-range -2 -10 0 12 #fcfcfc #000000 #000000 0 1;
#X obj 1127 614 / 500;
#X obj 1127 662 - 0.1;
#X obj 707 616 tabwrite click-env;
#X obj 830 584 f;
#X obj 863 585 + 1;
#X obj 863 609 % 100;
#X msg 830 557 0;
#X obj 830 531 r initialize;
#X obj 758 465 random 1000;
#X obj 758 415 cyclone/uzi 100;
#X obj 758 439 t b b;
#X obj 698 353 bng 19 250 50 0 empty empty empty 0 -10 0 12 #fcfcfc #000000 #000000;
#X obj 758 513 * 0.1;
#X obj 662 466 hsl 64 19 0.01 1 1 0 empty empty rand-range -2 -10 0 12 #fcfcfc #000000 #000000 0 1;
#X obj 758 489 / 500;
#X obj 758 537 - 0.1;
#X obj 707 565 f;
#X msg 706 538 0;
#X obj 740 564 +;
#X obj 707 589 clip -1 1;
#N canvas 469 469 361 344 reset-env 0;
#X obj 226 157 list;
#X msg 92 305 list \$1;
#X obj 226 106 bng 19 250 50 0 empty empty empty 0 -10 0 12 #fcfcfc #000000 #000000;
#X obj 201 184 list;
#X obj 38 57 bng 19 250 50 0 empty empty empty 0 -10 0 12 #fcfcfc #000000 #000000;
#X obj 38 81 f;
#X obj 69 81 + 1;
#X obj 40 153 sel 1;
#X msg 69 57 0;
#X floatatom 38 106 5 0 0 0 - - - 0;
#X obj 60 177 bng 19 250 50 0 empty empty empty 0 -10 0 12 #fcfcfc #000000 #000000;
#X obj 60 202 t b b;
#X obj 92 229 f;
#X obj 122 230 + 1;
#X msg 107 203 0;
#X obj 38 129 expr if($f1 < 100 \, 1 \, 0);
#X msg 226 130 set;
#X obj 201 210 list trim;
#X obj 122 254 % 100;
#X text 34 13 READ ARRAY AND SET CLICK ENVELOPE;
#X obj 201 234 s reset;
#X obj 92 279 tabread click-env;
#X obj 226 82 inlet;
#X connect 0 0 3 1;
#X connect 1 0 0 1;
#X connect 2 0 8 0;
#X connect 2 0 16 0;
#X connect 2 0 14 0;
#X connect 3 0 0 0;
#X connect 3 0 17 0;
#X connect 4 0 5 0;
#X connect 5 0 6 0;
#X connect 5 0 9 0;
#X connect 6 0 5 1;
#X connect 7 0 10 0;
#X connect 8 0 5 0;
#X connect 9 0 15 0;
#X connect 10 0 4 0;
#X connect 10 0 11 0;
#X connect 11 0 3 0;
#X connect 11 1 12 0;
#X connect 12 0 13 0;
#X connect 12 0 21 0;
#X connect 13 0 18 0;
#X connect 14 0 12 0;
#X connect 15 0 7 0;
#X connect 16 0 0 0;
#X connect 17 0 20 0;
#X connect 18 0 12 1;
#X connect 21 0 1 0;
#X connect 22 0 2 0;
#X restore 936 141 pd reset-env;
#X obj 698 379 t b b b b;
#X obj 711 412 s set;
#X obj 659 412 s play;
#X obj 1081 485 bng 19 250 50 0 empty empty empty 0 -10 0 12 #fcfcfc #000000 #000000;
#X obj 1081 539 s set;
#X obj 1029 539 s play;
#X obj 1081 511 t b b b;
#X obj 936 115 bng 19 250 50 0 empty empty empty 0 -10 0 12 #fcfcfc #000000 #000000;
#X obj 962 115 r set;
#X text 1120 277 fill envelope iteratively;
#X text 1111 484 fill with random noise;
#X text 730 352 fill with complex envelope;
#X obj 1173 142 random 1000;
#X obj 213 169 vcf~;
#X obj 333 69 random 10000;
#X obj 333 93 + 1000;
#X floatatom 333 117 5 0 0 0 - - - 0;
#X obj 333 140 sig~;
#X obj 427 119 + 1;
#X obj 333 45 r play;
#X obj 427 69 r play;
#X obj 427 95 random 5;
#X floatatom 427 143 5 0 0 0 - - - 0;
#X connect 0 0 112 0;
#X connect 1 0 0 0;
#X connect 2 0 0 0;
#X connect 3 0 0 0;
#X connect 5 0 0 0;
#X connect 6 0 9 0;
#X connect 7 0 12 0;
#X connect 8 0 13 0;
#X connect 9 0 10 0;
#X connect 10 0 7 0;
#X connect 13 0 19 0;
#X connect 13 1 18 0;
#X connect 13 2 6 0;
#X connect 13 3 21 0;
#X connect 14 0 15 0;
#X connect 15 0 111 0;
#X connect 15 0 89 0;
#X connect 16 0 15 1;
#X connect 17 0 16 0;
#X connect 20 0 1 0;
#X connect 21 0 22 0;
#X connect 21 0 12 1;
#X connect 22 0 23 0;
#X connect 23 0 21 1;
#X connect 24 0 21 0;
#X connect 25 0 26 0;
#X connect 27 0 11 0;
#X connect 28 0 24 0;
#X connect 29 0 30 0;
#X connect 30 0 36 0;
#X connect 30 1 35 0;
#X connect 30 2 31 0;
#X connect 32 0 30 0;
#X connect 33 0 30 0;
#X connect 34 0 35 1;
#X connect 34 0 36 1;
#X connect 35 0 65 0;
#X connect 36 0 64 0;
#X connect 38 0 39 0;
#X connect 39 0 37 0;
#X connect 41 0 42 0;
#X connect 42 0 40 0;
#X connect 44 0 46 0;
#X connect 45 0 44 0;
#X connect 47 0 51 0;
#X connect 49 0 52 0;
#X connect 51 0 48 0;
#X connect 52 0 50 0;
#X connect 54 0 55 0;
#X connect 55 0 56 0;
#X connect 57 0 34 0;
#X connect 58 0 59 0;
#X connect 59 0 45 0;
#X connect 60 0 47 0;
#X connect 61 0 60 0;
#X connect 62 0 49 0;
#X connect 63 0 62 0;
#X connect 64 0 38 0;
#X connect 64 0 43 0;
#X connect 65 0 41 0;
#X connect 65 0 43 1;
#X connect 68 0 69 0;
#X connect 68 0 67 1;
#X connect 69 0 70 0;
#X connect 70 0 68 1;
#X connect 71 0 68 0;
#X connect 72 0 71 0;
#X connect 73 0 78 0;
#X connect 74 0 75 0;
#X connect 75 0 73 0;
#X connect 75 1 68 0;
#X connect 76 0 79 0;
#X connect 77 0 76 1;
#X connect 77 0 79 1;
#X connect 78 0 76 0;
#X connect 79 0 67 0;
#X connect 81 0 82 0;
#X connect 81 0 80 1;
#X connect 82 0 83 0;
#X connect 83 0 81 1;
#X connect 84 0 81 0;
#X connect 85 0 84 0;
#X connect 86 0 92 0;
#X connect 87 0 88 0;
#X connect 87 0 94 0;
#X connect 88 0 86 0;
#X connect 88 1 81 0;
#X connect 89 0 99 0;
#X connect 90 0 93 0;
#X connect 91 0 90 1;
#X connect 91 0 93 1;
#X connect 92 0 90 0;
#X connect 93 0 96 1;
#X connect 94 0 96 0;
#X connect 94 0 97 0;
#X connect 95 0 94 0;
#X connect 96 0 94 1;
#X connect 97 0 80 0;
#X connect 99 0 101 0;
#X connect 99 1 100 0;
#X connect 99 2 95 0;
#X connect 99 3 87 0;
#X connect 102 0 105 0;
#X connect 105 0 104 0;
#X connect 105 1 103 0;
#X connect 105 2 74 0;
#X connect 106 0 98 0;
#X connect 107 0 98 0;
#X connect 111 0 17 0;
#X connect 112 0 30 0;
#X connect 112 0 30 1;
#X connect 113 0 114 0;
#X connect 114 0 115 0;
#X connect 115 0 116 0;
#X connect 116 0 112 1;
#X connect 117 0 121 0;
#X connect 118 0 113 0;
#X connect 119 0 120 0;
#X connect 120 0 117 0;
#X connect 121 0 112 2;
