#N canvas 0 0 1035 872 12;
#X obj 66 184 noise~;
#X obj 66 237 bng 19 250 50 0 empty empty empty 0 -10 0 12 #fcfcfc #000000 #000000;
#X obj 66 261 random 100;
#X floatatom 240 329 5 0 0 0 - - - 0;
#X obj 240 352 sig~;
#X obj 142 435 vcf~ 5;
#X obj 66 213 threshold~ 0.9999;
#X obj 240 280 / 127;
#X obj 240 304 * 1000;
#X obj 118 41 ctlin 20;
#X obj 118 65 / 127;
#X floatatom 118 162 8 0 0 0 - - - 0;
#X obj 240 256 ctlin 21;
#X obj 118 138 -;
#X msg 118 114 1;
#X msg 118 184 set \$1 10 0.1 10;
#X msg 225 570 open -e ValhallaSupermassive;
#X obj 225 621 vstplugin~;
#N canvas 101 355 513 414 message-out 0;
#X obj 20 17 inlet;
#X obj 20 63 s \$0-program-data;
#X obj 20 40 route program_data bank_data, f 39;
#X obj 135 63 s \$0-bank-data;
#X obj 278 135 print;
#X obj 278 114 spigot 1;
#X obj 337 114 tgl 15 0 empty empty empty 17 7 0 10 #fcfcfc #000000 #000000 0 1;
#X text 358 113 print messages;
#X obj 251 86 s \$0-out;
#X obj 251 63 t a a;
#X msg 28 178 param_automated <index> <value>;
#X msg 28 204 latency <numsamples>;
#X msg 30 257 midi <bytes...>;
#X msg 29 284 sysex <bytes...>;
#X text 233 172 a parameter has been changed in the GUI (or by changing a linked parameter)., f 40;
#X text 162 204 the plugin's internal processing latency has changed;
#X text 139 257 a MIDI message sent by the plugin;
#X text 139 284 a SysEx message sent by the plugin;
#X text 28 153 events:;
#X text 163 222 NOTE: the value includes the additional latency caused by multithreading (see the "-t" flag for "open"), f 55;
#X msg 29 337 crash;
#X text 312 85 goes to vstpresetbrowser;
#X text 23 87 see [pd preset];
#X text 83 338 the plugin subprocess has crashed.;
#X text 84 356 This is only sent for bridged or sandboxed plugins \, because normal plugins would simply crash Pd., f 52;
#X msg 29 311 update;
#X text 87 312 multiple parameters have changed internally;
#X connect 0 0 2 0;
#X connect 2 0 1 0;
#X connect 2 1 3 0;
#X connect 2 2 9 0;
#X connect 5 0 4 0;
#X connect 6 0 5 1;
#X connect 9 0 8 0;
#X connect 9 1 5 0;
#X restore 292 647 pd message-out;
#X msg 137 621 param_list;
#X obj 237 597 r \$0-rev-msg;
#X obj 368 715 hsl 128 15 0 1 0 0 empty empty master-vol -2 -8 0 10 #dcdcdc #000000 #000000 0 1;
#X obj 287 713 *~;
#X obj 227 713 *~;
#X obj 105 721 vu 15 120 empty empty -1 -8 0 10 #404040 #000000 1 0;
#X obj 104 669 env~;
#X obj 104 692 - 90;
#X obj 155 719 vu 15 120 empty empty -1 -8 0 10 #404040 #000000 1 0;
#X obj 154 669 env~;
#X obj 154 692 - 90;
#X obj 227 789 dac~, f 9;
#X text 196 518 VALHALLA SUPERMASSIVE REVERB PLUGIN;
#X obj 365 680 r master-vol;
#X obj 227 738 limiter;
#X obj 287 738 limiter;
#N canvas 409 409 509 300 preset 0;
#X obj 25 31 loadbang;
#X msg 77 59 \; pd dsp 1;
#X obj 25 58 del 5;
#X obj 26 233 s \$0-rev-msg;
#X msg 40 159 preset_list;
#X text 132 160 find out path of presets;
#X text 223 183 save current settings as preset;
#X msg 40 209 param_list;
#X text 128 209 print list of plugin parameters;
#X msg 40 184 preset_save <Clicks> 0;
#X msg 25 102 program_read /Users/viivihirvonen/Library/Audio/Presets/Valhalla\\\ DSP\\\,\\\ LLC/ValhallaSupermassive/_Clicks_.fxp, f 63;
#X connect 0 0 1 0;
#X connect 0 0 2 0;
#X connect 2 0 10 0;
#X connect 4 0 3 0;
#X connect 7 0 3 0;
#X connect 9 0 3 0;
#X connect 10 0 3 0;
#X restore 342 597 pd preset;
#X msg 426 138 param_set 0 \$1;
#X obj 429 114 hsl 128 15 0 1 0 0 empty empty rev-mix -2 -8 0 10 #c4fcfc #000000 #000000 0 1;
#X obj 426 164 s \$0-rev-msg;
#X obj 571 115 hsl 128 15 0 1 0 0 empty empty delay-time -2 -8 0 10 #00f8fc #000000 #000000 0 1;
#X obj 568 165 s \$0-rev-msg;
#X obj 714 115 hsl 128 15 0 1 0 0 empty empty rev-feedback -2 -8 0 10 #c4c4fc #000000 #000000 0 1;
#X obj 711 165 s \$0-rev-msg;
#X msg 568 139 param_set 3 \$1;
#X msg 711 139 param_set 6 \$1;
#X obj 869 109 ctlin 62;
#X obj 869 133 / 127;
#X obj 869 157 s master-vol;
#X obj 426 51 ctlin 58;
#X obj 426 75 / 127;
#X obj 568 74 / 127;
#X obj 568 50 ctlin 59;
#X obj 711 75 / 127;
#X obj 711 51 ctlin 60;
#X obj 310 257 ctlin 22;
#X obj 310 281 / 127;
#X obj 225 546 loadbang;
#X obj 66 339 list append;
#X msg 66 315 list \$1;
#X msg 140 314 list \$1;
#X msg 66 364 next \$1 \$2;
#X obj 66 389 clone knuckle~ 20;
#X obj 142 467 oversat~;
#X obj 310 362 + 0.5;
#X obj 313 317 hsl 128 15 0 1 0 0 empty empty saturation -2 -8 0 10 #ffe3c6 #000000 #000000 0 1;
#X obj 310 338 * 100;
#X obj 118 89 * 0.0015;
#X obj 66 290 / 50;
#X obj 140 289 + 300;
#X connect 0 0 6 0;
#X connect 1 0 2 0;
#X connect 2 0 67 0;
#X connect 2 0 68 0;
#X connect 3 0 4 0;
#X connect 4 0 5 1;
#X connect 5 0 62 0;
#X connect 6 0 1 0;
#X connect 7 0 8 0;
#X connect 8 0 3 0;
#X connect 9 0 10 0;
#X connect 10 0 66 0;
#X connect 11 0 15 0;
#X connect 12 0 7 0;
#X connect 13 0 11 0;
#X connect 14 0 13 0;
#X connect 15 0 6 0;
#X connect 16 0 17 0;
#X connect 17 0 23 0;
#X connect 17 1 22 0;
#X connect 17 2 18 0;
#X connect 19 0 17 0;
#X connect 20 0 17 0;
#X connect 21 0 22 1;
#X connect 21 0 23 1;
#X connect 22 0 34 0;
#X connect 23 0 33 0;
#X connect 25 0 26 0;
#X connect 26 0 24 0;
#X connect 28 0 29 0;
#X connect 29 0 27 0;
#X connect 32 0 21 0;
#X connect 33 0 25 0;
#X connect 33 0 30 0;
#X connect 34 0 28 0;
#X connect 34 0 30 1;
#X connect 36 0 38 0;
#X connect 37 0 36 0;
#X connect 39 0 43 0;
#X connect 41 0 44 0;
#X connect 43 0 40 0;
#X connect 44 0 42 0;
#X connect 45 0 46 0;
#X connect 46 0 47 0;
#X connect 48 0 49 0;
#X connect 49 0 37 0;
#X connect 50 0 39 0;
#X connect 51 0 50 0;
#X connect 52 0 41 0;
#X connect 53 0 52 0;
#X connect 54 0 55 0;
#X connect 55 0 64 0;
#X connect 56 0 16 0;
#X connect 57 0 60 0;
#X connect 58 0 57 0;
#X connect 59 0 57 1;
#X connect 60 0 61 0;
#X connect 61 0 5 0;
#X connect 62 0 17 0;
#X connect 62 0 17 1;
#X connect 63 0 62 1;
#X connect 64 0 65 0;
#X connect 65 0 63 0;
#X connect 66 0 13 1;
#X connect 66 0 14 0;
#X connect 67 0 58 0;
#X connect 68 0 59 0;
