#N canvas 562 207 368 331 12;
#X obj 85 129 line~;
#X obj 85 153 cos~;
#X obj 85 177 *~ 0.1;
#X obj 85 201 *~;
#X msg 85 104 -0.25 \, 0.25 \$1;
#X floatatom 204 80 5 0 0 0 - - - 0;
#X obj 204 104 osc~ 440;
#X obj 204 128 *~;
#X obj 204 152 *~;
#X obj 243 152 *~;
#X obj 85 225 hip~ 5;
#X floatatom 85 80 5 0 0 0 - - - 0;
#X obj 85 25 inlet;
#X obj 85 249 outlet~;
#X obj 85 52 list split 1;
#X connect 0 0 1 0;
#X connect 1 0 2 0;
#X connect 2 0 3 0;
#X connect 3 0 10 0;
#X connect 4 0 0 0;
#X connect 5 0 6 0;
#X connect 6 0 7 0;
#X connect 6 0 7 1;
#X connect 6 0 9 0;
#X connect 7 0 8 0;
#X connect 7 0 8 1;
#X connect 7 0 9 1;
#X connect 7 0 3 1;
#X connect 8 0 3 1;
#X connect 9 0 3 1;
#X connect 10 0 13 0;
#X connect 11 0 4 0;
#X connect 12 0 14 0;
#X connect 14 0 11 0;
#X connect 14 1 5 0;
