#N canvas 63 63 912 639 12;
#X obj 665 37 tgl 15 0 empty empty empty 17 7 0 10 #fcfcfc #000000
#000000 0 1;
#X obj 665 57 metro 100;
#X obj 89 151 expr~ if($v1 > $f2 \, 1 \, -1);
#X obj 156 130 hsl 128 15 0 0.99 0 0 empty empty empty -2 -8 0 10 #fcfcfc
#000000 #000000 0 1;
#X obj 162 437 *~;
#X obj 162 502 dac~;
#X obj 199 439 hsl 128 15 0 0.99 0 0 empty empty vol -2 -8 0 10 #fcfcfc
#000000 #000000 0 1;
#X obj 202 291 hsl 128 15 0 127 0 0 empty empty empty -2 -8 0 10 #fcfcfc
#000000 #000000 0 1;
#X obj 199 311 mtof;
#X floatatom 252 338 5 0 0 0 - - - 0;
#X obj 91 54 hsl 128 15 0 127 0 0 empty empty empty -2 -8 0 10 #fcfcfc
#000000 #000000 0 1;
#X obj 88 74 mtof;
#X obj 321 68 + 8;
#X obj 321 92 mtof;
#X obj 317 151 expr~ if($v1 > $f2 \, 1 \, -1);
#X obj 384 130 hsl 128 15 0 0.99 0 0 empty empty empty -2 -8 0 10 #fcfcfc
#000000 #000000 0 1;
#X floatatom 236 235 5 0 0 0 - - - 0;
#X floatatom 237 314 5 0 0 0 - - - 0;
#X obj 162 339 bp~ 2000 10;
#X obj 163 235 hip~ 3000;
#X floatatom 126 75 5 0 0 0 - - - 0;
#X text 477 220 LFO, f 4;
#X obj 544 200 noise~;
#X obj 505 339 +~;
#X obj 444 269 +~ 1;
#X obj 544 250 lop~ 0.5;
#X obj 544 275 hip~ 0;
#X obj 444 245 osc~ 0.1;
#X obj 444 295 *~ 0.05;
#X obj 544 299 *~ 5;
#X obj 508 370 snapshot~;
#X floatatom 508 394 5 0 0 0 - - - 0;
#X obj 508 471 +;
#X floatatom 543 472 5 0 0 0 - - - 0;
#X obj 544 226 lop~ 0.5;
#X obj 508 423 * 1000;
#X floatatom 359 93 5 0 0 0 - - - 0;
#X obj 89 127 osc~ 16;
#X obj 317 127 osc~ 26;
#X text 205 270 move [1000-10000];
#X text 751 552 squishy synth;
#X obj 665 81 s metro;
#X obj 541 340 r metro;
#X obj 689 34 loadbang;
#X obj 508 447 + 500;
#X obj 710 298 piezo-interaction-bela;
#X obj 710 271 adc~;
#X obj 191 404 *~;
#X connect 0 0 1 0;
#X connect 1 0 41 0;
#X connect 2 0 19 0;
#X connect 3 0 2 1;
#X connect 4 0 5 0;
#X connect 4 0 5 1;
#X connect 6 0 4 1;
#X connect 7 0 8 0;
#X connect 8 0 17 0;
#X connect 8 0 18 1;
#X connect 9 0 18 2;
#X connect 10 0 11 0;
#X connect 10 0 12 0;
#X connect 11 0 20 0;
#X connect 11 0 37 0;
#X connect 12 0 13 0;
#X connect 13 0 36 0;
#X connect 13 0 38 0;
#X connect 14 0 19 0;
#X connect 15 0 14 1;
#X connect 16 0 19 1;
#X connect 18 0 47 0;
#X connect 19 0 18 0;
#X connect 22 0 34 0;
#X connect 23 0 30 0;
#X connect 24 0 28 0;
#X connect 25 0 26 0;
#X connect 26 0 29 0;
#X connect 27 0 24 0;
#X connect 28 0 23 0;
#X connect 29 0 23 1;
#X connect 30 0 31 0;
#X connect 31 0 35 0;
#X connect 32 0 18 1;
#X connect 34 0 25 0;
#X connect 35 0 44 0;
#X connect 37 0 2 0;
#X connect 38 0 14 0;
#X connect 42 0 30 0;
#X connect 43 0 0 0;
#X connect 44 0 32 0;
#X connect 44 0 33 0;
#X connect 45 1 47 1;
#X connect 46 0 45 0;
#X connect 47 0 4 0;
