#N canvas 63 63 1002 769 12;
#X obj 152 185 *~;
#X obj 152 208 lop~ 1;
#X obj 152 234 sqrt~;
#X obj 80 185 *~;
#X obj 80 208 lop~ 1;
#X obj 80 234 sqrt~;
#X obj 250 499 wrap~;
#X obj 299 498 wrap~;
#X obj 348 497 wrap~;
#X obj 701 415 tgl 15 0 empty empty empty 17 7 0 10 #fcfcfc #000000
#000000 0 1;
#X obj 701 435 metro 100;
#X obj 298 676 *~;
#X obj 250 440 +~;
#X obj 299 440 +~;
#X obj 348 438 +~;
#X obj 403 497 wrap~;
#X obj 403 438 +~;
#X obj 298 645 lop~ 500;
#X obj 701 468 snapshot~;
#X obj 298 605 vcf~ 15, f 10;
#X obj 701 493 * 10;
#X obj 701 517 + 10;
#X obj 599 507 vcf~, f 8;
#X obj 744 519 + 1;
#X obj 744 495 * 2;
#X obj 625 478 +~ 100;
#X obj 625 454 *~ 100;
#X obj 724 410 loadbang;
#X obj 268 541 *~;
#X obj 308 542 *~;
#X obj 346 540 *~;
#X obj 386 541 *~;
#X obj 408 201 +~;
#X obj 433 152 hip~ 0;
#X obj 433 176 *~ 5;
#X obj 408 254 +~ 0.61;
#X obj 510 251 +~ 0.45;
#X obj 510 200 +~;
#X obj 534 151 hip~ 0;
#X obj 534 175 *~ 5;
#X obj 408 229 *~ 3;
#X obj 510 226 *~ 3;
#X obj 520 440 lop~ 0.5;
#X obj 260 121 lop~ 0.5;
#X obj 625 427 lop~ 0.5;
#X obj 250 470 *~ 1;
#X obj 299 469 *~ 2;
#X obj 348 468 *~ 3;
#X obj 403 468 *~ 4;
#X obj 599 531 *~ 0.2;
#X obj 520 464 *~ 300;
#X obj 520 488 +~ 300;
#X obj 83 156 bp~ 8 5;
#X obj 160 154 bp~ 800 5;
#X obj 239 394 *~ 0.2;
#X obj 296 393 *~ 0.2;
#X obj 356 392 *~ 0.2;
#X obj 413 391 *~ 0.2;
#X obj 308 364 phasor~ 94;
#X obj 110 81 inlet~;
#X obj 260 82 inlet~;
#X text 110 54 SOUND;
#X text 253 53 ENVELOPE;
#X obj 298 703 outlet~;
#X obj 516 75 r~ LFO;
#X obj 433 124 r~ lopn1;
#X obj 534 125 r~ lopn2;
#X obj 599 397 r~ noise1;
#X connect 0 0 1 0;
#X connect 1 0 2 0;
#X connect 2 0 29 1;
#X connect 2 0 56 0;
#X connect 2 0 57 0;
#X connect 2 0 28 1;
#X connect 3 0 4 0;
#X connect 4 0 5 0;
#X connect 5 0 31 1;
#X connect 5 0 44 0;
#X connect 5 0 54 0;
#X connect 5 0 55 0;
#X connect 5 0 42 0;
#X connect 5 0 30 1;
#X connect 6 0 28 0;
#X connect 7 0 29 0;
#X connect 8 0 30 0;
#X connect 9 0 10 0;
#X connect 10 0 18 0;
#X connect 11 0 63 0;
#X connect 12 0 45 0;
#X connect 13 0 46 0;
#X connect 14 0 47 0;
#X connect 15 0 31 0;
#X connect 16 0 48 0;
#X connect 17 0 11 0;
#X connect 18 0 20 0;
#X connect 18 0 24 0;
#X connect 19 0 17 0;
#X connect 19 1 17 0;
#X connect 20 0 21 0;
#X connect 21 0 19 2;
#X connect 22 0 49 0;
#X connect 23 0 22 2;
#X connect 24 0 23 0;
#X connect 25 0 22 1;
#X connect 26 0 25 0;
#X connect 27 0 9 0;
#X connect 28 0 19 0;
#X connect 29 0 19 0;
#X connect 30 0 19 0;
#X connect 31 0 19 0;
#X connect 32 0 40 0;
#X connect 33 0 34 0;
#X connect 34 0 32 1;
#X connect 35 0 12 1;
#X connect 35 0 14 1;
#X connect 36 0 13 1;
#X connect 36 0 16 1;
#X connect 37 0 41 0;
#X connect 38 0 39 0;
#X connect 39 0 37 1;
#X connect 40 0 35 0;
#X connect 41 0 36 0;
#X connect 42 0 50 0;
#X connect 43 0 11 1;
#X connect 44 0 26 0;
#X connect 45 0 6 0;
#X connect 46 0 7 0;
#X connect 47 0 8 0;
#X connect 48 0 15 0;
#X connect 49 0 17 0;
#X connect 50 0 51 0;
#X connect 51 0 19 1;
#X connect 52 0 3 1;
#X connect 52 0 3 0;
#X connect 53 0 0 0;
#X connect 53 0 0 1;
#X connect 54 0 12 1;
#X connect 55 0 13 1;
#X connect 56 0 14 1;
#X connect 57 0 16 1;
#X connect 58 0 12 0;
#X connect 58 0 14 0;
#X connect 58 0 13 0;
#X connect 58 0 16 0;
#X connect 59 0 52 0;
#X connect 59 0 53 0;
#X connect 60 0 43 0;
#X connect 64 0 32 0;
#X connect 64 0 37 0;
#X connect 64 0 18 0;
#X connect 65 0 33 0;
#X connect 66 0 38 0;
#X connect 67 0 22 0;
