#N canvas 121 121 703 675 12;
#X obj 119 62 tgl 15 0 empty empty empty 17 7 0 10 #fcfcfc #000000
#000000 0 1;
#X obj 119 106 s metro;
#X obj 143 59 loadbang;
#X obj 315 553 *~;
#X msg 143 385 next \$1;
#X msg 143 360 2;
#X obj 85 330 bng 15 250 50 0 empty empty empty 17 7 0 10 #fcfcfc #000000
#000000;
#X obj 85 279 snapshot~;
#X obj 119 82 metro 50;
#X obj 85 304 sel 1;
#X obj 210 327 bng 15 250 50 0 empty empty empty 17 7 0 10 #fcfcfc
#000000 #000000;
#X obj 210 276 snapshot~;
#X obj 210 301 sel 1;
#X obj 147 199 r metro;
#X obj 210 250 expr~ $v1 > 0.1;
#X obj 85 252 expr~ $v1 > 0.1;
#X obj 349 196 loadbang;
#X obj 386 439 cos~;
#X obj 386 250 / 10;
#X obj 449 361 line~;
#X obj 404 391 *~;
#X obj 449 315 / 100;
#X obj 449 338 pack 0 50;
#X obj 386 416 +~;
#X obj 386 465 hip~;
#X obj 386 299 *;
#X obj 386 276 t b f;
#X obj 404 362 osc~;
#X obj 386 325 phasor~;
#X msg 386 226 24;
#X obj 228 488 *~;
#X obj 246 463 *~ 0.8;
#X obj 508 225 snapshot~;
#X obj 508 198 r metro;
#X obj 508 250 * 100;
#X obj 494 146 lop~ 0.5;
#X obj 494 170 lop~ 0.5;
#X msg 349 250 30;
#X obj 333 75 inlet~;
#X obj 315 577 outlet~;
#X text 332 48 ENVELOPE;
#X obj 386 490 *~ 0.8;
#X obj 85 228 r~ noise2;
#X obj 143 410 clone squishy 4;
#X obj 210 226 r~ noise1;
#X connect 0 0 8 0;
#X connect 2 0 0 0;
#X connect 3 0 39 0;
#X connect 4 0 43 0;
#X connect 5 0 4 0;
#X connect 6 0 5 0;
#X connect 7 0 9 0;
#X connect 8 0 1 0;
#X connect 9 0 6 0;
#X connect 10 0 5 0;
#X connect 11 0 12 0;
#X connect 12 0 10 0;
#X connect 13 0 11 0;
#X connect 13 0 7 0;
#X connect 14 0 11 0;
#X connect 15 0 7 0;
#X connect 16 0 37 0;
#X connect 16 0 29 0;
#X connect 17 0 24 0;
#X connect 18 0 26 0;
#X connect 19 0 20 1;
#X connect 20 0 23 1;
#X connect 21 0 22 0;
#X connect 22 0 19 0;
#X connect 23 0 17 0;
#X connect 24 0 41 0;
#X connect 25 0 28 0;
#X connect 26 0 25 0;
#X connect 26 1 25 1;
#X connect 27 0 20 0;
#X connect 28 0 23 0;
#X connect 29 0 18 0;
#X connect 30 0 3 0;
#X connect 31 0 30 1;
#X connect 32 0 34 0;
#X connect 33 0 32 0;
#X connect 34 0 21 0;
#X connect 35 0 36 0;
#X connect 36 0 32 0;
#X connect 37 0 25 0;
#X connect 37 0 27 0;
#X connect 38 0 35 0;
#X connect 38 0 31 0;
#X connect 38 0 3 1;
#X connect 41 0 3 0;
#X connect 42 0 15 0;
#X connect 43 0 30 0;
#X connect 44 0 14 0;
