#N canvas 63 63 992 621 12;
#X obj 139 299 dac~ 1 2;
#X obj 245 159 dac~ 36;
#X obj 162 227 limiter;
#X obj 161 192 *~ 10;
#X obj 124 78 adc~ 3 4 5 6 7 8;
#X connect 2 0 0 0;
#X connect 2 0 0 1;
#X connect 3 0 2 0;
#X connect 4 0 1 0;
#X connect 4 0 3 0;
#X connect 4 1 1 0;
#X connect 4 1 3 0;
#X connect 4 2 1 0;
#X connect 4 3 1 0;
#X connect 4 4 1 0;
#X connect 4 5 1 0;
