#N canvas 0 0 1280 778 8;
#X obj 240 9 tgl 19 0 empty empty empty 0 -10 0 12 -262144 -1 -1 0
1;
#X obj 785 594 dac~;
#X obj 106 197 clone click~ 50;
#X msg 106 172 next \$1;
#X msg 106 147 2;
#X obj 106 121 bng 19 250 50 0 empty empty empty 0 -10 0 12 -262144
-1 -1;
#X obj 264 172 del 100;
#X obj 264 124 random 1000;
#X obj 351 124 f;
#X floatatom 351 148 5 0 0 0 - - -;
#X obj 264 299 spigot;
#X obj 303 250 f;
#X obj 355 251 + 1;
#X obj 303 224 bng 19 250 50 0 empty empty empty 0 -10 0 12 -262144
-1 -1;
#X floatatom 303 274 5 0 0 0 - - -;
#X msg 329 224 0;
#X obj 264 196 t b b b;
#X obj 240 57 bng 19 250 50 0 empty empty empty 0 -10 0 12 -262144
-1 -1;
#X obj 240 82 t b b b;
#X obj 381 125 * 1.1;
#X floatatom 430 260 5 0 50 2 num_clicks - -;
#X obj 430 152 / 127;
#X obj 430 200 int;
#X obj 430 224 + 1;
#X obj 264 148 + 70;
#X obj 324 313 /;
#X obj 306 403 * -1;
#X obj 306 427 + 1;
#X floatatom 306 451 5 0 0 0 - - -;
#X obj 430 126 ctlin 16;
#X msg 351 100 30;
#X obj 758 351 +~;
#X obj 776 323 *~ 0.7;
#X floatatom 808 264 5 0 0 0 - - -;
#X obj 808 192 / 127;
#X obj 808 216 * 300;
#X obj 808 240 + 70;
#X obj 808 168 ctlin 17;
#X obj 876 169 ctlin 18;
#X obj 876 193 / 127;
#X text 391 99 generate many randomly spaced clicks;
#X obj 758 485 *~;
#X obj 849 511 hsl 162 19 0 1 0 0 empty empty empty -2 -10 0 12 -262144
-1 -1 15442 1;
#X obj 846 464 ctlin 19;
#X obj 846 488 / 127;
#X obj 430 176 * 50;
#X obj 355 275 % 50;
#X obj 401 507 hsl 162 19 0 1 0 0 empty empty empty -2 -10 0 12 -262144
-1 -1 0 1;
#X floatatom 398 531 5 0 0 0 - - -;
#X obj 398 554 * -1;
#X obj 398 578 + 1;
#X floatatom 398 602 5 0 0 0 - - -;
#X obj 319 640 *~;
#X obj 359 640 *~;
#X obj 315 702 *~;
#X obj 355 702 *~;
#X obj 814 486 *~;
#X obj 811 377 +~;
#X obj 829 349 *~ 0.7;
#X obj 776 296 delread~ \$0-del-R 160;
#X obj 776 404 delwrite~ \$0-del-L 2000;
#X obj 819 429 delwrite~ \$0-del-R 2000;
#X obj 829 322 delread~ \$0-del-L 160;
#X floatatom 876 217 5 0 0 0 - - -;
#X obj 396 323 / 2;
#X floatatom 396 347 5 0 0 0 - - -;
#X obj 442 394 random 2;
#X obj 430 443 + 0.5;
#X obj 396 394 * -1;
#X obj 396 418 + 0.5;
#X obj 412 468 f;
#X obj 396 370 t f f b;
#X obj 442 418 sel 1;
#X obj 474 442 bng 19 250 50 0 empty empty empty 0 -10 0 12 -262144
-1 -1;
#X obj 474 467 f;
#X text 402 485 random panning;
#X text 806 142 stereo delay;
#X obj 240 33 metro 4300;
#X obj 318 35 r click;
#X obj 507 213 + 1;
#X text 263 380 volume decreases;
#X obj 962 138 random 1000;
#X obj 962 157 / 1100;
#X floatatom 962 176 5 0 0 0 - - -;
#X obj 661 127 random 1000;
#X obj 661 145 / 1100;
#X obj 507 194 random 5;
#X connect 0 0 77 0;
#X connect 2 0 52 0;
#X connect 2 0 53 0;
#X connect 3 0 2 0;
#X connect 4 0 3 0;
#X connect 5 0 7 0;
#X connect 5 0 4 0;
#X connect 6 0 16 0;
#X connect 7 0 24 0;
#X connect 8 0 9 0;
#X connect 8 0 19 0;
#X connect 9 0 7 1;
#X connect 10 0 5 0;
#X connect 11 0 12 0;
#X connect 11 0 14 0;
#X connect 11 0 25 0;
#X connect 12 0 46 0;
#X connect 13 0 11 0;
#X connect 14 0 10 1;
#X connect 15 0 11 0;
#X connect 16 0 10 0;
#X connect 16 1 13 0;
#X connect 16 2 8 0;
#X connect 17 0 18 0;
#X connect 18 0 5 0;
#X connect 18 1 15 0;
#X connect 18 2 30 0;
#X connect 19 0 8 1;
#X connect 20 0 25 1;
#X connect 20 0 46 1;
#X connect 21 0 45 0;
#X connect 22 0 23 0;
#X connect 23 0 20 0;
#X connect 24 0 6 0;
#X connect 25 0 26 0;
#X connect 25 0 64 0;
#X connect 26 0 27 0;
#X connect 27 0 28 0;
#X connect 28 0 54 1;
#X connect 28 0 55 1;
#X connect 29 0 21 0;
#X connect 30 0 8 0;
#X connect 31 0 41 0;
#X connect 31 0 60 0;
#X connect 32 0 31 1;
#X connect 33 0 59 0;
#X connect 33 0 62 0;
#X connect 34 0 35 0;
#X connect 35 0 36 0;
#X connect 36 0 33 0;
#X connect 37 0 34 0;
#X connect 38 0 39 0;
#X connect 39 0 63 0;
#X connect 41 0 1 0;
#X connect 42 0 41 1;
#X connect 42 0 56 1;
#X connect 43 0 44 0;
#X connect 44 0 42 0;
#X connect 45 0 22 0;
#X connect 46 0 11 1;
#X connect 47 0 48 0;
#X connect 48 0 49 0;
#X connect 48 0 53 1;
#X connect 49 0 50 0;
#X connect 50 0 51 0;
#X connect 51 0 52 1;
#X connect 52 0 54 0;
#X connect 53 0 55 0;
#X connect 54 0 31 0;
#X connect 55 0 57 0;
#X connect 56 0 1 1;
#X connect 57 0 61 0;
#X connect 57 0 56 0;
#X connect 58 0 57 1;
#X connect 59 0 32 0;
#X connect 62 0 58 0;
#X connect 63 0 58 1;
#X connect 63 0 32 1;
#X connect 64 0 65 0;
#X connect 65 0 71 0;
#X connect 66 0 72 0;
#X connect 67 0 70 1;
#X connect 68 0 69 0;
#X connect 69 0 74 1;
#X connect 70 0 47 0;
#X connect 71 0 67 0;
#X connect 71 1 68 0;
#X connect 71 2 66 0;
#X connect 72 0 70 0;
#X connect 72 1 73 0;
#X connect 73 0 74 0;
#X connect 74 0 47 0;
#X connect 77 0 17 0;
#X connect 78 0 17 0;
#X connect 78 0 81 0;
#X connect 78 0 84 0;
#X connect 78 0 86 0;
#X connect 79 0 20 0;
#X connect 81 0 82 0;
#X connect 82 0 83 0;
#X connect 83 0 63 0;
#X connect 84 0 85 0;
#X connect 85 0 35 0;
#X connect 86 0 79 0;
