#N canvas 63 33 794 651 12;
#X obj 99 383 rev-delay-out;
#X obj 186 559 dac~;
#X obj 47 153 midi-noiser;
#N canvas 590 118 494 404 midi-controller 0;
#X obj 72 209 / 127;
#X obj 72 233 * -1;
#X obj 72 257 + 1;
#X obj 72 281 * 80;
#X obj 72 70 / 127;
#X obj 162 70 / 127;
#X obj 252 70 / 127;
#X obj 363 212 / 127;
#X obj 175 211 / 127;
#X obj 270 211 / 127;
#X obj 270 259 + 1;
#X obj 175 284 * 10000;
#X obj 175 309 + 1000;
#X obj 347 69 / 127;
#X obj 270 235 * 20;
#X obj 72 123 * 5000;
#X obj 252 121 * 20000;
#X obj 162 123 * 3000;
#X obj 175 235 + 1;
#X obj 175 259 log 2;
#X obj 72 98 *;
#X obj 162 97 *;
#X obj 252 96 *;
#X obj 72 185 ctlin 52 17;
#X obj 72 46 ctlin 48 17;
#X obj 162 46 ctlin 49 17;
#X obj 252 46 ctlin 50 17;
#X obj 363 188 ctlin 55 17;
#X obj 347 45 ctlin 51 17;
#X obj 270 187 ctlin 54 17;
#X obj 175 187 ctlin 53 17;
#X obj 72 149 s attackk;
#X obj 162 147 s sustainn;
#X obj 252 145 s decayy;
#X obj 347 93 s mastervoll;
#X obj 72 305 s crushh;
#X obj 175 334 s freqq;
#X obj 270 283 s resonancee;
#X obj 363 236 s crush-amtt;
#X connect 0 0 1 0;
#X connect 1 0 2 0;
#X connect 2 0 3 0;
#X connect 3 0 35 0;
#X connect 4 0 20 0;
#X connect 4 0 20 1;
#X connect 5 0 21 0;
#X connect 5 0 21 1;
#X connect 6 0 22 0;
#X connect 6 0 22 1;
#X connect 7 0 38 0;
#X connect 8 0 18 0;
#X connect 9 0 14 0;
#X connect 10 0 37 0;
#X connect 11 0 12 0;
#X connect 12 0 36 0;
#X connect 13 0 34 0;
#X connect 14 0 10 0;
#X connect 15 0 31 0;
#X connect 16 0 33 0;
#X connect 17 0 32 0;
#X connect 18 0 19 0;
#X connect 19 0 11 0;
#X connect 20 0 15 0;
#X connect 21 0 17 0;
#X connect 22 0 16 0;
#X connect 23 0 0 0;
#X connect 24 0 4 0;
#X connect 25 0 5 0;
#X connect 26 0 6 0;
#X connect 27 0 7 0;
#X connect 28 0 13 0;
#X connect 29 0 9 0;
#X connect 30 0 8 0;
#X restore 508 394 pd midi-controller;
#X text 530 370 CONTROLLER 1;
#X obj 49 82 r attackk;
#X obj 66 112 r sustainn;
#X obj 147 82 r decayy;
#X obj 164 111 r mastervoll;
#X obj 245 81 r crushh;
#X obj 262 112 r freqq;
#X obj 360 112 r crush-amtt;
#X obj 343 83 r resonancee;
#X obj 542 152 hsl 162 19 0 127 0 0 empty empty pitch -2 -10 0 12 #fcfcfc #000000 #000000 0 1;
#X obj 569 197 hsl 162 19 0 127 0 0 empty empty velocity -2 -10 0 12 #fcfcfc #000000 #000000 0 1;
#X obj 461 201 bng 19 250 50 0 empty empty play\ note 0 -10 0 12 #ff0400 #000000 #000000;
#X obj 512 281 s note;
#X obj 512 229 pack 0 f f f;
#X msg 512 255 \$2 \$3 \$4;
#X obj 612 230 loadbang;
#X msg 612 254 18;
#X connect 0 0 1 0;
#X connect 0 1 1 1;
#X connect 2 0 0 0;
#X connect 2 1 0 5;
#X connect 13 0 17 1;
#X connect 14 0 17 2;
#X connect 15 0 17 0;
#X connect 17 0 18 0;
#X connect 18 0 16 0;
#X connect 19 0 20 0;
#X connect 20 0 17 3;
