#N canvas 363 64 576 509 12;
#X obj 124 103 mtof;
#X obj 246 125 bng 19 250 50 0 empty empty empty 0 -10 0 12 #fcfcfc #000000 #000000;
#X obj 312 305 *~;
#X obj 312 329 *~;
#X floatatom 386 232 5 0 0 2 decay - - 0;
#X obj 252 370 *~;
#X obj 124 47 inlet;
#X obj 252 394 outlet~;
#X text 288 111 ADSR envelope;
#X obj 214 98 sel 0;
#X obj 124 160 line~;
#X obj 312 281 vline~;
#X obj 124 187 phase-synth~;
#X obj 312 229 del 400;
#X floatatom 358 198 5 0 0 2 sustain - - 0;
#X obj 246 204 pack 0 f f;
#X floatatom 313 180 5 0 0 2 attack - - 0;
#X msg 246 179 0.9;
#X obj 246 154 loadbang;
#X msg 246 228 \$2 \$3;
#X msg 280 179 200;
#X obj 312 257 pack 0 3000;
#X obj 421 78 r attack;
#X obj 421 104 r sustain;
#X obj 421 128 +;
#X obj 451 128 r decay;
#X obj 451 152 +;
#X obj 36 262 abs;
#X obj 36 238 - 1;
#X obj 162 327 *~;
#X obj 194 327 *~;
#X msg 36 213 0.5;
#X obj 35 185 r crush-amt;
#X obj 124 74 unpack f f f f f;
#X floatatom 182 48 5 0 0 0 - - - 0;
#X obj 345 414 dac~;
#X connect 0 0 10 0;
#X connect 1 0 13 0;
#X connect 1 0 15 0;
#X connect 2 0 3 0;
#X connect 2 0 3 1;
#X connect 3 0 5 1;
#X connect 4 0 21 1;
#X connect 5 0 7 0;
#X connect 5 0 35 1;
#X connect 5 0 35 0;
#X connect 6 0 33 0;
#X connect 9 1 1 0;
#X connect 10 0 12 0;
#X connect 11 0 2 0;
#X connect 11 0 2 1;
#X connect 12 0 29 0;
#X connect 12 1 30 0;
#X connect 13 0 21 0;
#X connect 14 0 13 1;
#X connect 15 0 19 0;
#X connect 16 0 15 2;
#X connect 17 0 15 1;
#X connect 18 0 17 0;
#X connect 18 0 20 0;
#X connect 18 0 31 0;
#X connect 19 0 11 0;
#X connect 20 0 15 2;
#X connect 21 0 11 0;
#X connect 22 0 24 1;
#X connect 22 0 16 0;
#X connect 23 0 24 0;
#X connect 24 0 26 1;
#X connect 24 0 14 0;
#X connect 25 0 26 0;
#X connect 26 0 4 0;
#X connect 27 0 29 1;
#X connect 28 0 27 0;
#X connect 29 0 5 0;
#X connect 30 0 5 0;
#X connect 31 0 28 0;
#X connect 31 0 30 1;
#X connect 32 0 28 0;
#X connect 32 0 30 1;
#X connect 33 0 0 0;
#X connect 33 1 9 0;
#X connect 33 2 12 1;
#X connect 33 3 12 2;
#X connect 33 4 12 3;
#X connect 34 0 33 0;
