#N canvas 0 0 1440 872 12;
#X obj 257 213 noise~;
#X obj 212 501 *~;
#X obj 388 807 dac~;
#X obj 428 752 hsl 128 15 0 1 0 0 empty empty empty -2 -8 0 10 #fcfcfc
#000000 #000000 0 1;
#X obj 257 324 *~;
#X obj 257 347 lop~ 1;
#X obj 257 373 sqrt~;
#X obj 257 397 *~ 40;
#X obj 793 421 osc~;
#X obj 769 501 *~;
#X floatatom 811 312 5 0 0 0 - - - 0;
#X obj 853 353 *~;
#X obj 853 376 lop~ 1;
#X obj 853 402 sqrt~;
#X obj 853 426 *~ 40;
#X obj 625 502 *~;
#X obj 712 339 *~;
#X obj 712 362 lop~ 1;
#X obj 712 388 sqrt~;
#X obj 712 412 *~ 40;
#X floatatom 339 51 5 0 0 0 pitch - - 0;
#X obj 207 268 mtof;
#X obj 811 262 + 14;
#X obj 665 264 + 11;
#X obj 811 286 mtof;
#X obj 665 288 mtof;
#X obj 257 291 lop~ 0.5;
#X obj 855 311 lop~ 0.5;
#X obj 712 307 lop~ 0.5;
#X obj 257 240 lop~ 0.5;
#X obj 509 281 mtof;
#X obj 476 496 *~;
#X obj 569 330 *~;
#X obj 569 353 lop~ 1;
#X obj 569 379 sqrt~;
#X obj 569 403 *~ 40;
#X obj 569 296 lop~ 0.5;
#X obj 257 265 lop~ 0.5;
#X obj 855 234 noise~;
#X obj 855 261 lop~ 0.5;
#X obj 855 286 lop~ 0.5;
#X obj 712 229 noise~;
#X obj 712 256 lop~ 0.5;
#X obj 712 281 lop~ 0.5;
#X obj 569 220 noise~;
#X obj 569 247 lop~ 0.5;
#X obj 569 272 lop~ 0.5;
#X obj 62 265 mtof;
#X obj 88 497 *~;
#X obj 111 324 *~;
#X obj 111 347 lop~ 1;
#X obj 111 373 sqrt~;
#X obj 111 397 *~ 40;
#X obj 111 290 lop~ 0.5;
#X obj 111 214 noise~;
#X obj 111 241 lop~ 0.5;
#X obj 111 266 lop~ 0.5;
#X obj 62 241 - 4;
#X obj 359 265 mtof;
#X obj 379 503 *~;
#X obj 416 317 *~;
#X obj 416 340 lop~ 1;
#X obj 416 366 sqrt~;
#X obj 416 390 *~ 40;
#X obj 416 283 lop~ 0.5;
#X obj 416 207 noise~;
#X obj 416 234 lop~ 0.5;
#X obj 416 259 lop~ 0.5;
#X obj 509 257 + 9;
#X obj 359 241 + 7;
#X text 1166 163 LFO, f 4;
#X obj 1133 212 +~ 1;
#X obj 1133 267 snapshot~;
#X obj 1133 238 *~ 0.5;
#X obj 1133 188 osc~ 0.01;
#X obj 1072 322 noise~;
#X obj 1084 403 vcf~, f 8;
#X floatatom 1153 374 5 0 0 0 - - - 0;
#X obj 1153 350 + 1;
#X obj 1153 326 * 2;
#X obj 1098 372 +~ 100;
#X obj 1098 348 *~ 100;
#X obj 1215 210 tgl 15 0 empty empty empty 17 7 0 10 #fcfcfc #000000
#000000 0 1;
#X obj 1215 230 metro 100;
#X obj 1084 427 *~ 0.1;
#X obj 1215 186 loadbang;
#X obj 793 340 noise~;
#X obj 793 396 +~;
#X obj 793 368 *~ 1;
#X obj 647 421 osc~;
#X floatatom 665 313 5 0 0 0 - - - 0;
#X obj 647 340 noise~;
#X obj 647 396 +~;
#X obj 647 368 *~ 1;
#X obj 491 418 osc~;
#X floatatom 509 306 5 0 0 0 - - - 0;
#X obj 491 337 noise~;
#X obj 491 393 +~;
#X obj 491 365 *~ 1;
#X obj 341 402 osc~;
#X floatatom 359 292 5 0 0 0 - - - 0;
#X obj 341 321 noise~;
#X obj 341 377 +~;
#X obj 341 349 *~ 1;
#X obj 189 397 osc~;
#X floatatom 207 291 5 0 0 0 - - - 0;
#X obj 189 316 noise~;
#X obj 189 372 +~;
#X obj 189 344 *~ 1;
#X obj 44 397 osc~;
#X floatatom 62 289 5 0 0 0 - - - 0;
#X obj 44 316 noise~;
#X obj 44 372 +~;
#X obj 44 344 *~ 1;
#X floatatom 796 84 5 0 0 0 noisiness - - 0;
#X obj 682 698 piezo-interaction-bela;
#X obj 682 671 adc~;
#X floatatom 941 643 0 0 0 1 delay\ time - - 0;
#X obj 923 721 +~;
#X obj 941 693 *~ 0.7;
#X obj 998 696 hsl 128 15 0 1 0 0 empty empty empty -2 -8 0 10 #fcfcfc
#000000 #000000 0 1;
#X floatatom 983 590 5 0 0 0 - - - 0;
#X obj 941 669 delread~ del 160;
#X obj 978 754 delwrite~ del 2000;
#X obj 923 618 hip~ 1000;
#X obj 923 755 *~ 0.5;
#X obj 432 36 loadbang;
#X msg 432 60 50;
#X obj 1194 766 writesf~ 1;
#X msg 1191 700 start;
#X msg 1206 729 stop;
#X msg 1178 672 open 3.waves.wav;
#X obj 387 776 limiter;
#X obj 387 749 *~;
#X connect 0 0 29 0;
#X connect 1 0 124 0;
#X connect 1 0 133 0;
#X connect 3 0 133 1;
#X connect 4 0 5 0;
#X connect 5 0 6 0;
#X connect 6 0 7 0;
#X connect 7 0 1 1;
#X connect 8 0 9 0;
#X connect 9 0 124 0;
#X connect 9 0 133 0;
#X connect 10 0 87 1;
#X connect 11 0 12 0;
#X connect 12 0 13 0;
#X connect 13 0 14 0;
#X connect 14 0 9 1;
#X connect 15 0 124 0;
#X connect 15 0 133 0;
#X connect 16 0 17 0;
#X connect 17 0 18 0;
#X connect 18 0 19 0;
#X connect 19 0 15 1;
#X connect 20 0 22 0;
#X connect 20 0 23 0;
#X connect 20 0 21 0;
#X connect 20 0 57 0;
#X connect 20 0 68 0;
#X connect 20 0 69 0;
#X connect 21 0 105 0;
#X connect 22 0 24 0;
#X connect 23 0 25 0;
#X connect 24 0 10 0;
#X connect 25 0 90 0;
#X connect 26 0 4 0;
#X connect 26 0 4 1;
#X connect 27 0 11 0;
#X connect 27 0 11 1;
#X connect 28 0 16 0;
#X connect 28 0 16 1;
#X connect 29 0 37 0;
#X connect 30 0 95 0;
#X connect 31 0 124 0;
#X connect 31 0 133 0;
#X connect 32 0 33 0;
#X connect 33 0 34 0;
#X connect 34 0 35 0;
#X connect 35 0 31 1;
#X connect 36 0 32 0;
#X connect 36 0 32 1;
#X connect 37 0 26 0;
#X connect 38 0 39 0;
#X connect 39 0 40 0;
#X connect 40 0 27 0;
#X connect 41 0 42 0;
#X connect 42 0 43 0;
#X connect 43 0 28 0;
#X connect 44 0 45 0;
#X connect 45 0 46 0;
#X connect 46 0 36 0;
#X connect 47 0 110 0;
#X connect 48 0 124 0;
#X connect 48 0 133 0;
#X connect 49 0 50 0;
#X connect 50 0 51 0;
#X connect 51 0 52 0;
#X connect 52 0 48 1;
#X connect 53 0 49 0;
#X connect 53 0 49 1;
#X connect 54 0 55 0;
#X connect 55 0 56 0;
#X connect 56 0 53 0;
#X connect 57 0 47 0;
#X connect 58 0 100 0;
#X connect 59 0 124 0;
#X connect 59 0 133 0;
#X connect 60 0 61 0;
#X connect 61 0 62 0;
#X connect 62 0 63 0;
#X connect 63 0 59 1;
#X connect 64 0 60 0;
#X connect 64 0 60 1;
#X connect 65 0 66 0;
#X connect 66 0 67 0;
#X connect 67 0 64 0;
#X connect 68 0 30 0;
#X connect 69 0 58 0;
#X connect 71 0 73 0;
#X connect 72 0 79 0;
#X connect 73 0 81 0;
#X connect 73 0 72 0;
#X connect 74 0 71 0;
#X connect 75 0 76 0;
#X connect 76 0 84 0;
#X connect 77 0 76 2;
#X connect 78 0 77 0;
#X connect 79 0 78 0;
#X connect 80 0 76 1;
#X connect 81 0 80 0;
#X connect 82 0 83 0;
#X connect 83 0 72 0;
#X connect 84 0 133 0;
#X connect 85 0 82 0;
#X connect 86 0 88 0;
#X connect 87 0 8 0;
#X connect 88 0 87 0;
#X connect 89 0 15 0;
#X connect 90 0 92 1;
#X connect 91 0 93 0;
#X connect 92 0 89 0;
#X connect 93 0 92 0;
#X connect 94 0 31 0;
#X connect 95 0 97 1;
#X connect 96 0 98 0;
#X connect 97 0 94 0;
#X connect 98 0 97 0;
#X connect 99 0 59 0;
#X connect 100 0 102 1;
#X connect 101 0 103 0;
#X connect 102 0 99 0;
#X connect 103 0 102 0;
#X connect 104 0 1 0;
#X connect 105 0 107 1;
#X connect 106 0 108 0;
#X connect 107 0 104 0;
#X connect 108 0 107 0;
#X connect 109 0 48 0;
#X connect 110 0 112 1;
#X connect 111 0 113 0;
#X connect 112 0 109 0;
#X connect 113 0 112 0;
#X connect 114 0 93 1;
#X connect 114 0 113 1;
#X connect 114 0 108 1;
#X connect 114 0 103 1;
#X connect 114 0 98 1;
#X connect 114 0 88 1;
#X connect 115 1 133 1;
#X connect 116 0 115 0;
#X connect 117 0 122 0;
#X connect 118 0 123 0;
#X connect 118 0 125 0;
#X connect 119 0 118 1;
#X connect 120 0 119 1;
#X connect 121 0 124 1;
#X connect 122 0 119 0;
#X connect 124 0 118 0;
#X connect 125 0 133 0;
#X connect 126 0 127 0;
#X connect 127 0 20 0;
#X connect 129 0 128 0;
#X connect 130 0 128 0;
#X connect 131 0 128 0;
#X connect 132 0 2 0;
#X connect 132 0 2 1;
#X connect 132 0 128 0;
#X connect 133 0 132 0;
