#N canvas 237 185 948 541 12;
#X obj 201 125 adc~;
#X obj 207 316 *~;
#X obj 206 359 dac~;
#X obj 283 323 hsl 128 15 0 1 0 0 empty empty vol -2 -8 0 10 #dfdfdf
#000000 #000000 0 1;
#X floatatom 289 242 5 0 0 0 - - - 0;
#X obj 452 193 delwrite~ bones 5000;
#X floatatom 450 219 5 0 0 0 - - - 0;
#X obj 511 283 hsl 128 15 0 1 0 0 empty empty feedback\\\ amt -2 -8
0 10 #c6feff #000000 #000000 0 1;
#X obj 450 303 s~ feedback;
#X obj 457 161 r~ feedback;
#X obj 450 279 *~ 0.6;
#X obj 208 276 rev2~ 100 80 3000 20;
#X obj 450 247 delread~ bones 300;
#X obj 886 210 hsl 128 15 0 1 0 0 empty empty empty -2 -8 0 10 #fcfcfc
#000000 #000000 0 1;
#X obj 836 249 * 20;
#X obj 836 273 + 60;
#X obj 881 244 * -1;
#X obj 881 268 + 1;
#X obj 881 292 * 200;
#X obj 881 316 + 300;
#X obj 932 241 * 0.2;
#X obj 932 265 + 0.4;
#X floatatom 932 289 5 0 0 0 - - - 0;
#X obj 804 104 osc~ 0.01;
#X obj 882 84 tgl 15 0 empty empty empty 17 7 0 10 #fcfcfc #000000
#000000 0 1;
#X obj 882 104 metro 100;
#X obj 882 128 snapshot~;
#X obj 882 152 / 2;
#X obj 882 176 + 0.5;
#X obj 646 148 writesf~ 1;
#X msg 643 82 start;
#X msg 658 111 stop;
#X msg 630 54 open bones_dry.wav;
#X obj 311 473 writesf~ 1;
#X msg 308 407 start;
#X msg 323 436 stop;
#X msg 295 379 open bones_fx.wav;
#X connect 0 0 5 0;
#X connect 0 0 11 0;
#X connect 0 0 29 0;
#X connect 1 0 2 0;
#X connect 1 0 2 1;
#X connect 1 0 33 0;
#X connect 3 0 1 1;
#X connect 4 0 11 2;
#X connect 6 0 12 0;
#X connect 7 0 10 1;
#X connect 9 0 5 0;
#X connect 10 0 8 0;
#X connect 11 0 1 0;
#X connect 12 0 10 0;
#X connect 12 0 11 0;
#X connect 13 0 14 0;
#X connect 13 0 16 0;
#X connect 13 0 20 0;
#X connect 14 0 15 0;
#X connect 16 0 17 0;
#X connect 17 0 18 0;
#X connect 18 0 19 0;
#X connect 20 0 21 0;
#X connect 21 0 22 0;
#X connect 23 0 26 0;
#X connect 24 0 25 0;
#X connect 25 0 26 0;
#X connect 26 0 27 0;
#X connect 27 0 28 0;
#X connect 28 0 13 0;
#X connect 30 0 29 0;
#X connect 31 0 29 0;
#X connect 32 0 29 0;
#X connect 34 0 33 0;
#X connect 35 0 33 0;
#X connect 36 0 33 0;
