#N canvas 63 63 1015 708 12;
#X floatatom 252 338 5 0 0 0 - - - 0;
#X obj 162 339 bp~ 2000 10;
#X obj 163 184 osc~ 16;
#X obj 288 490 *~;
#X obj 435 97 bng 15 250 50 0 empty empty empty 17 7 0 10 #fcfcfc #000000
#000000;
#X msg 426 277 1 5;
#X obj 469 277 del 10;
#X obj 469 301 pack 0 500;
#X obj 469 349 *~;
#X obj 469 373 *~;
#X obj 469 325 line~;
#X floatatom 536 278 5 0 0 0 - - - 0;
#X obj 191 280 random 5000;
#X obj 284 281 random 10;
#X obj 284 305 + 10;
#X obj 536 254 + 200;
#X obj 261 67 loadbang;
#X obj 181 112 random 10;
#X obj 181 136 + 16;
#X obj 435 68 inlet;
#X obj 288 514 outlet~;
#X obj 536 230 random 300;
#X obj 163 208 expr~ if($v1 > 0.5 \, 1 \, -1);
#X obj 191 304 + 1000;
#X obj 163 235 hip~ 2000;
#X connect 0 0 1 2;
#X connect 1 0 3 0;
#X connect 2 0 22 0;
#X connect 3 0 20 0;
#X connect 4 0 5 0;
#X connect 4 0 6 0;
#X connect 5 0 10 0;
#X connect 6 0 7 0;
#X connect 7 0 10 0;
#X connect 8 0 9 0;
#X connect 8 0 9 1;
#X connect 9 0 3 1;
#X connect 10 0 8 0;
#X connect 10 0 8 1;
#X connect 11 0 7 1;
#X connect 12 0 23 0;
#X connect 13 0 14 0;
#X connect 14 0 0 0;
#X connect 15 0 11 0;
#X connect 16 0 17 0;
#X connect 16 0 13 0;
#X connect 16 0 12 0;
#X connect 16 0 21 0;
#X connect 17 0 18 0;
#X connect 18 0 2 0;
#X connect 19 0 4 0;
#X connect 21 0 15 0;
#X connect 22 0 24 0;
#X connect 23 0 1 1;
#X connect 24 0 1 0;
