#N canvas 0 0 1280 778 10;
#N canvas 380 0 900 778 kick_synth 0;
#X floatatom 287 137 5 0 0 0 - - -;
#X text 268 164 fDec = 250;
#X floatatom 292 356 5 0 0 0 - - -;
#X text 327 360 pScale = 1;
#X obj 233 401 *~ 1;
#X obj 233 422 phasor~;
#X obj 221 132 bng 15 250 50 0 empty empty empty 17 7 0 10 -262144
-1 -1;
#X obj 233 442 expr~ if ($v1 > 0.5 \, 0 \, 1);
#X obj 265 471 noise~;
#X floatatom 406 356 5 0 0 0 - - -;
#X obj 339 413 *~ 1.5;
#X obj 236 514 vcf~ 0.5;
#X obj 370 699 *~;
#X obj 357 535 osc~;
#X floatatom 494 447 5 0 0 0 - - -;
#X obj 356 504 *~ 1;
#X obj 221 160 f 250;
#X obj 221 109 inlet;
#X text 219 88 trig;
#X obj 287 117 inlet;
#X text 287 95 decay time;
#X obj 292 325 inlet;
#X text 290 305 pitchScale;
#X text 406 318 filterScale;
#X obj 406 332 inlet;
#X text 447 427 sineVol;
#X obj 370 720 outlet~;
#X obj 494 426 inlet;
#N canvas 0 23 450 300 vol_env 0;
#X obj 125 167 vline~;
#X obj 125 188 *~;
#X msg 115 115 0.5 \, 1 5 \, 0.5 60 5 \, 0 \$1 65;
#X obj 108 69 inlet;
#X obj 125 209 outlet~;
#X connect 0 0 1 0;
#X connect 0 0 1 1;
#X connect 1 0 4 0;
#X connect 2 0 0 0;
#X connect 3 0 2 0;
#X restore 51 502 pd vol_env;
#N canvas 0 23 450 300 pitch_env 0;
#X obj 37 37 inlet;
#X obj 33 107 vline~;
#X obj 36 222 mtof~;
#X msg 36 73 1 \, 0.5 5 \, 0 \$1 5;
#X obj 33 155 *~ 80;
#X obj 33 176 +~ 29;
#X obj 33 128 *~;
#X obj 36 243 outlet~;
#X connect 0 0 3 0;
#X connect 1 0 6 0;
#X connect 1 0 6 1;
#X connect 2 0 7 0;
#X connect 3 0 1 0;
#X connect 4 0 5 0;
#X connect 5 0 2 0;
#X connect 6 0 4 0;
#X restore 221 247 pd pitch_env;
#X obj 670 353 loadbang;
#X obj 736 405 mtof;
#X obj 780 480 + 10;
#X obj 639 531 samphold~;
#X obj 699 505 phasor~;
#X obj 720 532 samphold~;
#X obj 780 506 phasor~;
#X obj 783 405 random 100;
#X text 698 455 SAMPLE CRUSHING;
#X obj 680 575 *~ 0.7;
#X text 637 258 LFO, f 4;
#X obj 604 307 +~ 1;
#X obj 604 333 *~ 0.5;
#X obj 604 283 osc~ 0.01;
#X obj 578 405 vcf~, f 8;
#X obj 604 382 +~ 100;
#X obj 604 358 *~ 100;
#X obj 578 429 *~ 0.1;
#X obj 580 256 noise~;
#X obj 578 455 *~ 5;
#X msg 775 381 30;
#X obj 735 258 inlet;
#X obj 657 382 random 2;
#X obj 657 406 + 3;
#X obj 308 570 +~;
#X text 733 237 CRUSH;
#X obj 283 699 *~;
#X obj 283 720 outlet~;
#X text 274 749 clean out;
#X text 362 747 crush out;
#X obj 736 381 + 1;
#X connect 0 0 16 1;
#X connect 2 0 4 1;
#X connect 4 0 5 0;
#X connect 5 0 7 0;
#X connect 6 0 16 0;
#X connect 7 0 11 0;
#X connect 8 0 11 0;
#X connect 9 0 10 1;
#X connect 10 0 11 1;
#X connect 11 1 54 0;
#X connect 12 0 26 0;
#X connect 13 0 54 1;
#X connect 14 0 15 1;
#X connect 15 0 13 0;
#X connect 16 0 28 0;
#X connect 16 0 29 0;
#X connect 17 0 6 0;
#X connect 19 0 0 0;
#X connect 21 0 2 0;
#X connect 24 0 9 0;
#X connect 27 0 14 0;
#X connect 28 0 12 0;
#X connect 28 0 56 0;
#X connect 29 0 4 0;
#X connect 29 0 10 0;
#X connect 29 0 15 0;
#X connect 30 0 37 0;
#X connect 30 0 50 0;
#X connect 30 0 52 0;
#X connect 31 0 32 0;
#X connect 31 0 34 0;
#X connect 32 0 36 0;
#X connect 33 0 39 0;
#X connect 34 0 33 1;
#X connect 35 0 39 0;
#X connect 36 0 35 1;
#X connect 37 0 32 1;
#X connect 39 0 12 1;
#X connect 41 0 42 0;
#X connect 42 0 46 0;
#X connect 43 0 41 0;
#X connect 44 0 47 0;
#X connect 45 0 44 1;
#X connect 46 0 45 0;
#X connect 47 0 49 0;
#X connect 48 0 44 0;
#X connect 49 0 33 0;
#X connect 49 0 35 0;
#X connect 50 0 31 0;
#X connect 51 0 60 0;
#X connect 52 0 53 0;
#X connect 53 0 44 2;
#X connect 54 0 35 0;
#X connect 54 0 33 0;
#X connect 54 0 56 1;
#X connect 56 0 57 0;
#X connect 60 0 31 0;
#X restore 111 223 pd kick_synth;
#X f 34;
#X obj 88 182 bng 15 250 50 0 empty empty empty 17 7 0 10 -258113 -1
-1;
#X obj 242 493 dac~;
#X obj 88 160 r kick;
#X obj 122 52 tgl 15 0 empty empty empty 17 7 0 10 -262144 -1 -1 0
1;
#X obj 122 94 s kick;
#X obj 155 344 abs;
#X obj 155 320 - 1;
#X obj 154 368 *~;
#X obj 183 367 *~;
#X msg 185 320 0.5;
#X obj 496 390 hsl 64 16 0 1 0 0 empty empty crush -2 -10 0 12 -261234
-1 -1 3408 1;
#X obj 577 408 hsl 64 16 0 1 0 0 empty empty crush-amt -2 -10 0 12
-262130 -1 -1 2835 1;
#X obj 961 600 hsl 64 16 0 1 0 0 empty empty tone -2 -8 0 10 -204800
-1 -1 0 1;
#X obj 918 646 s tone;
#X obj 235 454 *~;
#X obj 749 387 hsl 64 16 0 1 0 0 empty empty vol -2 -8 0 10 -228856
-1 -1 6 1;
#X obj 958 549 ctlin 24;
#X obj 493 336 ctlin 25;
#X obj 574 355 ctlin 26;
#X obj 747 359 / 127;
#X obj 747 338 ctlin 27;
#X obj 574 376 / 127;
#X obj 493 357 / 127;
#X obj 958 570 / 127;
#X obj 887 580 random 100;
#X obj 122 73 metro 500;
#X obj 887 601 / 200;
#X obj 918 624 +;
#X obj 493 415 * 35;
#X obj 887 558 r kick;
#X obj 493 284 random 1000;
#X obj 493 304 / 1000;
#X obj 738 200 r kick;
#X obj 572 284 random 1000;
#X obj 572 304 / 1000;
#X obj 547 61 r stoc-bang;
#X obj 534 149 s kick;
#X text 589 562 control groups of parameters with knobs;
#X text 565 578 (like to TONE one here but for all of them);
#X text 552 636 use probabilities to make some mappings more common
;
#X text 613 660 eg. high number of clicks is rare;
#X text 573 685 kick more likely on more important beats;
#X obj 547 81 random 2;
#X obj 547 101 sel 1;
#X obj 582 149 s click;
#X obj 582 129 bng 15 250 50 0 empty empty empty 17 7 0 10 -262144
-1 -1;
#X obj 665 389 hsl 64 16 0 1 0 0 empty empty pan -2 -10 0 12 -232576
-1 -1 5210 1;
#X floatatom 297 338 5 0 0 0 - - -;
#X obj 253 339 * -1;
#X obj 253 363 + 1;
#X floatatom 253 387 5 0 0 0 - - -;
#X obj 233 420 *~;
#X obj 273 420 *~;
#X obj 265 455 *~;
#X obj 663 284 random 1000;
#X obj 663 304 / 1000;
#X obj 747 284 random 1000;
#X obj 747 304 / 1000;
#X obj 185 300 loadbang;
#X obj 534 129 bng 15 250 50 0 empty empty empty 17 7 0 10 -262144
-1 -1;
#X obj 299 454 r kick-vol;
#X obj 746 408 s kick-vol;
#X obj 839 401 hsl 64 15 50 700 0 0 empty empty decay -2 -8 0 10 -204786
-1 -1 3043 1;
#X obj 1009 401 hsl 64 15 0.1 2 0 0 empty empty filter_scale -2 -8
0 10 -261682 -1 -1 5272 1;
#X obj 925 401 hsl 64 15 0.1 1.7 0 0 empty empty pitch_scale -2 -8
0 10 -203904 -1 -1 3668 1;
#X obj 1095 401 hsl 64 15 0 1 0 0 empty empty sine_scale -2 -8 0 10
-257985 -1 -1 6262 1;
#X obj 836 304 + 50;
#X obj 922 345 + 0.1;
#X obj 922 304 / 1000;
#X obj 922 284 random 1000;
#X obj 1006 345 + 0.1;
#X obj 1006 304 / 1000;
#X obj 1006 284 random 1000;
#X obj 1092 285 random 1000;
#X obj 1092 305 / 1000;
#X obj 1006 324 * 2;
#X obj 836 284 random 700;
#X obj 922 324 * 1.7;
#X obj 836 421 s kick-decay;
#X obj 662 410 s kick-pan;
#X obj 297 318 r kick-pan;
#X obj 574 435 s kick-crush-amt;
#X obj 155 276 r kick-crush-amt;
#X obj 493 436 s kick-crush;
#X obj 312 199 r kick-crush;
#X obj 922 421 s kick-pitch;
#X obj 1006 421 s kick-filter;
#X obj 1092 421 s kick-sine;
#X obj 149 162 r kick-decay;
#X obj 164 185 r kick-pitch;
#X obj 231 161 r kick-filter;
#X obj 249 182 r kick-sine;
#X text 847 497 change all params like this;
#X text 871 518 control them with knobs;
#X text 673 56 change this control system to one based on probabilities
;
#X text 666 79 decide kick or click based on probabilities and subdivisions
;
#X text 692 102 eg. upbeat/downbeat \, 4th/8th/16th note...;
#X text 535 33 CONTROL SYSTEM;
#X connect 0 0 8 0;
#X connect 0 1 9 0;
#X connect 1 0 0 0;
#X connect 3 0 1 0;
#X connect 4 0 26 0;
#X connect 6 0 8 1;
#X connect 7 0 6 0;
#X connect 8 0 52 0;
#X connect 8 0 53 0;
#X connect 9 0 52 0;
#X connect 9 0 53 0;
#X connect 10 0 7 0;
#X connect 10 0 9 1;
#X connect 11 0 29 0;
#X connect 12 0 82 0;
#X connect 13 0 28 1;
#X connect 15 0 2 0;
#X connect 16 0 62 0;
#X connect 17 0 24 0;
#X connect 18 0 23 0;
#X connect 19 0 22 0;
#X connect 20 0 16 0;
#X connect 21 0 20 0;
#X connect 22 0 12 0;
#X connect 23 0 11 0;
#X connect 24 0 13 0;
#X connect 25 0 27 0;
#X connect 26 0 5 0;
#X connect 27 0 28 0;
#X connect 28 0 14 0;
#X connect 29 0 84 0;
#X connect 30 0 25 0;
#X connect 31 0 32 0;
#X connect 32 0 11 0;
#X connect 33 0 31 0;
#X connect 33 0 34 0;
#X connect 33 0 55 0;
#X connect 33 0 57 0;
#X connect 33 0 77 0;
#X connect 33 0 70 0;
#X connect 33 0 74 0;
#X connect 33 0 73 0;
#X connect 34 0 35 0;
#X connect 35 0 12 0;
#X connect 36 0 43 0;
#X connect 43 0 44 0;
#X connect 44 0 60 0;
#X connect 44 1 46 0;
#X connect 46 0 45 0;
#X connect 47 0 80 0;
#X connect 48 0 49 0;
#X connect 48 0 53 1;
#X connect 49 0 50 0;
#X connect 50 0 51 0;
#X connect 51 0 52 1;
#X connect 52 0 15 0;
#X connect 53 0 54 0;
#X connect 54 0 2 1;
#X connect 55 0 56 0;
#X connect 56 0 47 0;
#X connect 57 0 58 0;
#X connect 58 0 16 0;
#X connect 59 0 10 0;
#X connect 60 0 37 0;
#X connect 61 0 54 1;
#X connect 61 0 15 1;
#X connect 63 0 79 0;
#X connect 64 0 87 0;
#X connect 65 0 86 0;
#X connect 66 0 88 0;
#X connect 67 0 63 0;
#X connect 68 0 65 0;
#X connect 69 0 78 0;
#X connect 70 0 69 0;
#X connect 71 0 64 0;
#X connect 72 0 76 0;
#X connect 73 0 72 0;
#X connect 74 0 75 0;
#X connect 75 0 66 0;
#X connect 76 0 71 0;
#X connect 77 0 67 0;
#X connect 78 0 68 0;
#X connect 81 0 48 0;
#X connect 83 0 7 0;
#X connect 83 0 9 1;
#X connect 85 0 0 5;
#X connect 89 0 0 1;
#X connect 90 0 0 2;
#X connect 91 0 0 3;
#X connect 92 0 0 4;
