#N canvas 63 63 886 673 12;
#X floatatom 135 111 5 0 0 0 - - - 0;
#X text 121 138 fDec = 250;
#X floatatom 231 109 5 0 0 0 - - - 0;
#X text 225 129 pScale = 1;
#X obj 212 252 *~ 1;
#X obj 212 277 phasor~;
#X obj 75 114 bng 15 250 50 0 empty empty empty 17 7 0 10 #fcfcfc #000000 #000000;
#X obj 212 302 expr~ if ($v1 > 0.5 \, 0 \, 1);
#X obj 161 302 noise~;
#X floatatom 333 109 5 0 0 0 - - - 0;
#X obj 241 349 *~ 1.5;
#X obj 215 378 vcf~ 0.5;
#X obj 364 547 *~;
#X obj 297 378 osc~;
#X floatatom 430 110 5 0 0 0 - - - 0;
#X obj 297 350 *~ 1;
#X obj 75 137 f 250;
#X obj 75 88 inlet;
#X obj 135 88 inlet;
#X text 135 66 decay time;
#X obj 231 86 inlet;
#X text 229 66 pitchScale;
#X text 321 67 filterScale;
#X obj 333 85 inlet;
#X text 421 65 sineVol;
#X obj 364 571 outlet~;
#X obj 430 87 inlet;
#N canvas 199 54 300 212 vol_env 1;
#X obj 69 99 vline~;
#X obj 69 123 *~;
#X msg 69 74 0.5 \, 1 5 \, 0.5 60 5 \, 0 \$1 65;
#X obj 69 48 inlet;
#X obj 69 146 outlet~;
#X connect 0 0 1 0;
#X connect 0 0 1 1;
#X connect 1 0 4 0;
#X connect 2 0 0 0;
#X connect 3 0 2 0;
#X restore 76 302 pd vol_env;
#N canvas 0 23 192 289 pitch_env 0;
#X obj 52 59 inlet;
#X obj 52 108 vline~;
#X obj 52 201 mtof~;
#X msg 52 84 1 \, 0.5 5 \, 0 \$1 5;
#X obj 52 154 *~ 80;
#X obj 52 175 +~ 29;
#X obj 52 129 *~;
#X obj 52 222 outlet~;
#X connect 0 0 3 0;
#X connect 1 0 6 0;
#X connect 1 0 6 1;
#X connect 2 0 7 0;
#X connect 3 0 1 0;
#X connect 4 0 5 0;
#X connect 5 0 2 0;
#X connect 6 0 4 0;
#X restore 212 223 pd pitch_env;
#X obj 614 208 loadbang;
#X obj 680 260 mtof;
#X obj 724 335 + 10;
#X obj 583 386 samphold~;
#X obj 643 360 phasor~;
#X obj 664 387 samphold~;
#X obj 724 361 phasor~;
#X obj 727 260 random 100;
#X text 642 310 SAMPLE CRUSHING;
#X obj 624 430 *~ 0.7;
#X text 578 110 LFO, f 4;
#X obj 548 162 +~ 1;
#X obj 548 188 *~ 0.5;
#X obj 548 138 osc~ 0.01;
#X obj 522 260 vcf~, f 8;
#X obj 548 237 +~ 100;
#X obj 548 213 *~ 100;
#X obj 522 284 *~ 0.1;
#X obj 523 111 noise~;
#X obj 522 310 *~ 5;
#X msg 719 236 30;
#X obj 679 87 inlet;
#X obj 601 237 random 2;
#X obj 601 261 + 3;
#X obj 272 411 +~;
#X text 677 66 CRUSH;
#X obj 236 546 *~;
#X obj 236 570 outlet~;
#X text 227 599 clean out;
#X text 356 598 crush out;
#X obj 680 236 + 1;
#X text 64 67 trigger;
#X connect 0 0 16 1;
#X connect 2 0 4 1;
#X connect 4 0 5 0;
#X connect 5 0 7 0;
#X connect 6 0 16 0;
#X connect 7 0 11 0;
#X connect 8 0 11 0;
#X connect 9 0 10 1;
#X connect 10 0 11 1;
#X connect 11 1 53 0;
#X connect 12 0 25 0;
#X connect 13 0 53 1;
#X connect 14 0 15 1;
#X connect 15 0 13 0;
#X connect 16 0 27 0;
#X connect 16 0 28 0;
#X connect 17 0 6 0;
#X connect 18 0 0 0;
#X connect 20 0 2 0;
#X connect 23 0 9 0;
#X connect 26 0 14 0;
#X connect 27 0 12 0;
#X connect 27 0 55 0;
#X connect 28 0 4 0;
#X connect 28 0 10 0;
#X connect 28 0 15 0;
#X connect 29 0 36 0;
#X connect 29 0 49 0;
#X connect 29 0 51 0;
#X connect 30 0 31 0;
#X connect 30 0 33 0;
#X connect 31 0 35 0;
#X connect 32 0 38 0;
#X connect 33 0 32 1;
#X connect 34 0 38 0;
#X connect 35 0 34 1;
#X connect 36 0 31 1;
#X connect 38 0 12 1;
#X connect 40 0 41 0;
#X connect 41 0 45 0;
#X connect 42 0 40 0;
#X connect 43 0 46 0;
#X connect 44 0 43 1;
#X connect 45 0 44 0;
#X connect 46 0 48 0;
#X connect 47 0 43 0;
#X connect 48 0 32 0;
#X connect 48 0 34 0;
#X connect 49 0 30 0;
#X connect 50 0 59 0;
#X connect 51 0 52 0;
#X connect 52 0 43 2;
#X connect 53 0 34 0;
#X connect 53 0 32 0;
#X connect 53 0 55 1;
#X connect 55 0 56 0;
#X connect 59 0 30 0;
