#N canvas 0 0 1376 872 10;
#X obj 88 182 bng 15 250 50 0 empty empty empty 17 7 0 10 #fc0400 #000000 #000000;
#X obj 88 160 r kick;
#X obj 100 44 tgl 15 0 empty empty empty 17 7 0 10 #fcfcfc #000000 #000000 0 1;
#X obj 100 86 s kick;
#X obj 155 344 abs;
#X obj 155 320 - 1;
#X obj 154 368 *~;
#X obj 183 367 *~;
#X msg 185 320 0.5;
#X obj 1080 505 hsl 64 16 0 1 0 0 empty empty crush -2 -10 0 12 #fcc4c4 #000000 #000000 0 1;
#X obj 1177 505 hsl 64 16 0 1 0 0 empty empty crush-amt -2 -10 0 12 #fcfcc4 #000000 #000000 0 1;
#X obj 991 505 hsl 64 16 0 1 0 0 empty empty tone -2 -8 0 10 #c4fcfc #000000 #000000 0 1;
#X obj 224 635 *~;
#X obj 761 307 hsl 64 16 0 1 0 0 empty empty vol -2 -8 0 10 #dcdcdc #000000 #000000 0 1;
#X obj 988 454 ctlin 24;
#X obj 1077 451 ctlin 25;
#X obj 1174 452 ctlin 26;
#X obj 759 279 / 127;
#X obj 759 258 ctlin 27;
#X obj 1174 473 / 127;
#X obj 1077 472 / 127;
#X obj 988 475 / 127;
#X obj 911 485 random 100;
#X obj 100 65 metro 500;
#X obj 911 506 / 200;
#X obj 942 529 +;
#X obj 1077 530 * 35;
#X obj 911 463 r kick;
#X obj 749 50 r kick;
#X text 594 429 control groups of parameters with knobs;
#X text 570 445 (like to TONE one here but for all of them);
#X text 557 503 use probabilities to make some mappings more common;
#X text 618 527 eg. high number of clicks is rare;
#X text 578 552 kick more likely on more important beats;
#X obj 676 239 hsl 64 16 0 1 0 0 empty empty pan -2 -10 0 12 #e0c4fc #000000 #000000 0 1;
#X floatatom 297 338 5 0 0 0 - - - 0;
#X obj 253 339 * -1;
#X obj 253 363 + 1;
#X floatatom 253 387 5 0 0 0 - - - 0;
#X obj 233 420 *~;
#X obj 273 420 *~;
#X obj 276 635 *~;
#X obj 673 134 random 1000;
#X obj 673 154 / 1000;
#X obj 758 134 random 1000;
#X obj 185 300 loadbang;
#X obj 314 634 r kick-vol;
#X obj 758 328 s kick-vol;
#X obj 850 251 hsl 64 15 50 700 0 0 empty empty decay -2 -8 0 10 #c4fcc4 #000000 #000000 0 1;
#X obj 1020 251 hsl 64 15 0.1 2 0 0 empty empty filter_scale -2 -8 0 10 #fce0c4 #000000 #000000 0 1;
#X obj 936 251 hsl 64 15 0.1 1.7 0 0 empty empty pitch_scale -2 -8 0 10 #c4c4fc #000000 #000000 0 1;
#X obj 1106 251 hsl 64 15 0 1 0 0 empty empty sine_scale -2 -8 0 10 #f8fc00 #000000 #000000 0 1;
#X obj 847 154 + 50;
#X obj 933 195 + 0.1;
#X obj 933 154 / 1000;
#X obj 933 134 random 1000;
#X obj 1017 195 + 0.1;
#X obj 1017 154 / 1000;
#X obj 1017 134 random 1000;
#X obj 1103 135 random 1000;
#X obj 1103 155 / 1000;
#X obj 1017 174 * 2;
#X obj 933 174 * 1.7;
#X obj 847 271 s kick-decay;
#X obj 673 260 s kick-pan;
#X obj 297 318 r kick-pan;
#X obj 1174 532 s kick-crush-amt;
#X obj 155 276 r kick-crush-amt;
#X obj 1077 551 s kick-crush;
#X obj 312 199 r kick-crush;
#X obj 933 271 s kick-pitch;
#X obj 1017 271 s kick-filter;
#X obj 1103 271 s kick-sine;
#X obj 149 162 r kick-decay;
#X obj 164 185 r kick-pitch;
#X obj 231 161 r kick-filter;
#X obj 249 182 r kick-sine;
#X text 871 402 change all params like this;
#X text 895 423 control them with knobs;
#X obj 111 223 kick_crush~, f 34;
#X obj 758 154 / 2000;
#X obj 758 175 + 0.5;
#X obj 1196 134 random 1000;
#X obj 1196 155 / 1000;
#X obj 1199 234 hsl 64 16 0 1 0 0 empty empty rev\ amt -2 -8 0 10 #00faff #000000 #000000 0 1;
#X obj 1196 255 s rev-amt;
#X obj 212 451 rev2~ 100 80 3000 20;
#X obj 284 478 rev2~ 100 80 3000 20;
#X floatatom 144 512 5 0 0 0 - - - 0;
#X obj 103 513 * -1;
#X obj 103 537 + 1;
#X floatatom 103 561 5 0 0 0 - - - 0;
#X obj 88 584 *~;
#X obj 128 584 *~;
#X obj 144 492 r rev-amt;
#X floatatom 341 527 5 0 0 0 - - - 0;
#X obj 300 528 * -1;
#X obj 300 552 + 1;
#X floatatom 300 576 5 0 0 0 - - - 0;
#X obj 285 599 *~;
#X obj 325 599 *~;
#X obj 341 507 r rev-amt;
#X obj 1196 197 + 0.3;
#X obj 1196 176 * 0.1;
#X obj 276 658 limiter;
#X obj 224 658 limiter;
#X obj 941 590 ctlin 27;
#X obj 941 611 / 127;
#X obj 943 644 hsl 64 16 0 1 0 0 empty empty vol -2 -8 0 10 #dcdcdc #000000 #000000 0 1;
#X obj 940 665 s kick-vol;
#X obj 175 68 bng 16 250 50 0 empty empty empty 0 -8 0 10 #fcfcfc #000000 #000000;
#X obj 942 551 s kick-pitch;
#X obj 529 650 midiin;
#X floatatom 529 671 5 0 0 0 - - - 0;
#X obj 177 724 throw~ bus-L;
#X obj 284 726 throw~ bus-R;
#X obj 419 735 dac~;
#X obj 449 342 hsl 136 16 1 16 0 0 empty empty empty -2 -8 0 10 #fcfcfc #000000 #000000 0 1;
#X obj 847 134 random 1000;
#X connect 0 0 79 0;
#X connect 1 0 0 0;
#X connect 2 0 23 0;
#X connect 4 0 6 1;
#X connect 5 0 4 0;
#X connect 6 0 39 0;
#X connect 6 0 40 0;
#X connect 7 0 39 0;
#X connect 7 0 40 0;
#X connect 8 0 5 0;
#X connect 8 0 7 1;
#X connect 9 0 26 0;
#X connect 10 0 66 0;
#X connect 11 0 25 1;
#X connect 12 0 105 0;
#X connect 13 0 47 0;
#X connect 14 0 21 0;
#X connect 15 0 20 0;
#X connect 16 0 19 0;
#X connect 17 0 13 0;
#X connect 18 0 17 0;
#X connect 19 0 10 0;
#X connect 20 0 9 0;
#X connect 21 0 11 0;
#X connect 22 0 24 0;
#X connect 23 0 3 0;
#X connect 24 0 25 0;
#X connect 25 0 111 0;
#X connect 26 0 68 0;
#X connect 27 0 22 0;
#X connect 28 0 42 0;
#X connect 28 0 59 0;
#X connect 28 0 58 0;
#X connect 28 0 82 0;
#X connect 28 0 118 0;
#X connect 34 0 64 0;
#X connect 35 0 36 0;
#X connect 35 0 40 1;
#X connect 36 0 37 0;
#X connect 37 0 38 0;
#X connect 38 0 39 1;
#X connect 39 0 86 0;
#X connect 39 0 92 0;
#X connect 40 0 87 0;
#X connect 40 0 99 0;
#X connect 41 0 104 0;
#X connect 42 0 43 0;
#X connect 43 0 34 0;
#X connect 44 0 80 0;
#X connect 45 0 8 0;
#X connect 46 0 41 1;
#X connect 46 0 12 1;
#X connect 48 0 63 0;
#X connect 49 0 71 0;
#X connect 50 0 70 0;
#X connect 51 0 72 0;
#X connect 52 0 48 0;
#X connect 53 0 50 0;
#X connect 54 0 62 0;
#X connect 55 0 54 0;
#X connect 56 0 49 0;
#X connect 57 0 61 0;
#X connect 58 0 57 0;
#X connect 59 0 60 0;
#X connect 60 0 51 0;
#X connect 61 0 56 0;
#X connect 62 0 53 0;
#X connect 65 0 35 0;
#X connect 67 0 5 0;
#X connect 67 0 7 1;
#X connect 69 0 79 5;
#X connect 73 0 79 1;
#X connect 74 0 79 2;
#X connect 75 0 79 3;
#X connect 76 0 79 4;
#X connect 79 0 6 0;
#X connect 79 1 7 0;
#X connect 79 2 6 0;
#X connect 80 0 81 0;
#X connect 81 0 13 0;
#X connect 82 0 83 0;
#X connect 83 0 103 0;
#X connect 84 0 85 0;
#X connect 86 0 93 0;
#X connect 86 1 93 0;
#X connect 87 0 100 0;
#X connect 87 1 100 0;
#X connect 88 0 89 0;
#X connect 88 0 93 1;
#X connect 89 0 90 0;
#X connect 90 0 91 0;
#X connect 91 0 92 1;
#X connect 92 0 12 0;
#X connect 93 0 12 0;
#X connect 94 0 88 0;
#X connect 95 0 96 0;
#X connect 95 0 100 1;
#X connect 96 0 97 0;
#X connect 97 0 98 0;
#X connect 98 0 99 1;
#X connect 99 0 41 0;
#X connect 100 0 41 0;
#X connect 101 0 95 0;
#X connect 103 0 102 0;
#X connect 104 0 115 0;
#X connect 104 0 116 1;
#X connect 105 0 114 0;
#X connect 105 0 116 0;
#X connect 106 0 107 0;
#X connect 107 0 108 0;
#X connect 108 0 109 0;
#X connect 110 0 3 0;
#X connect 112 0 113 0;
#X connect 117 0 79 6;
#X connect 118 0 52 0;
