#N canvas 0 38 1512 916 12;
#X text 86 61 - stutter;
#X text 87 81 - double feedback;
#X text 87 102 - bitcrush;
#X text 87 123 - overdrive;
#X text 87 144 - waveshape;
#X obj 1171 553 +~;
#X obj 1189 525 *~ 0.7;
#X floatatom 1189 473 5 0 0 0 - - - 0;
#X obj 1224 579 +~;
#X obj 1242 551 *~ 0.7;
#X obj 1189 498 delread~ \$0-del-R 160;
#X obj 1171 606 delwrite~ \$0-del-L 2000;
#X obj 1224 631 delwrite~ \$0-del-R 2000;
#X obj 1242 524 delread~ \$0-del-L 160;
#X floatatom 1281 472 5 0 0 0 - - - 0;
#X text 1239 301 STEREO DELAY;
#X obj 1190 424 * 300;
#X obj 1190 448 + 70;
#X obj 1193 382 hsl 64 19 0 1 0 0 empty empty sd-del-time -2 -10 0 12 #e3c6ff #000000 #000000 0 1;
#X obj 1284 381 hsl 64 19 0 1.1 0 0 empty empty sd-del-feedback -2 -10 0 12 #c7c6ff #000000 #000000 0 1;
#X obj 1095 683 limiter;
#X obj 1157 683 limiter;
#X obj 441 165 int;
#X floatatom 441 189 5 0 0 0 - - - 0;
#X obj 441 212 expr pow(2 \, $f1) - 1;
#X floatatom 441 236 5 0 0 0 - - - 0;
#X obj 441 259 expr 1 / $f1;
#X floatatom 441 283 5 0 0 0 - - - 0;
#X obj 290 307 expr~ round($v1 / $f2);
#X obj 290 331 *~;
#X text 429 115 BIT CRUSH;
#X obj 792 186 loadbang;
#X obj 858 238 mtof;
#X obj 902 313 + 10;
#X obj 761 364 samphold~;
#X obj 821 338 phasor~;
#X obj 842 365 samphold~;
#X obj 902 339 phasor~;
#X obj 905 238 random 100;
#X text 820 288 SAMPLE CRUSHING;
#X obj 802 408 *~ 0.7;
#X text 756 88 LFO, f 4;
#X obj 726 140 +~ 1;
#X obj 726 166 *~ 0.5;
#X obj 726 116 osc~ 0.01;
#X obj 700 238 vcf~, f 8;
#X obj 726 215 +~ 100;
#X obj 726 191 *~ 100;
#X obj 700 262 *~ 0.1;
#X obj 701 89 noise~;
#X obj 700 288 *~ 5;
#X msg 897 214 30;
#X obj 779 215 random 2;
#X obj 779 239 + 3;
#X obj 858 214 + 1;
#X text 789 49 SAMPLE CRUSH;
#X obj 444 142 hsl 162 19 0 8 0 0 empty empty empty -2 -10 0 12 #fcfcfc #000000 #000000 0 1;
#X obj 760 770 stutter;
#X obj 808 689 tgl 40 0 empty empty empty 0 -10 0 12 #fcfcfc #000000 #000000 0 1;
#X obj 863 87 hsl 162 19 0 127 0 0 empty empty empty -2 -10 0 12 #fcfcfc #000000 #000000 0 1;
#X obj 294 91 oversat~;
#X obj 295 59 inlet~;
#X floatatom 378 386 5 0 0 0 - - - 0;
#X obj 378 409 * -1;
#X obj 378 433 + 1;
#X floatatom 378 457 5 0 0 0 - - - 0;
#X obj 299 495 *~;
#X obj 339 495 *~;
#X obj 381 358 hsl 162 19 0 1 0 0 empty empty empty -2 -10 0 12 #fcfcfc #000000 #000000 0 1;
#X obj 358 60 hsl 162 19 0 127 0 0 empty empty empty -2 -10 0 12 #fcfcfc #000000 #000000 0 1;
#X obj 324 545 +~;
#X floatatom 882 453 5 0 0 0 - - - 0;
#X obj 882 476 * -1;
#X obj 882 500 + 1;
#X floatatom 882 524 5 0 0 0 - - - 0;
#X obj 803 562 *~;
#X obj 843 562 *~;
#X obj 885 425 hsl 162 19 0 1 0 0 empty empty empty -2 -10 0 12 #fcfcfc #000000 #000000 0 1;
#X obj 818 604 +~;
#X obj 1095 707 outlet~;
#X obj 1157 707 outlet~;
#X connect 5 0 11 0;
#X connect 5 0 20 0;
#X connect 6 0 5 1;
#X connect 7 0 10 0;
#X connect 7 0 13 0;
#X connect 8 0 12 0;
#X connect 8 0 21 0;
#X connect 9 0 8 1;
#X connect 10 0 6 0;
#X connect 13 0 9 0;
#X connect 14 0 9 1;
#X connect 14 0 6 1;
#X connect 16 0 17 0;
#X connect 17 0 7 0;
#X connect 18 0 16 0;
#X connect 19 0 14 0;
#X connect 20 0 79 0;
#X connect 21 0 80 0;
#X connect 22 0 23 0;
#X connect 23 0 24 0;
#X connect 24 0 25 0;
#X connect 25 0 26 0;
#X connect 26 0 27 0;
#X connect 27 0 28 1;
#X connect 27 0 29 1;
#X connect 28 0 29 0;
#X connect 29 0 66 0;
#X connect 29 0 67 0;
#X connect 31 0 38 0;
#X connect 31 0 51 0;
#X connect 31 0 52 0;
#X connect 32 0 33 0;
#X connect 32 0 35 0;
#X connect 33 0 37 0;
#X connect 34 0 40 0;
#X connect 35 0 34 1;
#X connect 36 0 40 0;
#X connect 37 0 36 1;
#X connect 38 0 33 1;
#X connect 40 0 76 0;
#X connect 42 0 43 0;
#X connect 43 0 47 0;
#X connect 44 0 42 0;
#X connect 45 0 48 0;
#X connect 46 0 45 1;
#X connect 47 0 46 0;
#X connect 48 0 50 0;
#X connect 49 0 45 0;
#X connect 50 0 34 0;
#X connect 50 0 36 0;
#X connect 51 0 32 0;
#X connect 52 0 53 0;
#X connect 53 0 45 2;
#X connect 54 0 32 0;
#X connect 56 0 22 0;
#X connect 57 0 5 0;
#X connect 57 1 8 0;
#X connect 58 0 57 2;
#X connect 59 0 54 0;
#X connect 60 0 28 0;
#X connect 61 0 60 0;
#X connect 62 0 63 0;
#X connect 62 0 67 1;
#X connect 63 0 64 0;
#X connect 64 0 65 0;
#X connect 65 0 66 1;
#X connect 66 0 70 0;
#X connect 67 0 70 1;
#X connect 68 0 62 0;
#X connect 69 0 60 1;
#X connect 70 0 34 0;
#X connect 70 0 36 0;
#X connect 70 0 75 0;
#X connect 71 0 72 0;
#X connect 71 0 76 1;
#X connect 72 0 73 0;
#X connect 73 0 74 0;
#X connect 74 0 75 1;
#X connect 75 0 78 0;
#X connect 76 0 78 1;
#X connect 77 0 71 0;
#X connect 78 0 57 0;
#X connect 78 0 57 1;
