#N canvas 82 171 823 461 12;
#X obj 234 165 wrap~;
#X obj 234 141 *~ 2;
#X obj 141 165 wrap~;
#X obj 141 141 *~ 3;
#X obj 326 141 *~ 1;
#X obj 326 165 wrap~;
#X obj 220 257 sig~;
#X obj 196 286 vcf~ 10;
#X obj 220 207 loadbang;
#X msg 220 231 500;
#X obj 201 319 outlet~;
#X obj 141 117 vphasor.mmb~;
#X obj 234 117 vphasor.mmb~;
#X obj 326 117 vphasor.mmb~;
#X obj 528 151 loadbang;
#X obj 594 179 + 30;
#X obj 594 203 mtof;
#X obj 638 278 + 10;
#X obj 497 334 samphold~;
#X obj 557 303 phasor~;
#X obj 578 335 samphold~;
#X obj 638 304 phasor~;
#X obj 641 203 random 100;
#X text 556 253 SAMPLE CRUSHING;
#X obj 538 373 *~ 0.7;
#X obj 538 399 outlet~;
#X text 495 56 LFO, f 4;
#X obj 462 105 +~ 1;
#X obj 462 131 *~ 0.5;
#X obj 462 81 osc~ 0.01;
#X obj 436 203 vcf~, f 8;
#X obj 462 180 +~ 100;
#X obj 462 156 *~ 100;
#X obj 436 227 *~ 0.1;
#X obj 438 54 noise~;
#X obj 436 253 *~ 5;
#X obj 186 48 inlet~;
#X msg 633 179 30;
#X obj 570 47 inlet;
#X obj 515 180 random 2;
#X obj 515 204 + 3;
#X obj 176 257 -~ 1;
#X obj 705 46 inlet;
#X obj 176 233 /~ 2;
#X obj 652 47 inlet~;
#X connect 0 0 43 0;
#X connect 1 0 0 0;
#X connect 2 0 43 0;
#X connect 3 0 2 0;
#X connect 4 0 5 0;
#X connect 5 0 43 0;
#X connect 6 0 7 1;
#X connect 7 0 10 0;
#X connect 7 0 20 0;
#X connect 7 0 18 0;
#X connect 7 1 10 0;
#X connect 7 1 18 0;
#X connect 7 1 20 0;
#X connect 8 0 9 0;
#X connect 9 0 6 0;
#X connect 11 0 3 0;
#X connect 12 0 1 0;
#X connect 13 0 4 0;
#X connect 14 0 22 0;
#X connect 14 0 37 0;
#X connect 14 0 39 0;
#X connect 15 0 16 0;
#X connect 16 0 17 0;
#X connect 16 0 19 0;
#X connect 17 0 21 0;
#X connect 18 0 24 0;
#X connect 19 0 18 1;
#X connect 20 0 24 0;
#X connect 21 0 20 1;
#X connect 22 0 17 1;
#X connect 24 0 25 0;
#X connect 27 0 28 0;
#X connect 28 0 32 0;
#X connect 29 0 27 0;
#X connect 30 0 33 0;
#X connect 31 0 30 1;
#X connect 32 0 31 0;
#X connect 33 0 35 0;
#X connect 34 0 30 0;
#X connect 35 0 18 0;
#X connect 35 0 20 0;
#X connect 36 0 11 0;
#X connect 36 0 12 0;
#X connect 36 0 13 0;
#X connect 37 0 16 0;
#X connect 38 0 15 0;
#X connect 39 0 40 0;
#X connect 40 0 30 2;
#X connect 41 0 7 0;
#X connect 42 0 7 2;
#X connect 43 0 41 0;
#X connect 44 0 7 1;
