#N canvas 63 63 866 592 12;
#X obj 342 164 osc~;
#X obj 342 189 expr~ if($v1 > 0.5 \, 1 \, -1);
#X obj 383 88 tgl 15 0 empty empty empty 17 7 0 10 #fcfcfc #000000
#000000 0 1;
#X obj 383 138 random 1000;
#X obj 383 112 metro 100;
#X obj 404 87 loadbang;
#X text 354 54 SQUARE MODULATION;
#X text 204 91 noise freq mod;
#X obj 383 162 / 500;
#X obj 278 277 *~;
#X obj 224 151 *~ 5;
#X obj 278 301 vcf~ 0.33;
#X obj 308 275 sig~;
#X obj 308 227 loadbang;
#X msg 308 251 77;
#X obj 141 208 lop~ 200;
#X obj 60 208 hip~ 50000;
#X obj 60 233 *~ 0.1;
#X obj 105 174 r~ noise3;
#X obj 224 202 triangle~;
#X obj 224 177 +~ 26;
#X obj 224 126 r~ noise2;
#X obj 342 140 + 6;
#X obj 292 368 dac~;
#X obj 292 340 *~ 1;
#X connect 0 0 1 0;
#X connect 1 0 9 1;
#X connect 2 0 4 0;
#X connect 3 0 8 0;
#X connect 4 0 3 0;
#X connect 5 0 2 0;
#X connect 8 0 22 0;
#X connect 9 0 11 0;
#X connect 10 0 20 0;
#X connect 11 0 24 0;
#X connect 11 1 24 0;
#X connect 12 0 11 1;
#X connect 13 0 14 0;
#X connect 14 0 12 0;
#X connect 15 0 9 0;
#X connect 16 0 17 0;
#X connect 17 0 9 0;
#X connect 18 0 15 0;
#X connect 18 0 16 0;
#X connect 19 0 9 0;
#X connect 20 0 19 0;
#X connect 21 0 10 0;
#X connect 22 0 0 0;
#X connect 24 0 23 0;
