#N canvas 0 0 1440 872 12;
#X obj 209 127 tgl 19 0 empty empty empty 0 -10 0 12 #fcfcfc #000000 #000000 0 1;
#X obj 209 151 metro 1000;
#X floatatom 309 154 5 0 0 0 - - - 0;
#X obj 309 106 random 2000;
#N canvas 121 121 275 332 prob-bang 0;
#X obj 64 73 bng 19 250 50 0 empty empty empty 0 -10 0 12 #fcfcfc #000000 #000000;
#X floatatom 64 149 5 0 0 0 - - - 0;
#X obj 64 223 bng 19 250 50 0 empty empty empty 0 -10 0 12 #fcfcfc #000000 #000000;
#X obj 64 198 sel 1;
#X obj 64 174 expr if($f1 < $f2 \, 1 \, 0);
#X obj 64 101 random 10000;
#X obj 64 125 / 10000;
#X obj 64 48 inlet;
#X obj 181 150 inlet;
#X obj 64 247 outlet;
#X connect 0 0 5 0;
#X connect 1 0 4 0;
#X connect 2 0 9 0;
#X connect 3 0 2 0;
#X connect 4 0 3 0;
#X connect 5 0 6 0;
#X connect 6 0 1 0;
#X connect 7 0 0 0;
#X connect 8 0 4 1;
#X restore 473 326 pd prob-bang;
#X floatatom 516 57 5 0 0 0 - - - 0;
#N canvas 121 121 275 332 prob-bang 0;
#X obj 64 73 bng 19 250 50 0 empty empty empty 0 -10 0 12 #fcfcfc #000000 #000000;
#X floatatom 64 149 5 0 0 0 - - - 0;
#X obj 64 223 bng 19 250 50 0 empty empty empty 0 -10 0 12 #fcfcfc #000000 #000000;
#X obj 64 198 sel 1;
#X obj 64 174 expr if($f1 < $f2 \, 1 \, 0);
#X obj 64 101 random 10000;
#X obj 64 125 / 10000;
#X obj 64 48 inlet;
#X obj 181 150 inlet;
#X obj 64 247 outlet;
#X connect 0 0 5 0;
#X connect 1 0 4 0;
#X connect 2 0 9 0;
#X connect 3 0 2 0;
#X connect 4 0 3 0;
#X connect 5 0 6 0;
#X connect 6 0 1 0;
#X connect 7 0 0 0;
#X connect 8 0 4 1;
#X restore 712 323 pd prob-bang;
#X obj 100 306 bng 19 250 50 0 empty empty empty 0 -10 0 12 #fcfcfc #000000 #000000;
#X obj 309 181 / 16;
#X floatatom 619 71 5 0 0 0 - - - 0;
#X obj 619 94 * -1;
#X obj 619 121 + 4;
#X obj 619 145 * -1;
#X floatatom 619 169 5 0 0 0 - - - 0;
#X obj 595 202 * 12;
#X obj 668 146 * -1;
#X floatatom 668 170 5 0 0 0 - - - 0;
#X obj 668 122 + 3;
#X obj 717 146 * -1;
#X floatatom 717 170 5 0 0 0 - - - 0;
#X obj 766 147 * -1;
#X floatatom 766 171 5 0 0 0 - - - 0;
#X obj 717 122 + 2;
#X obj 766 123 + 1;
#N canvas 121 121 275 332 prob-bang 0;
#X obj 64 73 bng 19 250 50 0 empty empty empty 0 -10 0 12 #fcfcfc #000000 #000000;
#X floatatom 64 149 5 0 0 0 - - - 0;
#X obj 64 223 bng 19 250 50 0 empty empty empty 0 -10 0 12 #fcfcfc #000000 #000000;
#X obj 64 198 sel 1;
#X obj 64 174 expr if($f1 < $f2 \, 1 \, 0);
#X obj 64 101 random 10000;
#X obj 64 125 / 10000;
#X obj 64 48 inlet;
#X obj 181 150 inlet;
#X obj 64 247 outlet;
#X connect 0 0 5 0;
#X connect 1 0 4 0;
#X connect 2 0 9 0;
#X connect 3 0 2 0;
#X connect 4 0 3 0;
#X connect 5 0 6 0;
#X connect 6 0 1 0;
#X connect 7 0 0 0;
#X connect 8 0 4 1;
#X restore 574 326 pd prob-bang;
#N canvas 121 121 275 332 prob-bang 0;
#X obj 64 73 bng 19 250 50 0 empty empty empty 0 -10 0 12 #fcfcfc #000000 #000000;
#X floatatom 64 149 5 0 0 0 - - - 0;
#X obj 64 223 bng 19 250 50 0 empty empty empty 0 -10 0 12 #fcfcfc #000000 #000000;
#X obj 64 198 sel 1;
#X obj 64 174 expr if($f1 < $f2 \, 1 \, 0);
#X obj 64 101 random 10000;
#X obj 64 125 / 10000;
#X obj 64 48 inlet;
#X obj 181 150 inlet;
#X obj 64 247 outlet;
#X connect 0 0 5 0;
#X connect 1 0 4 0;
#X connect 2 0 9 0;
#X connect 3 0 2 0;
#X connect 4 0 3 0;
#X connect 5 0 6 0;
#X connect 6 0 1 0;
#X connect 7 0 0 0;
#X connect 8 0 4 1;
#X restore 813 323 pd prob-bang;
#X obj 642 202 * 13;
#X obj 690 203 * 14;
#X obj 741 203 * 15;
#X obj 591 719 s KICK;
#X obj 712 297 del;
#X obj 813 297 del;
#X obj 473 298 del;
#X obj 574 298 del;
#N canvas 121 121 275 332 prob-bang 0;
#X obj 64 73 bng 19 250 50 0 empty empty empty 0 -10 0 12 #fcfcfc #000000 #000000;
#X floatatom 64 149 5 0 0 0 - - - 0;
#X obj 64 223 bng 19 250 50 0 empty empty empty 0 -10 0 12 #fcfcfc #000000 #000000;
#X obj 64 198 sel 1;
#X obj 64 174 expr if($f1 < $f2 \, 1 \, 0);
#X obj 64 101 random 10000;
#X obj 64 125 / 10000;
#X obj 64 48 inlet;
#X obj 181 150 inlet;
#X obj 64 247 outlet;
#X connect 0 0 5 0;
#X connect 1 0 4 0;
#X connect 2 0 9 0;
#X connect 3 0 2 0;
#X connect 4 0 3 0;
#X connect 5 0 6 0;
#X connect 6 0 1 0;
#X connect 7 0 0 0;
#X connect 8 0 4 1;
#X restore 474 389 pd prob-bang;
#N canvas 121 121 275 332 prob-bang 0;
#X obj 64 73 bng 19 250 50 0 empty empty empty 0 -10 0 12 #fcfcfc #000000 #000000;
#X floatatom 64 149 5 0 0 0 - - - 0;
#X obj 64 223 bng 19 250 50 0 empty empty empty 0 -10 0 12 #fcfcfc #000000 #000000;
#X obj 64 198 sel 1;
#X obj 64 174 expr if($f1 < $f2 \, 1 \, 0);
#X obj 64 101 random 10000;
#X obj 64 125 / 10000;
#X obj 64 48 inlet;
#X obj 181 150 inlet;
#X obj 64 247 outlet;
#X connect 0 0 5 0;
#X connect 1 0 4 0;
#X connect 2 0 9 0;
#X connect 3 0 2 0;
#X connect 4 0 3 0;
#X connect 5 0 6 0;
#X connect 6 0 1 0;
#X connect 7 0 0 0;
#X connect 8 0 4 1;
#X restore 575 389 pd prob-bang;
#X obj 473 355 del;
#X obj 574 355 del;
#X obj 369 356 / 2;
#N canvas 121 121 275 332 prob-bang 0;
#X obj 64 73 bng 19 250 50 0 empty empty empty 0 -10 0 12 #fcfcfc #000000 #000000;
#X floatatom 64 149 5 0 0 0 - - - 0;
#X obj 64 223 bng 19 250 50 0 empty empty empty 0 -10 0 12 #fcfcfc #000000 #000000;
#X obj 64 198 sel 1;
#X obj 64 174 expr if($f1 < $f2 \, 1 \, 0);
#X obj 64 101 random 10000;
#X obj 64 125 / 10000;
#X obj 64 48 inlet;
#X obj 181 150 inlet;
#X obj 64 247 outlet;
#X connect 0 0 5 0;
#X connect 1 0 4 0;
#X connect 2 0 9 0;
#X connect 3 0 2 0;
#X connect 4 0 3 0;
#X connect 5 0 6 0;
#X connect 6 0 1 0;
#X connect 7 0 0 0;
#X connect 8 0 4 1;
#X restore 712 388 pd prob-bang;
#N canvas 121 121 275 332 prob-bang 0;
#X obj 64 73 bng 19 250 50 0 empty empty empty 0 -10 0 12 #fcfcfc #000000 #000000;
#X floatatom 64 149 5 0 0 0 - - - 0;
#X obj 64 223 bng 19 250 50 0 empty empty empty 0 -10 0 12 #fcfcfc #000000 #000000;
#X obj 64 198 sel 1;
#X obj 64 174 expr if($f1 < $f2 \, 1 \, 0);
#X obj 64 101 random 10000;
#X obj 64 125 / 10000;
#X obj 64 48 inlet;
#X obj 181 150 inlet;
#X obj 64 247 outlet;
#X connect 0 0 5 0;
#X connect 1 0 4 0;
#X connect 2 0 9 0;
#X connect 3 0 2 0;
#X connect 4 0 3 0;
#X connect 5 0 6 0;
#X connect 6 0 1 0;
#X connect 7 0 0 0;
#X connect 8 0 4 1;
#X restore 813 388 pd prob-bang;
#X obj 711 354 del;
#X obj 812 354 del;
#X obj 321 31 hsl 162 19 1000 15000 0 0 empty empty tempo -2 -10 0 12 #fcfcfc #000000 #000000 0 1;
#X obj 519 32 hsl 162 19 0 1 0 0 empty empty randomness -2 -10 0 12 #fcfcfc #000000 #000000 0 1;
#X obj 234 527 vline~;
#X obj 204 666 *~;
#X obj 204 697 *~;
#X obj 431 565 tgl 19 0 empty empty empty 0 -10 0 12 #fcfcfc #000000 #000000 0 1;
#X floatatom 98 477 5 0 0 0 - - - 0;
#X floatatom 282 383 5 0 0 0 - - - 0;
#X obj 234 555 *~;
#X msg 431 530 1;
#X obj 167 742 throw~ L-bus;
#X obj 283 742 throw~ R-bus;
#X msg 431 589 \$1 20;
#X obj 431 613 line~;
#X msg 457 171 16;
#X msg 497 172 32;
#X obj 429 106 random 4;
#X obj 429 130 sel 0 1 2 3;
#X obj 309 130 + 200;
#X obj 699 566 / 2;
#X obj 681 591 del;
#N canvas 121 121 275 332 prob-bang 0;
#X obj 64 73 bng 19 250 50 0 empty empty empty 0 -10 0 12 #fcfcfc #000000 #000000;
#X floatatom 64 149 5 0 0 0 - - - 0;
#X obj 64 223 bng 19 250 50 0 empty empty empty 0 -10 0 12 #fcfcfc #000000 #000000;
#X obj 64 198 sel 1;
#X obj 64 174 expr if($f1 < $f2 \, 1 \, 0);
#X obj 64 101 random 10000;
#X obj 64 125 / 10000;
#X obj 64 48 inlet;
#X obj 181 150 inlet;
#X obj 64 247 outlet;
#X connect 0 0 5 0;
#X connect 1 0 4 0;
#X connect 2 0 9 0;
#X connect 3 0 2 0;
#X connect 4 0 3 0;
#X connect 5 0 6 0;
#X connect 6 0 1 0;
#X connect 7 0 0 0;
#X connect 8 0 4 1;
#X restore 681 617 pd prob-bang;
#X text 587 258 RANDOMIZED RATCHETING;
#X obj 258 101 + 50;
#X obj 258 77 / 10;
#X obj 756 722 s SNARE;
#X obj 910 715 s CRASH;
#X obj 129 517 phase-synth~;
#X msg 100 433 25;
#X msg 134 432 40;
#X msg 168 431 50;
#X msg 63 433 15;
#X obj 270 608 *~ 10000;
#X obj 845 584 / 4;
#X obj 917 614 * 3;
#X obj 922 643 del;
#N canvas 121 121 275 332 prob-bang 0;
#X obj 64 73 bng 19 250 50 0 empty empty empty 0 -10 0 12 #fcfcfc #000000 #000000;
#X floatatom 64 149 5 0 0 0 - - - 0;
#X obj 64 223 bng 19 250 50 0 empty empty empty 0 -10 0 12 #fcfcfc #000000 #000000;
#X obj 64 198 sel 1;
#X obj 64 174 expr if($f1 < $f2 \, 1 \, 0);
#X obj 64 101 random 10000;
#X obj 64 125 / 10000;
#X obj 64 48 inlet;
#X obj 181 150 inlet;
#X obj 64 247 outlet;
#X connect 0 0 5 0;
#X connect 1 0 4 0;
#X connect 2 0 9 0;
#X connect 3 0 2 0;
#X connect 4 0 3 0;
#X connect 5 0 6 0;
#X connect 6 0 1 0;
#X connect 7 0 0 0;
#X connect 8 0 4 1;
#X restore 922 669 pd prob-bang;
#X obj 824 645 del;
#N canvas 121 121 275 332 prob-bang 0;
#X obj 64 73 bng 19 250 50 0 empty empty empty 0 -10 0 12 #fcfcfc #000000 #000000;
#X floatatom 64 149 5 0 0 0 - - - 0;
#X obj 64 223 bng 19 250 50 0 empty empty empty 0 -10 0 12 #fcfcfc #000000 #000000;
#X obj 64 198 sel 1;
#X obj 64 174 expr if($f1 < $f2 \, 1 \, 0);
#X obj 64 101 random 10000;
#X obj 64 125 / 10000;
#X obj 64 48 inlet;
#X obj 181 150 inlet;
#X obj 64 247 outlet;
#X connect 0 0 5 0;
#X connect 1 0 4 0;
#X connect 2 0 9 0;
#X connect 3 0 2 0;
#X connect 4 0 3 0;
#X connect 5 0 6 0;
#X connect 6 0 1 0;
#X connect 7 0 0 0;
#X connect 8 0 4 1;
#X restore 824 671 pd prob-bang;
#X obj 224 355 + 1;
#X obj 224 331 random 5;
#X obj 234 579 *~;
#X obj 133 552 *~ 0.2;
#X obj 63 520 osc~;
#X msg 539 172 64;
#X msg 416 171 8;
#X obj 41 595 noise~;
#X obj 41 619 lop~ 500;
#X obj 927 479 s HIHAT;
#X obj 730 28 r spsm-GLOBAL-PROBABILITY;
#X obj 62 44 r global-tempo;
#X obj 62 68 * 14000;
#X obj 62 92 + 1000;
#X obj 234 607 *~;
#X obj 53 147 r spsm-START;
#X obj 50 207 tgl 19 0 empty empty empty 0 -10 0 12 #fcfcfc #000000 #000000 0 1;
#X obj 50 231 metro 5000;
#X obj 175 247 sel 1;
#X msg 175 271 0;
#X obj 221 247 sel 1;
#X msg 221 271 0;
#X obj 50 183 r spsm-random;
#X obj 1243 277 osc~;
#X obj 1141 319 *~;
#X obj 1073 266 osc~;
#X msg 1044 224 50;
#X msg 1093 224 15;
#X obj 1081 181 bng 19 250 50 0 empty empty empty 0 -10 0 12 #fcfcfc #000000 #000000;
#X obj 1190 175 bng 19 250 50 0 empty empty empty 0 -10 0 12 #fcfcfc #000000 #000000;
#X msg 1158 218 50;
#X msg 1207 218 25;
#X obj 1303 175 bng 19 250 50 0 empty empty empty 0 -10 0 12 #fcfcfc #000000 #000000;
#X msg 1320 218 25;
#X msg 1271 218 75;
#X obj 69 398 sel 0 1 2;
#X obj 69 374 random 3;
#X obj 41 643 *~ 0.05;
#X msg 242 498 1 \$1;
#X obj 240 456 t b f f;
#X obj 291 498 del 1000;
#X obj 344 473 - 5;
#X msg 291 526 0 2;
#X obj 1140 355 *~ 3;
#X obj 1140 392 vcf~ 2;
#X connect 0 0 1 0;
#X connect 0 0 48 0;
#X connect 0 0 102 0;
#X connect 1 0 3 0;
#X connect 1 0 7 0;
#X connect 1 0 32 0;
#X connect 1 0 33 0;
#X connect 1 0 30 0;
#X connect 1 0 31 0;
#X connect 1 0 59 0;
#X connect 2 0 8 0;
#X connect 2 0 50 0;
#X connect 2 0 62 0;
#X connect 2 0 76 0;
#X connect 3 0 61 0;
#X connect 4 0 36 0;
#X connect 4 0 91 0;
#X connect 4 0 48 0;
#X connect 5 0 4 1;
#X connect 5 0 6 1;
#X connect 5 0 24 1;
#X connect 5 0 25 1;
#X connect 5 0 34 1;
#X connect 5 0 35 1;
#X connect 5 0 40 1;
#X connect 5 0 39 1;
#X connect 5 0 64 1;
#X connect 5 0 81 1;
#X connect 5 0 79 1;
#X connect 6 0 41 0;
#X connect 6 0 91 0;
#X connect 7 0 52 0;
#X connect 7 0 63 0;
#X connect 7 0 83 0;
#X connect 7 0 118 0;
#X connect 7 0 29 0;
#X connect 8 0 14 0;
#X connect 8 0 26 0;
#X connect 8 0 28 0;
#X connect 8 0 27 0;
#X connect 8 0 38 0;
#X connect 9 0 10 0;
#X connect 9 0 8 1;
#X connect 10 0 11 0;
#X connect 10 0 17 0;
#X connect 10 0 23 0;
#X connect 10 0 22 0;
#X connect 11 0 12 0;
#X connect 12 0 13 0;
#X connect 13 0 14 1;
#X connect 14 0 32 1;
#X connect 15 0 16 0;
#X connect 16 0 26 1;
#X connect 17 0 15 0;
#X connect 18 0 19 0;
#X connect 19 0 27 1;
#X connect 20 0 21 0;
#X connect 21 0 28 1;
#X connect 22 0 18 0;
#X connect 23 0 20 0;
#X connect 24 0 37 0;
#X connect 24 0 68 0;
#X connect 25 0 42 0;
#X connect 25 0 68 0;
#X connect 26 0 30 1;
#X connect 27 0 33 1;
#X connect 28 0 31 1;
#X connect 30 0 6 0;
#X connect 31 0 25 0;
#X connect 32 0 4 0;
#X connect 33 0 24 0;
#X connect 34 0 91 0;
#X connect 35 0 48 0;
#X connect 35 0 68 0;
#X connect 36 0 34 0;
#X connect 37 0 35 0;
#X connect 38 0 37 1;
#X connect 38 0 36 1;
#X connect 38 0 41 1;
#X connect 38 0 42 1;
#X connect 39 0 91 0;
#X connect 40 0 48 0;
#X connect 40 0 68 0;
#X connect 41 0 39 0;
#X connect 42 0 40 0;
#X connect 43 0 3 1;
#X connect 43 0 67 0;
#X connect 44 0 5 0;
#X connect 45 0 51 0;
#X connect 45 0 51 1;
#X connect 46 0 47 0;
#X connect 47 0 53 0;
#X connect 47 0 54 0;
#X connect 48 0 55 0;
#X connect 49 0 70 0;
#X connect 49 0 86 0;
#X connect 50 0 121 0;
#X connect 51 0 84 0;
#X connect 51 0 84 1;
#X connect 51 0 96 1;
#X connect 52 0 48 0;
#X connect 55 0 56 0;
#X connect 56 0 47 1;
#X connect 58 0 9 0;
#X connect 59 0 60 0;
#X connect 60 0 88 0;
#X connect 60 1 57 0;
#X connect 60 2 58 0;
#X connect 60 3 87 0;
#X connect 61 0 1 1;
#X connect 61 0 2 0;
#X connect 62 0 63 1;
#X connect 63 0 64 0;
#X connect 64 0 80 0;
#X connect 64 0 78 0;
#X connect 64 0 118 0;
#X connect 66 0 61 1;
#X connect 67 0 66 0;
#X connect 70 0 85 0;
#X connect 70 1 85 0;
#X connect 71 0 49 0;
#X connect 72 0 49 0;
#X connect 73 0 49 0;
#X connect 74 0 49 0;
#X connect 75 0 70 2;
#X connect 75 0 126 1;
#X connect 76 0 77 0;
#X connect 76 0 80 1;
#X connect 77 0 78 1;
#X connect 78 0 79 0;
#X connect 80 0 81 0;
#X connect 82 0 70 3;
#X connect 83 0 82 0;
#X connect 84 0 96 0;
#X connect 87 0 9 0;
#X connect 89 0 90 0;
#X connect 90 0 119 0;
#X connect 92 0 44 0;
#X connect 93 0 94 0;
#X connect 94 0 95 0;
#X connect 95 0 43 0;
#X connect 96 0 75 0;
#X connect 96 0 46 1;
#X connect 97 0 0 0;
#X connect 98 0 99 0;
#X connect 98 0 100 0;
#X connect 99 0 29 0;
#X connect 100 0 101 0;
#X connect 101 0 0 0;
#X connect 102 0 103 0;
#X connect 103 0 98 0;
#X connect 104 0 98 0;
#X connect 105 0 106 1;
#X connect 106 0 125 0;
#X connect 107 0 106 0;
#X connect 108 0 107 0;
#X connect 109 0 105 0;
#X connect 110 0 108 0;
#X connect 110 0 109 0;
#X connect 111 0 112 0;
#X connect 111 0 113 0;
#X connect 112 0 107 0;
#X connect 113 0 105 0;
#X connect 114 0 116 0;
#X connect 114 0 115 0;
#X connect 115 0 105 0;
#X connect 116 0 107 0;
#X connect 117 0 74 0;
#X connect 117 0 110 0;
#X connect 117 1 71 0;
#X connect 117 1 111 0;
#X connect 117 2 72 0;
#X connect 117 2 114 0;
#X connect 117 3 73 0;
#X connect 118 0 117 0;
#X connect 119 0 46 0;
#X connect 120 0 45 0;
#X connect 121 0 122 0;
#X connect 121 1 120 0;
#X connect 121 2 123 0;
#X connect 122 0 124 0;
#X connect 123 0 122 1;
#X connect 124 0 45 0;
#X connect 125 0 126 0;
#X connect 126 1 46 0;
