#N canvas 2 2 1440 872 12;
#X obj 1059 338 vline~;
#X obj 568 726 *~;
#X floatatom 1065 240 5 0 0 0 - - - 0;
#X obj 1059 366 *~;
#X obj 579 610 *~ 10000;
#X obj 1059 390 *~;
#X obj 1059 418 *~;
#X msg 1067 309 1 \$1;
#X obj 1065 267 t b f f;
#X obj 1116 309 del 1000;
#X obj 1169 284 - 5;
#X msg 1116 337 0 2;
#X obj 425 487 *~;
#X msg 235 279 50;
#X msg 284 279 15;
#X obj 272 236 bng 19 250 50 0 empty empty empty 0 -10 0 12 #fcfcfc #000000 #000000;
#X obj 381 233 bng 19 250 50 0 empty empty empty 0 -10 0 12 #fcfcfc #000000 #000000;
#X msg 349 276 50;
#X msg 398 276 25;
#X obj 494 233 bng 19 250 50 0 empty empty empty 0 -10 0 12 #fcfcfc #000000 #000000;
#X msg 511 276 25;
#X msg 462 276 75;
#X obj 516 609 *~ 3;
#X obj 538 121 bng 19 250 50 0 empty empty empty 0 -10 0 12 #fcfcfc #000000 #000000;
#X msg 1065 216 6000;
#X obj 561 775 dac~;
#X obj 161 513 noise~;
#X obj 161 537 lop~ 500;
#X obj 161 561 *~ 0.05;
#X obj 358 127 f;
#X obj 406 126 + 1;
#X floatatom 358 151 5 0 0 0 - - - 0;
#X obj 303 31 tgl 19 0 empty empty empty 0 -10 0 12 #fcfcfc #000000 #000000 0 1;
#X obj 303 55 metro 6200;
#X obj 396 357 bl-tri.mmb~;
#X obj 287 358 bl-tri.mmb~;
#X obj 535 679 vcf~ 2;
#X obj 151 357 bl-tri.mmb~;
#X obj 594 231 bng 19 250 50 0 empty empty empty 0 -10 0 12 #fcfcfc #000000 #000000;
#X msg 562 274 100;
#X msg 611 274 50;
#X obj 406 150 % 4;
#X obj 361 197 sel 0 1 2 3;
#X msg 151 281 15;
#X connect 0 0 3 0;
#X connect 0 0 3 1;
#X connect 1 0 25 0;
#X connect 1 0 25 1;
#X connect 2 0 8 0;
#X connect 3 0 5 0;
#X connect 3 0 5 1;
#X connect 3 0 6 1;
#X connect 4 0 36 1;
#X connect 5 0 6 0;
#X connect 6 0 4 0;
#X connect 6 0 1 1;
#X connect 7 0 0 0;
#X connect 8 0 9 0;
#X connect 8 1 7 0;
#X connect 8 2 10 0;
#X connect 9 0 11 0;
#X connect 10 0 9 1;
#X connect 11 0 0 0;
#X connect 12 0 22 0;
#X connect 13 0 35 0;
#X connect 14 0 34 0;
#X connect 15 0 13 0;
#X connect 15 0 14 0;
#X connect 15 0 43 0;
#X connect 16 0 17 0;
#X connect 16 0 18 0;
#X connect 16 0 43 0;
#X connect 17 0 35 0;
#X connect 18 0 34 0;
#X connect 19 0 21 0;
#X connect 19 0 20 0;
#X connect 19 0 43 0;
#X connect 20 0 34 0;
#X connect 21 0 35 0;
#X connect 22 0 36 0;
#X connect 23 0 24 0;
#X connect 24 0 2 0;
#X connect 26 0 27 0;
#X connect 27 0 28 0;
#X connect 28 0 1 0;
#X connect 29 0 30 0;
#X connect 29 0 31 0;
#X connect 30 0 41 0;
#X connect 31 0 42 0;
#X connect 32 0 33 0;
#X connect 33 0 29 0;
#X connect 33 0 23 0;
#X connect 34 0 12 1;
#X connect 35 0 12 0;
#X connect 36 1 1 0;
#X connect 37 0 22 0;
#X connect 38 0 39 0;
#X connect 38 0 40 0;
#X connect 38 0 43 0;
#X connect 39 0 35 0;
#X connect 40 0 34 0;
#X connect 41 0 29 1;
#X connect 42 0 15 0;
#X connect 42 1 16 0;
#X connect 42 2 19 0;
#X connect 42 3 38 0;
#X connect 43 0 37 0;
